<?xml version="1.0" encoding="UTF-8" standalone="no"?>
<svg
   width="65.856339"
   height="65.856339"
   viewBox="0 0 65.856339 65.856339"
   fill="none"
   version="1.1"
   id="svg2"
   xmlns="http://www.w3.org/2000/svg"
   xmlns:svg="http://www.w3.org/2000/svg">
  <defs
     id="defs2" />
  <rect
     style="opacity:0.557199;fill:#000000;fill-opacity:0;stroke-width:12.7294;stroke-linecap:round;paint-order:markers stroke fill"
     id="rect2"
     width="65.856339"
     height="65.856339"
     x="-65.856339"
     y="-4.6702358e-08"
     transform="rotate(-90)" />
  <path
     d="m 8.7473101,41.058279 c 0,0 2.9156699,-2.9157 11.6626199,-2.9157 8.747,0 14.5784,5.8314 23.3253,5.8314 8.747,0 11.6627,-2.9157 11.6627,-2.9157 V 6.0703287 c 0,0 -2.9157,2.91566 -11.6627,2.91566 -8.7469,0 -14.5783,-5.83133 -23.3253,-5.83133 -8.74695,0 -11.6626199,2.91567 -11.6626199,2.91567 z"
     fill="#ff5b5b"
     id="path1" />
  <path
     d="m 8.7473101,41.058279 c 0,0 2.9156699,-2.9157 11.6626199,-2.9157 8.747,0 14.5784,5.8314 23.3253,5.8314 8.747,0 11.6627,-2.9157 11.6627,-2.9157 V 6.0703287 c 0,0 -2.9157,2.91566 -11.6627,2.91566 -8.7469,0 -14.5783,-5.83133 -23.3253,-5.83133 -8.74695,0 -11.6626199,2.91567 -11.6626199,2.91567 z m 0,0 v 20.4096"
     stroke="#333333"
     stroke-width="5.16626"
     stroke-linecap="round"
     stroke-linejoin="round"
     id="path2" />
</svg>
