<svg width="140" height="140" viewBox="0 0 140 140" fill="none" xmlns="http://www.w3.org/2000/svg">
<rect width="139.977" height="139.977" rx="25.7852" fill="#3DAEEF"/>
<path d="M96.0126 55.8899C96.0126 57.854 95.6537 59.6481 94.9361 61.2723C94.2562 62.8964 93.3686 64.3884 92.2732 65.7482C91.1778 67.1079 89.9503 68.3544 88.5905 69.4875C87.2685 70.6206 85.9654 71.6594 84.6812 72.6036C83.4347 73.5479 82.2638 74.4355 81.1684 75.2665C80.1109 76.0597 79.3177 76.8151 78.7889 77.5328C78.5622 77.835 78.2978 78.3071 77.9957 78.9492C77.6935 79.5535 77.5424 80.2523 77.5424 81.0455C77.5424 83.0852 76.9003 84.766 75.6161 86.088C74.3696 87.41 72.4055 88.071 69.7238 88.071C68.0996 88.071 66.7587 87.8255 65.7011 87.3344C64.6813 86.8056 63.8503 86.1635 63.2082 85.4081C62.6039 84.6527 62.1695 83.8406 61.9051 82.9718C61.6785 82.1031 61.5652 81.3099 61.5652 80.5923C61.5652 78.0238 61.9995 75.8709 62.8683 74.1334C63.737 72.3959 64.8324 70.9039 66.1544 69.6575C67.4764 68.3733 68.8928 67.259 70.4036 66.3147C71.9145 65.3704 73.3309 64.3884 74.6529 63.3686C75.9749 62.3487 77.0703 61.2156 77.939 59.9692C78.8077 58.6849 79.2421 57.0985 79.2421 55.21C79.2421 53.2459 78.9022 51.6972 78.2223 50.5641C77.5802 49.431 76.7681 48.6 75.786 48.0712C74.8418 47.5046 73.8408 47.1647 72.7832 47.0514C71.7634 46.9003 70.8947 46.8248 70.177 46.8248C68.2884 46.8248 66.7776 47.108 65.6445 47.6746C64.5113 48.2034 63.6426 48.8833 63.0382 49.7143C62.4717 50.5452 62.094 51.4706 61.9051 52.4904C61.754 53.4725 61.6785 54.4168 61.6785 55.3233C61.6785 56.7964 61.3952 58.0617 60.8286 59.1193C60.2621 60.1391 59.5444 60.9701 58.6757 61.6122C57.8447 62.2543 56.9193 62.7265 55.8995 63.0286C54.9174 63.3308 54.0109 63.4819 53.1799 63.4819C50.6115 63.4819 48.5341 62.7831 46.9477 61.3856C45.3613 59.9503 44.5681 58.1184 44.5681 55.8899C44.5681 54.9078 44.6814 53.6425 44.908 52.0938C45.1347 50.5452 45.569 48.9022 46.2111 47.1647C46.8533 45.4272 47.7598 43.6897 48.9307 41.9523C50.1016 40.2148 51.6313 38.6473 53.5199 37.2497C55.4084 35.8522 57.7125 34.7191 60.432 33.8503C63.1516 32.9816 66.3999 32.5472 70.177 32.5472C74.4452 32.5472 78.1845 33.1327 81.3951 34.3036C84.6434 35.4367 87.344 37.042 89.497 39.1194C91.65 41.1591 93.2741 43.6142 94.3695 46.4848C95.4649 49.3177 96.0126 52.4527 96.0126 55.8899ZM79.4687 103.595C79.4687 106.806 78.6567 109.185 77.0325 110.734C75.4083 112.245 73.1232 113 70.177 113C67.1553 113 64.8324 112.245 63.2082 110.734C61.5841 109.185 60.772 106.806 60.772 103.595C60.772 100.347 61.5841 97.9859 63.2082 96.5128C64.8324 95.0398 67.1553 94.3032 70.177 94.3032C73.312 94.3032 75.635 95.0398 77.1458 96.5128C78.6944 97.9859 79.4687 100.347 79.4687 103.595Z" fill="#434343"/>
</svg>
