<svg width="140" height="140" viewBox="0 0 140 140" fill="none" xmlns="http://www.w3.org/2000/svg">
<rect width="139.977" height="139.977" rx="25.7852" fill="#596A82"/>
<g clip-path="url(#clip0_239_1547)">
<path d="M40.5674 30.2248C40.5674 29.5379 40.8403 28.8791 41.326 28.3934C41.8118 27.9076 42.4706 27.6348 43.1575 27.6348H94.9583C95.6452 27.6348 96.304 27.9076 96.7897 28.3934C97.2754 28.8791 97.5483 29.5379 97.5483 30.2248C97.5483 33.0117 97.4861 35.6639 97.3722 38.1814C99.419 38.5203 101.377 39.2657 103.131 40.3735C104.886 41.4813 106.4 42.9292 107.586 44.6317C108.771 46.3342 109.604 48.2569 110.035 50.2864C110.466 52.3158 110.486 54.411 110.094 56.4484C109.702 58.4857 108.906 60.424 107.753 62.1488C106.6 63.8736 105.114 65.3502 103.381 66.4913C101.648 67.6324 99.7046 68.4151 97.6646 68.793C95.6246 69.171 93.5296 69.1367 91.5032 68.6921C87.4109 78.3529 81.775 83.0772 76.828 84.2893V95.5456L84.2096 97.3897C85.2145 97.6384 86.1625 98.089 86.9913 98.7106L96.5123 105.854C96.9472 106.18 97.2684 106.635 97.4305 107.154C97.5926 107.673 97.5873 108.229 97.4154 108.745C97.2435 109.261 96.9137 109.709 96.4727 110.027C96.0317 110.345 95.5019 110.516 94.9583 110.516H43.1575C42.6139 110.516 42.084 110.345 41.6431 110.027C41.2021 109.709 40.8723 109.261 40.7003 108.745C40.5284 108.229 40.5232 107.673 40.6852 107.154C40.8473 106.635 41.1686 106.18 41.6035 105.854L51.1244 98.7106C51.9532 98.089 52.9012 97.6384 53.9061 97.3897L61.2878 95.5456V84.2893C56.3408 83.0772 50.7049 78.3529 46.6126 68.6869C44.585 69.1339 42.4885 69.1701 40.4467 68.7933C38.4049 68.4165 36.4594 67.6344 34.7249 66.4932C32.9904 65.352 31.5022 63.8747 30.3482 62.1488C29.1942 60.4228 28.3977 58.483 28.0059 56.4441C27.614 54.4052 27.6347 52.3084 28.0667 50.2776C28.4987 48.2468 29.3333 46.3231 30.5211 44.6203C31.709 42.9174 33.226 41.4698 34.9827 40.363C36.7393 39.2562 38.6999 38.5127 40.7487 38.1762C40.6268 35.5275 40.5663 32.8763 40.5674 30.2248ZM41.0803 43.3822C38.3772 43.8768 35.9814 45.4249 34.4198 47.686C32.8582 49.947 32.2587 52.7358 32.7533 55.4388C33.2479 58.1419 34.796 60.5377 37.057 62.0993C39.3181 63.661 42.1069 64.2604 44.8099 63.7658C43.085 58.3267 41.764 51.6134 41.0803 43.3822ZM93.311 63.7658C96.014 64.2604 98.8028 63.661 101.064 62.0993C103.325 60.5377 104.873 58.1419 105.368 55.4388C105.862 52.7358 105.263 49.947 103.701 47.686C102.14 45.4249 99.7437 43.8768 97.0407 43.3822C96.3517 51.6185 95.0308 58.3267 93.311 63.7658Z" fill="#F3B43F"/>
</g>
<defs>
<clipPath id="clip0_239_1547">
<rect width="82.8813" height="82.8813" fill="white" transform="translate(27.6191 27.6348)"/>
</clipPath>
</defs>
</svg>
