<svg width="140" height="140" viewBox="0 0 140 140" fill="none" xmlns="http://www.w3.org/2000/svg">
<rect width="139.977" height="139.977" rx="25.7852" fill="#88A6CE"/>
<path d="M25.7832 82.8883V57.103C25.7832 56.0858 26.6078 55.2612 27.625 55.2612H44.7831C45.2013 55.2612 45.6071 55.1188 45.9336 54.8576L66.9942 38.0091C68.2001 37.0444 69.9865 37.903 69.9865 39.4473V100.544C69.9865 102.088 68.2001 102.947 66.9942 101.982L45.9336 85.1337C45.6071 84.8724 45.2013 84.7301 44.7831 84.7301H27.625C26.6078 84.7301 25.7832 83.9055 25.7832 82.8883Z" fill="#434343" stroke="#434343" stroke-width="9.20903" stroke-linecap="round" stroke-linejoin="round"/>
<path d="M88.7996 85.7782C92.3027 81.6032 94.3176 76.3816 94.5268 70.9357C94.736 65.4897 93.1277 60.1289 89.9552 55.6975" stroke="#434343" stroke-width="9.20903" stroke-linecap="round" stroke-linejoin="round"/>
<path d="M103.848 98.4077C110.46 90.528 114.117 80.589 114.188 70.303C114.26 60.0169 110.742 50.0279 104.241 42.0566" stroke="#434343" stroke-width="9.20903" stroke-linecap="round" stroke-linejoin="round"/>
</svg>
