<?xml version="1.0" encoding="UTF-8" standalone="no"?>
<svg
   width="30.682884"
   height="35.066139"
   fill="none"
   viewBox="0 0 30.682884 35.066139"
   data-fpl-icon-size="24L"
   version="1.1"
   id="svg4"
   xmlns="http://www.w3.org/2000/svg"
   xmlns:svg="http://www.w3.org/2000/svg">
  <defs
     id="defs8" />
  <g
     id="g3"
     transform="translate(-67.579704,4.287818)">
    <path
       style="fill:#ffffff;fill-opacity:1;stroke:#ffffff;stroke-width:0.3;stroke-linecap:round;stroke-linejoin:round;stroke-dasharray:none;stroke-opacity:1;paint-order:markers stroke fill"
       d="M 79.15625,27.34867 C 79.053125,27.30251 78.88126,27.170012 78.774329,27.054242 78.469639,26.724364 71.120597,16.373696 70.99231,16.09375 c -0.508684,-1.110038 0.986433,-2.265475 1.874932,-1.448962 0.08167,0.07505 0.580728,0.741149 1.109016,1.480212 1.178509,1.648707 1.076082,1.520086 1.337347,1.679355 0.514115,0.313408 1.295735,0.08818 1.555392,-0.448204 L 77,17.085534 77.0014,8.5583925 c 0.0013,-8.16662719 0.0063,-8.53771213 0.117119,-8.7771425 0.134721,-0.2909838 0.401064,-0.55776511 0.651203,-0.65227385 0.506063,-0.19120415 1.180388,0.01636 1.468805,0.45211348 L 79.40625,-0.16546431 79.4375,6.248185 c 0.03448,7.077497 6.64e-4,6.515559 0.415287,6.900019 0.286654,0.265801 0.963617,0.365597 1.489553,0.219585 0.318594,-0.08845 0.687,-0.456855 0.775449,-0.775448 0.04079,-0.146939 0.06916,-0.81806 0.06936,-1.641224 3.89e-4,-1.5539133 0.02315,-1.6685583 0.396253,-1.9961489 0.44303,-0.3889856 1.05824,-0.4229237 1.525869,-0.084176 0.450314,0.3262062 0.480384,0.4558169 0.515727,2.2229579 0.03476,1.737849 0.05952,1.845594 0.490908,2.136309 0.390315,0.263033 1.318506,0.262242 1.705792,-0.0015 0.432987,-0.294814 0.456049,-0.370674 0.493597,-1.623671 0.03583,-1.195577 0.05821,-1.295508 0.364215,-1.6261374 0.238927,-0.2581544 0.494122,-0.3709288 0.850116,-0.3756806 0.395507,-0.00528 0.743778,0.1625306 0.997607,0.480683 l 0.191515,0.240048 0.03445,1.134952 c 0.0377,1.241966 0.07459,1.385184 0.434898,1.688364 0.256886,0.216156 0.635983,0.310804 1.097961,0.274125 0.754626,-0.05991 1.120314,-0.39754 1.213346,-1.120234 0.02795,-0.217141 0.07222,-0.451052 0.09838,-0.519802 0.333716,-0.877155 1.610888,-1.000608 2.136521,-0.206519 l 0.171945,0.259763 0.01728,3.17409 0.01728,3.174091 -0.972394,4.236787 c -1.063399,4.633299 -1.047156,4.582684 -1.564761,4.875854 l -0.2474,0.140128 -6.40625,-0.0014 c -5.224493,-0.0012 -6.440838,-0.0169 -6.59375,-0.08536 z m 2.283749,-3.242591 c 0.18602,-0.09837 0.31771,-0.23006 0.41608,-0.41608 L 82,23.417839 81.9986,19.849545 c -0.0013,-3.32676 -0.0091,-3.585393 -0.116106,-3.820881 -0.0631,-0.138922 -0.205269,-0.328765 -0.315923,-0.421875 -0.184278,-0.15506 -0.245942,-0.169289 -0.733625,-0.169289 -0.607103,0 -0.783213,0.07283 -1.02333,0.423181 l -0.153393,0.223815 -0.01706,3.663955 -0.01706,3.663955 0.144796,0.278172 c 0.27848,0.534995 1.073666,0.732476 1.673076,0.415501 z m 5.080551,0.05867 c 0.265649,-0.110994 0.521694,-0.419917 0.605259,-0.730252 0.04447,-0.165144 0.06059,-1.41539 0.04852,-3.762783 L 87.15625,16.15625 87.006548,15.915436 c -0.234818,-0.377734 -0.452737,-0.47743 -1.044181,-0.477702 -0.595582,-2.75e-4 -0.837192,0.121835 -1.05068,0.531016 -0.126882,0.243186 -0.130933,0.342663 -0.148615,3.649672 -0.01202,2.247234 0.0045,3.509115 0.04885,3.722527 0.08066,0.388516 0.365275,0.759176 0.64512,0.840141 0.302091,0.0874 0.834811,0.07922 1.063512,-0.01634 z m 5.347945,-0.09762 c 0.108259,-0.07709 0.252448,-0.249169 0.32042,-0.382405 0.118919,-0.233101 0.123585,-0.379457 0.123585,-3.876852 v -3.634605 l -0.138245,-0.245972 c -0.229163,-0.407741 -0.455711,-0.505906 -1.108513,-0.480327 -0.48954,0.01918 -0.576046,0.04042 -0.725284,0.17803 -0.0932,0.08594 -0.22137,0.26875 -0.284831,0.40625 -0.107793,0.233557 -0.115472,0.481364 -0.116755,3.767632 -0.0015,3.793187 -0.0035,3.768333 0.329736,4.130109 0.230977,0.250786 0.470422,0.326055 0.957847,0.301096 0.335754,-0.01719 0.493597,-0.05726 0.64204,-0.162956 z"
       id="path3" />
    <path
       d="M 92.111081,7.9963605 C 90.776039,6.3000303 88.50317,5.808493 86.640762,6.6883623 85.604739,5.6139791 84.162715,5.148266 82.764652,5.3440003 V 0.30090918 c 0,-2.53023148 -2.036573,-4.58872728 -4.539828,-4.58872728 -2.503255,0 -4.539828,2.0584958 -4.539828,4.58872728 V 11.336403 c -1.363536,-0.507495 -2.963641,-0.348877 -4.251979,0.607632 -2.010481,1.492714 -2.451409,4.337592 -0.996509,6.379845 l 7.513132,10.54731 c 0.850829,1.194165 2.228064,1.907131 3.684061,1.907131 h 12.21055 c 2.109585,0 3.943157,-1.4725 4.421418,-3.547501 l 1.87857,-8.150066 a 4.6485235,4.6485235 0 0 0 0.118353,-1.041305 v -5.753038 c 0,-3.2082761 -3.193287,-5.4292906 -6.151511,-4.2900505 z M 73.126263,14.868222 74.984086,17.4762 c 0.61605,0.864733 1.988289,0.430592 1.988289,-0.635783 V 0.30090918 c 0,-1.72043198 2.504693,-1.72316948 2.504693,0 V 12.286411 c 0,0.605168 0.49059,1.095815 1.095815,1.095815 h 0.469626 c 0.605237,0 1.095816,-0.490647 1.095816,-1.095815 V 9.8893149 c 0,-1.7204321 2.504704,-1.7231697 2.504704,0 v 2.3970961 c 0,0.605168 0.490579,1.095815 1.095816,1.095815 h 0.469762 c 0.605225,0 1.095816,-0.490647 1.095816,-1.095815 v -1.43826 c 0,-1.7204321 2.504692,-1.7231701 2.504692,0 v 1.43826 c 0,0.605168 0.49058,1.095815 1.095816,1.095815 h 0.469626 c 0.605236,0 1.095816,-0.490647 1.095816,-1.095815 0,-1.720501 2.504692,-1.72317 2.504692,0 v 5.753038 c 0,0.101974 -0.01152,0.20389 -0.03433,0.302932 l -1.878639,8.150203 c -0.135475,0.587762 -0.636263,0.998291 -1.217865,0.998291 H 79.633746 c -0.395107,0 -0.771382,-0.197115 -1.006572,-0.52716 L 71.113156,16.416474 c -0.986646,-1.385037 1.026919,-2.932537 2.013153,-1.548252 z m 6.517236,8.239378 v -6.574895 c 0,-0.605236 0.429281,-1.095815 0.958836,-1.095815 h 0.410928 c 0.529555,0 0.958847,0.490579 0.958847,1.095815 V 23.1076 c 0,0.605237 -0.429292,1.095816 -0.958847,1.095816 h -0.410928 c -0.529624,0 -0.958836,-0.490579 -0.958836,-1.095816 z m 5.16595,0 v -6.574895 c 0,-0.605236 0.429292,-1.095815 0.958847,-1.095815 h 0.410928 c 0.529555,0 0.958836,0.490579 0.958836,1.095815 V 23.1076 c 0,0.605237 -0.429281,1.095816 -0.958836,1.095816 h -0.410928 c -0.529555,0 -0.958847,-0.490579 -0.958847,-1.095816 z m 5.166029,0 v -6.574895 c 0,-0.605236 0.429281,-1.095815 0.958836,-1.095815 h 0.410928 c 0.529555,0 0.958848,0.490579 0.958848,1.095815 V 23.1076 c 0,0.605237 -0.429293,1.095816 -0.958848,1.095816 h -0.410928 c -0.529555,0 -0.958836,-0.490579 -0.958836,-1.095816 z"
       id="path1"
       style="fill:#000000;fill-opacity:1;stroke:none;stroke-width:0;stroke-linecap:round;stroke-linejoin:round;stroke-dasharray:none;stroke-opacity:1;paint-order:markers stroke fill" />
  </g>
</svg>
