<?xml version="1.0" encoding="UTF-8" standalone="no"?>
<svg
   width="821.06775"
   height="821.06781"
   viewBox="0 0 821.06775 821.06781"
   fill="none"
   version="1.1"
   id="svg27"
   xml:space="preserve"
   xmlns="http://www.w3.org/2000/svg"
   xmlns:svg="http://www.w3.org/2000/svg"><rect
     style="fill:none;fill-opacity:1;stroke:#000000;stroke-width:3.20414;stroke-linecap:round;stroke-linejoin:round;stroke-opacity:0;paint-order:markers stroke fill"
     id="rect1"
     width="817.86365"
     height="817.86365"
     x="1.60207"
     y="1.6020699" /><path
     d="m 201.29988,124.69882 c 0,-13.707 0,-20.561 4.258,-24.819997 4.259,-4.258 11.113,-4.258 24.82,-4.258 h 48.742 v 77.819997 h -77.82 z"
     fill="#8d8d8d"
     id="path1"
     style="fill:#002a37;fill-opacity:1" /><rect
     x="282.48788"
     y="95.620819"
     width="77.82"
     height="77.82"
     fill="#8d8d8d"
     id="rect2"
     style="fill:#002a37;fill-opacity:1" /><rect
     x="363.6749"
     y="95.620819"
     width="77.82"
     height="77.82"
     fill="#8d8d8d"
     id="rect3"
     style="fill:#002a37;fill-opacity:1" /><rect
     x="444.85489"
     y="95.620819"
     width="77.82"
     height="77.82"
     fill="#8d8d8d"
     id="rect4"
     style="fill:#002a37;fill-opacity:1" /><path
     d="m 526.04188,95.620823 h 48.742 c 13.708,0 20.561,0 24.82,4.258 4.258,4.258997 4.258,11.112997 4.258,24.819997 v 48.742 h -77.82 z"
     fill="#8d8d8d"
     id="path4"
     style="fill:#002a37;fill-opacity:1" /><rect
     x="201.29988"
     y="176.80882"
     width="77.82"
     height="77.82"
     fill="#8d8d8d"
     id="rect5"
     style="fill:#002a37;fill-opacity:1" /><rect
     x="282.48788"
     y="176.80882"
     width="77.82"
     height="77.82"
     fill="#8d8d8d"
     id="rect6"
     style="fill:#002a37;fill-opacity:1" /><rect
     x="363.6749"
     y="176.80882"
     width="77.82"
     height="77.82"
     fill="#8d8d8d"
     id="rect7"
     style="fill:#002a37;fill-opacity:1" /><rect
     x="444.85489"
     y="176.80882"
     width="77.82"
     height="77.82"
     fill="#8d8d8d"
     id="rect8"
     style="fill:#002a37;fill-opacity:1" /><rect
     x="526.04187"
     y="176.80882"
     width="77.82"
     height="77.82"
     fill="#8d8d8d"
     id="rect9"
     style="fill:#002a37;fill-opacity:1" /><rect
     x="201.29988"
     y="257.99582"
     width="77.82"
     height="77.82"
     fill="#8d8d8d"
     id="rect10"
     style="fill:#002a37;fill-opacity:1" /><rect
     x="282.48788"
     y="257.99582"
     width="77.82"
     height="77.82"
     fill="#8d8d8d"
     id="rect11"
     style="fill:#002a37;fill-opacity:1" /><rect
     x="363.6749"
     y="257.99582"
     width="77.82"
     height="77.82"
     fill="#cccccc"
     id="rect12"
     style="fill:#80aebc;fill-opacity:1" /><rect
     x="444.85489"
     y="257.99582"
     width="77.82"
     height="77.82"
     fill="#8d8d8d"
     id="rect13"
     style="fill:#002a37;fill-opacity:1" /><rect
     x="526.04187"
     y="257.99582"
     width="77.82"
     height="77.82"
     fill="#8d8d8d"
     id="rect14"
     style="fill:#002a37;fill-opacity:1" /><rect
     x="201.29988"
     y="339.17581"
     width="77.82"
     height="77.82"
     fill="#8d8d8d"
     id="rect15"
     style="fill:#002a37;fill-opacity:1" /><rect
     x="282.48788"
     y="339.17581"
     width="77.82"
     height="77.82"
     fill="#8d8d8d"
     id="rect16"
     style="fill:#002a37;fill-opacity:1" /><rect
     x="363.6749"
     y="339.17581"
     width="77.82"
     height="77.82"
     fill="#8d8d8d"
     id="rect17"
     style="fill:#002a37;fill-opacity:1" /><rect
     x="444.85489"
     y="339.17581"
     width="77.82"
     height="77.82"
     fill="#8d8d8d"
     id="rect18"
     style="fill:#002a37;fill-opacity:1" /><rect
     x="526.04187"
     y="339.17581"
     width="77.82"
     height="77.82"
     fill="#8d8d8d"
     id="rect19"
     style="fill:#002a37;fill-opacity:1" /><path
     d="m 201.29988,420.36282 h 77.82 v 77.82 h -48.742 c -13.707,0 -20.561,0 -24.82,-4.258 -4.258,-4.259 -4.258,-11.112 -4.258,-24.82 z"
     fill="#8d8d8d"
     id="path19"
     style="fill:#002a37;fill-opacity:1" /><rect
     x="282.48788"
     y="420.36282"
     width="77.82"
     height="77.82"
     fill="#8d8d8d"
     id="rect20"
     style="fill:#002a37;fill-opacity:1" /><rect
     x="363.6749"
     y="420.36282"
     width="77.82"
     height="77.82"
     fill="#8d8d8d"
     id="rect21"
     style="fill:#002a37;fill-opacity:1" /><rect
     x="444.85489"
     y="420.36282"
     width="77.82"
     height="77.82"
     fill="#8d8d8d"
     id="rect22"
     style="fill:#002a37;fill-opacity:1" /><path
     d="m 526.04188,420.36282 h 77.82 v 48.742 c 0,13.708 0,20.561 -4.258,24.82 -4.259,4.258 -11.112,4.258 -24.82,4.258 h -48.742 z"
     fill="#8d8d8d"
     id="path22"
     style="fill:#002a37;fill-opacity:1" /><g
     filter="url(#filter0_d_1015_18711)"
     id="g24"
     transform="translate(-51.700115,-36.379177)"><path
       d="m 502.287,377.036 18.147,-6.335 c 3.401,-1.187 3.533,-5.95 0.201,-7.272 L 479.118,348.97 c -3.121,-1.238 -6.26,1.823 -5.1,4.975 l 13.595,42.673 c 1.238,3.363 5.999,3.352 7.273,-0.016 z"
       fill="#D9D9D9"
       id="path23"
       style="fill:#f4f4f4;fill-opacity:1" /><path
       d="m 461.287,363.003 -5.039,5.04 m -0.527,-18.481 h -7.127 m 7.654,-18.477 5.039,5.04 m 13.441,-12.695 v 7.127 m 18.477,0.528 -5.04,5.04 m 14.122,40.911 18.147,-6.335 c 3.401,-1.187 3.533,-5.95 0.201,-7.272 L 479.118,348.97 c -3.121,-1.238 -6.26,1.823 -5.1,4.975 l 13.595,42.673 c 1.238,3.363 5.999,3.352 7.273,-0.016 z"
       stroke="#000000"
       stroke-width="7.88589"
       stroke-linecap="round"
       stroke-linejoin="round"
       id="path24" /></g><path
     d="m 119.03388,619.96682 c 1.059,0.529 1.66,1.347 1.805,2.455 0.192,1.107 -0.072,2.118 -0.794,3.032 -0.53,0.722 -1.228,1.131 -2.094,1.228 -0.819,0.096 -1.637,-0.073 -2.455,-0.506 -1.396,-0.722 -2.864,-1.3 -4.405,-1.733 -1.54,-0.433 -3.177,-0.65 -4.91,-0.65 -2.743,0 -5.222,0.458 -7.436995,1.372 -2.166,0.867 -4.043,2.142 -5.631,3.827 -1.589,1.637 -2.816,3.586 -3.683,5.849 -0.818,2.262 -1.227,4.765 -1.227,7.509 0,3.032 0.457,5.728 1.372,8.087 0.914,2.31 2.166,4.284 3.754,5.92 1.637,1.589 3.538,2.792 5.704,3.61 2.214995,0.771 4.596995,1.156 7.147995,1.156 1.637,0 3.226,-0.193 4.766,-0.578 1.588,-0.385 3.081,-0.963 4.477,-1.733 0.866,-0.433 1.708,-0.577 2.527,-0.433 0.866,0.096 1.564,0.505 2.094,1.227 0.818,1.011 1.107,2.046 0.866,3.105 -0.193,1.011 -0.794,1.781 -1.805,2.311 -1.203,0.674 -2.527,1.251 -3.971,1.733 -1.444,0.481 -2.913,0.866 -4.405,1.155 -1.492,0.289 -3.008,0.433 -4.549,0.433 -3.465,0 -6.738995,-0.578 -9.818995,-1.733 -3.081,-1.155 -5.825,-2.84 -8.231,-5.054 -2.407,-2.214 -4.309,-4.934 -5.705,-8.159 -1.347,-3.225 -2.021,-6.908 -2.021,-11.047 0,-3.707 0.626,-7.124 1.877,-10.253 1.3,-3.177 3.105,-5.897 5.415,-8.159 2.359,-2.311 5.103,-4.092 8.232,-5.343 3.128,-1.3 6.545995,-1.95 10.251995,-1.95 2.311,0 4.549,0.289 6.715,0.867 2.215,0.577 4.26,1.396 6.138,2.455 z m 17.021,43.972 c 0,1.059 -0.361,1.949 -1.083,2.671 -0.674,0.674 -1.516,1.011 -2.527,1.011 -1.011,0 -1.877,-0.337 -2.599,-1.011 -0.674,-0.722 -1.011,-1.612 -1.011,-2.671 v -46.066 c 0,-1.059 0.361,-1.926 1.083,-2.6 0.722,-0.722 1.588,-1.083 2.599,-1.083 1.059,0 1.902,0.361 2.527,1.083 0.674,0.674 1.011,1.541 1.011,2.6 z m 17.534,0 c 0,1.059 -0.337,1.949 -1.011,2.671 -0.674,0.674 -1.54,1.011 -2.599,1.011 -1.011,0 -1.878,-0.337 -2.6,-1.011 -0.674,-0.722 -1.011,-1.612 -1.011,-2.671 v -30.904 c 0,-1.059 0.337,-1.925 1.011,-2.599 0.722,-0.722 1.589,-1.083 2.6,-1.083 1.059,0 1.925,0.361 2.599,1.083 0.674,0.674 1.011,1.54 1.011,2.599 z m -3.683,-39.351 c -1.396,0 -2.406,-0.241 -3.032,-0.722 -0.626,-0.53 -0.939,-1.396 -0.939,-2.6 v -1.155 c 0,-1.203 0.337,-2.046 1.011,-2.527 0.674,-0.481 1.685,-0.722 3.033,-0.722 1.444,0 2.479,0.265 3.104,0.794 0.626,0.481 0.939,1.3 0.939,2.455 v 1.155 c 0,1.252 -0.337,2.118 -1.011,2.6 -0.626,0.481 -1.661,0.722 -3.105,0.722 z m 30.219,4.187 c 2.599,0 4.91,0.289 6.931,0.867 2.022,0.529 3.586,1.3 4.694,2.31 1.155,0.963 1.732,2.094 1.732,3.394 0,0.818 -0.24,1.588 -0.722,2.31 -0.481,0.674 -1.203,1.011 -2.166,1.011 -0.674,0 -1.251,-0.12 -1.733,-0.361 -0.433,-0.24 -0.842,-0.529 -1.227,-0.866 -0.385,-0.337 -0.867,-0.674 -1.444,-1.011 -0.53,-0.289 -1.324,-0.529 -2.383,-0.722 -1.011,-0.193 -1.925,-0.289 -2.744,-0.289 -2.551,0 -4.765,0.578 -6.642,1.733 -1.83,1.155 -3.274,2.72 -4.333,4.693 -1.01,1.974 -1.516,4.212 -1.516,6.715 0,2.503 0.506,4.742 1.516,6.715 1.059,1.974 2.479,3.538 4.26,4.693 1.83,1.156 3.948,1.733 6.354,1.733 1.444,0 2.624,-0.096 3.538,-0.289 0.915,-0.24 1.709,-0.529 2.383,-0.866 0.722,-0.433 1.324,-0.866 1.805,-1.3 0.53,-0.481 1.252,-0.722 2.166,-0.722 1.059,0 1.853,0.337 2.383,1.011 0.578,0.626 0.866,1.42 0.866,2.383 0,1.059 -0.649,2.094 -1.949,3.105 -1.252,0.962 -2.936,1.757 -5.054,2.382 -2.118,0.626 -4.453,0.939 -7.004,0.939 -3.755,0 -7.028,-0.866 -9.82,-2.599 -2.744,-1.733 -4.886,-4.092 -6.426,-7.076 -1.492,-2.985 -2.238,-6.354 -2.238,-10.109 0,-3.802 0.794,-7.172 2.383,-10.108 1.588,-2.985 3.802,-5.343 6.642,-7.076 2.84,-1.733 6.089,-2.6 9.748,-2.6 z m 24.806,38.846 c -1.011,0 -1.878,-0.337 -2.6,-1.011 -0.674,-0.722 -1.011,-1.612 -1.011,-2.671 v -46.066 c 0,-1.059 0.337,-1.926 1.011,-2.6 0.722,-0.722 1.589,-1.083 2.6,-1.083 1.059,0 1.925,0.361 2.599,1.083 0.674,0.674 1.011,1.541 1.011,2.6 v 46.066 c 0,1.059 -0.337,1.949 -1.011,2.671 -0.674,0.674 -1.54,1.011 -2.599,1.011 z m 23.538,-38.124 c 0.915,0 1.709,0.386 2.383,1.156 0.674,0.77 1.011,1.54 1.011,2.31 0,0.963 -0.458,1.853 -1.372,2.672 l -22.6,20.217 -0.289,-8.304 18.195,-16.895 c 0.771,-0.77 1.661,-1.156 2.672,-1.156 z m 0.866,38.052 c -1.01,0 -1.877,-0.409 -2.599,-1.228 l -14.441,-15.235 5.488,-5.054 14.08,15.235 c 0.77,0.818 1.155,1.733 1.155,2.744 0,1.059 -0.433,1.925 -1.3,2.599 -0.818,0.626 -1.612,0.939 -2.383,0.939 z m 62.885,-38.485 c 1.059,0 1.926,0.361 2.6,1.083 0.674,0.674 1.01,1.541 1.01,2.6 v 31.192 c 0,1.059 -0.336,1.949 -1.01,2.671 -0.674,0.674 -1.541,1.011 -2.6,1.011 -1.011,0 -1.877,-0.337 -2.599,-1.011 -0.674,-0.722 -1.011,-1.612 -1.011,-2.671 v -5.199 l 1.516,0.217 c 0,0.866 -0.361,1.829 -1.083,2.888 -0.674,1.059 -1.612,2.094 -2.816,3.104 -1.203,0.963 -2.623,1.781 -4.26,2.455 -1.636,0.626 -3.393,0.939 -5.271,0.939 -3.321,0 -6.305,-0.842 -8.953,-2.527 -2.647,-1.733 -4.741,-4.092 -6.281,-7.076 -1.541,-2.984 -2.311,-6.378 -2.311,-10.181 0,-3.899 0.77,-7.316 2.311,-10.253 1.54,-2.984 3.61,-5.319 6.209,-7.003 2.648,-1.685 5.584,-2.528 8.809,-2.528 2.07,0 3.971,0.337 5.704,1.011 1.781,0.674 3.321,1.541 4.621,2.6 1.3,1.059 2.286,2.19 2.96,3.393 0.722,1.155 1.083,2.263 1.083,3.322 l -2.238,0.216 v -6.57 c 0,-1.011 0.337,-1.878 1.011,-2.6 0.722,-0.722 1.588,-1.083 2.599,-1.083 z m -14.729,32.636 c 2.262,0 4.26,-0.577 5.993,-1.733 1.733,-1.155 3.08,-2.719 4.043,-4.693 0.963,-2.022 1.444,-4.26 1.444,-6.715 0,-2.503 -0.481,-4.741 -1.444,-6.715 -0.963,-1.973 -2.31,-3.538 -4.043,-4.693 -1.733,-1.155 -3.731,-1.733 -5.993,-1.733 -2.215,0 -4.188,0.578 -5.921,1.733 -1.685,1.155 -3.033,2.72 -4.043,4.693 -0.963,1.974 -1.444,4.212 -1.444,6.715 0,2.455 0.481,4.693 1.444,6.715 1.01,1.974 2.358,3.538 4.043,4.693 1.733,1.156 3.706,1.733 5.921,1.733 z m 48.022,-32.925 c 3.418,0 6.065,0.722 7.942,2.167 1.878,1.395 3.177,3.297 3.899,5.704 0.77,2.358 1.156,5.006 1.156,7.942 v 19.351 c 0,1.059 -0.361,1.949 -1.083,2.671 -0.674,0.674 -1.517,1.011 -2.528,1.011 -1.059,0 -1.925,-0.337 -2.599,-1.011 -0.674,-0.722 -1.011,-1.612 -1.011,-2.671 v -19.279 c 0,-1.733 -0.24,-3.273 -0.722,-4.621 -0.481,-1.396 -1.324,-2.503 -2.527,-3.321 -1.155,-0.867 -2.792,-1.3 -4.91,-1.3 -1.973,0 -3.706,0.433 -5.198,1.3 -1.493,0.818 -2.672,1.925 -3.538,3.321 -0.819,1.348 -1.228,2.888 -1.228,4.621 v 19.279 c 0,1.059 -0.361,1.949 -1.083,2.671 -0.674,0.674 -1.516,1.011 -2.527,1.011 -1.059,0 -1.926,-0.337 -2.599,-1.011 -0.674,-0.722 -1.011,-1.612 -1.011,-2.671 v -30.615 c 0,-1.059 0.337,-1.925 1.011,-2.599 0.673,-0.722 1.54,-1.083 2.599,-1.083 1.011,0 1.853,0.361 2.527,1.083 0.722,0.674 1.083,1.54 1.083,2.599 v 4.044 l -1.3,0.722 c 0.337,-1.059 0.915,-2.118 1.733,-3.177 0.867,-1.107 1.902,-2.118 3.105,-3.033 1.203,-0.963 2.551,-1.709 4.043,-2.238 1.493,-0.578 3.081,-0.867 4.766,-0.867 z m 50.901,0.578 c 1.059,0 1.925,0.361 2.599,1.083 0.674,0.674 1.011,1.54 1.011,2.599 v 31.048 c 0,4.236 -0.818,7.678 -2.455,10.325 -1.589,2.648 -3.755,4.573 -6.498,5.776 -2.696,1.252 -5.753,1.878 -9.17,1.878 -1.733,0 -3.466,-0.169 -5.199,-0.506 -1.733,-0.289 -3.153,-0.722 -4.26,-1.299 -1.155,-0.53 -1.974,-1.18 -2.455,-1.95 -0.481,-0.77 -0.553,-1.612 -0.216,-2.527 0.336,-1.155 0.914,-1.949 1.732,-2.383 0.819,-0.385 1.661,-0.409 2.528,-0.072 0.818,0.337 1.901,0.77 3.249,1.3 1.348,0.529 2.888,0.794 4.621,0.794 2.358,0 4.356,-0.385 5.993,-1.155 1.636,-0.77 2.864,-1.974 3.682,-3.61 0.866,-1.637 1.3,-3.755 1.3,-6.354 v -4.982 l 1.155,1.732 c -0.77,1.589 -1.781,2.913 -3.033,3.972 -1.251,1.059 -2.743,1.877 -4.476,2.455 -1.685,0.577 -3.562,0.866 -5.632,0.866 -2.648,0 -4.934,-0.578 -6.859,-1.733 -1.878,-1.203 -3.322,-2.84 -4.333,-4.91 -1.011,-2.118 -1.516,-4.524 -1.516,-7.22 v -21.445 c 0,-1.059 0.337,-1.925 1.011,-2.599 0.674,-0.722 1.54,-1.083 2.599,-1.083 1.011,0 1.853,0.361 2.527,1.083 0.722,0.674 1.083,1.54 1.083,2.599 v 19.495 c 0,3.177 0.698,5.512 2.094,7.004 1.396,1.444 3.466,2.166 6.21,2.166 1.829,0 3.417,-0.385 4.765,-1.155 1.348,-0.77 2.407,-1.829 3.177,-3.177 0.77,-1.396 1.155,-3.008 1.155,-4.838 v -19.495 c 0,-1.059 0.337,-1.925 1.011,-2.599 0.722,-0.722 1.589,-1.083 2.6,-1.083 z m 31.58,32.347 c -0.434,-0.674 -0.626,-1.444 -0.578,-2.31 0.048,-0.915 0.554,-1.685 1.516,-2.311 0.674,-0.433 1.372,-0.601 2.094,-0.505 0.77,0.048 1.492,0.409 2.166,1.083 1.348,1.492 2.84,2.671 4.477,3.538 1.685,0.866 3.706,1.3 6.065,1.3 0.963,-0.049 1.95,-0.193 2.96,-0.434 1.011,-0.288 1.878,-0.77 2.6,-1.444 0.722,-0.722 1.083,-1.757 1.083,-3.105 0,-1.203 -0.385,-2.166 -1.155,-2.888 -0.771,-0.722 -1.781,-1.299 -3.033,-1.733 -1.251,-0.481 -2.599,-0.914 -4.043,-1.299 -1.541,-0.433 -3.105,-0.915 -4.694,-1.444 -1.54,-0.53 -2.936,-1.204 -4.187,-2.022 -1.252,-0.866 -2.287,-1.974 -3.105,-3.321 -0.77,-1.348 -1.155,-3.009 -1.155,-4.982 0,-2.263 0.625,-4.212 1.877,-5.849 1.3,-1.637 2.96,-2.912 4.982,-3.827 2.07,-0.914 4.308,-1.372 6.715,-1.372 1.396,0 2.864,0.193 4.404,0.578 1.541,0.337 3.033,0.891 4.477,1.661 1.444,0.77 2.695,1.781 3.754,3.032 0.482,0.626 0.747,1.372 0.795,2.239 0.096,0.866 -0.289,1.636 -1.156,2.31 -0.577,0.482 -1.275,0.698 -2.093,0.65 -0.819,-0.048 -1.493,-0.313 -2.022,-0.794 -0.915,-1.156 -2.094,-2.046 -3.538,-2.672 -1.444,-0.674 -3.081,-1.011 -4.91,-1.011 -0.915,0 -1.877,0.145 -2.888,0.434 -0.963,0.24 -1.781,0.698 -2.455,1.371 -0.674,0.674 -1.011,1.661 -1.011,2.961 0,1.203 0.385,2.166 1.155,2.888 0.819,0.722 1.878,1.324 3.177,1.805 1.3,0.481 2.72,0.915 4.26,1.3 1.493,0.385 2.961,0.842 4.405,1.372 1.492,0.529 2.816,1.227 3.971,2.093 1.203,0.819 2.166,1.902 2.888,3.25 0.77,1.299 1.155,2.96 1.155,4.982 0,2.358 -0.698,4.38 -2.094,6.065 -1.347,1.636 -3.08,2.888 -5.198,3.754 -2.07,0.867 -4.26,1.3 -6.571,1.3 -2.743,0 -5.487,-0.481 -8.231,-1.444 -2.696,-1.011 -4.982,-2.744 -6.859,-5.199 z m 67.838,-32.203 c 1.059,0 1.925,0.362 2.599,1.084 0.674,0.673 1.011,1.54 1.011,2.599 v 45.199 c 0,1.059 -0.337,1.926 -1.011,2.6 -0.674,0.722 -1.54,1.083 -2.599,1.083 -1.011,0 -1.877,-0.361 -2.599,-1.083 -0.674,-0.674 -1.011,-1.541 -1.011,-2.6 v -19.639 l 1.516,0.072 c 0,0.867 -0.361,1.853 -1.083,2.961 -0.674,1.058 -1.613,2.093 -2.816,3.104 -1.203,1.011 -2.623,1.853 -4.26,2.527 -1.637,0.626 -3.394,0.939 -5.271,0.939 -3.321,0 -6.306,-0.842 -8.953,-2.527 -2.648,-1.733 -4.742,-4.068 -6.282,-7.004 -1.54,-2.984 -2.31,-6.402 -2.31,-10.253 0,-3.851 0.77,-7.244 2.31,-10.18 1.54,-2.985 3.61,-5.319 6.21,-7.004 2.647,-1.733 5.583,-2.6 8.808,-2.6 2.022,0 3.899,0.337 5.632,1.011 1.781,0.674 3.322,1.541 4.621,2.6 1.3,1.059 2.311,2.19 3.033,3.393 0.722,1.155 1.083,2.263 1.083,3.322 l -2.238,0.216 v -6.137 c 0,-1.011 0.337,-1.877 1.011,-2.599 0.722,-0.722 1.588,-1.084 2.599,-1.084 z m -14.73,32.203 c 2.311,0 4.308,-0.577 5.993,-1.733 1.733,-1.155 3.081,-2.719 4.044,-4.693 0.962,-1.973 1.444,-4.212 1.444,-6.715 0,-2.503 -0.482,-4.741 -1.444,-6.715 -0.963,-1.973 -2.311,-3.538 -4.044,-4.693 -1.733,-1.155 -3.73,-1.733 -5.993,-1.733 -2.214,0 -4.188,0.578 -5.92,1.733 -1.685,1.155 -3.033,2.72 -4.044,4.693 -0.963,1.974 -1.444,4.212 -1.444,6.715 0,2.503 0.481,4.742 1.444,6.715 1.011,1.974 2.359,3.538 4.044,4.693 1.732,1.156 3.706,1.733 5.92,1.733 z m 56.759,-32.058 c 1.011,0 1.853,0.361 2.527,1.083 0.722,0.674 1.083,1.54 1.083,2.599 v 18.99 c 0,5.006 -1.396,8.929 -4.188,11.769 -2.791,2.792 -6.739,4.188 -11.841,4.188 -5.054,0 -8.977,-1.396 -11.769,-4.188 -2.744,-2.84 -4.116,-6.763 -4.116,-11.769 v -18.99 c 0,-1.059 0.337,-1.925 1.011,-2.599 0.674,-0.722 1.54,-1.083 2.599,-1.083 1.011,0 1.854,0.361 2.528,1.083 0.722,0.674 1.083,1.54 1.083,2.599 v 18.99 c 0,3.129 0.722,5.463 2.166,7.004 1.492,1.54 3.658,2.31 6.498,2.31 2.888,0 5.078,-0.77 6.571,-2.31 1.492,-1.541 2.238,-3.875 2.238,-7.004 v -18.99 c 0,-1.059 0.337,-1.925 1.011,-2.599 0.674,-0.722 1.54,-1.083 2.599,-1.083 z m 44.77,-0.578 c 1.059,0 1.926,0.361 2.6,1.083 0.674,0.674 1.01,1.541 1.01,2.6 v 31.192 c 0,1.059 -0.336,1.949 -1.01,2.671 -0.674,0.674 -1.541,1.011 -2.6,1.011 -1.011,0 -1.877,-0.337 -2.599,-1.011 -0.674,-0.722 -1.011,-1.612 -1.011,-2.671 v -5.199 l 1.516,0.217 c 0,0.866 -0.361,1.829 -1.083,2.888 -0.674,1.059 -1.612,2.094 -2.816,3.104 -1.203,0.963 -2.623,1.781 -4.26,2.455 -1.636,0.626 -3.393,0.939 -5.27,0.939 -3.322,0 -6.306,-0.842 -8.954,-2.527 -2.647,-1.733 -4.741,-4.092 -6.281,-7.076 -1.541,-2.984 -2.311,-6.378 -2.311,-10.181 0,-3.899 0.77,-7.316 2.311,-10.253 1.54,-2.984 3.61,-5.319 6.209,-7.003 2.648,-1.685 5.584,-2.528 8.809,-2.528 2.07,0 3.971,0.337 5.704,1.011 1.781,0.674 3.321,1.541 4.621,2.6 1.3,1.059 2.286,2.19 2.96,3.393 0.722,1.155 1.083,2.263 1.083,3.322 l -2.238,0.216 v -6.57 c 0,-1.011 0.337,-1.878 1.011,-2.6 0.722,-0.722 1.588,-1.083 2.599,-1.083 z m -14.729,32.636 c 2.262,0 4.26,-0.577 5.993,-1.733 1.733,-1.155 3.08,-2.719 4.043,-4.693 0.963,-2.022 1.444,-4.26 1.444,-6.715 0,-2.503 -0.481,-4.741 -1.444,-6.715 -0.963,-1.973 -2.31,-3.538 -4.043,-4.693 -1.733,-1.155 -3.731,-1.733 -5.993,-1.733 -2.214,0 -4.188,0.578 -5.921,1.733 -1.685,1.155 -3.032,2.72 -4.043,4.693 -0.963,1.974 -1.444,4.212 -1.444,6.715 0,2.455 0.481,4.693 1.444,6.715 1.011,1.974 2.358,3.538 4.043,4.693 1.733,1.156 3.707,1.733 5.921,1.733 z m 32.065,5.921 c -1.059,0 -1.925,-0.337 -2.599,-1.011 -0.674,-0.722 -1.011,-1.612 -1.011,-2.671 v -30.615 c 0,-1.059 0.337,-1.925 1.011,-2.599 0.674,-0.722 1.54,-1.083 2.599,-1.083 1.011,0 1.853,0.361 2.527,1.083 0.722,0.674 1.083,1.54 1.083,2.599 v 8.087 l -0.722,-3.105 c 0.385,-1.347 0.963,-2.599 1.733,-3.754 0.818,-1.156 1.781,-2.166 2.888,-3.033 1.107,-0.866 2.335,-1.54 3.682,-2.022 1.396,-0.481 2.841,-0.722 4.333,-0.722 1.251,0 2.334,0.337 3.249,1.011 0.914,0.674 1.372,1.517 1.372,2.527 0,1.3 -0.337,2.263 -1.011,2.889 -0.674,0.577 -1.42,0.866 -2.238,0.866 -0.722,0 -1.42,-0.144 -2.094,-0.433 -0.674,-0.337 -1.468,-0.506 -2.383,-0.506 -1.011,0 -2.046,0.265 -3.105,0.795 -1.059,0.529 -2.021,1.323 -2.888,2.382 -0.866,1.011 -1.564,2.215 -2.094,3.611 -0.481,1.395 -0.722,2.96 -0.722,4.693 v 17.329 c 0,1.059 -0.361,1.949 -1.083,2.671 -0.674,0.674 -1.516,1.011 -2.527,1.011 z m 42.637,0.722 c -3.995,0 -7.461,-0.818 -10.398,-2.455 -2.936,-1.685 -5.222,-3.971 -6.859,-6.859 -1.588,-2.937 -2.383,-6.282 -2.383,-10.037 0,-4.235 0.843,-7.846 2.528,-10.83 1.732,-3.033 3.971,-5.343 6.714,-6.932 2.744,-1.636 5.656,-2.455 8.737,-2.455 2.359,0 4.597,0.482 6.715,1.445 2.118,0.914 3.995,2.214 5.632,3.899 1.685,1.636 3.008,3.586 3.971,5.848 0.963,2.214 1.468,4.645 1.516,7.293 -0.048,0.962 -0.433,1.757 -1.155,2.382 -0.722,0.626 -1.564,0.939 -2.527,0.939 h -28.087 l -1.733,-6.137 h 27.148 l -1.371,1.299 v -1.805 c -0.097,-1.685 -0.65,-3.153 -1.661,-4.404 -1.011,-1.3 -2.262,-2.287 -3.755,-2.961 -1.492,-0.722 -3.056,-1.083 -4.693,-1.083 -1.444,0 -2.84,0.241 -4.188,0.722 -1.299,0.434 -2.479,1.156 -3.538,2.167 -1.011,1.01 -1.829,2.358 -2.455,4.043 -0.577,1.637 -0.866,3.682 -0.866,6.137 0,2.648 0.553,4.958 1.661,6.932 1.107,1.973 2.599,3.514 4.476,4.621 1.878,1.059 3.947,1.588 6.21,1.588 1.781,0 3.249,-0.168 4.404,-0.505 1.155,-0.385 2.118,-0.842 2.888,-1.372 0.77,-0.529 1.444,-1.035 2.022,-1.516 0.722,-0.433 1.444,-0.65 2.166,-0.65 0.867,0 1.589,0.313 2.166,0.939 0.578,0.577 0.867,1.275 0.867,2.093 0,1.059 -0.53,2.022 -1.589,2.889 -1.299,1.251 -3.105,2.358 -5.415,3.321 -2.262,0.963 -4.645,1.444 -7.148,1.444 z m 43.925,-38.268 h 16.968 c 0.963,0 1.757,0.337 2.383,1.011 0.673,0.626 1.01,1.42 1.01,2.383 0,0.914 -0.337,1.684 -1.01,2.31 -0.626,0.626 -1.42,0.939 -2.383,0.939 h -16.968 c -0.963,0 -1.781,-0.313 -2.455,-0.939 -0.626,-0.674 -0.939,-1.468 -0.939,-2.383 0,-0.962 0.313,-1.756 0.939,-2.382 0.674,-0.626 1.492,-0.939 2.455,-0.939 z m 7.581,-9.386 c 1.059,0 1.926,0.361 2.6,1.083 0.674,0.674 1.011,1.54 1.011,2.599 v 33.503 c 0,0.866 0.144,1.564 0.433,2.093 0.289,0.53 0.674,0.891 1.155,1.083 0.529,0.193 1.059,0.289 1.588,0.289 0.53,0 0.987,-0.096 1.372,-0.289 0.434,-0.192 0.939,-0.288 1.517,-0.288 0.577,0 1.107,0.264 1.588,0.794 0.481,0.529 0.722,1.251 0.722,2.166 0,1.155 -0.626,2.094 -1.877,2.816 -1.252,0.722 -2.6,1.083 -4.044,1.083 -0.818,0 -1.781,-0.072 -2.888,-0.217 -1.107,-0.144 -2.19,-0.505 -3.249,-1.083 -1.011,-0.577 -1.853,-1.492 -2.527,-2.743 -0.674,-1.3 -1.011,-3.105 -1.011,-5.416 v -33.791 c 0,-1.059 0.337,-1.925 1.011,-2.599 0.722,-0.722 1.588,-1.083 2.599,-1.083 z m 56.814,27.942 c 0,3.851 -0.842,7.269 -2.527,10.253 -1.684,2.937 -3.971,5.247 -6.859,6.932 -2.888,1.685 -6.137,2.527 -9.748,2.527 -3.61,0 -6.859,-0.842 -9.747,-2.527 -2.888,-1.685 -5.199,-3.995 -6.932,-6.932 -1.684,-2.984 -2.527,-6.402 -2.527,-10.253 0,-3.899 0.843,-7.316 2.527,-10.252 1.733,-2.985 4.044,-5.319 6.932,-7.004 2.888,-1.733 6.137,-2.6 9.747,-2.6 3.611,0 6.86,0.867 9.748,2.6 2.888,1.685 5.175,4.019 6.859,7.004 1.685,2.936 2.527,6.353 2.527,10.252 z m -7.22,0 c 0,-2.647 -0.529,-4.933 -1.588,-6.859 -1.059,-1.973 -2.504,-3.514 -4.333,-4.621 -1.781,-1.155 -3.778,-1.733 -5.993,-1.733 -2.214,0 -4.236,0.578 -6.065,1.733 -1.829,1.107 -3.273,2.648 -4.332,4.621 -1.059,1.926 -1.588,4.212 -1.588,6.859 0,2.552 0.529,4.814 1.588,6.788 1.059,1.973 2.503,3.513 4.332,4.621 1.829,1.107 3.851,1.66 6.065,1.66 2.215,0 4.212,-0.553 5.993,-1.66 1.829,-1.108 3.274,-2.648 4.333,-4.621 1.059,-1.974 1.588,-4.236 1.588,-6.788 z m -401.588,103.069 c -0.433,-0.674 -0.626,-1.444 -0.578,-2.31 0.048,-0.915 0.554,-1.685 1.517,-2.311 0.673,-0.433 1.371,-0.601 2.093,-0.505 0.771,0.048 1.493,0.409 2.167,1.083 1.347,1.492 2.84,2.671 4.476,3.538 1.685,0.866 3.707,1.3 6.065,1.3 0.963,-0.049 1.95,-0.193 2.961,-0.434 1.011,-0.288 1.877,-0.77 2.599,-1.444 0.722,-0.722 1.083,-1.757 1.083,-3.105 0,-1.203 -0.385,-2.166 -1.155,-2.888 -0.77,-0.722 -1.781,-1.299 -3.033,-1.733 -1.251,-0.481 -2.599,-0.914 -4.043,-1.299 -1.54,-0.433 -3.105,-0.915 -4.693,-1.444 -1.541,-0.53 -2.937,-1.204 -4.188,-2.022 -1.252,-0.866 -2.287,-1.974 -3.105,-3.321 -0.77,-1.348 -1.155,-3.009 -1.155,-4.982 0,-2.263 0.626,-4.212 1.877,-5.849 1.3,-1.637 2.96,-2.912 4.982,-3.827 2.07,-0.914 4.308,-1.372 6.715,-1.372 1.396,0 2.864,0.193 4.404,0.578 1.541,0.337 3.033,0.891 4.477,1.661 1.444,0.77 2.696,1.781 3.755,3.032 0.481,0.626 0.746,1.372 0.794,2.239 0.096,0.866 -0.289,1.636 -1.155,2.31 -0.578,0.482 -1.276,0.698 -2.094,0.65 -0.819,-0.048 -1.492,-0.313 -2.022,-0.794 -0.914,-1.156 -2.094,-2.046 -3.538,-2.672 -1.444,-0.674 -3.081,-1.011 -4.91,-1.011 -0.914,0 -1.877,0.145 -2.888,0.434 -0.963,0.24 -1.781,0.698 -2.455,1.371 -0.674,0.674 -1.011,1.661 -1.011,2.961 0,1.203 0.385,2.166 1.156,2.888 0.818,0.722 1.877,1.324 3.177,1.805 1.299,0.481 2.719,0.915 4.26,1.3 1.492,0.385 2.96,0.842 4.404,1.372 1.492,0.529 2.816,1.227 3.971,2.093 1.204,0.819 2.166,1.902 2.888,3.25 0.771,1.299 1.156,2.96 1.156,4.982 0,2.358 -0.698,4.38 -2.094,6.065 -1.348,1.636 -3.081,2.888 -5.199,3.754 -2.07,0.867 -4.26,1.3 -6.571,1.3 -2.743,0 -5.487,-0.481 -8.231,-1.444 -2.695,-1.011 -4.982,-2.744 -6.859,-5.199 z m 36.213,-31.625 h 16.968 c 0.962,0 1.757,0.337 2.382,1.011 0.674,0.626 1.011,1.42 1.011,2.383 0,0.914 -0.337,1.684 -1.011,2.31 -0.625,0.626 -1.42,0.939 -2.382,0.939 h -16.968 c -0.963,0 -1.781,-0.313 -2.455,-0.939 -0.626,-0.674 -0.939,-1.468 -0.939,-2.383 0,-0.962 0.313,-1.756 0.939,-2.382 0.674,-0.626 1.492,-0.939 2.455,-0.939 z m 7.581,-9.386 c 1.059,0 1.926,0.361 2.6,1.083 0.673,0.674 1.01,1.54 1.01,2.599 v 33.503 c 0,0.866 0.145,1.564 0.434,2.093 0.288,0.53 0.674,0.891 1.155,1.083 0.529,0.193 1.059,0.289 1.588,0.289 0.53,0 0.987,-0.096 1.372,-0.289 0.433,-0.192 0.939,-0.288 1.517,-0.288 0.577,0 1.107,0.264 1.588,0.794 0.481,0.529 0.722,1.251 0.722,2.166 0,1.155 -0.626,2.094 -1.877,2.816 -1.252,0.722 -2.6,1.083 -4.044,1.083 -0.818,0 -1.781,-0.072 -2.888,-0.217 -1.107,-0.144 -2.19,-0.505 -3.249,-1.083 -1.011,-0.577 -1.853,-1.492 -2.527,-2.743 -0.674,-1.3 -1.011,-3.105 -1.011,-5.416 v -33.791 c 0,-1.059 0.337,-1.925 1.011,-2.599 0.722,-0.722 1.588,-1.083 2.599,-1.083 z m 51.896,8.375 c 1.059,0 1.925,0.361 2.599,1.083 0.674,0.674 1.011,1.541 1.011,2.6 v 31.192 c 0,1.059 -0.337,1.949 -1.011,2.671 -0.674,0.674 -1.54,1.011 -2.599,1.011 -1.011,0 -1.877,-0.337 -2.599,-1.011 -0.674,-0.722 -1.011,-1.612 -1.011,-2.671 v -5.199 l 1.516,0.217 c 0,0.866 -0.361,1.829 -1.083,2.888 -0.674,1.059 -1.612,2.094 -2.816,3.104 -1.203,0.963 -2.623,1.781 -4.26,2.455 -1.636,0.626 -3.393,0.939 -5.271,0.939 -3.321,0 -6.306,-0.842 -8.953,-2.527 -2.647,-1.733 -4.741,-4.092 -6.282,-7.076 -1.54,-2.984 -2.31,-6.378 -2.31,-10.181 0,-3.899 0.77,-7.316 2.31,-10.253 1.541,-2.984 3.61,-5.319 6.21,-7.003 2.647,-1.685 5.584,-2.528 8.809,-2.528 2.069,0 3.971,0.337 5.704,1.011 1.781,0.674 3.321,1.541 4.621,2.6 1.299,1.059 2.286,2.19 2.96,3.393 0.722,1.155 1.083,2.263 1.083,3.322 l -2.238,0.216 v -6.57 c 0,-1.011 0.337,-1.878 1.011,-2.6 0.722,-0.722 1.588,-1.083 2.599,-1.083 z m -14.729,32.636 c 2.262,0 4.26,-0.577 5.992,-1.733 1.733,-1.155 3.081,-2.719 4.044,-4.693 0.963,-2.022 1.444,-4.26 1.444,-6.715 0,-2.503 -0.481,-4.741 -1.444,-6.715 -0.963,-1.973 -2.311,-3.538 -4.044,-4.693 -1.732,-1.155 -3.73,-1.733 -5.992,-1.733 -2.215,0 -4.188,0.578 -5.921,1.733 -1.685,1.155 -3.033,2.72 -4.044,4.693 -0.962,1.974 -1.444,4.212 -1.444,6.715 0,2.455 0.482,4.693 1.444,6.715 1.011,1.974 2.359,3.538 4.044,4.693 1.733,1.156 3.706,1.733 5.921,1.733 z m 32.065,5.921 c -1.059,0 -1.926,-0.337 -2.6,-1.011 -0.674,-0.722 -1.011,-1.612 -1.011,-2.671 v -30.615 c 0,-1.059 0.337,-1.925 1.011,-2.599 0.674,-0.722 1.541,-1.083 2.6,-1.083 1.011,0 1.853,0.361 2.527,1.083 0.722,0.674 1.083,1.54 1.083,2.599 v 8.087 l -0.722,-3.105 c 0.385,-1.347 0.963,-2.599 1.733,-3.754 0.818,-1.156 1.781,-2.166 2.888,-3.033 1.107,-0.866 2.334,-1.54 3.682,-2.022 1.396,-0.481 2.84,-0.722 4.332,-0.722 1.252,0 2.335,0.337 3.25,1.011 0.914,0.674 1.371,1.517 1.371,2.527 0,1.3 -0.336,2.263 -1.01,2.889 -0.674,0.577 -1.42,0.866 -2.239,0.866 -0.722,0 -1.42,-0.144 -2.094,-0.433 -0.673,-0.337 -1.468,-0.506 -2.382,-0.506 -1.011,0 -2.046,0.265 -3.105,0.795 -1.059,0.529 -2.022,1.323 -2.888,2.382 -0.867,1.011 -1.565,2.215 -2.094,3.611 -0.481,1.395 -0.722,2.96 -0.722,4.693 v 17.329 c 0,1.059 -0.361,1.949 -1.083,2.671 -0.674,0.674 -1.516,1.011 -2.527,1.011 z m 26.063,-37.546 h 16.968 c 0.963,0 1.757,0.337 2.383,1.011 0.673,0.626 1.01,1.42 1.01,2.383 0,0.914 -0.337,1.684 -1.01,2.31 -0.626,0.626 -1.42,0.939 -2.383,0.939 h -16.968 c -0.963,0 -1.781,-0.313 -2.455,-0.939 -0.626,-0.674 -0.939,-1.468 -0.939,-2.383 0,-0.962 0.313,-1.756 0.939,-2.382 0.674,-0.626 1.492,-0.939 2.455,-0.939 z m 7.581,-9.386 c 1.059,0 1.926,0.361 2.6,1.083 0.674,0.674 1.01,1.54 1.01,2.599 v 33.503 c 0,0.866 0.145,1.564 0.434,2.093 0.289,0.53 0.674,0.891 1.155,1.083 0.529,0.193 1.059,0.289 1.588,0.289 0.53,0 0.987,-0.096 1.372,-0.289 0.434,-0.192 0.939,-0.288 1.517,-0.288 0.577,0 1.107,0.264 1.588,0.794 0.481,0.529 0.722,1.251 0.722,2.166 0,1.155 -0.626,2.094 -1.877,2.816 -1.252,0.722 -2.6,1.083 -4.044,1.083 -0.818,0 -1.781,-0.072 -2.888,-0.217 -1.107,-0.144 -2.19,-0.505 -3.249,-1.083 -1.011,-0.577 -1.853,-1.492 -2.527,-2.743 -0.674,-1.3 -1.011,-3.105 -1.011,-5.416 v -33.791 c 0,-1.059 0.337,-1.925 1.011,-2.599 0.722,-0.722 1.588,-1.083 2.599,-1.083 z m 23.52,46.86 c -1.203,0 -2.142,-0.337 -2.816,-1.011 -0.626,-0.674 -0.939,-1.613 -0.939,-2.816 v -1.3 c 0,-1.203 0.313,-2.142 0.939,-2.816 0.674,-0.674 1.613,-1.01 2.816,-1.01 h 0.794 c 1.204,0 2.118,0.336 2.744,1.01 0.626,0.674 0.939,1.613 0.939,2.816 v 1.3 c 0,1.203 -0.313,2.142 -0.939,2.816 -0.626,0.674 -1.54,1.011 -2.744,1.011 z"
     fill="white"
     id="path25"
     style="fill:#000000;fill-opacity:1" /><defs
     id="defs27"><filter
       id="filter0_d_1015_18711"
       x="437.577"
       y="312.41299"
       width="96.501999"
       height="97.736397"
       filterUnits="userSpaceOnUse"
       color-interpolation-filters="sRGB"><feFlood
         flood-opacity="0"
         result="BackgroundImageFix"
         id="feFlood25" /><feColorMatrix
         in="SourceAlpha"
         type="matrix"
         values="0 0 0 0 0 0 0 0 0 0 0 0 0 0 0 0 0 0 127 0"
         result="hardAlpha"
         id="feColorMatrix25" /><feOffset
         id="feOffset25" /><feGaussianBlur
         stdDeviation="3.53565"
         id="feGaussianBlur25" /><feColorMatrix
         type="matrix"
         values="0 0 0 0 1 0 0 0 0 1 0 0 0 0 1 0 0 0 1 0"
         id="feColorMatrix26" /><feBlend
         mode="normal"
         in2="BackgroundImageFix"
         result="effect1_dropShadow_1015_18711"
         id="feBlend26" /><feBlend
         mode="normal"
         in="SourceGraphic"
         in2="effect1_dropShadow_1015_18711"
         result="shape"
         id="feBlend27" /></filter></defs></svg>
