<?xml version="1.0" encoding="UTF-8" standalone="no"?>
<svg
   width="821.06775"
   height="821.06781"
   viewBox="0 0 821.06775 821.06781"
   fill="none"
   version="1.1"
   id="svg27"
   xml:space="preserve"
   xmlns="http://www.w3.org/2000/svg"
   xmlns:svg="http://www.w3.org/2000/svg"><rect
     style="fill:none;fill-opacity:1;stroke:#000000;stroke-width:3.20414;stroke-linecap:round;stroke-linejoin:round;stroke-opacity:0;paint-order:markers stroke fill"
     id="rect1"
     width="817.86365"
     height="817.86365"
     x="1.60207"
     y="1.6020699" /><defs
     id="defs27"><filter
       id="filter0_d_1015_27836-6"
       x="493.74899"
       y="337.66299"
       width="71.330101"
       height="72.486397"
       filterUnits="userSpaceOnUse"
       color-interpolation-filters="sRGB"><feFlood
         flood-opacity="0"
         result="BackgroundImageFix"
         id="feFlood41-5" /><feColorMatrix
         in="SourceAlpha"
         type="matrix"
         values="0 0 0 0 0 0 0 0 0 0 0 0 0 0 0 0 0 0 127 0"
         result="hardAlpha"
         id="feColorMatrix41-6" /><feOffset
         id="feOffset41-9" /><feGaussianBlur
         stdDeviation="3.53565"
         id="feGaussianBlur41-3" /><feColorMatrix
         type="matrix"
         values="0 0 0 0 1 0 0 0 0 1 0 0 0 0 1 0 0 0 1 0"
         id="feColorMatrix42-7" /><feBlend
         mode="normal"
         in2="BackgroundImageFix"
         result="effect1_dropShadow_1015_27836"
         id="feBlend42-4" /><feBlend
         mode="normal"
         in="SourceGraphic"
         in2="effect1_dropShadow_1015_27836"
         result="shape"
         id="feBlend43-5" /></filter></defs><path
     d="m 213.94606,94.647463 c 0,-22.79568 0,-34.193524 7.08082,-41.276025 7.08249,-7.080829 18.48033,-7.080829 41.27602,-7.080829 h 81.05205 V 175.69949 H 213.94606 Z"
     fill="#8D8D8D"
     id="path1"
     style="fill:#002a37;fill-opacity:1;stroke-width:1.66294" /><rect
     x="348.95578"
     y="46.290615"
     width="129.41055"
     height="129.41055"
     fill="#8D8D8D"
     id="rect2"
     style="fill:#002a37;fill-opacity:1;stroke-width:1.66294" /><path
     d="m 483.95381,46.290609 h 81.05205 c 22.79568,0 34.19353,0 41.27602,7.080829 7.08249,7.082501 7.08249,18.480345 7.08249,41.276025 V 175.69949 H 483.95381 Z"
     fill="#8D8D8D"
     id="path2"
     style="fill:#002a37;fill-opacity:1;stroke-width:1.66294" /><rect
     x="213.94603"
     y="181.30028"
     width="129.41055"
     height="129.41055"
     fill="#8D8D8D"
     id="rect3"
     style="fill:#002a37;fill-opacity:1;stroke-width:1.66294" /><rect
     x="348.95578"
     y="181.30028"
     width="129.41055"
     height="129.41055"
     fill="#383838"
     id="rect4"
     style="fill:#006e90;fill-opacity:1;stroke-width:1.66294" /><rect
     x="483.95383"
     y="181.30028"
     width="129.41055"
     height="129.41055"
     fill="#8D8D8D"
     id="rect5"
     style="fill:#002a37;fill-opacity:1;stroke-width:1.66294" /><path
     d="M 213.94606,316.29835 H 343.35495 V 445.70891 H 262.3029 c -22.79569,0 -34.19353,0 -41.27602,-7.08249 -7.08082,-7.08249 -7.08082,-18.48033 -7.08082,-41.27601 z"
     fill="#8D8D8D"
     id="path5"
     style="fill:#002a37;fill-opacity:1;stroke-width:1.66294" /><rect
     x="348.95578"
     y="316.29837"
     width="129.41055"
     height="129.41055"
     fill="#8D8D8D"
     id="rect6"
     style="fill:#002a37;fill-opacity:1;stroke-width:1.66294" /><path
     d="m 483.95381,316.29835 h 129.41056 v 81.05206 c 0,22.79568 0,34.19352 -7.08249,41.27601 -7.08249,7.08249 -18.48034,7.08249 -41.27602,7.08249 h -81.05205 z"
     fill="#8D8D8D"
     id="path6"
     style="fill:#002a37;fill-opacity:1;stroke-width:1.66294" /><path
     d="m 54.122875,607.89467 c -1.08846,0 -1.97277,-0.31751 -2.6531,-0.95251 -0.63491,-0.68024 -0.95232,-1.51876 -0.95232,-2.5165 V 563.6776 h 7.27888 v 40.74806 c 0,0.99774 -0.36283,1.83626 -1.08847,2.5165 -0.68024,0.635 -1.54192,0.95251 -2.58499,0.95251 z m -15.44205,-41.08819 c -0.952428,0 -1.768703,-0.29489 -2.44903,-0.88468 -0.680237,-0.63502 -1.02035,-1.45091 -1.02035,-2.44866 0,-0.95251 0.340113,-1.72319 1.02035,-2.31298 0.680327,-0.58978 1.496602,-0.88467 2.44903,-0.88467 h 30.95233 c 0.95252,0 1.74581,0.31749 2.38083,0.95251 0.68022,0.58979 1.02034,1.36046 1.02034,2.31297 0,0.99776 -0.34012,1.79197 -1.02034,2.38083 -0.63502,0.58979 -1.42831,0.88468 -2.38083,0.88468 z m 59.32901,4.6938 c 3.128875,0 5.554925,0.68024 7.279055,2.0407 1.7232,1.31525 2.92446,3.10628 3.60468,5.37404 0.72639,2.26775 1.08912,4.76257 1.08912,7.48351 v 18.02713 c 0,0.99774 -0.34011,1.83626 -1.02034,2.5165 -0.63501,0.635 -1.42925,0.95251 -2.38082,0.95251 -0.99774,0 -1.81459,-0.31751 -2.4496,-0.95251 -0.63501,-0.68024 -0.95251,-1.51876 -0.95251,-2.5165 v -18.02713 c 0,-1.58753 -0.22612,-3.03844 -0.68024,-4.35369 -0.40795,-1.31524 -1.15602,-2.3582 -2.24421,-3.12982 -1.043895,-0.77068 -2.517425,-1.15602 -4.422455,-1.15602 -1.76842,0 -3.35594,0.38534 -4.76164,1.15602 -1.36046,0.77162 -2.42603,1.81458 -3.19672,3.12982 -0.72639,1.31525 -1.08912,2.76616 -1.08912,4.35369 v 18.02713 c 0,0.99774 -0.34012,1.83626 -1.02034,2.5165 -0.63502,0.635 -1.42831,0.95251 -2.38083,0.95251 -0.99774,0 -1.81365,-0.31751 -2.44866,-0.95251 -0.635,-0.68024 -0.95251,-1.51876 -0.95251,-2.5165 V 561.0245 c 0,-0.99774 0.31751,-1.81459 0.95251,-2.44961 0.63501,-0.68023 1.45092,-1.02034 2.44866,-1.02034 0.95252,0 1.74581,0.34011 2.38083,1.02034 0.68022,0.63502 1.02034,1.45187 1.02034,2.44961 v 18.57076 l -1.22386,0.68022 c 0.31751,-0.99774 0.83852,-2.01808 1.56397,-3.06105 0.77163,-1.04296 1.70059,-1.99548 2.78971,-2.85661 1.13342,-0.86206 2.38083,-1.5423 3.74129,-2.04069 1.36046,-0.54457 2.81139,-0.81685 4.35369,-0.81685 z m 38.100625,37.07463 c -3.76484,0 -7.03035,-0.77068 -9.79649,-2.31299 -2.76616,-1.58753 -4.92087,-3.74129 -6.46222,-6.46222 -1.49709,-2.7671 -2.24516,-5.91859 -2.24516,-9.45638 0,-3.99001 0.79423,-7.39212 2.38082,-10.20351 1.63275,-2.85754 3.74129,-5.03391 6.32656,-6.531 2.58525,-1.54135 5.3288,-2.31297 8.23157,-2.31297 2.22254,0 4.33108,0.4541 6.32655,1.3614 1.99548,0.86113 3.7639,2.08593 5.30621,3.67345 1.58657,1.54136 2.834,3.37857 3.74128,5.50971 0.90729,2.08592 1.38308,4.3763 1.4283,6.87111 -0.0452,0.90635 -0.40795,1.65536 -1.08818,2.24421 -0.68024,0.58978 -1.47447,0.88469 -2.38082,0.88469 h -26.46223 l -1.63274,-5.78199 h 25.57754 l -1.29264,1.22386 v -1.7006 c -0.0905,-1.58752 -0.61145,-2.9706 -1.56397,-4.14923 -0.95251,-1.2248 -2.13208,-2.15471 -3.53778,-2.78971 -1.40568,-0.68023 -2.88016,-1.02036 -4.42152,-1.02036 -1.36047,0 -2.6757,0.22707 -3.94573,0.68024 -1.2248,0.4089 -2.33559,1.08912 -3.33332,2.04165 -0.95252,0.95156 -1.72321,2.22159 -2.31299,3.80912 -0.54362,1.54229 -0.81591,3.469 -0.81591,5.78199 0,2.49481 0.52102,4.67118 1.56398,6.53099 1.04296,1.85887 2.44959,3.31072 4.218,4.35368 1.76842,0.99773 3.71868,1.49614 5.85078,1.49614 1.67797,0 3.06105,-0.15828 4.14923,-0.47579 1.08818,-0.36273 1.99547,-0.79328 2.72094,-1.29263 0.72545,-0.49839 1.36045,-0.97513 1.90503,-1.4283 0.68023,-0.40796 1.36047,-0.61239 2.0407,-0.61239 0.8159,0 1.49614,0.29488 2.04069,0.88467 0.54457,0.54362 0.81591,1.20125 0.81591,1.97192 0,0.99775 -0.49839,1.90503 -1.49613,2.72188 -1.22481,1.17864 -2.92538,2.2216 -5.10176,3.12889 -2.13209,0.90729 -4.37629,1.36047 -6.7345,1.36047 z m 60.29489,-37.27907 c 3.22029,0 5.71417,0.68022 7.48353,2.04164 1.76841,1.31429 2.99322,3.10627 3.67344,5.37404 0.72546,2.22158 1.08819,4.71641 1.08819,7.48256 v 18.23158 c 0,0.99774 -0.34012,1.83626 -1.02034,2.5165 -0.63502,0.635 -1.42831,0.95251 -2.38083,0.95251 -0.99773,0 -1.81458,-0.31751 -2.44959,-0.95251 -0.63406,-0.68024 -0.95158,-1.51876 -0.95158,-2.5165 v -18.16374 c 0,-1.63275 -0.22705,-3.08367 -0.68022,-4.35368 -0.45412,-1.31525 -1.24742,-2.35821 -2.38177,-3.12889 -1.08818,-0.81684 -2.62954,-1.2248 -4.62503,-1.2248 -1.8598,0 -3.49256,0.40796 -4.89824,1.2248 -1.4057,0.77068 -2.51744,1.81364 -3.33334,3.12889 -0.77067,1.27001 -1.15602,2.72093 -1.15602,4.35368 v 18.16374 c 0,0.99774 -0.34105,1.83626 -1.02129,2.5165 -0.63407,0.635 -1.4283,0.95251 -2.38082,0.95251 -0.99774,0 -1.81364,-0.31751 -2.44865,-0.95251 -0.63501,-0.68024 -0.95251,-1.51876 -0.95251,-2.5165 v -28.84398 c 0,-0.99774 0.3175,-1.81365 0.95251,-2.44865 0.63501,-0.68024 1.45091,-1.02035 2.44865,-1.02035 0.95252,0 1.74675,0.34011 2.38082,1.02035 0.68024,0.635 1.02129,1.45091 1.02129,2.44865 v 3.81006 l -1.22479,0.68023 c 0.3175,-0.99773 0.86113,-1.99547 1.63275,-2.99321 0.81589,-1.04296 1.79102,-1.99547 2.92444,-2.85754 1.13435,-0.9073 2.40436,-1.61015 3.81006,-2.10854 1.40569,-0.54457 2.90277,-0.81684 4.48934,-0.81684 z m 48.35691,0.81684 c 0.95252,0 1.74581,0.34011 2.38081,1.02035 0.68024,0.635 1.02035,1.45091 1.02035,2.44865 v 17.89147 c 0,4.71641 -1.31524,8.41247 -3.94573,11.08819 -2.63049,2.63048 -6.34916,3.94574 -11.15602,3.94574 -4.76163,0 -8.45864,-1.31526 -11.08819,-3.94574 -2.58525,-2.67572 -3.8779,-6.37178 -3.8779,-11.08819 v -17.89147 c 0,-0.99774 0.31752,-1.81365 0.95252,-2.44865 0.63502,-0.68024 1.45092,-1.02035 2.44865,-1.02035 0.95252,0 1.74582,0.34011 2.38082,1.02035 0.68023,0.635 1.02035,1.45091 1.02035,2.44865 v 17.89147 c 0,2.948 0.68024,5.14698 2.04071,6.59884 1.40663,1.4509 3.44733,2.17637 6.12304,2.17637 2.72093,0 4.78425,-0.72547 6.18994,-2.17637 1.40663,-1.45186 2.10948,-3.65084 2.10948,-6.59884 v -17.89147 c 0,-0.99774 0.3175,-1.81365 0.95157,-2.44865 0.63501,-0.68024 1.45186,-1.02035 2.4496,-1.02035 z m 30.81967,-0.6124 c 3.35595,0 5.94121,0.83946 7.75485,2.51743 1.81459,1.63181 3.01584,3.85434 3.60562,6.66667 l -1.08818,-0.34011 0.47579,-1.08914 c 0.58978,-1.17863 1.47446,-2.3582 2.65309,-3.53683 1.22481,-1.2248 2.67572,-2.22254 4.35369,-2.99323 1.67797,-0.81684 3.46995,-1.22479 5.37404,-1.22479 3.12982,0 5.55587,0.68024 7.27907,2.0407 1.72319,1.31525 2.92538,3.10628 3.6056,5.37404 0.68025,2.22253 1.02037,4.71641 1.02037,7.48351 v 18.02713 c 0,0.99774 -0.31752,1.83626 -0.95253,2.5165 -0.635,0.635 -1.45091,0.95251 -2.44865,0.95251 -0.95251,0 -1.76936,-0.31751 -2.44959,-0.95251 -0.63501,-0.68024 -0.95158,-1.51876 -0.95158,-2.5165 v -17.95929 c 0,-1.58754 -0.22706,-3.03844 -0.68118,-4.35369 -0.40795,-1.31524 -1.15602,-2.3582 -2.2442,-3.12983 -1.04296,-0.81591 -2.49482,-1.22385 -4.35368,-1.22385 -1.76936,0 -3.35595,0.40794 -4.76258,1.22385 -1.36047,0.77163 -2.42605,1.81459 -3.19672,3.12983 -0.77069,1.31525 -1.15696,2.76615 -1.15696,4.35369 v 17.95929 c 0,0.99774 -0.31752,1.83626 -0.95158,2.5165 -0.63502,0.635 -1.45186,0.95251 -2.44959,0.95251 -0.99774,0 -1.81365,-0.31751 -2.44865,-0.95251 -0.63502,-0.68024 -0.95253,-1.51876 -0.95253,-2.5165 v -18.02713 c 0,-1.58753 -0.22706,-3.03844 -0.68023,-4.35369 -0.40796,-1.31524 -1.1334,-2.3582 -2.17638,-3.12982 -1.0439,-0.77068 -2.49481,-1.15602 -4.35461,-1.15602 -1.76842,0 -3.3324,0.38534 -4.69381,1.15602 -1.36047,0.77162 -2.42604,1.81458 -3.19672,3.12982 -0.72545,1.31525 -1.08819,2.76616 -1.08819,4.35369 v 18.02713 c 0,0.99774 -0.34011,1.83626 -1.02035,2.5165 -0.63501,0.635 -1.42923,0.95251 -2.38175,0.95251 -0.99775,0 -1.81364,-0.31751 -2.44866,-0.95251 -0.63501,-0.68024 -0.95251,-1.51876 -0.95251,-2.5165 v -28.84398 c 0,-0.99774 0.3175,-1.81365 0.95251,-2.44865 0.63502,-0.68024 1.45091,-1.02035 2.44866,-1.02035 0.95252,0 1.74674,0.34011 2.38175,1.02035 0.68024,0.635 1.02035,1.45091 1.02035,2.44865 v 4.01358 l -1.29262,0.74901 c 0.31749,-0.99775 0.83851,-2.01904 1.56396,-3.062 0.7264,-1.04296 1.63275,-1.99548 2.72188,-2.85661 1.13341,-0.86207 2.38082,-1.56492 3.74128,-2.10853 1.36047,-0.54457 2.834,-0.81685 4.42152,-0.81685 z m 62.58057,-0.20444 c 3.17506,0 5.98643,0.79423 8.43602,2.38175 2.49389,1.58659 4.46675,3.78651 5.91767,6.59789 1.45185,2.7671 2.17731,5.96383 2.17731,9.59206 0,3.62821 -0.72546,6.8485 -2.17731,9.65988 -1.45092,2.81138 -3.40117,5.03392 -5.84983,6.66667 -2.44865,1.58752 -5.21575,2.38082 -8.29941,2.38082 -1.7232,0 -3.35595,-0.27229 -4.89826,-0.8159 -1.54135,-0.58979 -2.90183,-1.31526 -4.08139,-2.17733 -1.17863,-0.90729 -2.15376,-1.85886 -2.92539,-2.8566 -0.72545,-0.99774 -1.17862,-1.92764 -1.36047,-2.78971 l 1.8372,-0.88375 v 5.91768 c 0,0.95251 -0.34011,1.76935 -1.02035,2.44959 -0.635,0.63406 -1.42924,0.95157 -2.38081,0.95157 -0.99774,0 -1.81459,-0.31751 -2.4496,-0.95157 -0.63502,-0.63501 -0.95251,-1.45186 -0.95251,-2.44959 v -43.9448 c 0,-0.99774 0.31749,-1.81459 0.95251,-2.44961 0.63501,-0.68023 1.45186,-1.02034 2.4496,-1.02034 0.95157,0 1.74581,0.34011 2.38081,1.02034 0.68024,0.63502 1.02035,1.45187 1.02035,2.44961 v 19.11531 l -1.08818,-0.61239 c 0.13567,-0.86112 0.56623,-1.74581 1.29169,-2.6531 0.72639,-0.95252 1.63274,-1.85887 2.72188,-2.72093 1.13341,-0.86207 2.40342,-1.54232 3.80913,-2.04071 1.4509,-0.54457 2.94799,-0.81684 4.48934,-0.81684 z m -0.74806,6.25871 c -2.17638,0 -4.08141,0.54456 -5.71416,1.63275 -1.58752,1.08818 -2.83398,2.56265 -3.74128,4.42152 -0.90729,1.81459 -1.36047,3.90051 -1.36047,6.25872 0,2.3582 0.45318,4.48934 1.36047,6.39437 0.9073,1.85981 2.15376,3.33335 3.74128,4.42153 1.63275,1.08912 3.53778,1.63275 5.71416,1.63275 2.13208,0 3.99095,-0.54363 5.57848,-1.63275 1.58752,-1.08818 2.83399,-2.58432 3.74129,-4.48935 0.95251,-1.90503 1.42829,-4.01357 1.42829,-6.32655 0,-2.35821 -0.47578,-4.44413 -1.42829,-6.25872 -0.9073,-1.85887 -2.15377,-3.33334 -3.74129,-4.42152 -1.58753,-1.08819 -3.4464,-1.63275 -5.57848,-1.63275 z m 41.63935,31.02036 c -3.76484,0 -7.03035,-0.77068 -9.79651,-2.31299 -2.76615,-1.58753 -4.92085,-3.74129 -6.4622,-6.46222 -1.49709,-2.7671 -2.24517,-5.91859 -2.24517,-9.45638 0,-3.99001 0.79424,-7.39212 2.38083,-10.20351 1.63274,-2.85754 3.74129,-5.03391 6.32654,-6.531 2.58527,-1.54135 5.32882,-2.31297 8.23159,-2.31297 2.22254,0 4.33108,0.4541 6.32655,1.3614 1.99548,0.86113 3.7639,2.08593 5.3062,3.67345 1.58658,1.54136 2.834,3.37857 3.74129,5.50971 0.90729,2.08592 1.38308,4.3763 1.4283,6.87111 -0.0452,0.90635 -0.40795,1.65536 -1.08818,2.24421 -0.68024,0.58978 -1.47448,0.88469 -2.38083,0.88469 h -26.46222 l -1.63274,-5.78199 h 25.57753 l -1.29263,1.22386 v -1.7006 c -0.0905,-1.58752 -0.61146,-2.9706 -1.56397,-4.14923 -0.95252,-1.2248 -2.13209,-2.15471 -3.53778,-2.78971 -1.4057,-0.68023 -2.88016,-1.02036 -4.42152,-1.02036 -1.36047,0 -2.67571,0.22707 -3.94573,0.68024 -1.22479,0.4089 -2.33559,1.08912 -3.33334,2.04165 -0.95252,0.95156 -1.72319,2.22159 -2.31298,3.80912 -0.54363,1.54229 -0.8159,3.469 -0.8159,5.78199 0,2.49481 0.52101,4.67118 1.56397,6.53099 1.04296,1.85887 2.44959,3.31072 4.21801,4.35368 1.76842,0.99773 3.71867,1.49614 5.85077,1.49614 1.67796,0 3.06105,-0.15828 4.14924,-0.47579 1.08818,-0.36273 1.99547,-0.79328 2.72093,-1.29263 0.72546,-0.49839 1.36046,-0.97513 1.90504,-1.4283 0.68023,-0.40796 1.36045,-0.61239 2.04069,-0.61239 0.81591,0 1.49614,0.29488 2.0407,0.88467 0.54457,0.54362 0.81591,1.20125 0.81591,1.97192 0,0.99775 -0.4984,1.90503 -1.49613,2.72188 -1.22481,1.17864 -2.9254,2.2216 -5.10176,3.12889 -2.13209,0.90729 -4.3763,1.36047 -6.7345,1.36047 z m 26.32843,-0.68024 c -0.99774,0 -1.81458,-0.31751 -2.44958,-0.95251 -0.63502,-0.68024 -0.95252,-1.51876 -0.95252,-2.5165 v -28.84398 c 0,-0.99774 0.3175,-1.81365 0.95252,-2.44865 0.635,-0.68024 1.45184,-1.02035 2.44958,-1.02035 0.95158,0 1.74581,0.34011 2.38082,1.02035 0.68024,0.635 1.02036,1.45091 1.02036,2.44865 v 7.61918 l -0.68025,-2.92538 c 0.36274,-1.26907 0.90636,-2.44865 1.63276,-3.53683 0.77068,-1.08913 1.67797,-2.04071 2.72093,-2.85755 1.04297,-0.8159 2.19898,-1.45091 3.469,-1.90504 1.31525,-0.45317 2.67572,-0.68022 4.08141,-0.68022 1.17957,0 2.19992,0.3175 3.062,0.95252 0.86112,0.635 1.29168,1.42923 1.29168,2.38081 0,1.2248 -0.3175,2.1321 -0.95156,2.72187 -0.63501,0.54363 -1.33787,0.8159 -2.10949,0.8159 -0.68024,0 -1.33785,-0.13566 -1.97287,-0.40794 -0.63501,-0.31751 -1.38307,-0.47673 -2.2442,-0.47673 -0.95251,0 -1.92764,0.24966 -2.92537,0.74901 -0.99775,0.49839 -1.90504,1.24646 -2.72094,2.2442 -0.81685,0.95251 -1.47448,2.08688 -1.97287,3.40211 -0.45412,1.3143 -0.68023,2.78878 -0.68023,4.42153 v 16.32654 c 0,0.99774 -0.34012,1.83626 -1.02036,2.5165 -0.63501,0.635 -1.42924,0.95251 -2.38082,0.95251 z m 41.85605,-5.57848 c -0.4089,-0.63501 -0.58978,-1.36048 -0.54456,-2.17637 0.0452,-0.86207 0.52196,-1.58752 1.42829,-2.17732 0.63502,-0.40794 1.29265,-0.56622 1.97288,-0.47578 0.72544,0.0452 1.40569,0.38534 2.0407,1.02036 1.27002,1.40567 2.67571,2.51647 4.21801,3.33332 1.58752,0.81591 3.49161,1.22481 5.71415,1.22481 0.90729,-0.0462 1.83719,-0.18185 2.78877,-0.4089 0.95251,-0.27134 1.76936,-0.72547 2.4496,-1.36047 0.68024,-0.68024 1.02035,-1.65536 1.02035,-2.92538 0,-1.13341 -0.36272,-2.04071 -1.08818,-2.72093 -0.72641,-0.68024 -1.67798,-1.22386 -2.85755,-1.63276 -1.17957,-0.45317 -2.44866,-0.86113 -3.80912,-1.22385 -1.45186,-0.40795 -2.92539,-0.86207 -4.42247,-1.36047 -1.45092,-0.49934 -2.76616,-1.13435 -3.94479,-1.90503 -1.17956,-0.81591 -2.15469,-1.85981 -2.92538,-3.12889 -0.72545,-1.27001 -1.08818,-2.83493 -1.08818,-4.6938 0,-2.13209 0.58884,-3.96834 1.76841,-5.51065 1.22386,-1.54231 2.78877,-2.74354 4.6938,-3.60561 1.95026,-0.86113 4.0588,-1.29263 6.32656,-1.29263 1.31525,0 2.69832,0.18183 4.14924,0.54456 1.45185,0.3175 2.85755,0.83945 4.21801,1.56491 1.36047,0.72546 2.5391,1.67798 3.53684,2.8566 0.45411,0.5898 0.70379,1.29264 0.74901,2.10948 0.0905,0.81591 -0.27228,1.54137 -1.08913,2.17638 -0.54362,0.45411 -1.20124,0.65762 -1.97193,0.6124 -0.77161,-0.0452 -1.40663,-0.29489 -1.90503,-0.74807 -0.86207,-1.08914 -1.97286,-1.92765 -3.33333,-2.51743 -1.36047,-0.63501 -2.90276,-0.95252 -4.62597,-0.95252 -0.86207,0 -1.76841,0.13661 -2.72093,0.40889 -0.90729,0.22612 -1.67797,0.65763 -2.31298,1.2917 -0.63502,0.635 -0.95252,1.56491 -0.95252,2.78971 0,1.13341 0.36274,2.0407 1.08819,2.72094 0.77163,0.68022 1.76936,1.2474 2.99321,1.70057 1.2248,0.45318 2.56266,0.86208 4.01357,1.22481 1.40664,0.36272 2.78971,0.79329 4.15018,1.29263 1.40569,0.4984 2.65309,1.15602 3.74129,1.97192 1.13341,0.77162 2.0407,1.79198 2.72093,3.06199 0.72546,1.22387 1.0882,2.78878 1.0882,4.69381 0,2.22159 -0.65763,4.12662 -1.97288,5.71416 -1.26908,1.54135 -2.90183,2.72092 -4.89731,3.53683 -1.95025,0.81685 -4.01356,1.2248 -6.19088,1.2248 -2.58526,0 -5.16959,-0.45318 -7.75485,-1.36047 -2.54004,-0.95252 -4.6938,-2.58527 -6.46222,-4.89825 z m 52.62109,-30.81591 c 3.12887,0 5.55586,0.68024 7.27905,2.0407 1.7232,1.31525 2.92538,3.10628 3.60562,5.37404 0.72546,2.26775 1.08818,4.76257 1.08818,7.48351 v 18.02713 c 0,0.99774 -0.34011,1.83626 -1.02035,2.5165 -0.635,0.635 -1.4283,0.95251 -2.38082,0.95251 -0.99773,0 -1.81457,-0.31751 -2.44959,-0.95251 -0.63501,-0.68024 -0.95252,-1.51876 -0.95252,-2.5165 v -18.02713 c 0,-1.58753 -0.22611,-3.03844 -0.68023,-4.35369 -0.40795,-1.31524 -1.15602,-2.3582 -2.2442,-3.12982 -1.04297,-0.77068 -2.51744,-1.15602 -4.42153,-1.15602 -1.76936,0 -3.35688,0.38534 -4.76257,1.15602 -1.36047,0.77162 -2.42604,1.81458 -3.19672,3.12982 -0.72546,1.31525 -1.08914,2.76616 -1.08914,4.35369 v 18.02713 c 0,0.99774 -0.34011,1.83626 -1.02035,2.5165 -0.635,0.635 -1.4283,0.95251 -2.38081,0.95251 -0.99774,0 -1.81364,-0.31751 -2.44866,-0.95251 -0.635,-0.68024 -0.95252,-1.51876 -0.95252,-2.5165 V 561.0245 c 0,-0.99774 0.31752,-1.81459 0.95252,-2.44961 0.63502,-0.68023 1.45092,-1.02034 2.44866,-1.02034 0.95251,0 1.74581,0.34011 2.38081,1.02034 0.68024,0.63502 1.02035,1.45187 1.02035,2.44961 v 18.57076 l -1.22385,0.68022 c 0.31751,-0.99774 0.83851,-2.01808 1.56398,-3.06105 0.77162,-1.04296 1.70152,-1.99548 2.78971,-2.85661 1.1334,-0.86206 2.38081,-1.5423 3.74128,-2.04069 1.36046,-0.54457 2.81138,-0.81685 4.3537,-0.81685 z m 55.71886,18.50293 c 0,3.62823 -0.7933,6.84849 -2.38082,9.65988 -1.58658,2.7671 -3.74129,4.94347 -6.46222,6.531 -2.72094,1.58752 -5.78199,2.38082 -9.18411,2.38082 -3.40116,0 -6.46221,-0.7933 -9.18314,-2.38082 -2.72094,-1.58753 -4.89826,-3.7639 -6.531,-6.531 -1.58658,-2.81139 -2.38083,-6.03165 -2.38083,-9.65988 0,-3.67345 0.79425,-6.89279 2.38083,-9.65894 1.63274,-2.81234 3.81006,-5.01132 6.531,-6.59884 2.72093,-1.63275 5.78198,-2.44959 9.18314,-2.44959 3.40212,0 6.46317,0.81684 9.18411,2.44959 2.72093,1.58752 4.87564,3.7865 6.46222,6.59884 1.58752,2.76615 2.38082,5.98549 2.38082,9.65894 z m -6.80235,0 c 0,-2.49388 -0.49839,-4.64764 -1.49613,-6.46223 -0.99774,-1.85886 -2.35915,-3.31072 -4.08234,-4.35368 -1.67797,-1.08819 -3.55945,-1.63275 -5.64633,-1.63275 -2.08592,0 -3.99095,0.54456 -5.71415,1.63275 -1.72319,1.04296 -3.08366,2.49482 -4.08139,4.35368 -0.99774,1.81459 -1.49614,3.96835 -1.49614,6.46223 0,2.40436 0.4984,4.53552 1.49614,6.39533 0.99773,1.85887 2.3582,3.30977 4.08139,4.35368 1.7232,1.04296 3.62823,1.56397 5.71415,1.56397 2.08688,0 3.96836,-0.52101 5.64633,-1.56397 1.72319,-1.04391 3.0846,-2.49481 4.08234,-4.35368 0.99774,-1.85981 1.49613,-3.99097 1.49613,-6.39533 z m 56.20315,-18.23065 c 0.86113,0 1.61014,0.34012 2.24515,1.02035 0.68023,0.63501 1.02035,1.47353 1.02035,2.51649 0,0.22706 -0.0226,0.45413 -0.0687,0.68118 -0.0452,0.22611 -0.11306,0.43056 -0.20351,0.61145 l -10.40795,29.11532 c -0.27228,0.77163 -0.74901,1.36141 -1.42924,1.76936 -0.68024,0.36274 -1.38308,0.49841 -2.10855,0.40796 -1.31523,-0.0905 -2.29036,-0.81591 -2.92537,-2.17732 l -7.68702,-20.40794 1.56492,0.1366 -7.07463,20.27134 c -0.635,1.36141 -1.61014,2.08688 -2.92538,2.17732 -0.68024,0.0905 -1.38308,-0.0452 -2.10853,-0.40796 -0.68024,-0.40795 -1.15696,-0.99773 -1.42925,-1.76936 l -10.47579,-29.11532 c -0.18089,-0.40795 -0.27228,-0.8385 -0.27228,-1.29263 0,-0.95158 0.29489,-1.76842 0.88468,-2.44866 0.635,-0.72544 1.47352,-1.08818 2.51649,-1.08818 0.72639,0 1.36141,0.18089 1.90503,0.54457 0.58979,0.36272 0.99774,0.90635 1.2248,1.63181 l 8.70736,24.55814 -1.56491,-0.13662 7.07462,-18.57076 c 0.5898,-1.4057 1.63276,-2.10853 3.12983,-2.10853 0.81591,0 1.45092,0.18088 1.90409,0.54361 0.45412,0.36274 0.81685,0.88468 1.08913,1.56492 l 7.21028,18.63954 -1.83625,0.2035 8.77521,-24.6938 c 0.45317,-1.45092 1.5423,-2.17638 3.2655,-2.17638 z m 7.74166,30.54363 c -0.40795,-0.63501 -0.58884,-1.36048 -0.54362,-2.17637 0.0452,-0.86207 0.52102,-1.58752 1.42831,-2.17732 0.635,-0.40794 1.29263,-0.56622 1.97286,-0.47578 0.72545,0.0452 1.40569,0.38534 2.0407,1.02036 1.27002,1.40567 2.67571,2.51647 4.21801,3.33332 1.58753,0.81591 3.49162,1.22481 5.71416,1.22481 0.90729,-0.0462 1.83624,-0.18185 2.78876,-0.4089 0.95251,-0.27134 1.76936,-0.72547 2.4496,-1.36047 0.68024,-0.68024 1.02035,-1.65536 1.02035,-2.92538 0,-1.13341 -0.36273,-2.04071 -1.08912,-2.72093 -0.72547,-0.68024 -1.67798,-1.22386 -2.85661,-1.63276 -1.17957,-0.45317 -2.4496,-0.86113 -3.81006,-1.22385 -1.45092,-0.40795 -2.92444,-0.86207 -4.42153,-1.36047 -1.45091,-0.49934 -2.76616,-1.13435 -3.94572,-1.90503 -1.17863,-0.81591 -2.15376,-1.85981 -2.92445,-3.12889 -0.72639,-1.27001 -1.08912,-2.83493 -1.08912,-4.6938 0,-2.13209 0.58978,-3.96834 1.76936,-5.51065 1.22385,-1.54231 2.78877,-2.74354 4.6938,-3.60561 1.95026,-0.86113 4.05879,-1.29263 6.32655,-1.29263 1.31525,0 2.69832,0.18183 4.14924,0.54456 1.45091,0.3175 2.85755,0.83945 4.21801,1.56491 1.36048,0.72546 2.5391,1.67798 3.53684,2.8566 0.45412,0.5898 0.70285,1.29264 0.74807,2.10948 0.0914,0.81591 -0.27133,1.54137 -1.08818,2.17638 -0.54363,0.45411 -1.20125,0.65762 -1.97287,0.6124 -0.77068,-0.0452 -1.4057,-0.29489 -1.90409,-0.74807 -0.86206,-1.08914 -1.97287,-1.92765 -3.33333,-2.51743 -1.36047,-0.63501 -2.90277,-0.95252 -4.62597,-0.95252 -0.86207,0 -1.76843,0.13661 -2.72094,0.40889 -0.90729,0.22612 -1.67797,0.65763 -2.31297,1.2917 -0.63502,0.635 -0.95252,1.56491 -0.95252,2.78971 0,1.13341 0.36272,2.0407 1.08818,2.72094 0.77069,0.68022 1.76843,1.2474 2.99322,1.70057 1.22479,0.45318 2.56265,0.86208 4.01356,1.22481 1.4057,0.36272 2.78877,0.79329 4.15018,1.29263 1.40569,0.4984 2.65216,1.15602 3.7413,1.97192 1.1334,0.77162 2.04069,1.79198 2.72093,3.06199 0.72545,1.22387 1.08819,2.78878 1.08819,4.69381 0,2.22159 -0.65763,4.12662 -1.97287,5.71416 -1.27003,1.54135 -2.90183,2.72092 -4.8973,3.53683 -1.95027,0.81685 -4.01358,1.2248 -6.19089,1.2248 -2.58527,0 -5.1696,-0.45318 -7.75485,-1.36047 -2.54004,-0.95252 -4.6938,-2.58527 -6.46317,-4.89825 z m 71.55551,-30.81591 c 3.12888,0 5.55493,0.68024 7.27812,2.0407 1.72414,1.31525 2.92539,3.10628 3.60561,5.37404 0.72547,2.26775 1.08818,4.76257 1.08818,7.48351 v 18.02713 c 0,0.99774 -0.34011,1.83626 -1.02034,2.5165 -0.635,0.635 -1.4283,0.95251 -2.38082,0.95251 -0.99774,0 -1.81364,-0.31751 -2.44865,-0.95251 -0.63501,-0.68024 -0.95252,-1.51876 -0.95252,-2.5165 v -18.02713 c 0,-1.58753 -0.22705,-3.03844 -0.68022,-4.35369 -0.40796,-1.31524 -1.15603,-2.3582 -2.24516,-3.12982 -1.04296,-0.77068 -2.51648,-1.15602 -4.42152,-1.15602 -1.76841,0 -3.35594,0.38534 -4.76164,1.15602 -1.36046,0.77162 -2.42604,1.81458 -3.19765,3.12982 -0.72547,1.31525 -1.08819,2.76616 -1.08819,4.35369 v 18.02713 c 0,0.99774 -0.34013,1.83626 -1.02035,2.5165 -0.63501,0.635 -1.42831,0.95251 -2.38083,0.95251 -0.99773,0 -1.81457,-0.31751 -2.44959,-0.95251 -0.63406,-0.68024 -0.95157,-1.51876 -0.95157,-2.5165 V 561.0245 c 0,-0.99774 0.31751,-1.81459 0.95157,-2.44961 0.63502,-0.68023 1.45186,-1.02034 2.44959,-1.02034 0.95252,0 1.74582,0.34011 2.38083,1.02034 0.68022,0.63502 1.02035,1.45187 1.02035,2.44961 v 18.57076 l -1.2248,0.68022 c 0.31751,-0.99774 0.83945,-2.01808 1.56492,-3.06105 0.77067,-1.04296 1.70058,-1.99548 2.78876,-2.85661 1.13435,-0.86206 2.38083,-1.5423 3.74223,-2.04069 1.36047,-0.54457 2.81138,-0.81685 4.35369,-0.81685 z m 55.71887,18.50293 c 0,3.62823 -0.7933,6.84849 -2.38082,9.65988 -1.58752,2.7671 -3.74129,4.94347 -6.46317,6.531 -2.72092,1.58752 -5.78199,2.38082 -9.18315,2.38082 -3.40117,0 -6.46222,-0.7933 -9.18409,-2.38082 -2.72094,-1.58753 -4.89731,-3.7639 -6.53006,-6.531 -1.58753,-2.81139 -2.38083,-6.03165 -2.38083,-9.65988 0,-3.67345 0.7933,-6.89279 2.38083,-9.65894 1.63275,-2.81234 3.80912,-5.01132 6.53006,-6.59884 2.72187,-1.63275 5.78292,-2.44959 9.18409,-2.44959 3.40116,0 6.46223,0.81684 9.18315,2.44959 2.72188,1.58752 4.87565,3.7865 6.46317,6.59884 1.58752,2.76615 2.38082,5.98549 2.38082,9.65894 z m -6.80234,0 c 0,-2.49388 -0.49934,-4.64764 -1.49708,-6.46223 -0.99774,-1.85886 -2.3582,-3.31072 -4.0814,-4.35368 -1.67798,-1.08819 -3.56039,-1.63275 -5.64632,-1.63275 -2.08593,0 -3.99096,0.54456 -5.71414,1.63275 -1.7232,1.04296 -3.08368,2.49482 -4.08142,4.35368 -0.99773,1.81459 -1.49707,3.96835 -1.49707,6.46223 0,2.40436 0.49934,4.53552 1.49707,6.39533 0.99774,1.85887 2.35822,3.30977 4.08142,4.35368 1.72318,1.04296 3.62821,1.56397 5.71414,1.56397 2.08593,0 3.96834,-0.52101 5.64632,-1.56397 1.7232,-1.04391 3.08366,-2.49481 4.0814,-4.35368 0.99774,-1.85981 1.49708,-3.99097 1.49708,-6.39533 z m 56.20219,-18.23065 c 0.86207,0 1.61014,0.34012 2.24515,1.02035 0.68024,0.63501 1.02036,1.47353 1.02036,2.51649 0,0.22706 -0.0226,0.45413 -0.0679,0.68118 -0.0452,0.22611 -0.11306,0.43056 -0.20446,0.61145 l -10.40795,29.11532 c -0.27227,0.77163 -0.74806,1.36141 -1.42829,1.76936 -0.68025,0.36274 -1.38309,0.49841 -2.10854,0.40796 -1.31525,-0.0905 -2.29037,-0.81591 -2.92538,-2.17732 l -7.68702,-20.40794 1.56397,0.1366 -7.07462,20.27134 c -0.63501,1.36141 -1.61013,2.08688 -2.92444,2.17732 -0.68117,0.0905 -1.38402,-0.0452 -2.10948,-0.40796 -0.68023,-0.40795 -1.15602,-0.99773 -1.42829,-1.76936 l -10.4758,-29.11532 c -0.18184,-0.40795 -0.27228,-0.8385 -0.27228,-1.29263 0,-0.95158 0.29489,-1.76842 0.88374,-2.44866 0.63501,-0.72544 1.47447,-1.08818 2.51743,-1.08818 0.72545,0 1.36046,0.18089 1.90503,0.54457 0.58884,0.36272 0.99774,0.90635 1.22386,1.63181 l 8.70736,24.55814 -1.56397,-0.13662 7.07462,-18.57076 c 0.58979,-1.4057 1.63275,-2.10853 3.12889,-2.10853 0.81684,0 1.45186,0.18088 1.90504,0.54361 0.45317,0.36274 0.81589,0.88468 1.08818,1.56492 l 7.21122,18.63954 -1.83719,0.2035 8.77615,-24.6938 c 0.45316,-1.45092 1.54136,-2.17638 3.26455,-2.17638 z M 48.781725,656.29397 c 3.35595,0 5.94094,0.83946 7.75505,2.51743 1.81401,1.6318 3.01583,3.85434 3.60543,6.66666 l -1.08847,-0.34012 0.47616,-1.08912 c 0.5896,-1.17863 1.4739,-2.35821 2.6531,-3.53685 1.22442,-1.22479 2.67571,-2.22252 4.35369,-2.99321 1.67798,-0.81685 3.46956,-1.22479 5.37365,-1.22479 3.12982,0 5.55587,0.68022 7.27908,2.0407 1.72318,1.31523 2.92537,3.10627 3.60561,5.37404 0.68023,2.22253 1.02035,4.7164 1.02035,7.48351 v 18.02713 c 0,0.99774 -0.31751,1.83626 -0.95252,2.51649 -0.63501,0.635 -1.45092,0.95252 -2.44866,0.95252 -0.95251,0 -1.76842,-0.31752 -2.44865,-0.95252 -0.635,-0.68023 -0.95252,-1.51875 -0.95252,-2.51649 v -17.9593 c 0,-1.58753 -0.22705,-3.03843 -0.68022,-4.35368 -0.4089,-1.31525 -1.15697,-2.35821 -2.24515,-3.12983 -1.04297,-0.8159 -2.49388,-1.22387 -4.35368,-1.22387 -1.7687,0 -3.35604,0.40797 -4.76193,1.22387 -1.36056,0.77162 -2.42623,1.81458 -3.19729,3.12983 -0.77096,1.31525 -1.15639,2.76615 -1.15639,4.35368 v 17.9593 c 0,0.99774 -0.31751,1.83626 -0.95242,2.51649 -0.63492,0.635 -1.45121,0.95252 -2.44895,0.95252 -0.99773,0 -1.81401,-0.31752 -2.44893,-0.95252 -0.63492,-0.68023 -0.95242,-1.51875 -0.95242,-2.51649 v -18.02713 c 0,-1.58753 -0.22677,-3.03845 -0.68023,-4.35369 -0.40814,-1.31524 -1.13379,-2.3582 -2.17684,-3.12982 -1.04315,-0.77069 -2.49435,-1.15604 -4.35378,-1.15604 -1.7687,0 -3.33324,0.38535 -4.6938,1.15604 -1.36057,0.77162 -2.42633,1.81458 -3.19729,3.12982 -0.725651,1.31524 -1.088376,2.76616 -1.088376,4.35369 v 18.02713 c 0,0.99774 -0.340213,1.83626 -1.02045,2.51649 -0.634913,0.635 -1.428577,0.95252 -2.380913,0.95252 -0.997738,0 -1.814103,-0.31752 -2.449027,-0.95252 -0.634914,-0.68023 -0.952326,-1.51875 -0.952326,-2.51649 v -28.84398 c 0,-0.99774 0.317412,-1.81365 0.952326,-2.44865 0.634924,-0.68023 1.451289,-1.02036 2.449027,-1.02036 0.952336,0 1.746,0.34013 2.380913,1.02036 0.680237,0.635 1.02045,1.45091 1.02045,2.44865 v 4.01356 l -1.292538,0.74901 c 0.317412,-0.99773 0.838988,-2.01903 1.564626,-3.06199 0.725558,-1.04296 1.632658,-1.99547 2.721038,-2.8566 1.13379,-0.86207 2.38091,-1.56492 3.74148,-2.10854 1.36055,-0.54456 2.83446,-0.81684 4.42179,-0.81684 z m 73.872925,0.0679 c 0.99773,0 1.81458,0.34012 2.44958,1.02036 0.63502,0.63501 0.95252,1.45186 0.95252,2.44959 v 29.3876 c 0,0.99774 -0.3175,1.83627 -0.95252,2.5165 -0.635,0.635 -1.45185,0.95251 -2.44958,0.95251 -0.95158,0 -1.76842,-0.31751 -2.44866,-0.95251 -0.63501,-0.68023 -0.95252,-1.51876 -0.95252,-2.5165 v -4.89824 l 1.42926,0.20445 c 0,0.8159 -0.34013,1.7232 -1.02131,2.72093 -0.63406,0.99774 -1.51874,1.97286 -2.65215,2.92444 -1.13436,0.90729 -2.47221,1.67798 -4.01357,2.31298 -1.5423,0.58979 -3.19766,0.88468 -4.96608,0.88468 -3.12982,0 -5.94122,-0.79329 -8.436035,-2.38081 -2.49387,-1.63275 -4.46674,-3.85529 -5.91765,-6.66667 -1.45186,-2.81138 -2.17732,-6.00905 -2.17732,-9.59206 0,-3.67345 0.72546,-6.89278 2.17732,-9.65988 1.45091,-2.81138 3.40116,-5.0113 5.84982,-6.59789 2.494815,-1.58752 5.260985,-2.38177 8.299415,-2.38177 1.95025,0 3.74129,0.31752 5.37403,0.95254 1.67797,0.635 3.12984,1.45184 4.35369,2.44958 1.22479,0.99774 2.1547,2.06331 2.78971,3.19673 0.68024,1.08818 1.02035,2.13208 1.02035,3.12982 l -2.10948,0.20351 v -6.18994 c 0,-0.95251 0.31751,-1.76936 0.95252,-2.44959 0.68024,-0.68024 1.49708,-1.02036 2.44866,-1.02036 z m -13.87696,30.74808 c 2.13115,0 4.01356,-0.54363 5.64632,-1.63275 1.63275,-1.08818 2.90183,-2.56172 3.80912,-4.42152 0.90728,-1.90504 1.36046,-4.01357 1.36046,-6.32656 0,-2.35819 -0.45318,-4.46673 -1.36046,-6.32654 -0.90729,-1.85887 -2.17637,-3.33334 -3.80912,-4.42152 -1.63276,-1.08818 -3.51517,-1.63276 -5.64632,-1.63276 -2.08592,0 -3.94573,0.54458 -5.57848,1.63276 -1.58753,1.08818 -2.85661,2.56265 -3.809125,4.42152 -0.90729,1.85981 -1.36047,3.96835 -1.36047,6.32654 0,2.31299 0.45318,4.42152 1.36047,6.32656 0.952515,1.8598 2.221595,3.33334 3.809125,4.42152 1.63275,1.08912 3.49256,1.63275 5.57848,1.63275 z m 45.24402,-31.02037 c 3.22027,0 5.71415,0.68024 7.48257,2.04166 1.76937,1.31429 2.99322,3.10627 3.67346,5.37404 0.72639,2.22159 1.08912,4.7164 1.08912,7.48256 v 18.23158 c 0,0.99774 -0.34011,1.83627 -1.02035,2.5165 -0.63501,0.635 -1.42925,0.95251 -2.38082,0.95251 -0.99774,0 -1.81459,-0.31751 -2.44959,-0.95251 -0.63502,-0.68023 -0.95251,-1.51876 -0.95251,-2.5165 v -18.16378 c 0,-1.63274 -0.22613,-3.08367 -0.68024,-4.35368 -0.45319,-1.31525 -1.24647,-2.35821 -2.38082,-3.12889 -1.08819,-0.81684 -2.63048,-1.2248 -4.62597,-1.2248 -1.85886,0 -3.49161,0.40796 -4.89731,1.2248 -1.40662,0.77068 -2.51742,1.81364 -3.33332,3.12889 -0.77163,1.27001 -1.15698,2.72094 -1.15698,4.35368 v 18.16375 c 0,0.99774 -0.34011,1.83626 -1.02034,2.51649 -0.63501,0.635 -1.4283,0.95252 -2.38081,0.95252 -0.99775,0 -1.81365,-0.31752 -2.44867,-0.95252 -0.635,-0.68023 -0.95251,-1.51875 -0.95251,-2.51649 v -28.84398 c 0,-0.99774 0.31751,-1.81365 0.95251,-2.44865 0.63502,-0.68023 1.45092,-1.02036 2.44867,-1.02036 0.95251,0 1.7458,0.34013 2.38081,1.02036 0.68023,0.635 1.02034,1.45091 1.02034,2.44865 v 3.81006 l -1.22385,0.68023 c 0.31752,-0.99774 0.86113,-1.99547 1.63182,-2.99321 0.81684,-1.04296 1.79197,-1.99548 2.92537,-2.85755 1.13435,-0.90729 2.40344,-1.61014 3.81007,-2.10854 1.40569,-0.54456 2.90182,-0.81685 4.48935,-0.81685 z m 47.95648,0.54458 c 0.99774,0 1.81365,0.34011 2.44865,1.02034 0.63502,0.63502 0.95252,1.45092 0.95252,2.44866 v 29.25194 c 0,3.99095 -0.77067,7.23384 -2.31298,9.72771 -1.49614,2.49483 -3.53778,4.30846 -6.12211,5.44188 -2.54004,1.17956 -5.41925,1.76935 -8.63953,1.76935 -1.63275,0 -3.2655,-0.15921 -4.89825,-0.47672 -1.63275,-0.27229 -2.9706,-0.68023 -4.01356,-1.22386 -1.08819,-0.49934 -1.85887,-1.11173 -2.31299,-1.8372 -0.45317,-0.72544 -0.521,-1.51874 -0.20351,-2.38081 0.31751,-1.08819 0.86113,-1.83626 1.63276,-2.24516 0.77068,-0.36272 1.56396,-0.38533 2.38081,-0.0679 0.77069,0.31751 1.79103,0.72545 3.06105,1.22481 1.27003,0.49838 2.72094,0.74805 4.35369,0.74805 2.22254,0 4.10401,-0.36272 5.64631,-1.08818 1.54137,-0.72545 2.69833,-1.85981 3.46901,-3.40117 0.81685,-1.5423 1.2248,-3.53777 1.2248,-5.98643 v -4.69381 l 1.08818,1.63182 c -0.72544,1.49708 -1.67796,2.74448 -2.8566,3.74222 -1.17957,0.99774 -2.58526,1.76843 -4.21802,2.31299 -1.58752,0.54362 -3.35594,0.81589 -5.3062,0.81589 -2.49388,0 -4.64857,-0.54456 -6.46222,-1.63274 -1.76936,-1.13341 -3.12982,-2.67571 -4.08234,-4.62596 -0.95157,-1.99549 -1.42831,-4.2623 -1.42831,-6.80235 v -20.20444 c 0,-0.99774 0.31752,-1.81364 0.95252,-2.44866 0.63501,-0.68024 1.45092,-1.02035 2.44865,-1.02035 0.95252,0 1.74675,0.34011 2.38082,1.02035 0.68118,0.63502 1.0213,1.45092 1.0213,2.44866 v 18.36725 c 0,2.99322 0.65761,5.19314 1.97192,6.59883 1.31525,1.36047 3.2655,2.04071 5.85076,2.04071 1.7232,0 3.22028,-0.36273 4.48937,-1.0882 1.27001,-0.72544 2.26775,-1.72318 2.99321,-2.99321 0.72639,-1.31524 1.08912,-2.834 1.08912,-4.55813 v -18.36725 c 0,-0.99774 0.31751,-1.81364 0.95158,-2.44866 0.68118,-0.68024 1.49708,-1.02035 2.44959,-1.02035 z m 49.821,-0.34012 c 3.35595,0 5.94121,0.83946 7.75486,2.51743 1.81459,1.63181 3.01583,3.85434 3.60561,6.66667 l -1.08819,-0.34012 0.47579,-1.08912 c 0.58979,-1.17864 1.47447,-2.35822 2.65311,-3.53685 1.22479,-1.22479 2.6757,-2.22253 4.35367,-2.99321 1.67798,-0.81685 3.46901,-1.2248 5.37404,-1.2248 3.12983,0 5.55587,0.68023 7.27907,2.0407 1.7232,1.31524 2.92539,3.10628 3.60562,5.37403 0.68022,2.22254 1.02035,4.71642 1.02035,7.48352 v 18.02713 c 0,0.99774 -0.31751,1.83627 -0.95251,2.5165 -0.63502,0.635 -1.45092,0.95251 -2.44866,0.95251 -0.95251,0 -1.76936,-0.31751 -2.4496,-0.95251 -0.63501,-0.68023 -0.95252,-1.51876 -0.95252,-2.5165 v -17.95929 c 0,-1.58754 -0.22611,-3.03845 -0.68022,-4.35369 -0.40796,-1.31524 -1.15603,-2.3582 -2.24421,-3.12983 -1.04296,-0.81591 -2.49482,-1.22386 -4.35368,-1.22386 -1.76937,0 -3.35595,0.40795 -4.76259,1.22386 -1.36046,0.77163 -2.42604,1.81459 -3.19672,3.12983 -0.77068,1.31524 -1.15696,2.76615 -1.15696,4.35369 v 17.95929 c 0,0.99774 -0.31751,1.83627 -0.95157,2.5165 -0.63502,0.635 -1.45186,0.95251 -2.44961,0.95251 -0.99773,0 -1.81363,-0.31751 -2.44864,-0.95251 -0.63501,-0.68023 -0.95251,-1.51876 -0.95251,-2.5165 v -18.02713 c 0,-1.58753 -0.22707,-3.03844 -0.68024,-4.35369 -0.40796,-1.31524 -1.13341,-2.3582 -2.17731,-3.12983 -1.04297,-0.77067 -2.49388,-1.15602 -4.35369,-1.15602 -1.76842,0 -3.33334,0.38535 -4.6938,1.15602 -1.36048,0.77163 -2.42605,1.81459 -3.19672,3.12983 -0.72546,1.31525 -1.0882,2.76616 -1.0882,4.35369 v 18.02713 c 0,0.99774 -0.34011,1.83627 -1.02128,2.5165 -0.63406,0.635 -1.4283,0.95251 -2.38081,0.95251 -0.99775,0 -1.81365,-0.31751 -2.44867,-0.95251 -0.63501,-0.68023 -0.95251,-1.51876 -0.95251,-2.5165 v -28.84398 c 0,-0.99774 0.3175,-1.81364 0.95251,-2.44865 0.63502,-0.68024 1.45092,-1.02036 2.44867,-1.02036 0.95251,0 1.74675,0.34012 2.38081,1.02036 0.68117,0.63501 1.02128,1.45091 1.02128,2.44865 v 4.01357 l -1.29263,0.74901 c 0.31751,-0.99774 0.83853,-2.01903 1.56398,-3.06199 0.7264,-1.04296 1.63274,-1.99548 2.72093,-2.85661 1.13436,-0.86207 2.38176,-1.56492 3.74224,-2.10853 1.36046,-0.54457 2.83399,-0.81685 4.42151,-0.81685 z m 50.94782,32.92538 c 0,0.99774 -0.31657,1.83627 -0.95158,2.5165 -0.63502,0.635 -1.45185,0.95251 -2.44959,0.95251 -0.95252,0 -1.76842,-0.31751 -2.44865,-0.95251 -0.63502,-0.68023 -0.95252,-1.51876 -0.95252,-2.5165 v -29.11629 c 0,-0.99774 0.3175,-1.81364 0.95252,-2.44866 0.68023,-0.68024 1.49613,-1.02035 2.44865,-1.02035 0.99774,0 1.81457,0.34011 2.44959,1.02035 0.63501,0.63502 0.95158,1.45092 0.95158,2.44866 z M 299.278,652.1448 c -1.31524,0 -2.26776,-0.22706 -2.85661,-0.68023 -0.58978,-0.49934 -0.88468,-1.31525 -0.88468,-2.4496 v -1.08819 c 0,-1.1334 0.31752,-1.92763 0.95252,-2.38081 0.63501,-0.45318 1.58753,-0.68023 2.85661,-0.68023 1.36047,0 2.33559,0.24967 2.92538,0.74805 0.58979,0.45319 0.88469,1.22481 0.88469,2.31299 v 1.08819 c 0,1.17957 -0.31752,1.99548 -0.95252,2.4496 -0.58979,0.45317 -1.56492,0.68023 -2.92539,0.68023 z m 31.05522,3.94478 c 3.22028,0 5.71415,0.68024 7.48351,2.04166 1.76842,1.31429 2.99322,3.10627 3.67345,5.37404 0.72546,2.22159 1.08818,4.7164 1.08818,7.48256 v 18.23158 c 0,0.99774 -0.34011,1.83627 -1.02034,2.5165 -0.635,0.635 -1.42831,0.95251 -2.38082,0.95251 -0.99774,0 -1.81458,-0.31751 -2.4496,-0.95251 -0.63501,-0.68023 -0.95251,-1.51876 -0.95251,-2.5165 v -18.16378 c 0,-1.63274 -0.22611,-3.08367 -0.68024,-4.35368 -0.45317,-1.31525 -1.24646,-2.35821 -2.38081,-3.12889 -1.08819,-0.81684 -2.63049,-1.2248 -4.62596,-1.2248 -1.85887,0 -3.49163,0.40796 -4.89731,1.2248 -1.4057,0.77068 -2.51743,1.81364 -3.33334,3.12889 -0.77069,1.27001 -1.15696,2.72094 -1.15696,4.35368 v 18.16375 c 0,0.99774 -0.34012,1.83626 -1.02035,2.51649 -0.63501,0.635 -1.42831,0.95252 -2.38082,0.95252 -0.99774,0 -1.81365,-0.31752 -2.44865,-0.95252 -0.63502,-0.68023 -0.95251,-1.51875 -0.95251,-2.51649 v -28.84398 c 0,-0.99774 0.31749,-1.81365 0.95251,-2.44865 0.635,-0.68023 1.45091,-1.02036 2.44865,-1.02036 0.95251,0 1.74581,0.34013 2.38082,1.02036 0.68023,0.635 1.02035,1.45091 1.02035,2.44865 v 3.81006 l -1.22385,0.68023 c 0.3175,-0.99774 0.86111,-1.99547 1.63274,-2.99321 0.81591,-1.04296 1.79103,-1.99548 2.92443,-2.85755 1.13437,-0.90729 2.40439,-1.61014 3.81007,-2.10854 1.40569,-0.54456 2.90182,-0.81685 4.48936,-0.81685 z m 38.3569,37.27908 c -3.76484,0 -7.02941,-0.77067 -9.79651,-2.31297 -2.76616,-1.58754 -4.91991,-3.7413 -6.46222,-6.46223 -1.49613,-2.7671 -2.24514,-5.91859 -2.24514,-9.45638 0,-3.99001 0.79423,-7.39212 2.38081,-10.20351 1.63275,-2.85754 3.74224,-5.03391 6.32655,-6.531 2.58527,-1.54136 5.32882,-2.31299 8.23159,-2.31299 2.22253,0 4.33108,0.45412 6.32655,1.36142 1.99548,0.86113 3.7639,2.08593 5.3062,3.67345 1.58752,1.54136 2.83399,3.37857 3.74128,5.50971 0.90729,2.08592 1.38309,4.37629 1.42831,6.87111 -0.0452,0.90635 -0.40795,1.65536 -1.08819,2.2442 -0.68023,0.58979 -1.47353,0.88468 -2.38082,0.88468 h -26.46222 l -1.63275,-5.78198 h 25.57755 l -1.2917,1.22387 v -1.7006 c -0.0914,-1.58752 -0.61239,-2.9706 -1.56491,-4.14924 -0.95252,-1.22479 -2.13115,-2.1547 -3.53778,-2.78971 -1.40569,-0.68022 -2.87922,-1.02035 -4.42152,-1.02035 -1.36047,0 -2.67572,0.22707 -3.94573,0.68024 -1.22386,0.4089 -2.33561,1.08912 -3.33334,2.04164 -0.95252,0.95157 -1.7232,2.2216 -2.31298,3.80912 -0.54363,1.5423 -0.8159,3.46901 -0.8159,5.78198 0,2.49483 0.521,4.67119 1.56492,6.531 1.04296,1.85887 2.44864,3.31073 4.21706,4.35369 1.76936,0.99774 3.71867,1.49614 5.85076,1.49614 1.67798,0 3.06106,-0.15828 4.14925,-0.47579 1.08818,-0.36273 1.99547,-0.79329 2.72094,-1.29263 0.72544,-0.4984 1.36045,-0.97513 1.90503,-1.42831 0.68022,-0.40795 1.36045,-0.61239 2.04069,-0.61239 0.81684,0 1.49709,0.2949 2.0407,0.88468 0.54457,0.54362 0.81685,1.20125 0.81685,1.97192 0,0.99775 -0.49934,1.90503 -1.49709,2.72188 -1.22385,1.17864 -2.92537,2.2216 -5.10175,3.12889 -2.13114,0.90729 -4.37629,1.36046 -6.73449,1.36046 z m 20.81778,-6.25871 c -0.40794,-0.63501 -0.58884,-1.36048 -0.54362,-2.17638 0.0452,-0.86207 0.52101,-1.58751 1.42831,-2.17731 0.63501,-0.40795 1.29263,-0.56624 1.97286,-0.47578 0.72546,0.0452 1.40569,0.38534 2.0407,1.02035 1.27002,1.40568 2.67571,2.51648 4.21801,3.33333 1.5866,0.81591 3.49163,1.22481 5.71415,1.22481 0.90636,-0.0462 1.83627,-0.18185 2.78878,-0.4089 0.95252,-0.27134 1.76842,-0.72546 2.44866,-1.36047 0.68022,-0.68024 1.02035,-1.65536 1.02035,-2.92539 0,-1.1334 -0.36274,-2.0407 -1.08819,-2.72094 -0.72546,-0.68022 -1.67797,-1.22385 -2.85661,-1.63274 -1.17957,-0.45318 -2.44959,-0.86113 -3.81007,-1.22385 -1.45091,-0.40795 -2.92537,-0.86207 -4.4215,-1.36047 -1.45093,-0.49935 -2.76616,-1.13435 -3.94575,-1.90503 -1.17863,-0.81591 -2.15376,-1.85981 -2.92537,-3.12889 -0.72546,-1.27003 -1.0882,-2.83493 -1.0882,-4.6938 0,-2.1321 0.5898,-3.96835 1.76843,-5.51065 1.2248,-1.54231 2.78971,-2.74354 4.69474,-3.60561 1.94931,-0.86113 4.0588,-1.29265 6.32561,-1.29265 1.31524,0 2.69927,0.18185 4.15018,0.54458 1.45091,0.31749 2.8566,0.83945 4.21802,1.56491 1.36046,0.72546 2.5391,1.67798 3.53684,2.8566 0.45317,0.58978 0.70283,1.29263 0.74806,2.10948 0.0914,0.81591 -0.27134,1.54137 -1.08819,2.17637 -0.54455,0.45412 -1.20218,0.65763 -1.97286,0.61241 -0.77068,-0.0452 -1.40568,-0.29489 -1.90503,-0.74808 -0.86113,-1.08913 -1.97193,-1.92764 -3.33334,-2.51742 -1.36047,-0.63502 -2.90183,-0.95252 -4.62501,-0.95252 -0.86207,0 -1.76937,0.13661 -2.72188,0.4089 -0.90635,0.22611 -1.67798,0.65762 -2.31205,1.29168 -0.635,0.63501 -0.95252,1.56492 -0.95252,2.78971 0,1.13342 0.36274,2.04072 1.08819,2.72094 0.77068,0.68023 1.76842,1.24741 2.99323,1.70058 1.22479,0.45319 2.56264,0.86208 4.01356,1.22479 1.40568,0.36274 2.78877,0.79331 4.14924,1.29265 1.40663,0.49839 2.6531,1.15602 3.74222,1.97192 1.1334,0.77162 2.0407,1.79198 2.72094,3.06199 0.72545,1.22386 1.08818,2.78877 1.08818,4.6938 0,2.22159 -0.65762,4.12663 -1.97287,5.71415 -1.27001,1.54137 -2.90277,2.72094 -4.89824,3.53685 -1.94931,0.81685 -4.01357,1.22479 -6.18994,1.22479 -2.58526,0 -5.17053,-0.45317 -7.75486,-1.36046 -2.54004,-0.95251 -4.6938,-2.58527 -6.46316,-4.89825 z m 82.84719,-30.74808 c 0.99774,0 1.81459,0.34012 2.44961,1.02036 0.63407,0.63501 0.95157,1.45186 0.95157,2.44959 v 29.3876 c 0,0.99774 -0.3175,1.83627 -0.95157,2.5165 -0.63502,0.635 -1.45187,0.95251 -2.44961,0.95251 -0.95251,0 -1.76841,-0.31751 -2.44864,-0.95251 -0.63501,-0.68023 -0.95252,-1.51876 -0.95252,-2.5165 v -4.89824 l 1.4283,0.20445 c 0,0.8159 -0.34011,1.7232 -1.02035,2.72093 -0.63501,0.99774 -1.51874,1.97286 -2.6531,2.92444 -1.1334,0.90729 -2.47125,1.67798 -4.01357,2.31298 -1.54136,0.58979 -3.19671,0.88468 -4.96608,0.88468 -3.12889,0 -5.94027,-0.79329 -8.43508,-2.38081 -2.49389,-1.63275 -4.46675,-3.85529 -5.91861,-6.66667 -1.4509,-2.81138 -2.17637,-6.00905 -2.17637,-9.59206 0,-3.67345 0.72547,-6.89278 2.17637,-9.65988 1.45186,-2.81138 3.40212,-5.0113 5.85077,-6.59789 2.49387,-1.58752 5.26097,-2.38177 8.29943,-2.38177 1.95025,0 3.74128,0.31752 5.37402,0.95254 1.67798,0.635 3.1289,1.45184 4.35369,2.44958 1.22479,0.99774 2.15375,2.06331 2.78877,3.19673 0.68024,1.08818 1.02035,2.13208 1.02035,3.12982 l -2.10854,0.20351 v -6.18994 c 0,-0.95251 0.31751,-1.76936 0.95252,-2.44959 0.68023,-0.68024 1.49613,-1.02036 2.44864,-1.02036 z m -13.87694,30.74808 c 2.13114,0 4.01356,-0.54363 5.64632,-1.63275 1.6318,-1.08818 2.90182,-2.56172 3.80912,-4.42152 0.90729,-1.90504 1.36045,-4.01357 1.36045,-6.32656 0,-2.35819 -0.45316,-4.46673 -1.36045,-6.32654 -0.9073,-1.85887 -2.17732,-3.33334 -3.80912,-4.42152 -1.63276,-1.08818 -3.51518,-1.63276 -5.64632,-1.63276 -2.08688,0 -3.94574,0.54458 -5.57848,1.63276 -1.58754,1.08818 -2.85755,2.56265 -3.80912,4.42152 -0.9073,1.85981 -1.36142,3.96835 -1.36142,6.32654 0,2.31299 0.45412,4.42152 1.36142,6.32656 0.95157,1.8598 2.22158,3.33334 3.80912,4.42152 1.63274,1.08912 3.4916,1.63275 5.57848,1.63275 z m 30.2101,5.57848 c -0.99773,0 -1.81458,-0.31751 -2.44959,-0.95251 -0.63408,-0.68023 -0.95158,-1.51876 -0.95158,-2.5165 v -28.84398 c 0,-0.99774 0.3175,-1.81364 0.95158,-2.44865 0.63501,-0.68024 1.45186,-1.02036 2.44959,-1.02036 0.95252,0 1.7458,0.34012 2.38081,1.02036 0.68025,0.63501 1.02036,1.45091 1.02036,2.44865 v 7.61918 l -0.68023,-2.92538 c 0.36272,-1.26907 0.90729,-2.44865 1.63274,-3.53684 0.77068,-1.08912 1.67797,-2.0407 2.72093,-2.85754 1.04297,-0.81591 2.19994,-1.45091 3.46901,-1.90504 1.31524,-0.45317 2.67572,-0.68024 4.08235,-0.68024 1.17862,0 2.19898,0.31752 3.06106,0.95254 0.86111,0.635 1.29262,1.42923 1.29262,2.38081 0,1.22479 -0.3175,2.13208 -0.95251,2.72188 -0.63501,0.54362 -1.33787,0.81589 -2.10948,0.81589 -0.68023,0 -1.33786,-0.13566 -1.97192,-0.40795 -0.63502,-0.3175 -1.38403,-0.47672 -2.24516,-0.47672 -0.95251,0 -1.92764,0.24966 -2.92537,0.74901 -0.99774,0.49839 -1.90503,1.24646 -2.72094,2.2442 -0.81685,0.95252 -1.47353,2.08686 -1.97287,3.40211 -0.45317,1.3143 -0.68023,2.78878 -0.68023,4.42153 v 16.32654 c 0,0.99774 -0.34011,1.83627 -1.02036,2.5165 -0.63501,0.635 -1.42829,0.95251 -2.38081,0.95251 z m 40.17053,0.68023 c -3.76483,0 -7.02939,-0.77067 -9.79649,-2.31297 -2.76616,-1.58754 -4.91992,-3.7413 -6.46222,-6.46223 -1.49708,-2.7671 -2.24515,-5.91859 -2.24515,-9.45638 0,-3.99001 0.79423,-7.39212 2.38082,-10.20351 1.63275,-2.85754 3.74223,-5.03391 6.32655,-6.531 2.58526,-1.54136 5.32881,-2.31299 8.23158,-2.31299 2.22254,0 4.33107,0.45412 6.32655,1.36142 1.99548,0.86113 3.7639,2.08593 5.30621,3.67345 1.58752,1.54136 2.83399,3.37857 3.74128,5.50971 0.90729,2.08592 1.38307,4.37629 1.4283,6.87111 -0.0452,0.90635 -0.40795,1.65536 -1.08819,2.2442 -0.68023,0.58979 -1.47351,0.88468 -2.38081,0.88468 h -26.46223 l -1.63275,-5.78198 h 25.57755 l -1.29263,1.22387 v -1.7006 c -0.0905,-1.58752 -0.61146,-2.9706 -1.56398,-4.14924 -0.95251,-1.22479 -2.13208,-2.1547 -3.53778,-2.78971 -1.40568,-0.68022 -2.87922,-1.02035 -4.42152,-1.02035 -1.36046,0 -2.67571,0.22707 -3.94574,0.68024 -1.22479,0.4089 -2.33558,1.08912 -3.33332,2.04164 -0.95252,0.95157 -1.7232,2.2216 -2.31299,3.80912 -0.54362,1.5423 -0.81591,3.46901 -0.81591,5.78198 0,2.49483 0.52102,4.67119 1.56398,6.531 1.0439,1.85887 2.4496,3.31073 4.21801,4.35369 1.76842,0.99774 3.71868,1.49614 5.85077,1.49614 1.67798,0 3.06105,-0.15828 4.14923,-0.47579 1.08819,-0.36273 1.99549,-0.79329 2.72094,-1.29263 0.72546,-0.4984 1.36047,-0.97513 1.90503,-1.42831 0.68024,-0.40795 1.36047,-0.61239 2.0407,-0.61239 0.81591,0 1.49615,0.2949 2.0407,0.88468 0.54457,0.54362 0.81685,1.20125 0.81685,1.97192 0,0.99775 -0.49934,1.90503 -1.49708,2.72188 -1.2248,1.17864 -2.92537,2.2216 -5.10175,3.12889 -2.13209,0.90729 -4.37629,1.36046 -6.73451,1.36046 z m 48.25421,-4.14924 c 0,0.99774 -0.31751,1.83627 -0.95251,2.5165 -0.63408,0.635 -1.45093,0.95251 -2.44867,0.95251 -0.95251,0 -1.76841,-0.31751 -2.44864,-0.95251 -0.63501,-0.68023 -0.95253,-1.51876 -0.95253,-2.5165 v -29.11629 c 0,-0.99774 0.31752,-1.81364 0.95253,-2.44866 0.68023,-0.68024 1.49613,-1.02035 2.44864,-1.02035 0.99774,0 1.81459,0.34011 2.44867,1.02035 0.635,0.63502 0.95251,1.45092 0.95251,2.44866 z m -3.469,-37.07462 c -1.31525,0 -2.26776,-0.22706 -2.85755,-0.68023 -0.58886,-0.49934 -0.88375,-1.31525 -0.88375,-2.4496 v -1.08819 c 0,-1.1334 0.31751,-1.92763 0.95252,-2.38081 0.63502,-0.45318 1.58659,-0.68023 2.8566,-0.68023 1.36048,0 2.33561,0.24967 2.92539,0.74805 0.58979,0.45319 0.88468,1.22481 0.88468,2.31299 v 1.08819 c 0,1.17957 -0.3175,1.99548 -0.95252,2.4496 -0.58978,0.45317 -1.56492,0.68023 -2.92537,0.68023 z m 31.05521,3.94478 c 3.22027,0 5.71415,0.68024 7.48257,2.04166 1.76937,1.31429 2.99322,3.10627 3.67346,5.37404 0.72639,2.22159 1.08912,4.7164 1.08912,7.48256 v 18.23158 c 0,0.99774 -0.34011,1.83627 -1.02035,2.5165 -0.63501,0.635 -1.42925,0.95251 -2.38082,0.95251 -0.99774,0 -1.81459,-0.31751 -2.44959,-0.95251 -0.63502,-0.68023 -0.95252,-1.51876 -0.95252,-2.5165 v -18.16378 c 0,-1.63274 -0.22612,-3.08367 -0.68024,-4.35368 -0.45318,-1.31525 -1.24646,-2.35821 -2.38081,-3.12889 -1.08819,-0.81684 -2.63049,-1.2248 -4.62597,-1.2248 -1.85887,0 -3.49161,0.40796 -4.89731,1.2248 -1.40663,0.77068 -2.51743,1.81364 -3.33332,3.12889 -0.77163,1.27001 -1.15698,2.72094 -1.15698,4.35368 v 18.16375 c 0,0.99774 -0.34011,1.83626 -1.02034,2.51649 -0.63501,0.635 -1.42831,0.95252 -2.38081,0.95252 -0.99775,0 -1.81365,-0.31752 -2.44867,-0.95252 -0.63501,-0.68023 -0.95251,-1.51875 -0.95251,-2.51649 v -28.84398 c 0,-0.99774 0.3175,-1.81365 0.95251,-2.44865 0.63502,-0.68023 1.45092,-1.02036 2.44867,-1.02036 0.9525,0 1.7458,0.34013 2.38081,1.02036 0.68023,0.635 1.02034,1.45091 1.02034,2.44865 v 3.81006 l -1.22385,0.68023 c 0.31751,-0.99774 0.86113,-1.99547 1.63181,-2.99321 0.81685,-1.04296 1.79198,-1.99548 2.92538,-2.85755 1.13435,-0.90729 2.40343,-1.61014 3.81006,-2.10854 1.4057,-0.54456 2.90183,-0.81685 4.48936,-0.81685 z m 40.14698,1.22481 h 15.98643 c 0.90729,0 1.65536,0.31751 2.24516,0.95252 0.635,0.58978 0.95158,1.33785 0.95158,2.24514 0,0.86113 -0.31658,1.58659 -0.95158,2.17638 -0.5898,0.58978 -1.33787,0.88468 -2.24516,0.88468 h -15.98643 c -0.90729,0 -1.67797,-0.2949 -2.31298,-0.88468 -0.58978,-0.63502 -0.88468,-1.38309 -0.88468,-2.24515 0,-0.90635 0.2949,-1.65443 0.88468,-2.24421 0.63501,-0.58979 1.40569,-0.88468 2.31298,-0.88468 z m 7.14246,-8.84305 c 0.99774,0 1.81459,0.34013 2.44959,1.02036 0.63501,0.635 0.95251,1.45091 0.95251,2.44865 v 31.56492 c 0,0.81591 0.13569,1.47353 0.40796,1.97193 0.27228,0.49933 0.63501,0.83946 1.08818,1.02035 0.49935,0.18183 0.99774,0.27228 1.49709,0.27228 0.49839,0 0.92896,-0.0905 1.29169,-0.27228 0.40888,-0.18089 0.88468,-0.27134 1.42924,-0.27134 0.54362,0 1.04296,0.24873 1.49613,0.74807 0.45413,0.4984 0.68025,1.17864 0.68025,2.0407 0,1.08819 -0.5898,1.97287 -1.76843,2.6531 -1.17956,0.68023 -2.44865,1.02035 -3.80912,1.02035 -0.77163,0 -1.67798,-0.0679 -2.72188,-0.20445 -1.04296,-0.13567 -2.0633,-0.47578 -3.06105,-1.02035 -0.95251,-0.54362 -1.74581,-1.40568 -2.38082,-2.58432 -0.63502,-1.2248 -0.95251,-2.92539 -0.95251,-5.1027 v -31.8363 c 0,-0.99774 0.31749,-1.81365 0.95251,-2.44865 0.68024,-0.68023 1.49708,-1.02036 2.44866,-1.02036 z m 37.60129,7.8227 c 3.12982,0 5.55586,0.68023 7.27905,2.0407 1.72321,1.31524 2.92539,3.10628 3.60562,5.37403 0.72546,2.26776 1.08819,4.76258 1.08819,7.48352 v 18.02713 c 0,0.99774 -0.34011,1.83627 -1.02035,2.5165 -0.635,0.635 -1.4283,0.95251 -2.38081,0.95251 -0.99774,0 -1.81365,-0.31751 -2.44866,-0.95251 -0.63502,-0.68023 -0.95251,-1.51876 -0.95251,-2.5165 v -18.02713 c 0,-1.58753 -0.22706,-3.03844 -0.68024,-4.35369 -0.40795,-1.31524 -1.15696,-2.3582 -2.24515,-3.12983 -1.04296,-0.77067 -2.51649,-1.15602 -4.42152,-1.15602 -1.76842,0 -3.35594,0.38535 -4.76164,1.15602 -1.36046,0.77163 -2.42697,1.81459 -3.19766,3.12983 -0.72545,1.31525 -1.08818,2.76616 -1.08818,4.35369 v 18.02713 c 0,0.99774 -0.34012,1.83627 -1.02035,2.5165 -0.63501,0.635 -1.42924,0.95251 -2.38082,0.95251 -0.99774,0 -1.81459,-0.31751 -2.4496,-0.95251 -0.63501,-0.68023 -0.95252,-1.51876 -0.95252,-2.5165 v -43.40116 c 0,-0.99774 0.31751,-1.81459 0.95252,-2.44961 0.63501,-0.68023 1.45186,-1.02034 2.4496,-1.02034 0.95158,0 1.74581,0.34011 2.38082,1.02034 0.68023,0.63502 1.02035,1.45187 1.02035,2.44961 v 18.57075 l -1.2248,0.68023 c 0.31751,-0.99774 0.83945,-2.01808 1.56491,-3.06105 0.77069,-1.04296 1.70059,-1.99548 2.78877,-2.85661 1.13436,-0.86206 2.38082,-1.5423 3.74129,-2.04069 1.36046,-0.54457 2.81233,-0.81685 4.35369,-0.81685 z m 38.10063,37.07462 c -3.7639,0 -7.02941,-0.77067 -9.79557,-2.31297 -2.7671,-1.58754 -4.92086,-3.7413 -6.46315,-6.46223 -1.49614,-2.7671 -2.24421,-5.91859 -2.24421,-9.45638 0,-3.99001 0.79329,-7.39212 2.38082,-10.20351 1.63274,-2.85754 3.74129,-5.03391 6.32654,-6.531 2.58433,-1.54136 5.32882,-2.31299 8.23065,-2.31299 2.22254,0 4.33107,0.45412 6.32655,1.36142 1.99548,0.86113 3.76483,2.08593 5.30621,3.67345 1.58751,1.54136 2.83493,3.37857 3.74128,5.50971 0.90729,2.08592 1.38401,4.37629 1.42923,6.87111 -0.0452,0.90635 -0.40888,1.65536 -1.08912,2.2442 -0.68023,0.58979 -1.47353,0.88468 -2.38082,0.88468 h -26.46222 l -1.63276,-5.78198 h 25.5785 l -1.29264,1.22387 v -1.7006 c -0.0905,-1.58752 -0.61239,-2.9706 -1.56491,-4.14924 -0.95251,-1.22479 -2.13116,-2.1547 -3.53684,-2.78971 -1.40664,-0.68022 -2.88016,-1.02035 -4.42246,-1.02035 -1.36047,0 -2.67572,0.22707 -3.94479,0.68024 -1.2248,0.4089 -2.3356,1.08912 -3.33333,2.04164 -0.95253,0.95157 -1.72414,2.2216 -2.31299,3.80912 -0.54457,1.5423 -0.81685,3.46901 -0.81685,5.78198 0,2.49483 0.52196,4.67119 1.56492,6.531 1.04296,1.85887 2.44865,3.31073 4.21801,4.35369 1.76842,0.99774 3.71868,1.49614 5.84983,1.49614 1.67797,0 3.06105,-0.15828 4.14924,-0.47579 1.08912,-0.36273 1.99547,-0.79329 2.72187,-1.29263 0.72546,-0.4984 1.36046,-0.97513 1.90409,-1.42831 0.68024,-0.40795 1.36046,-0.61239 2.0407,-0.61239 0.81685,0 1.49709,0.2949 2.04164,0.88468 0.54363,0.54362 0.8159,1.20125 0.8159,1.97192 0,0.99775 -0.49932,1.90503 -1.49613,2.72188 -1.2248,1.17864 -2.92538,2.2216 -5.1027,3.12889 -2.13114,0.90729 -4.3763,1.36046 -6.73449,1.36046 z m 62.88111,-24.76163 -0.20445,-1.2248 c 1.67797,0.68022 3.1515,1.63274 4.42152,2.85755 1.27002,1.17863 2.24515,2.51648 2.92538,4.01356 0.72546,1.49613 1.08818,3.06105 1.08818,4.6938 0,2.53911 -0.70285,4.8747 -2.10853,7.00678 -1.36048,2.08594 -3.22028,3.7639 -5.57848,5.03393 -2.31299,1.22479 -4.8973,1.83625 -7.75487,1.83625 -2.90276,0 -5.53324,-0.61146 -7.89145,-1.83625 -2.31298,-1.27003 -4.17185,-2.94799 -5.57755,-5.03393 -1.36045,-2.13208 -2.04069,-4.46767 -2.04069,-7.00678 0,-2.0407 0.43055,-3.83267 1.29168,-5.37404 0.86207,-1.54229 1.95025,-2.83493 3.26551,-3.87789 1.31524,-1.04296 2.6531,-1.90503 4.01356,-2.58527 l -0.47578,1.49709 c -1.13436,-0.49936 -2.24516,-1.17958 -3.33334,-2.04071 -1.04296,-0.90728 -1.90503,-2.0407 -2.58526,-3.40117 -0.68023,-1.36046 -1.02035,-2.92538 -1.02035,-4.6938 0,-2.49482 0.63501,-4.73996 1.90503,-6.73544 1.27003,-2.0407 2.99321,-3.65084 5.16959,-4.82947 2.17731,-1.22481 4.60336,-1.8372 7.27905,-1.8372 2.67572,0 5.07915,0.61239 7.21125,1.8372 2.13114,1.17863 3.83172,2.78877 5.10175,4.82947 1.27001,1.99548 1.90503,4.24062 1.90503,6.73544 0,1.90409 -0.36367,3.53684 -1.08914,4.8973 -0.72544,1.31526 -1.63274,2.40344 -2.72092,3.26551 -1.0882,0.86207 -2.15376,1.51969 -3.19672,1.97287 z m -14.76259,-10.00001 c 0,1.40569 0.34012,2.6531 1.02035,3.74128 0.68023,1.08819 1.58753,1.95026 2.72187,2.58527 1.13343,0.63501 2.40345,0.95252 3.80912,0.95252 1.36048,0 2.60788,-0.31751 3.7413,-0.95252 1.13435,-0.63501 2.0181,-1.49708 2.6531,-2.58527 0.68023,-1.08818 1.02034,-2.33559 1.02034,-3.74128 0,-2.13114 -0.70283,-3.87789 -2.10852,-5.23836 -1.40569,-1.36047 -3.17506,-2.04071 -5.30622,-2.04071 -2.22252,0 -4.03617,0.68024 -5.44186,2.04071 -1.40569,1.36047 -2.10948,3.10722 -2.10948,5.23836 z m 7.55134,27.9593 c 2.44867,0 4.48937,-0.72545 6.12211,-2.1773 1.67798,-1.49615 2.51744,-3.33334 2.51744,-5.50971 0,-1.49709 -0.38534,-2.83494 -1.15697,-4.01356 -0.77067,-1.17959 -1.81364,-2.10949 -3.12888,-2.78971 -1.31524,-0.68024 -2.76616,-1.02037 -4.3537,-1.02037 -1.58751,0 -3.03843,0.34013 -4.35367,1.02037 -1.31525,0.68022 -2.35822,1.61012 -3.12888,2.78971 -0.77163,1.17862 -1.15697,2.51647 -1.15697,4.01356 0,2.17637 0.81685,4.01356 2.44865,5.50971 1.63276,1.45185 3.697,2.1773 6.19087,2.1773 z m -650.01518,85.33727 c -0.40889,-0.635 -0.58978,-1.36046 -0.54456,-2.17636 0.0452,-0.86208 0.52101,-1.58753 1.4283,-2.17732 0.63501,-0.40796 1.29264,-0.56623 1.97286,-0.47579 0.72547,0.0452 1.4057,0.38535 2.0407,1.02035 1.27003,1.4057 2.67572,2.51649 4.21802,3.33334 1.58754,0.81591 3.49163,1.22479 5.71415,1.22479 0.9073,-0.0462 1.83626,-0.18183 2.78878,-0.40888 0.95251,-0.27134 1.76935,-0.72546 2.4496,-1.36047 0.68022,-0.68023 1.02034,-1.65536 1.02034,-2.92539 0,-1.1334 -0.36273,-2.0407 -1.08912,-2.72094 -0.72546,-0.68022 -1.67797,-1.22385 -2.85661,-1.63275 -1.17957,-0.45317 -2.44865,-0.86112 -3.81007,-1.22384 -1.45091,-0.40795 -2.92444,-0.86208 -4.42151,-1.36047 -1.45092,-0.49934 -2.76616,-1.13435 -3.94574,-1.90503 -1.17863,-0.81591 -2.15376,-1.85981 -2.92444,-3.1289 -0.72639,-1.27001 -1.08913,-2.83493 -1.08913,-4.6938 0,-2.13209 0.5898,-3.96834 1.76937,-5.51063 1.22385,-1.54231 2.78876,-2.74355 4.6938,-3.60562 1.95025,-0.86113 4.05878,-1.29264 6.32655,-1.29264 1.31524,0 2.69832,0.18184 4.14923,0.54457 1.45092,0.31749 2.85755,0.83945 4.21802,1.56492 1.36047,0.72544 2.5391,1.67796 3.53685,2.8566 0.4541,0.58978 0.70283,1.29263 0.74899,2.10947 0.0905,0.81591 -0.27227,1.54136 -1.08912,2.17637 -0.54362,0.45412 -1.20124,0.65763 -1.97286,0.61241 -0.77068,-0.0452 -1.40569,-0.29489 -1.90409,-0.74807 -0.86207,-1.08913 -1.97287,-1.92765 -3.33333,-2.51744 -1.36048,-0.635 -2.90278,-0.95251 -4.62596,-0.95251 -0.86207,0 -1.76843,0.13661 -2.72094,0.4089 -0.9073,0.22611 -1.67798,0.65762 -2.31299,1.29168 -0.635,0.63501 -0.95252,1.56492 -0.95252,2.78971 0,1.13341 0.36274,2.04071 1.08818,2.72094 0.77163,0.68024 1.76843,1.24741 2.99324,1.70059 1.22479,0.45317 2.56263,0.86207 4.01355,1.22479 1.40569,0.36274 2.78972,0.7933 4.15018,1.29264 1.4057,0.49839 2.65311,1.15602 3.74129,1.97193 1.1334,0.77161 2.0407,1.79197 2.72093,3.06198 0.72546,1.22386 1.08819,2.78878 1.08819,4.69381 0,2.22158 -0.65762,4.12662 -1.97287,5.71415 -1.27001,1.54136 -2.90183,2.72093 -4.8973,3.53684 -1.95026,0.81685 -4.01357,1.2248 -6.19089,1.2248 -2.58526,0 -5.16958,-0.45318 -7.75485,-1.36047 -2.54004,-0.95251 -4.6938,-2.58527 -6.46222,-4.89826 z m 61.26061,-30.20351 c 0.95252,0 1.7458,0.34013 2.38082,1.02036 0.68024,0.63501 1.02035,1.45091 1.02035,2.44865 v 17.89147 c 0,4.71641 -1.31524,8.41247 -3.94573,11.08819 -2.63049,2.63049 -6.34916,3.94573 -11.15602,3.94573 -4.76258,0 -8.45864,-1.31524 -11.08819,-3.94573 -2.58527,-2.67572 -3.8779,-6.37178 -3.8779,-11.08819 v -17.89147 c 0,-0.99774 0.3175,-1.81364 0.95251,-2.44865 0.63502,-0.68023 1.45093,-1.02036 2.44867,-1.02036 0.95251,0 1.7458,0.34013 2.38081,1.02036 0.68023,0.63501 1.02035,1.45091 1.02035,2.44865 v 17.89147 c 0,2.94799 0.68023,5.14697 2.0407,6.59883 1.40663,1.45092 3.44733,2.17637 6.12305,2.17637 2.72093,0 4.78424,-0.72545 6.18994,-2.17637 1.40569,-1.45186 2.10947,-3.65084 2.10947,-6.59883 v -17.89147 c 0,-0.99774 0.31657,-1.81364 0.95158,-2.44865 0.635,-0.68023 1.45185,-1.02036 2.44959,-1.02036 z m 16.26155,35.782 c -0.99774,0 -1.81365,-0.31751 -2.44865,-0.95252 -0.63502,-0.68022 -0.95252,-1.51874 -0.95252,-2.51648 v -28.84399 c 0,-0.99774 0.3175,-1.81364 0.95252,-2.44865 0.635,-0.68023 1.45091,-1.02036 2.44865,-1.02036 0.95251,0 1.74675,0.34013 2.38081,1.02036 0.68025,0.63501 1.0213,1.45091 1.0213,2.44865 v 7.61918 l -0.68118,-2.92538 c 0.36367,-1.26907 0.90729,-2.44866 1.63275,-3.53684 0.77163,-1.08912 1.67797,-2.0407 2.72188,-2.85754 1.04296,-0.81591 2.19898,-1.45091 3.469,-1.90503 1.31525,-0.45318 2.67571,-0.68024 4.08141,-0.68024 1.17956,0 2.19992,0.31751 3.06105,0.95252 0.86207,0.63501 1.29263,1.42924 1.29263,2.38082 0,1.22479 -0.31751,2.13209 -0.95251,2.72188 -0.63501,0.54361 -1.33786,0.8159 -2.10855,0.8159 -0.68022,0 -1.33784,-0.13567 -1.97286,-0.40795 -0.63501,-0.31751 -1.38308,-0.47673 -2.24515,-0.47673 -0.95157,0 -1.92669,0.24966 -2.92443,0.74901 -0.99774,0.49839 -1.90503,1.24646 -2.72188,2.2442 -0.81591,0.95252 -1.47353,2.08687 -1.97193,3.40212 -0.45412,1.31429 -0.68023,2.78877 -0.68023,4.42151 v 16.32656 c 0,0.99774 -0.34105,1.83626 -1.0213,2.51648 -0.63406,0.63501 -1.4283,0.95252 -2.38081,0.95252 z m 28.4332,0 c -0.99774,0 -1.81365,-0.31751 -2.44865,-0.95252 -0.63501,-0.68022 -0.95251,-1.51874 -0.95251,-2.51648 v -28.84399 c 0,-0.99774 0.3175,-1.81364 0.95251,-2.44865 0.635,-0.68023 1.45091,-1.02036 2.44865,-1.02036 0.95251,0 1.74581,0.34013 2.38083,1.02036 0.68023,0.63501 1.02034,1.45091 1.02034,2.44865 v 7.61918 l -0.68023,-2.92538 c 0.36273,-1.26907 0.90729,-2.44866 1.63275,-3.53684 0.77162,-1.08912 1.67797,-2.0407 2.72093,-2.85754 1.04296,-0.81591 2.19993,-1.45091 3.46995,-1.90503 1.31524,-0.45318 2.67571,-0.68024 4.0814,-0.68024 1.17958,0 2.19992,0.31751 3.06105,0.95252 0.86207,0.63501 1.29264,1.42924 1.29264,2.38082 0,1.22479 -0.31751,2.13209 -0.95251,2.72188 -0.63502,0.54361 -1.33787,0.8159 -2.10855,0.8159 -0.68023,0 -1.33785,-0.13567 -1.97286,-0.40795 -0.635,-0.31751 -1.38307,-0.47673 -2.24515,-0.47673 -0.95251,0 -1.92764,0.24966 -2.92538,0.74901 -0.99774,0.49839 -1.90409,1.24646 -2.72094,2.2442 -0.8159,0.95252 -1.47352,2.08687 -1.97286,3.40212 -0.45318,1.31429 -0.68024,2.78877 -0.68024,4.42151 v 16.32656 c 0,0.99774 -0.34011,1.83626 -1.02034,2.51648 -0.63502,0.63501 -1.42832,0.95252 -2.38083,0.95252 z m 57.78973,-17.89147 c 0,3.62823 -0.79424,6.84851 -2.38082,9.6599 -1.58754,2.76709 -3.74224,4.94346 -6.46317,6.53099 -2.72093,1.58752 -5.78198,2.38082 -9.18316,2.38082 -3.40116,0 -6.46316,-0.7933 -9.18408,-2.38082 -2.72094,-1.58753 -4.89732,-3.7639 -6.53006,-6.53099 -1.58753,-2.81139 -2.38083,-6.03167 -2.38083,-9.6599 0,-3.67346 0.7933,-6.89278 2.38083,-9.65894 1.63274,-2.81233 3.80912,-5.0113 6.53006,-6.59883 2.72092,-1.63276 5.78292,-2.4496 9.18408,-2.4496 3.40118,0 6.46223,0.81684 9.18316,2.4496 2.72093,1.58753 4.87563,3.7865 6.46317,6.59883 1.58658,2.76616 2.38082,5.98548 2.38082,9.65894 z m -6.80329,0 c 0,-2.49387 -0.49839,-4.64764 -1.49613,-6.46222 -0.99774,-1.85887 -2.35821,-3.31072 -4.08141,-4.35368 -1.67796,-1.08818 -3.56038,-1.63275 -5.64632,-1.63275 -2.08592,0 -3.99095,0.54457 -5.71415,1.63275 -1.7232,1.04296 -3.0846,2.49481 -4.08233,4.35368 -0.99774,1.81458 -1.49615,3.96835 -1.49615,6.46222 0,2.40437 0.49841,4.53552 1.49615,6.39533 0.99773,1.85886 2.35913,3.30979 4.08233,4.35369 1.7232,1.04296 3.62823,1.56396 5.71415,1.56396 2.08594,0 3.96836,-0.521 5.64632,-1.56396 1.7232,-1.0439 3.08367,-2.49483 4.08141,-4.35369 0.99774,-1.85981 1.49613,-3.99096 1.49613,-6.39533 z m 41.16922,-17.89053 c 0.95252,0 1.74581,0.34013 2.38081,1.02036 0.68025,0.63501 1.02037,1.45091 1.02037,2.44865 v 17.89147 c 0,4.71641 -1.31526,8.41247 -3.94574,11.08819 -2.62955,2.63049 -6.34916,3.94573 -11.15603,3.94573 -4.76164,0 -8.4577,-1.31524 -11.08818,-3.94573 -2.58527,-2.67572 -3.8779,-6.37178 -3.8779,-11.08819 v -17.89147 c 0,-0.99774 0.31751,-1.81364 0.95252,-2.44865 0.635,-0.68023 1.45091,-1.02036 2.44865,-1.02036 0.95251,0 1.74675,0.34013 2.38177,1.02036 0.68022,0.63501 1.02034,1.45091 1.02034,2.44865 v 17.89147 c 0,2.94799 0.68024,5.14697 2.04071,6.59883 1.40567,1.45092 3.44639,2.17637 6.12209,2.17637 2.72094,0 4.78426,-0.72545 6.19089,-2.17637 1.40569,-1.45186 2.10853,-3.65084 2.10853,-6.59883 v -17.89147 c 0,-0.99774 0.31752,-1.81364 0.95252,-2.44865 0.63501,-0.68023 1.45092,-1.02036 2.44865,-1.02036 z m 31.29642,-0.81684 c 3.21932,0 5.71414,0.68024 7.48256,2.04165 1.76843,1.3143 2.99321,3.10627 3.67346,5.37403 0.72545,2.2216 1.08818,4.71641 1.08818,7.48257 v 18.23159 c 0,0.99774 -0.34011,1.83626 -1.02035,2.51648 -0.63502,0.63501 -1.42831,0.95252 -2.38082,0.95252 -0.99774,0 -1.81365,-0.31751 -2.44865,-0.95252 -0.63501,-0.68022 -0.95252,-1.51874 -0.95252,-2.51648 v -18.16375 c 0,-1.63276 -0.22707,-3.08367 -0.68024,-4.35368 -0.45316,-1.31525 -1.2474,-2.35821 -2.38082,-3.1289 -1.08818,-0.81685 -2.63047,-1.22479 -4.62596,-1.22479 -1.85981,0 -3.49161,0.40794 -4.89825,1.22479 -1.40569,0.77069 -2.51648,1.81365 -3.33332,3.1289 -0.77069,1.27001 -1.15603,2.72092 -1.15603,4.35368 v 18.16375 c 0,0.99774 -0.34012,1.83626 -1.02036,2.51648 -0.635,0.63501 -1.42829,0.95252 -2.3808,0.95252 -0.99774,0 -1.81459,-0.31751 -2.44961,-0.95252 -0.63501,-0.68022 -0.95157,-1.51874 -0.95157,-2.51648 v -28.84399 c 0,-0.99774 0.31656,-1.81364 0.95157,-2.44865 0.63502,-0.68023 1.45187,-1.02036 2.44961,-1.02036 0.95251,0 1.7458,0.34013 2.3808,1.02036 0.68024,0.63501 1.02036,1.45091 1.02036,2.44865 v 3.81006 l -1.2248,0.68024 c 0.3175,-0.99773 0.86207,-1.99548 1.63276,-2.99322 0.81684,-1.04297 1.79103,-1.99548 2.92537,-2.85755 1.13341,-0.9073 2.40344,-1.61013 3.80912,-2.10854 1.4057,-0.54455 2.90277,-0.81684 4.49031,-0.81684 z m 51.00905,-13.74128 c 0.99773,0 1.81458,0.3175 2.44864,0.95251 0.63501,0.63501 0.95252,1.47446 0.95252,2.51743 v 43.40118 c 0,0.99774 -0.31751,1.83626 -0.95252,2.51648 -0.63406,0.63501 -1.45091,0.95252 -2.44864,0.95252 -0.95252,0 -1.76843,-0.31751 -2.44866,-0.95252 -0.635,-0.68022 -0.95252,-1.51874 -0.95252,-2.51648 v -4.89826 l 1.42831,0.0679 c 0,0.81684 -0.34012,1.7458 -1.02035,2.78971 -0.63502,0.99679 -1.51875,1.97193 -2.6531,2.92445 -1.13341,0.95251 -2.47127,1.7458 -4.01356,2.38081 -1.54138,0.58978 -3.19674,0.88467 -4.9661,0.88467 -3.12888,0 -5.94027,-0.79329 -8.43509,-2.38081 -2.49387,-1.63274 -4.46673,-3.83268 -5.91859,-6.59883 -1.45092,-2.81138 -2.17637,-6.03166 -2.17637,-9.65989 0,-3.62823 0.72545,-6.82494 2.17637,-9.5911 1.45186,-2.81233 3.40212,-5.01131 5.85076,-6.59883 2.49388,-1.63276 5.26099,-2.44961 8.29942,-2.44961 1.90409,0 3.67345,0.31751 5.3062,0.95252 1.67798,0.63501 3.12889,1.45186 4.35368,2.4496 1.22387,0.99774 2.17638,2.06331 2.85661,3.19672 0.68023,1.08818 1.02035,2.13209 1.02035,3.12983 l -2.10854,0.2035 v -20.20351 c 0,-0.99774 0.31752,-1.81458 0.95252,-2.44959 0.68023,-0.68023 1.49614,-1.02035 2.44866,-1.02035 z m -13.87696,44.76163 c 2.17636,0 4.05878,-0.54362 5.64631,-1.63274 1.63182,-1.08819 2.90183,-2.56172 3.80912,-4.42152 0.90729,-1.85887 1.36047,-3.96834 1.36047,-6.32655 0,-2.3582 -0.45318,-4.46675 -1.36047,-6.32656 -0.90729,-1.85886 -2.1773,-3.33333 -3.80912,-4.42151 -1.63275,-1.08818 -3.51517,-1.63275 -5.64631,-1.63275 -2.08686,0 -3.94573,0.54457 -5.57849,1.63275 -1.58752,1.08818 -2.85755,2.56265 -3.80912,4.42151 -0.90729,1.85981 -1.3614,3.96836 -1.3614,6.32656 0,2.35821 0.45411,4.46768 1.3614,6.32655 0.95157,1.8598 2.2216,3.33333 3.80912,4.42152 1.63276,1.08912 3.49163,1.63274 5.57849,1.63274 z m 33.20331,2.10949 c 0,0.99774 -0.3175,1.83626 -0.95251,2.51648 -0.63501,0.63501 -1.45091,0.95252 -2.44865,0.95252 -0.95252,0 -1.76936,-0.31751 -2.4496,-0.95252 -0.63501,-0.68022 -0.95251,-1.51874 -0.95251,-2.51648 v -29.11626 c 0,-0.99776 0.3175,-1.81365 0.95251,-2.44867 0.68024,-0.68023 1.49708,-1.02034 2.4496,-1.02034 0.99774,0 1.81364,0.34011 2.44865,1.02034 0.63501,0.63502 0.95251,1.45091 0.95251,2.44867 z m -3.46993,-37.07463 c -1.31525,0 -2.26683,-0.22706 -2.85661,-0.68024 -0.58978,-0.49933 -0.88468,-1.31524 -0.88468,-2.44958 v -1.08819 c 0,-1.13342 0.3175,-1.92764 0.95251,-2.38082 0.63501,-0.45318 1.58753,-0.68024 2.85755,-0.68024 1.36046,0 2.33559,0.24968 2.92444,0.74807 0.58978,0.45318 0.88468,1.22479 0.88468,2.31299 v 1.08819 c 0,1.17956 -0.31751,1.99547 -0.95252,2.44958 -0.58978,0.45318 -1.56491,0.68024 -2.92537,0.68024 z m 31.0552,3.94479 c 3.22028,0 5.7151,0.68024 7.48352,2.04165 1.76842,1.3143 2.99322,3.10627 3.67345,5.37403 0.72546,2.2216 1.08818,4.71641 1.08818,7.48257 v 18.23159 c 0,0.99774 -0.34011,1.83626 -1.02035,2.51648 -0.635,0.63501 -1.42829,0.95252 -2.38081,0.95252 -0.99774,0 -1.81459,-0.31751 -2.44865,-0.95252 -0.63501,-0.68022 -0.95252,-1.51874 -0.95252,-2.51648 v -18.16375 c 0,-1.63276 -0.22706,-3.08367 -0.68022,-4.35368 -0.45413,-1.31525 -1.24743,-2.35821 -2.38083,-3.1289 -1.08912,-0.81685 -2.6305,-1.22479 -4.62597,-1.22479 -1.85981,0 -3.49256,0.40794 -4.89824,1.22479 -1.4057,0.77069 -2.5165,1.81365 -3.33335,3.1289 -0.77067,1.27001 -1.15601,2.72092 -1.15601,4.35368 v 18.16375 c 0,0.99774 -0.34012,1.83626 -1.02035,2.51648 -0.63501,0.63501 -1.42925,0.95252 -2.38177,0.95252 -0.99774,0 -1.81364,-0.31751 -2.44865,-0.95252 -0.63501,-0.68022 -0.95251,-1.51874 -0.95251,-2.51648 v -28.84399 c 0,-0.99774 0.3175,-1.81364 0.95251,-2.44865 0.63501,-0.68023 1.45091,-1.02036 2.44865,-1.02036 0.95252,0 1.74676,0.34013 2.38177,1.02036 0.68023,0.63501 1.02035,1.45091 1.02035,2.44865 v 3.81006 l -1.2248,0.68024 c 0.31751,-0.99773 0.86207,-1.99548 1.63274,-2.99322 0.81591,-1.04297 1.79104,-1.99548 2.9254,-2.85755 1.1334,-0.9073 2.40342,-1.61013 3.80912,-2.10854 1.40568,-0.54455 2.90277,-0.81684 4.48934,-0.81684 z m 36.58848,0 c 1.95026,0 3.74129,0.31751 5.37404,0.95252 1.63275,0.63501 3.03844,1.45186 4.21707,2.44959 1.2248,0.95158 2.17732,1.94932 2.85754,2.99322 0.68024,1.04296 1.02036,1.94931 1.02036,2.72094 l -1.56491,0.0679 v -5.44187 c 0,-0.95251 0.3175,-1.76936 0.95251,-2.44959 0.635,-0.68024 1.45185,-1.02035 2.44959,-1.02035 0.99775,0 1.81364,0.34011 2.44865,1.02035 0.63502,0.63501 0.95252,1.45185 0.95252,2.44959 v 29.99906 c 0,3.85529 -0.81684,6.98418 -2.4496,9.38855 -1.63274,2.44866 -3.80912,4.23969 -6.53006,5.37403 -2.6757,1.13342 -5.62369,1.7006 -8.84397,1.7006 -1.1334,0 -2.47127,-0.15923 -4.01356,-0.47674 -1.54137,-0.27228 -2.9706,-0.6124 -4.28491,-1.02035 -1.27002,-0.40794 -2.1547,-0.8159 -2.6531,-1.22385 -1.04391,-0.54457 -1.74676,-1.17958 -2.10948,-1.90503 -0.31751,-0.72547 -0.31751,-1.45092 0,-2.17732 0.45412,-0.99773 1.06557,-1.6092 1.83719,-1.83625 0.77069,-0.22707 1.65537,-0.15923 2.6531,0.2035 0.45318,0.13661 1.15602,0.38628 2.10854,0.74902 0.95251,0.36272 2.01809,0.68022 3.19767,0.95251 1.17863,0.31751 2.28943,0.47578 3.33333,0.47578 3.62728,0 6.34916,-0.83946 8.16281,-2.51743 1.85981,-1.67797 2.78877,-3.9674 2.78877,-6.87017 v -6.1221 l 0.74901,0.47578 c -0.13662,0.95252 -0.56718,1.92765 -1.29264,2.92538 -0.68022,0.95252 -1.58752,1.83626 -2.72094,2.6531 -1.13434,0.81591 -2.44959,1.49615 -3.94573,2.0407 -1.45186,0.49841 -2.94799,0.74807 -4.49029,0.74807 -3.21933,0 -6.0995,-0.79329 -8.63954,-2.38081 -2.5391,-1.63274 -4.55719,-3.83268 -6.05426,-6.59884 -1.49614,-2.81137 -2.24421,-6.03165 -2.24421,-9.65988 0,-3.62823 0.74807,-6.82495 2.24421,-9.59111 1.49707,-2.81232 3.49255,-5.0113 5.98643,-6.59883 2.54005,-1.63275 5.37404,-2.4496 8.50386,-2.4496 z m 1.02035,6.25872 c -2.22253,0 -4.17278,0.54457 -5.85076,1.63275 -1.67797,1.08818 -2.99321,2.56265 -3.94573,4.42151 -0.95157,1.85981 -1.42831,3.96836 -1.42831,6.32656 0,2.35821 0.47674,4.46768 1.42831,6.32655 0.95252,1.8598 2.26776,3.33333 3.94573,4.42152 1.67798,1.08912 3.62823,1.63274 5.85076,1.63274 2.22159,0 4.17186,-0.521 5.84982,-1.56396 1.67798,-1.08912 2.99323,-2.56266 3.94574,-4.42247 0.95252,-1.90409 1.4283,-4.03617 1.4283,-6.39438 0,-2.3582 -0.47578,-4.46675 -1.4283,-6.32656 -0.95251,-1.90409 -2.26776,-3.37855 -3.94574,-4.42151 -1.67796,-1.08818 -3.62823,-1.63275 -5.84982,-1.63275 z m 61.91352,-6.25872 c 2.44866,0 4.62503,0.27229 6.53006,0.81684 1.90503,0.49841 3.37856,1.22481 4.42152,2.17638 1.08913,0.90729 1.63275,1.97287 1.63275,3.19766 0,0.77069 -0.22612,1.49613 -0.68024,2.17638 -0.45316,0.63501 -1.1334,0.95251 -2.0407,0.95251 -0.63501,0 -1.17862,-0.11306 -1.63274,-0.34012 -0.40795,-0.22611 -0.7933,-0.4984 -1.15602,-0.8159 -0.36273,-0.3175 -0.81685,-0.63502 -1.36047,-0.95251 -0.49934,-0.27229 -1.24741,-0.4984 -2.24515,-0.68025 -0.95252,-0.18183 -1.81365,-0.27227 -2.58527,-0.27227 -2.40343,0 -4.48935,0.54457 -6.25777,1.63275 -1.72413,1.08818 -3.08461,2.56265 -4.08235,4.42151 -0.95251,1.85981 -1.4283,3.96836 -1.4283,6.32656 0,2.35821 0.47579,4.46768 1.4283,6.32655 0.99774,1.8598 2.3356,3.33333 4.01358,4.42152 1.72318,1.08912 3.71868,1.63274 5.98643,1.63274 1.36046,0 2.47221,-0.0905 3.33334,-0.27227 0.86205,-0.22612 1.61012,-0.4984 2.24514,-0.81591 0.68023,-0.40795 1.24741,-0.81591 1.70059,-1.22479 0.49933,-0.45318 1.17956,-0.68024 2.04069,-0.68024 0.99774,0 1.74581,0.31751 2.24515,0.95251 0.54362,0.5898 0.8159,1.33787 0.8159,2.24516 0,0.99774 -0.6124,1.97286 -1.83625,2.92538 -1.17957,0.90635 -2.76616,1.65536 -4.76163,2.2442 -1.99548,0.5898 -4.1954,0.88469 -6.59884,0.88469 -3.53778,0 -6.62144,-0.81591 -9.25193,-2.44865 -2.58527,-1.63276 -4.60336,-3.8553 -6.05427,-6.66669 -1.40569,-2.81231 -2.10853,-5.98642 -2.10853,-9.5242 0,-3.58207 0.74806,-6.75712 2.2442,-9.52327 1.49708,-2.81233 3.58301,-5.03392 6.25872,-6.66667 2.67571,-1.63276 5.73677,-2.4496 9.18409,-2.4496 z m 36.09196,37.27908 c -3.76484,0 -7.0294,-0.77069 -9.79649,-2.31298 -2.76616,-1.58754 -4.91992,-3.74129 -6.46222,-6.46223 -1.49708,-2.7671 -2.24515,-5.9186 -2.24515,-9.45637 0,-3.99003 0.79423,-7.39213 2.38082,-10.20352 1.63274,-2.85754 3.74222,-5.03392 6.32655,-6.53099 2.58526,-1.54137 5.32881,-2.31299 8.23157,-2.31299 2.22255,0 4.33108,0.45412 6.32656,1.36142 1.99547,0.86112 3.7639,2.08592 5.3062,3.67344 1.58659,1.54136 2.834,3.37856 3.74129,5.50971 0.9073,2.08593 1.38308,4.37629 1.4283,6.87111 -0.0452,0.90635 -0.40795,1.65537 -1.08818,2.2442 -0.68025,0.5898 -1.47353,0.88469 -2.38081,0.88469 h -26.46224 l -1.63274,-5.78199 h 25.57754 l -1.29264,1.22385 v -1.70057 c -0.0905,-1.58753 -0.61145,-2.97061 -1.56396,-4.14925 -0.95252,-1.22479 -2.1321,-2.1547 -3.53779,-2.78971 -1.4057,-0.68024 -2.87921,-1.02035 -4.42153,-1.02035 -1.36045,0 -2.6757,0.22706 -3.94572,0.68024 -1.22479,0.40889 -2.33559,1.08912 -3.33334,2.04164 -0.95251,0.95157 -1.72319,2.22159 -2.31298,3.80912 -0.54362,1.5423 -0.81591,3.46901 -0.81591,5.78199 0,2.49482 0.52102,4.67118 1.56398,6.53099 1.0439,1.85887 2.44959,3.31073 4.21801,4.35369 1.76843,0.99774 3.71868,1.49613 5.85077,1.49613 1.67796,0 3.06105,-0.15827 4.14923,-0.47578 1.08819,-0.36273 1.99548,-0.79329 2.72094,-1.29263 0.72547,-0.4984 1.36047,-0.97514 1.90503,-1.42831 0.68024,-0.40794 1.36047,-0.6124 2.0407,-0.6124 0.81591,0 1.49614,0.29491 2.0407,0.88469 0.54457,0.54362 0.81591,1.20125 0.81591,1.97191 0,0.99774 -0.4984,1.90504 -1.49614,2.72188 -1.2248,1.17865 -2.92539,2.22161 -5.10175,3.1289 -2.13209,0.90729 -4.3763,1.36047 -6.73451,1.36047 z m 30.27323,-4.14924 c 0,0.99774 -0.34011,1.83626 -1.02035,2.51648 -0.63406,0.63501 -1.4283,0.95252 -2.38081,0.95252 -0.95252,0 -1.76843,-0.31751 -2.44866,-0.95252 -0.635,-0.68022 -0.95251,-1.51874 -0.95251,-2.51648 V 730.6119 c 0,-0.99775 0.34012,-1.81459 1.02034,-2.44959 0.68024,-0.68024 1.49709,-1.02035 2.44866,-1.02035 0.99774,0 1.79198,0.34011 2.38176,1.02035 0.63501,0.635 0.95157,1.45184 0.95157,2.44959 z m 17.47222,0 c 0,0.99774 -0.34012,1.83626 -1.02036,2.51648 -0.63501,0.63501 -1.4283,0.95252 -2.38081,0.95252 -0.95252,0 -1.76937,-0.31751 -2.4496,-0.95252 -0.63407,-0.68022 -0.95158,-1.51874 -0.95158,-2.51648 V 730.6119 c 0,-0.99775 0.34013,-1.81459 1.02036,-2.44959 0.68023,-0.68024 1.49613,-1.02035 2.44865,-1.02035 0.99774,0 1.79103,0.34011 2.38082,1.02035 0.635,0.635 0.95252,1.45184 0.95252,2.44959 z m 8.01583,-2.10949 c -0.40796,-0.635 -0.5898,-1.36046 -0.54363,-2.17636 0.0452,-0.86208 0.52102,-1.58753 1.42831,-2.17732 0.635,-0.40796 1.29263,-0.56623 1.97286,-0.47579 0.72546,0.0452 1.40569,0.38535 2.0407,1.02035 1.27002,1.4057 2.67571,2.51649 4.21707,3.33334 1.58753,0.81591 3.49256,1.22479 5.71511,1.22479 0.90635,-0.0462 1.83625,-0.18183 2.78876,-0.40888 0.95252,-0.27134 1.76841,-0.72546 2.44865,-1.36047 0.68023,-0.68023 1.02035,-1.65536 1.02035,-2.92539 0,-1.1334 -0.36272,-2.0407 -1.08819,-2.72094 -0.72545,-0.68022 -1.67797,-1.22385 -2.85754,-1.63275 -1.17863,-0.45317 -2.44866,-0.86112 -3.80912,-1.22384 -1.45092,-0.40795 -2.92538,-0.86208 -4.42152,-1.36047 -1.45185,-0.49934 -2.76616,-1.13435 -3.94574,-1.90503 -1.17956,-0.81591 -2.15375,-1.85981 -2.92537,-3.1289 -0.72547,-1.27001 -1.08818,-2.83493 -1.08818,-4.6938 0,-2.13209 0.58978,-3.96834 1.76841,-5.51063 1.2248,-1.54231 2.78972,-2.74355 4.69381,-3.60562 1.95025,-0.86113 4.05878,-1.29264 6.32654,-1.29264 1.31525,0 2.69832,0.18184 4.15018,0.54457 1.45091,0.31749 2.8566,0.83945 4.21707,1.56492 1.36047,0.72544 2.54004,1.67796 3.53779,2.8566 0.45318,0.58978 0.70284,1.29263 0.74807,2.10947 0.0905,0.81591 -0.27229,1.54136 -1.08819,2.17637 -0.54457,0.45412 -1.2022,0.65763 -1.97286,0.61241 -0.77069,-0.0452 -1.4057,-0.29489 -1.90503,-0.74807 -0.86113,-1.08913 -1.97288,-1.92765 -3.33335,-2.51744 -1.36045,-0.635 -2.90182,-0.95251 -4.62596,-0.95251 -0.86113,0 -1.76842,0.13661 -2.72094,0.4089 -0.90635,0.22611 -1.67798,0.65762 -2.31298,1.29168 -0.63407,0.63501 -0.95157,1.56492 -0.95157,2.78971 0,1.13341 0.36273,2.04071 1.08818,2.72094 0.77069,0.68024 1.76842,1.24741 2.99322,1.70059 1.22385,0.45317 2.56172,0.86207 4.01356,1.22479 1.4057,0.36274 2.78878,0.7933 4.14925,1.29264 1.40569,0.49839 2.6531,1.15602 3.74128,1.97193 1.13435,0.77161 2.04164,1.79197 2.72188,3.06198 0.72546,1.22386 1.08818,2.78878 1.08818,4.69381 0,2.22158 -0.65762,4.12662 -1.97286,5.71415 -1.27002,1.54136 -2.90277,2.72093 -4.89825,3.53684 -1.95026,0.81685 -4.01357,1.2248 -6.18994,1.2248 -2.58527,0 -5.17053,-0.45318 -7.75579,-1.36047 -2.53911,-0.95251 -4.6938,-2.58527 -6.46222,-4.89826 z m 37.1792,5.51065 c -1.13341,0 -2.0181,-0.3175 -2.65311,-0.95252 -0.58883,-0.635 -0.88372,-1.51968 -0.88372,-2.6531 v -1.22479 c 0,-1.1334 0.29489,-2.01809 0.88372,-2.6531 0.63501,-0.635 1.5197,-0.95157 2.65311,-0.95157 h 0.74807 c 1.13434,0 1.99547,0.31657 2.58527,0.95157 0.58978,0.63501 0.88468,1.5197 0.88468,2.6531 v 1.22479 c 0,1.13342 -0.2949,2.0181 -0.88468,2.6531 -0.5898,0.63502 -1.45093,0.95252 -2.58527,0.95252 z"
     fill="white"
     id="path7"
     style="fill:#000000;fill-opacity:1;stroke-width:0.942149" /><g
     filter="url(#filter0_d_1015_27836)"
     id="g9"
     transform="matrix(1.6629473,0,0,1.6629473,-393.34233,-308.22979)"
     style="fill:none;filter:url(#filter0_d_1015_27836-6)"><path
       d="m 533.289,377.035 18.146,-6.335 c 3.402,-1.187 3.533,-5.95 0.201,-7.272 l -41.517,-14.459 c -3.121,-1.238 -6.259,1.823 -5.099,4.975 l 13.595,42.673 c 1.238,3.363 5.998,3.352 7.273,-0.016 z"
       fill="#D9D9D9"
       id="path8"
       style="fill:#f4f4f4;fill-opacity:1" /><path
       d="m 533.289,377.035 18.146,-6.335 c 3.402,-1.187 3.533,-5.95 0.201,-7.272 l -41.517,-14.459 c -3.121,-1.238 -6.259,1.823 -5.099,4.975 l 13.595,42.673 c 1.238,3.363 5.998,3.352 7.273,-0.016 z"
       stroke="#000000"
       stroke-width="7.88589"
       stroke-linecap="round"
       stroke-linejoin="round"
       id="path9" /></g><path
     d="m 427.45851,290.43121 c -1.68125,0 -3.08145,-0.56042 -4.20227,-1.68123 -1.12083,-1.20065 -1.68124,-2.68068 -1.68124,-4.44173 v -61.11664 l 2.16016,0.72005 -25.93532,33.13921 -0.60033,-1.55984 h 43.70725 c 1.59976,0 2.9218,0.56041 3.96114,1.68123 1.12082,1.03934 1.68124,2.36138 1.68124,3.96115 0,1.52159 -0.56042,2.80207 -1.68124,3.84307 -1.03934,1.041 -2.36138,1.55985 -3.96114,1.55985 H 388.9147 c -1.4401,0 -2.80039,-0.55875 -4.08252,-1.67959 -1.28048,-1.20064 -1.92071,-2.60251 -1.92071,-4.20226 0,-1.52159 0.5205,-2.88189 1.56151,-4.08253 l 38.18294,-47.78812 c 0.5604,-0.80153 1.28045,-1.40186 2.16016,-1.80263 0.88137,-0.39912 1.80097,-0.60033 2.76216,-0.60033 1.76106,0 3.20116,0.60033 4.322,1.80263 1.12081,1.11916 1.68123,2.56094 1.68123,4.32201 v 71.80274 c 0,1.76105 -0.60032,3.24108 -1.80097,4.44173 -1.20065,1.12081 -2.64075,1.68123 -4.32199,1.68123 z"
     fill="#ffffff"
     id="path10"
     style="stroke-width:1.66294" /><circle
     cx="417.33118"
     cy="113.63829"
     fill="#1B1B1B"
     id="circle10"
     style="fill:#0085ae;fill-opacity:1;stroke-width:1.66294"
     r="27.165075" /><rect
     x="412.53693"
     y="70.92218"
     width="9.5877056"
     height="27.271669"
     rx="4.7938447"
     fill="#1B1B1B"
     id="rect10"
     style="fill:#0085ae;fill-opacity:1;stroke-width:1.66294" /><rect
     x="412.53693"
     y="128.45016"
     width="9.5877056"
     height="27.271669"
     rx="4.7938447"
     fill="#1B1B1B"
     id="rect11"
     style="fill:#0085ae;fill-opacity:1;stroke-width:1.66294" /><rect
     x="108.51974"
     y="-459.73636"
     width="9.5877056"
     height="27.271669"
     rx="4.7938447"
     transform="rotate(90)"
     fill="#1B1B1B"
     id="rect12"
     style="fill:#0085ae;fill-opacity:1;stroke-width:1.66294" /><rect
     x="108.51974"
     y="-402.20837"
     width="9.5877056"
     height="27.271669"
     rx="4.7938447"
     transform="rotate(90)"
     fill="#1B1B1B"
     id="rect13"
     style="fill:#0085ae;fill-opacity:1;stroke-width:1.66294" /><rect
     x="-219.76781"
     y="-417.62744"
     width="9.5877056"
     height="27.271669"
     rx="4.7938447"
     transform="rotate(135)"
     fill="#1B1B1B"
     id="rect14"
     style="fill:#0085ae;fill-opacity:1;stroke-width:1.66294" /><rect
     x="-219.769"
     y="-360.1022"
     width="9.5877056"
     height="27.271669"
     rx="4.7938447"
     transform="rotate(135)"
     fill="#1B1B1B"
     id="rect15"
     style="fill:#0085ae;fill-opacity:1;stroke-width:1.66294" /><rect
     x="-380.0275"
     y="172.57735"
     width="9.5877056"
     height="27.271669"
     rx="4.7938447"
     transform="rotate(-135)"
     fill="#1B1B1B"
     id="rect16"
     style="fill:#0085ae;fill-opacity:1;stroke-width:1.66294" /><rect
     x="-380.01926"
     y="230.09323"
     width="9.5877056"
     height="27.271669"
     rx="4.7938447"
     transform="rotate(-135)"
     fill="#1B1B1B"
     id="rect17"
     style="fill:#0085ae;fill-opacity:1;stroke-width:1.66294" /><circle
     cx="552.04321"
     cy="113.63829"
     fill="#1B1B1B"
     id="circle17"
     style="fill:#0085ae;fill-opacity:1;stroke-width:1.66294"
     r="27.165075" /><rect
     x="547.2356"
     y="70.92218"
     width="9.5877056"
     height="27.271669"
     rx="4.7938447"
     fill="#1B1B1B"
     id="rect18"
     style="fill:#0085ae;fill-opacity:1;stroke-width:1.66294" /><rect
     x="547.2356"
     y="128.45016"
     width="9.5877056"
     height="27.271669"
     rx="4.7938447"
     fill="#1B1B1B"
     id="rect19"
     style="fill:#0085ae;fill-opacity:1;stroke-width:1.66294" /><rect
     x="108.51974"
     y="-594.43506"
     width="9.5877056"
     height="27.271669"
     rx="4.7938447"
     transform="rotate(90)"
     fill="#1B1B1B"
     id="rect20"
     style="fill:#0085ae;fill-opacity:1;stroke-width:1.66294" /><rect
     x="108.51974"
     y="-536.90704"
     width="9.5877056"
     height="27.271669"
     rx="4.7938447"
     transform="rotate(90)"
     fill="#1B1B1B"
     id="rect21"
     style="fill:#0085ae;fill-opacity:1;stroke-width:1.66294" /><rect
     x="-315.01419"
     y="-512.87378"
     width="9.5877056"
     height="27.271669"
     rx="4.7938447"
     transform="rotate(135)"
     fill="#1B1B1B"
     id="rect22"
     style="fill:#0085ae;fill-opacity:1;stroke-width:1.66294" /><rect
     x="-315.01544"
     y="-455.34851"
     width="9.5877056"
     height="27.271669"
     rx="4.7938447"
     transform="rotate(135)"
     fill="#1B1B1B"
     id="rect23"
     style="fill:#0085ae;fill-opacity:1;stroke-width:1.66294" /><rect
     x="-475.2738"
     y="267.82373"
     width="9.5877056"
     height="27.271669"
     rx="4.7938447"
     transform="rotate(-135)"
     fill="#1B1B1B"
     id="rect24"
     style="fill:#0085ae;fill-opacity:1;stroke-width:1.66294" /><rect
     x="-475.27496"
     y="325.34906"
     width="9.5877056"
     height="27.271669"
     rx="4.7938447"
     transform="rotate(-135)"
     fill="#1B1B1B"
     id="rect25"
     style="fill:#0085ae;fill-opacity:1;stroke-width:1.66294" /><circle
     cx="552.04321"
     cy="248.33707"
     fill="#1B1B1B"
     id="circle25"
     style="fill:#0085ae;fill-opacity:1;stroke-width:1.66294"
     r="27.165075" /><rect
     x="547.2356"
     y="205.62093"
     width="9.5877056"
     height="27.271669"
     rx="4.7938447"
     fill="#1B1B1B"
     id="rect26"
     style="fill:#0085ae;fill-opacity:1;stroke-width:1.66294" /><rect
     x="547.2356"
     y="263.1489"
     width="9.5877056"
     height="27.271669"
     rx="4.7938447"
     fill="#1B1B1B"
     id="rect27"
     style="fill:#0085ae;fill-opacity:1;stroke-width:1.66294" /><rect
     x="243.21854"
     y="-594.43506"
     width="9.5877056"
     height="27.271669"
     rx="4.7938447"
     transform="rotate(90)"
     fill="#1B1B1B"
     id="rect28"
     style="fill:#0085ae;fill-opacity:1;stroke-width:1.66294" /><rect
     x="243.21854"
     y="-536.90704"
     width="9.5877056"
     height="27.271669"
     rx="4.7938447"
     transform="rotate(90)"
     fill="#1B1B1B"
     id="rect29"
     style="fill:#0085ae;fill-opacity:1;stroke-width:1.66294" /><rect
     x="-219.76781"
     y="-608.12018"
     width="9.5877056"
     height="27.271669"
     rx="4.7938447"
     transform="rotate(135)"
     fill="#1B1B1B"
     id="rect30"
     style="fill:#0085ae;fill-opacity:1;stroke-width:1.66294" /><rect
     x="-219.769"
     y="-550.59491"
     width="9.5877056"
     height="27.271669"
     rx="4.7938447"
     transform="rotate(135)"
     fill="#1B1B1B"
     id="rect31"
     style="fill:#0085ae;fill-opacity:1;stroke-width:1.66294" /><rect
     x="-570.5202"
     y="172.57735"
     width="9.5877056"
     height="27.271669"
     rx="4.7938447"
     transform="rotate(-135)"
     fill="#1B1B1B"
     id="rect32"
     style="fill:#0085ae;fill-opacity:1;stroke-width:1.66294" /><rect
     x="-570.51196"
     y="230.09322"
     width="9.5877056"
     height="27.271669"
     rx="4.7938447"
     transform="rotate(-135)"
     fill="#1B1B1B"
     id="rect33"
     style="fill:#0085ae;fill-opacity:1;stroke-width:1.66294" /><circle
     cx="552.02985"
     cy="384.69873"
     fill="#1B1B1B"
     id="circle33"
     style="fill:#0085ae;fill-opacity:1;stroke-width:1.66294"
     r="27.165075" /><rect
     x="547.2356"
     y="341.9826"
     width="9.5877056"
     height="27.271669"
     rx="4.7938447"
     fill="#1B1B1B"
     id="rect34"
     style="fill:#0085ae;fill-opacity:1;stroke-width:1.66294" /><rect
     x="547.2356"
     y="399.51056"
     width="9.5877056"
     height="27.271669"
     rx="4.7938447"
     fill="#1B1B1B"
     id="rect35"
     style="fill:#0085ae;fill-opacity:1;stroke-width:1.66294" /><rect
     x="379.5802"
     y="-594.42163"
     width="9.5877056"
     height="27.271669"
     rx="4.7938447"
     transform="rotate(90)"
     fill="#1B1B1B"
     id="rect36"
     style="fill:#0085ae;fill-opacity:1;stroke-width:1.66294" /><rect
     x="379.58023"
     y="-536.90704"
     width="9.5877056"
     height="27.271669"
     rx="4.7938447"
     transform="rotate(90)"
     fill="#1B1B1B"
     id="rect37"
     style="fill:#0085ae;fill-opacity:1;stroke-width:1.66294" /><rect
     x="-123.3455"
     y="-704.54248"
     width="9.5877056"
     height="27.271669"
     rx="4.7938447"
     transform="rotate(135)"
     fill="#1B1B1B"
     id="rect38"
     style="fill:#0085ae;fill-opacity:1;stroke-width:1.66294" /><rect
     x="-123.33732"
     y="-647.00781"
     width="9.5877056"
     height="27.271669"
     rx="4.7938447"
     transform="rotate(135)"
     fill="#1B1B1B"
     id="rect39"
     style="fill:#0085ae;fill-opacity:1;stroke-width:1.66294" /><rect
     x="-666.93317"
     y="76.145706"
     width="9.5877056"
     height="27.271669"
     rx="4.7938447"
     transform="rotate(-135)"
     fill="#1B1B1B"
     id="rect40"
     style="fill:#0085ae;fill-opacity:1;stroke-width:1.66294" /><rect
     x="-666.9342"
     y="133.67096"
     width="9.5877056"
     height="27.271669"
     rx="4.7938447"
     transform="rotate(-135)"
     fill="#1B1B1B"
     id="rect41"
     style="fill:#0085ae;fill-opacity:1;stroke-width:1.66294" /></svg>
