<?xml version="1.0" encoding="UTF-8" standalone="no"?>
<svg
   width="821.06775"
   height="821.06781"
   viewBox="0 0 821.06775 821.06781"
   fill="none"
   version="1.1"
   id="svg27"
   xml:space="preserve"
   xmlns="http://www.w3.org/2000/svg"
   xmlns:svg="http://www.w3.org/2000/svg"><rect
     style="fill:none;fill-opacity:1;stroke:#000000;stroke-width:3.20414;stroke-linecap:round;stroke-linejoin:round;stroke-opacity:0;paint-order:markers stroke fill"
     id="rect1"
     width="817.86365"
     height="817.86365"
     x="1.60207"
     y="1.6020699" /><defs
     id="defs27"><filter
       id="filter0_d_1015_33198"
       x="541.98297"
       y="222.983"
       width="96.501999"
       height="97.736397"
       filterUnits="userSpaceOnUse"
       color-interpolation-filters="sRGB"><feFlood
         flood-opacity="0"
         result="BackgroundImageFix"
         id="feFlood114" /><feColorMatrix
         in="SourceAlpha"
         type="matrix"
         values="0 0 0 0 0 0 0 0 0 0 0 0 0 0 0 0 0 0 127 0"
         result="hardAlpha"
         id="feColorMatrix114" /><feOffset
         id="feOffset114" /><feGaussianBlur
         stdDeviation="3.53565"
         id="feGaussianBlur114" /><feColorMatrix
         type="matrix"
         values="0 0 0 0 1 0 0 0 0 1 0 0 0 0 1 0 0 0 1 0"
         id="feColorMatrix115" /><feBlend
         mode="normal"
         in2="BackgroundImageFix"
         result="effect1_dropShadow_1015_33198"
         id="feBlend115" /><feBlend
         mode="normal"
         in="SourceGraphic"
         in2="effect1_dropShadow_1015_33198"
         result="shape"
         id="feBlend116" /></filter></defs><path
     d="m 199.16522,142.03839 c 0,-13.707 0,-20.561 4.258,-24.82 4.259,-4.258 11.113,-4.258 24.82,-4.258 h 48.742 v 77.82 h -77.82 z"
     fill="#8d8d8d"
     id="path1" /><rect
     x="280.35321"
     y="112.96039"
     width="77.82"
     height="77.82"
     fill="#8d8d8d"
     id="rect2" /><rect
     x="361.54022"
     y="112.96039"
     width="77.82"
     height="77.82"
     fill="#8d8d8d"
     id="rect3" /><rect
     x="442.72021"
     y="112.96039"
     width="77.82"
     height="77.82"
     fill="#8d8d8d"
     id="rect4" /><path
     d="m 523.90722,112.96039 h 48.742 c 13.708,0 20.561,0 24.82,4.258 4.258,4.259 4.258,11.113 4.258,24.82 v 48.742 h -77.82 z"
     fill="#8d8d8d"
     id="path4" /><rect
     x="199.16521"
     y="194.14839"
     width="77.82"
     height="77.82"
     fill="#8d8d8d"
     id="rect5" /><rect
     x="280.35321"
     y="194.14839"
     width="77.82"
     height="77.82"
     fill="#383838"
     id="rect6" /><rect
     x="361.54022"
     y="194.14839"
     width="77.82"
     height="77.82"
     fill="#383838"
     id="rect7" /><rect
     x="442.72021"
     y="194.14839"
     width="77.82"
     height="77.82"
     fill="#8d8d8d"
     id="rect8" /><rect
     x="523.90723"
     y="194.14839"
     width="77.82"
     height="77.82"
     fill="#8d8d8d"
     id="rect9" /><rect
     x="199.16521"
     y="275.33539"
     width="77.82"
     height="77.82"
     fill="#8d8d8d"
     id="rect10" /><rect
     x="280.35321"
     y="275.33539"
     width="77.82"
     height="77.82"
     fill="#383838"
     id="rect11" /><rect
     x="361.54022"
     y="275.33539"
     width="77.82"
     height="77.82"
     fill="#383838"
     id="rect12" /><rect
     x="442.72021"
     y="275.33539"
     width="77.82"
     height="77.82"
     fill="#8d8d8d"
     id="rect13" /><rect
     x="523.90723"
     y="275.33539"
     width="77.82"
     height="77.82"
     fill="#8d8d8d"
     id="rect14" /><rect
     x="199.16521"
     y="356.51538"
     width="77.82"
     height="77.82"
     fill="#8d8d8d"
     id="rect15" /><rect
     x="280.35321"
     y="356.51538"
     width="77.82"
     height="77.82"
     fill="#383838"
     id="rect16" /><rect
     x="361.54022"
     y="356.51538"
     width="77.82"
     height="77.82"
     fill="#cccccc"
     id="rect17" /><rect
     x="442.72021"
     y="356.51538"
     width="77.82"
     height="77.82"
     fill="#8d8d8d"
     id="rect18" /><rect
     x="523.90723"
     y="356.51538"
     width="77.82"
     height="77.82"
     fill="#8d8d8d"
     id="rect19" /><path
     d="m 199.16522,437.70239 h 77.82 v 77.82 h -48.742 c -13.707,0 -20.561,0 -24.82,-4.258 -4.258,-4.259 -4.258,-11.112 -4.258,-24.82 z"
     fill="#8d8d8d"
     id="path19" /><rect
     x="280.35321"
     y="437.70239"
     width="77.82"
     height="77.82"
     fill="#8d8d8d"
     id="rect20" /><rect
     x="361.54022"
     y="437.70239"
     width="77.82"
     height="77.82"
     fill="#8d8d8d"
     id="rect21" /><rect
     x="442.72021"
     y="437.70239"
     width="77.82"
     height="77.82"
     fill="#8d8d8d"
     id="rect22" /><path
     d="m 523.90722,437.70239 h 77.82 v 48.742 c 0,13.708 0,20.561 -4.258,24.82 -4.259,4.258 -11.112,4.258 -24.82,4.258 h -48.742 z"
     fill="#8d8d8d"
     id="path22" /><path
     d="m 199.16522,142.03839 c 0,-13.707 0,-20.561 4.258,-24.82 4.259,-4.258 11.113,-4.258 24.82,-4.258 h 48.742 v 77.82 h -77.82 z"
     fill="#8D8D8D"
     id="path23"
     style="fill:#002a37;fill-opacity:1" /><rect
     x="280.35321"
     y="112.96039"
     width="77.82"
     height="77.82"
     fill="#8D8D8D"
     id="rect23"
     style="fill:#002a37;fill-opacity:1" /><rect
     x="361.54022"
     y="112.96039"
     width="77.82"
     height="77.82"
     fill="#8D8D8D"
     id="rect24"
     style="fill:#002a37;fill-opacity:1" /><rect
     x="442.72021"
     y="112.96039"
     width="77.82"
     height="77.82"
     fill="#8D8D8D"
     id="rect25"
     style="fill:#002a37;fill-opacity:1" /><path
     d="m 523.90722,112.96039 h 48.742 c 13.708,0 20.561,0 24.82,4.258 4.258,4.259 4.258,11.113 4.258,24.82 v 48.742 h -77.82 z"
     fill="#8D8D8D"
     id="path25"
     style="fill:#002a37;fill-opacity:1" /><rect
     x="199.16521"
     y="194.14839"
     width="77.82"
     height="77.82"
     fill="#8D8D8D"
     id="rect26"
     style="fill:#002a37;fill-opacity:1" /><rect
     x="280.35321"
     y="194.14839"
     width="77.82"
     height="77.82"
     fill="#383838"
     id="rect27"
     style="fill:#006e90;fill-opacity:1" /><rect
     x="361.54022"
     y="194.14839"
     width="77.82"
     height="77.82"
     fill="#383838"
     id="rect28"
     style="fill:#006e90;fill-opacity:1" /><rect
     x="442.72021"
     y="194.14839"
     width="77.82"
     height="77.82"
     fill="#8D8D8D"
     id="rect29"
     style="fill:#002a37;fill-opacity:1" /><rect
     x="523.90723"
     y="194.14839"
     width="77.82"
     height="77.82"
     fill="#8D8D8D"
     id="rect30"
     style="fill:#002a37;fill-opacity:1" /><rect
     x="199.16521"
     y="275.33539"
     width="77.82"
     height="77.82"
     fill="#8D8D8D"
     id="rect31"
     style="fill:#002a37;fill-opacity:1" /><rect
     x="280.35321"
     y="275.33539"
     width="77.82"
     height="77.82"
     fill="#383838"
     id="rect32"
     style="fill:#006e90;fill-opacity:1" /><rect
     x="361.54022"
     y="275.33539"
     width="77.82"
     height="77.82"
     fill="#383838"
     id="rect33"
     style="fill:#006e90;fill-opacity:1" /><rect
     x="442.72021"
     y="275.33539"
     width="77.82"
     height="77.82"
     fill="#8D8D8D"
     id="rect34"
     style="fill:#002a37;fill-opacity:1" /><rect
     x="523.90723"
     y="275.33539"
     width="77.82"
     height="77.82"
     fill="#8D8D8D"
     id="rect35"
     style="fill:#002a37;fill-opacity:1" /><rect
     x="199.16521"
     y="356.51538"
     width="77.82"
     height="77.82"
     fill="#8D8D8D"
     id="rect36"
     style="fill:#002a37;fill-opacity:1" /><rect
     x="280.35321"
     y="356.51538"
     width="77.82"
     height="77.82"
     fill="#383838"
     id="rect37"
     style="fill:#006e90;fill-opacity:1" /><rect
     x="361.54022"
     y="356.51538"
     width="77.82"
     height="77.82"
     fill="#8D8D8D"
     id="rect38"
     style="fill:#006e90;fill-opacity:1" /><rect
     x="442.72021"
     y="356.51538"
     width="77.82"
     height="77.82"
     fill="#8D8D8D"
     id="rect39"
     style="fill:#002a37;fill-opacity:1" /><rect
     x="523.90723"
     y="356.51538"
     width="77.82"
     height="77.82"
     fill="#8D8D8D"
     id="rect40"
     style="fill:#002a37;fill-opacity:1" /><path
     d="m 199.16522,437.70239 h 77.82 v 77.82 h -48.742 c -13.707,0 -20.561,0 -24.82,-4.258 -4.258,-4.259 -4.258,-11.112 -4.258,-24.82 z"
     fill="#8D8D8D"
     id="path40"
     style="fill:#002a37;fill-opacity:1" /><rect
     x="280.35321"
     y="437.70239"
     width="77.82"
     height="77.82"
     fill="#8D8D8D"
     id="rect41"
     style="fill:#002a37;fill-opacity:1" /><rect
     x="361.54022"
     y="437.70239"
     width="77.82"
     height="77.82"
     fill="#8D8D8D"
     id="rect42"
     style="fill:#002a37;fill-opacity:1" /><rect
     x="442.72021"
     y="437.70239"
     width="77.82"
     height="77.82"
     fill="#8D8D8D"
     id="rect43"
     style="fill:#002a37;fill-opacity:1" /><path
     d="m 523.90722,437.70239 h 77.82 v 48.742 c 0,13.708 0,20.561 -4.258,24.82 -4.259,4.258 -11.112,4.258 -24.82,4.258 h -48.742 z"
     fill="#8D8D8D"
     id="path43"
     style="fill:#002a37;fill-opacity:1" /><path
     d="m 88.543825,542.46125 c 0.798,0 1.512,0.315 2.142,0.945 0.672,0.588 1.008,1.344 1.008,2.268 0,0.336 -0.063,0.672 -0.189,1.008 -0.084,0.294 -0.231,0.609 -0.441,0.945 l -14.427,20.412 1.008,-3.717 v 19.215 c 0,0.924 -0.315,1.701 -0.945,2.331 -0.63,0.588 -1.344,0.882 -2.142,0.882 -0.882,0 -1.638,-0.294 -2.268,-0.882 -0.588,-0.63 -0.882,-1.407 -0.882,-2.331 v -18.711 l 0.441,1.827 -13.923,-18.585 c -0.336,-0.462 -0.567,-0.882 -0.693,-1.26 -0.126,-0.42 -0.189,-0.819 -0.189,-1.197 0,-0.924 0.357,-1.68 1.071,-2.268 0.756,-0.588 1.512,-0.882 2.268,-0.882 1.008,0 1.869,0.483 2.583,1.449 l 12.6,17.262 -1.512,-0.189 11.844,-17.01 c 0.714,-1.008 1.596,-1.512 2.646,-1.512 z m 37.734995,27.72 c 0,3.36 -0.735,6.342 -2.205,8.946 -1.47,2.562 -3.465,4.578 -5.985,6.048 -2.52,1.47 -5.355,2.205 -8.505,2.205 -3.15,0 -5.985,-0.735 -8.505,-2.205 -2.519995,-1.47 -4.535995,-3.486 -6.047995,-6.048 -1.47,-2.604 -2.205,-5.586 -2.205,-8.946 0,-3.402 0.735,-6.384 2.205,-8.946 1.512,-2.604 3.528,-4.641 6.047995,-6.111 2.52,-1.512 5.355,-2.268 8.505,-2.268 3.15,0 5.985,0.756 8.505,2.268 2.52,1.47 4.515,3.507 5.985,6.111 1.47,2.562 2.205,5.544 2.205,8.946 z m -6.3,0 c 0,-2.31 -0.462,-4.305 -1.386,-5.985 -0.924,-1.722 -2.184,-3.066 -3.78,-4.032 -1.554,-1.008 -3.297,-1.512 -5.229,-1.512 -1.932,0 -3.696,0.504 -5.292,1.512 -1.596,0.966 -2.856,2.31 -3.78,4.032 -0.923995,1.68 -1.385995,3.675 -1.385995,5.985 0,2.226 0.462,4.2 1.385995,5.922 0.924,1.722 2.184,3.066 3.78,4.032 1.596,0.966 3.36,1.449 5.292,1.449 1.932,0 3.675,-0.483 5.229,-1.449 1.596,-0.966 2.856,-2.31 3.78,-4.032 0.924,-1.722 1.386,-3.696 1.386,-5.922 z m 38.127,-16.569 c 0.882,0 1.617,0.315 2.205,0.945 0.63,0.588 0.945,1.344 0.945,2.268 v 16.569 c 0,4.368 -1.218,7.791 -3.654,10.269 -2.436,2.436 -5.88,3.654 -10.332,3.654 -4.41,0 -7.833,-1.218 -10.269,-3.654 -2.394,-2.478 -3.591,-5.901 -3.591,-10.269 v -16.569 c 0,-0.924 0.294,-1.68 0.882,-2.268 0.588,-0.63 1.344,-0.945 2.268,-0.945 0.882,0 1.617,0.315 2.205,0.945 0.63,0.588 0.945,1.344 0.945,2.268 v 16.569 c 0,2.73 0.63,4.767 1.89,6.111 1.302,1.344 3.192,2.016 5.67,2.016 2.52,0 4.431,-0.672 5.733,-2.016 1.302,-1.344 1.953,-3.381 1.953,-6.111 v -16.569 c 0,-0.924 0.294,-1.68 0.882,-2.268 0.588,-0.63 1.344,-0.945 2.268,-0.945 z m 46.077,-0.567 c 3.108,0 5.502,0.777 7.182,2.331 1.68,1.512 2.793,3.57 3.339,6.174 l -1.008,-0.315 0.441,-1.008 c 0.546,-1.092 1.365,-2.184 2.457,-3.276 1.134,-1.134 2.478,-2.058 4.032,-2.772 1.554,-0.756 3.213,-1.134 4.977,-1.134 2.898,0 5.145,0.63 6.741,1.89 1.596,1.218 2.709,2.877 3.339,4.977 0.63,2.058 0.945,4.368 0.945,6.93 v 16.695 c 0,0.924 -0.294,1.701 -0.882,2.331 -0.588,0.588 -1.344,0.882 -2.268,0.882 -0.882,0 -1.638,-0.294 -2.268,-0.882 -0.588,-0.63 -0.882,-1.407 -0.882,-2.331 v -16.632 c 0,-1.47 -0.21,-2.814 -0.63,-4.032 -0.378,-1.218 -1.071,-2.184 -2.079,-2.898 -0.966,-0.756 -2.31,-1.134 -4.032,-1.134 -1.638,0 -3.108,0.378 -4.41,1.134 -1.26,0.714 -2.247,1.68 -2.961,2.898 -0.714,1.218 -1.071,2.562 -1.071,4.032 v 16.632 c 0,0.924 -0.294,1.701 -0.882,2.331 -0.588,0.588 -1.344,0.882 -2.268,0.882 -0.924,0 -1.68,-0.294 -2.268,-0.882 -0.588,-0.63 -0.882,-1.407 -0.882,-2.331 v -16.695 c 0,-1.47 -0.21,-2.814 -0.63,-4.032 -0.378,-1.218 -1.05,-2.184 -2.016,-2.898 -0.966,-0.714 -2.31,-1.071 -4.032,-1.071 -1.638,0 -3.087,0.357 -4.347,1.071 -1.26,0.714 -2.247,1.68 -2.961,2.898 -0.672,1.218 -1.008,2.562 -1.008,4.032 v 16.695 c 0,0.924 -0.315,1.701 -0.945,2.331 -0.588,0.588 -1.323,0.882 -2.205,0.882 -0.924,0 -1.68,-0.294 -2.268,-0.882 -0.588,-0.63 -0.882,-1.407 -0.882,-2.331 v -26.712 c 0,-0.924 0.294,-1.68 0.882,-2.268 0.588,-0.63 1.344,-0.945 2.268,-0.945 0.882,0 1.617,0.315 2.205,0.945 0.63,0.588 0.945,1.344 0.945,2.268 v 3.717 l -1.197,0.693 c 0.294,-0.924 0.777,-1.869 1.449,-2.835 0.672,-0.966 1.512,-1.848 2.52,-2.646 1.05,-0.798 2.205,-1.449 3.465,-1.953 1.26,-0.504 2.625,-0.756 4.095,-0.756 z m 68.414,0.063 c 0.924,0 1.68,0.315 2.268,0.945 0.588,0.588 0.882,1.344 0.882,2.268 v 27.216 c 0,0.924 -0.294,1.701 -0.882,2.331 -0.588,0.588 -1.344,0.882 -2.268,0.882 -0.882,0 -1.638,-0.294 -2.268,-0.882 -0.588,-0.63 -0.882,-1.407 -0.882,-2.331 v -4.536 l 1.323,0.189 c 0,0.756 -0.315,1.596 -0.945,2.52 -0.588,0.924 -1.407,1.827 -2.457,2.709 -1.05,0.84 -2.289,1.554 -3.717,2.142 -1.428,0.546 -2.961,0.819 -4.599,0.819 -2.898,0 -5.502,-0.735 -7.812,-2.205 -2.31,-1.512 -4.137,-3.57 -5.481,-6.174 -1.344,-2.604 -2.016,-5.565 -2.016,-8.883 0,-3.402 0.672,-6.384 2.016,-8.946 1.344,-2.604 3.15,-4.641 5.418,-6.111 2.31,-1.47 4.872,-2.205 7.686,-2.205 1.806,0 3.465,0.294 4.977,0.882 1.554,0.588 2.898,1.344 4.032,2.268 1.134,0.924 1.995,1.911 2.583,2.961 0.63,1.008 0.945,1.974 0.945,2.898 l -1.953,0.189 v -5.733 c 0,-0.882 0.294,-1.638 0.882,-2.268 0.63,-0.63 1.386,-0.945 2.268,-0.945 z m -12.852,28.476 c 1.974,0 3.717,-0.504 5.229,-1.512 1.512,-1.008 2.688,-2.373 3.528,-4.095 0.84,-1.764 1.26,-3.717 1.26,-5.859 0,-2.184 -0.42,-4.137 -1.26,-5.859 -0.84,-1.722 -2.016,-3.087 -3.528,-4.095 -1.512,-1.008 -3.255,-1.512 -5.229,-1.512 -1.932,0 -3.654,0.504 -5.166,1.512 -1.47,1.008 -2.646,2.373 -3.528,4.095 -0.84,1.722 -1.26,3.675 -1.26,5.859 0,2.142 0.42,4.095 1.26,5.859 0.882,1.722 2.058,3.087 3.528,4.095 1.512,1.008 3.234,1.512 5.166,1.512 z m 49.461,-28.224 c 0.924,0 1.68,0.315 2.268,0.945 0.588,0.588 0.882,1.344 0.882,2.268 v 27.09 c 0,3.696 -0.714,6.699 -2.142,9.009 -1.386,2.31 -3.276,3.99 -5.67,5.04 -2.352,1.092 -5.019,1.638 -8.001,1.638 -1.512,0 -3.024,-0.147 -4.536,-0.441 -1.512,-0.252 -2.751,-0.63 -3.717,-1.134 -1.008,-0.462 -1.722,-1.029 -2.142,-1.701 -0.42,-0.672 -0.483,-1.407 -0.189,-2.205 0.294,-1.008 0.798,-1.701 1.512,-2.079 0.714,-0.336 1.449,-0.357 2.205,-0.063 0.714,0.294 1.659,0.672 2.835,1.134 1.176,0.462 2.52,0.693 4.032,0.693 2.058,0 3.801,-0.336 5.229,-1.008 1.428,-0.672 2.499,-1.722 3.213,-3.15 0.756,-1.428 1.134,-3.276 1.134,-5.544 v -4.347 l 1.008,1.512 c -0.672,1.386 -1.554,2.541 -2.646,3.465 -1.092,0.924 -2.394,1.638 -3.906,2.142 -1.47,0.504 -3.108,0.756 -4.914,0.756 -2.31,0 -4.305,-0.504 -5.985,-1.512 -1.638,-1.05 -2.898,-2.478 -3.78,-4.284 -0.882,-1.848 -1.323,-3.948 -1.323,-6.3 v -18.711 c 0,-0.924 0.294,-1.68 0.882,-2.268 0.588,-0.63 1.344,-0.945 2.268,-0.945 0.882,0 1.617,0.315 2.205,0.945 0.63,0.588 0.945,1.344 0.945,2.268 v 17.01 c 0,2.772 0.609,4.809 1.827,6.111 1.218,1.26 3.024,1.89 5.418,1.89 1.596,0 2.982,-0.336 4.158,-1.008 1.176,-0.672 2.1,-1.596 2.772,-2.772 0.672,-1.218 1.008,-2.625 1.008,-4.221 v -17.01 c 0,-0.924 0.294,-1.68 0.882,-2.268 0.63,-0.63 1.386,-0.945 2.268,-0.945 z m 44.943,-13.167 c 0.798,0 1.617,0.105 2.457,0.315 0.84,0.21 1.533,0.567 2.079,1.071 0.588,0.462 0.882,1.113 0.882,1.953 0,0.84 -0.252,1.533 -0.756,2.079 -0.504,0.504 -1.092,0.756 -1.764,0.756 -0.42,0 -0.987,-0.084 -1.701,-0.252 -0.714,-0.21 -1.428,-0.315 -2.142,-0.315 -0.966,0 -1.743,0.231 -2.331,0.693 -0.588,0.42 -1.008,0.966 -1.26,1.638 -0.252,0.63 -0.378,1.26 -0.378,1.89 v 33.516 c 0,0.924 -0.315,1.701 -0.945,2.331 -0.588,0.588 -1.323,0.882 -2.205,0.882 -0.924,0 -1.68,-0.294 -2.268,-0.882 -0.588,-0.63 -0.882,-1.407 -0.882,-2.331 v -33.453 c 0,-2.898 0.945,-5.271 2.835,-7.119 1.932,-1.848 4.725,-2.772 8.379,-2.772 z m 1.26,13.986 c 0.84,0 1.533,0.273 2.079,0.819 0.546,0.546 0.819,1.239 0.819,2.079 0,0.84 -0.273,1.533 -0.819,2.079 -0.546,0.546 -1.239,0.819 -2.079,0.819 h -16.317 c -0.798,0 -1.491,-0.273 -2.079,-0.819 -0.546,-0.546 -0.819,-1.239 -0.819,-2.079 0,-0.84 0.273,-1.533 0.819,-2.079 0.588,-0.546 1.281,-0.819 2.079,-0.819 z m 16.002,29.358 c 0,0.924 -0.315,1.701 -0.945,2.331 -0.588,0.588 -1.323,0.882 -2.205,0.882 -0.882,0 -1.638,-0.294 -2.268,-0.882 -0.588,-0.63 -0.882,-1.407 -0.882,-2.331 v -40.194 c 0,-0.924 0.315,-1.68 0.945,-2.268 0.63,-0.63 1.386,-0.945 2.268,-0.945 0.924,0 1.659,0.315 2.205,0.945 0.588,0.588 0.882,1.344 0.882,2.268 z m 36.538,-30.429 c 0.924,0 1.68,0.315 2.268,0.945 0.588,0.588 0.882,1.344 0.882,2.268 v 27.216 c 0,0.924 -0.294,1.701 -0.882,2.331 -0.588,0.588 -1.344,0.882 -2.268,0.882 -0.882,0 -1.638,-0.294 -2.268,-0.882 -0.588,-0.63 -0.882,-1.407 -0.882,-2.331 v -4.536 l 1.323,0.189 c 0,0.756 -0.315,1.596 -0.945,2.52 -0.588,0.924 -1.407,1.827 -2.457,2.709 -1.05,0.84 -2.289,1.554 -3.717,2.142 -1.428,0.546 -2.961,0.819 -4.599,0.819 -2.898,0 -5.502,-0.735 -7.812,-2.205 -2.31,-1.512 -4.137,-3.57 -5.481,-6.174 -1.344,-2.604 -2.016,-5.565 -2.016,-8.883 0,-3.402 0.672,-6.384 2.016,-8.946 1.344,-2.604 3.15,-4.641 5.418,-6.111 2.31,-1.47 4.872,-2.205 7.686,-2.205 1.806,0 3.465,0.294 4.977,0.882 1.554,0.588 2.898,1.344 4.032,2.268 1.134,0.924 1.995,1.911 2.583,2.961 0.63,1.008 0.945,1.974 0.945,2.898 l -1.953,0.189 v -5.733 c 0,-0.882 0.294,-1.638 0.882,-2.268 0.63,-0.63 1.386,-0.945 2.268,-0.945 z m -12.852,28.476 c 1.974,0 3.717,-0.504 5.229,-1.512 1.512,-1.008 2.688,-2.373 3.528,-4.095 0.84,-1.764 1.26,-3.717 1.26,-5.859 0,-2.184 -0.42,-4.137 -1.26,-5.859 -0.84,-1.722 -2.016,-3.087 -3.528,-4.095 -1.512,-1.008 -3.255,-1.512 -5.229,-1.512 -1.932,0 -3.654,0.504 -5.166,1.512 -1.47,1.008 -2.646,2.373 -3.528,4.095 -0.84,1.722 -1.26,3.675 -1.26,5.859 0,2.142 0.42,4.095 1.26,5.859 0.882,1.722 2.058,3.087 3.528,4.095 1.512,1.008 3.234,1.512 5.166,1.512 z m 38.625,-28.728 c 1.806,0 3.465,0.294 4.977,0.882 1.512,0.588 2.814,1.344 3.906,2.268 1.134,0.882 2.016,1.806 2.646,2.772 0.63,0.966 0.945,1.806 0.945,2.52 l -1.449,0.063 v -5.04 c 0,-0.882 0.294,-1.638 0.882,-2.268 0.588,-0.63 1.344,-0.945 2.268,-0.945 0.924,0 1.68,0.315 2.268,0.945 0.588,0.588 0.882,1.344 0.882,2.268 v 27.783 c 0,3.57 -0.756,6.468 -2.268,8.694 -1.512,2.268 -3.528,3.927 -6.048,4.977 -2.478,1.05 -5.208,1.575 -8.19,1.575 -1.05,0 -2.289,-0.147 -3.717,-0.441 -1.428,-0.252 -2.751,-0.567 -3.969,-0.945 -1.176,-0.378 -1.995,-0.756 -2.457,-1.134 -0.966,-0.504 -1.617,-1.092 -1.953,-1.764 -0.294,-0.672 -0.294,-1.344 0,-2.016 0.42,-0.924 0.987,-1.491 1.701,-1.701 0.714,-0.21 1.533,-0.147 2.457,0.189 0.42,0.126 1.071,0.357 1.953,0.693 0.882,0.336 1.869,0.63 2.961,0.882 1.092,0.294 2.121,0.441 3.087,0.441 3.36,0 5.88,-0.777 7.56,-2.331 1.722,-1.554 2.583,-3.675 2.583,-6.363 v -5.67 l 0.693,0.441 c -0.126,0.882 -0.525,1.785 -1.197,2.709 -0.63,0.882 -1.47,1.701 -2.52,2.457 -1.05,0.756 -2.268,1.386 -3.654,1.89 -1.344,0.462 -2.73,0.693 -4.158,0.693 -2.982,0 -5.649,-0.735 -8.001,-2.205 -2.352,-1.512 -4.221,-3.549 -5.607,-6.111 -1.386,-2.604 -2.079,-5.586 -2.079,-8.946 0,-3.36 0.693,-6.321 2.079,-8.883 1.386,-2.604 3.234,-4.641 5.544,-6.111 2.352,-1.512 4.977,-2.268 7.875,-2.268 z m 0.945,5.796 c -2.058,0 -3.864,0.504 -5.418,1.512 -1.554,1.008 -2.772,2.373 -3.654,4.095 -0.882,1.722 -1.323,3.675 -1.323,5.859 0,2.184 0.441,4.137 1.323,5.859 0.882,1.722 2.1,3.087 3.654,4.095 1.554,1.008 3.36,1.512 5.418,1.512 2.058,0 3.864,-0.483 5.418,-1.449 1.554,-1.008 2.772,-2.373 3.654,-4.095 0.882,-1.764 1.323,-3.738 1.323,-5.922 0,-2.184 -0.441,-4.137 -1.323,-5.859 -0.882,-1.764 -2.1,-3.129 -3.654,-4.095 -1.554,-1.008 -3.36,-1.512 -5.418,-1.512 z m 40.706,22.932 c -0.378,-0.588 -0.546,-1.26 -0.504,-2.016 0.042,-0.798 0.483,-1.47 1.323,-2.016 0.588,-0.378 1.197,-0.525 1.827,-0.441 0.672,0.042 1.302,0.357 1.89,0.945 1.176,1.302 2.478,2.331 3.906,3.087 1.47,0.756 3.234,1.134 5.292,1.134 0.84,-0.042 1.701,-0.168 2.583,-0.378 0.882,-0.252 1.638,-0.672 2.268,-1.26 0.63,-0.63 0.945,-1.533 0.945,-2.709 0,-1.05 -0.336,-1.89 -1.008,-2.52 -0.672,-0.63 -1.554,-1.134 -2.646,-1.512 -1.092,-0.42 -2.268,-0.798 -3.528,-1.134 -1.344,-0.378 -2.709,-0.798 -4.095,-1.26 -1.344,-0.462 -2.562,-1.05 -3.654,-1.764 -1.092,-0.756 -1.995,-1.722 -2.709,-2.898 -0.672,-1.176 -1.008,-2.625 -1.008,-4.347 0,-1.974 0.546,-3.675 1.638,-5.103 1.134,-1.428 2.583,-2.541 4.347,-3.339 1.806,-0.798 3.759,-1.197 5.859,-1.197 1.218,0 2.499,0.168 3.843,0.504 1.344,0.294 2.646,0.777 3.906,1.449 1.26,0.672 2.352,1.554 3.276,2.646 0.42,0.546 0.651,1.197 0.693,1.953 0.084,0.756 -0.252,1.428 -1.008,2.016 -0.504,0.42 -1.113,0.609 -1.827,0.567 -0.714,-0.042 -1.302,-0.273 -1.764,-0.693 -0.798,-1.008 -1.827,-1.785 -3.087,-2.331 -1.26,-0.588 -2.688,-0.882 -4.284,-0.882 -0.798,0 -1.638,0.126 -2.52,0.378 -0.84,0.21 -1.554,0.609 -2.142,1.197 -0.588,0.588 -0.882,1.449 -0.882,2.583 0,1.05 0.336,1.89 1.008,2.52 0.714,0.63 1.638,1.155 2.772,1.575 1.134,0.42 2.373,0.798 3.717,1.134 1.302,0.336 2.583,0.735 3.843,1.197 1.302,0.462 2.457,1.071 3.465,1.827 1.05,0.714 1.89,1.659 2.52,2.835 0.672,1.134 1.008,2.583 1.008,4.347 0,2.058 -0.609,3.822 -1.827,5.292 -1.176,1.428 -2.688,2.52 -4.536,3.276 -1.806,0.756 -3.717,1.134 -5.733,1.134 -2.394,0 -4.788,-0.42 -7.182,-1.26 -2.352,-0.882 -4.347,-2.394 -5.985,-4.536 z m 56.734,-27.972 c 0.882,0 1.617,0.315 2.205,0.945 0.63,0.588 0.945,1.344 0.945,2.268 v 16.569 c 0,4.368 -1.218,7.791 -3.654,10.269 -2.436,2.436 -5.88,3.654 -10.332,3.654 -4.41,0 -7.833,-1.218 -10.269,-3.654 -2.394,-2.478 -3.591,-5.901 -3.591,-10.269 v -16.569 c 0,-0.924 0.294,-1.68 0.882,-2.268 0.588,-0.63 1.344,-0.945 2.268,-0.945 0.882,0 1.617,0.315 2.205,0.945 0.63,0.588 0.945,1.344 0.945,2.268 v 16.569 c 0,2.73 0.63,4.767 1.89,6.111 1.302,1.344 3.192,2.016 5.67,2.016 2.52,0 4.431,-0.672 5.733,-2.016 1.302,-1.344 1.953,-3.381 1.953,-6.111 v -16.569 c 0,-0.924 0.294,-1.68 0.882,-2.268 0.588,-0.63 1.344,-0.945 2.268,-0.945 z m 9.958,27.972 c -0.378,-0.588 -0.546,-1.26 -0.504,-2.016 0.042,-0.798 0.483,-1.47 1.323,-2.016 0.588,-0.378 1.197,-0.525 1.827,-0.441 0.672,0.042 1.302,0.357 1.89,0.945 1.176,1.302 2.478,2.331 3.906,3.087 1.47,0.756 3.234,1.134 5.292,1.134 0.84,-0.042 1.701,-0.168 2.583,-0.378 0.882,-0.252 1.638,-0.672 2.268,-1.26 0.63,-0.63 0.945,-1.533 0.945,-2.709 0,-1.05 -0.336,-1.89 -1.008,-2.52 -0.672,-0.63 -1.554,-1.134 -2.646,-1.512 -1.092,-0.42 -2.268,-0.798 -3.528,-1.134 -1.344,-0.378 -2.709,-0.798 -4.095,-1.26 -1.344,-0.462 -2.562,-1.05 -3.654,-1.764 -1.092,-0.756 -1.995,-1.722 -2.709,-2.898 -0.672,-1.176 -1.008,-2.625 -1.008,-4.347 0,-1.974 0.546,-3.675 1.638,-5.103 1.134,-1.428 2.583,-2.541 4.347,-3.339 1.806,-0.798 3.759,-1.197 5.859,-1.197 1.218,0 2.499,0.168 3.843,0.504 1.344,0.294 2.646,0.777 3.906,1.449 1.26,0.672 2.352,1.554 3.276,2.646 0.42,0.546 0.651,1.197 0.693,1.953 0.084,0.756 -0.252,1.428 -1.008,2.016 -0.504,0.42 -1.113,0.609 -1.827,0.567 -0.714,-0.042 -1.302,-0.273 -1.764,-0.693 -0.798,-1.008 -1.827,-1.785 -3.087,-2.331 -1.26,-0.588 -2.688,-0.882 -4.284,-0.882 -0.798,0 -1.638,0.126 -2.52,0.378 -0.84,0.21 -1.554,0.609 -2.142,1.197 -0.588,0.588 -0.882,1.449 -0.882,2.583 0,1.05 0.336,1.89 1.008,2.52 0.714,0.63 1.638,1.155 2.772,1.575 1.134,0.42 2.373,0.798 3.717,1.134 1.302,0.336 2.583,0.735 3.843,1.197 1.302,0.462 2.457,1.071 3.465,1.827 1.05,0.714 1.89,1.659 2.52,2.835 0.672,1.134 1.008,2.583 1.008,4.347 0,2.058 -0.609,3.822 -1.827,5.292 -1.176,1.428 -2.688,2.52 -4.536,3.276 -1.806,0.756 -3.717,1.134 -5.733,1.134 -2.394,0 -4.788,-0.42 -7.182,-1.26 -2.352,-0.882 -4.347,-2.394 -5.985,-4.536 z m 48.733,-28.539 c 2.94,0 5.544,0.735 7.812,2.205 2.31,1.47 4.137,3.486 5.481,6.048 1.344,2.52 2.016,5.46 2.016,8.82 0,3.36 -0.672,6.342 -2.016,8.946 -1.344,2.562 -3.15,4.578 -5.418,6.048 -2.268,1.47 -4.83,2.205 -7.686,2.205 -1.596,0 -3.108,-0.252 -4.536,-0.756 -1.428,-0.504 -2.688,-1.155 -3.78,-1.953 -1.092,-0.84 -1.995,-1.722 -2.709,-2.646 -0.672,-0.924 -1.092,-1.785 -1.26,-2.583 l 1.701,-0.819 v 17.577 c 0,0.924 -0.315,1.68 -0.945,2.268 -0.588,0.63 -1.323,0.945 -2.205,0.945 -0.924,0 -1.68,-0.315 -2.268,-0.945 -0.588,-0.588 -0.882,-1.344 -0.882,-2.268 v -39.438 c 0,-0.882 0.294,-1.638 0.882,-2.268 0.588,-0.63 1.344,-0.945 2.268,-0.945 0.882,0 1.617,0.315 2.205,0.945 0.63,0.63 0.945,1.386 0.945,2.268 v 4.347 l -1.008,-0.567 c 0.126,-0.798 0.525,-1.617 1.197,-2.457 0.672,-0.882 1.512,-1.701 2.52,-2.457 1.05,-0.756 2.226,-1.365 3.528,-1.827 1.344,-0.462 2.73,-0.693 4.158,-0.693 z m -0.693,5.796 c -2.016,0 -3.78,0.504 -5.292,1.512 -1.47,0.966 -2.625,2.289 -3.465,3.969 -0.84,1.68 -1.26,3.612 -1.26,5.796 0,2.142 0.42,4.095 1.26,5.859 0.84,1.722 1.995,3.087 3.465,4.095 1.512,0.966 3.276,1.449 5.292,1.449 1.974,0 3.696,-0.483 5.166,-1.449 1.47,-1.008 2.625,-2.373 3.465,-4.095 0.882,-1.764 1.323,-3.717 1.323,-5.859 0,-2.142 -0.441,-4.053 -1.323,-5.733 -0.84,-1.722 -1.995,-3.066 -3.465,-4.032 -1.47,-1.008 -3.192,-1.512 -5.166,-1.512 z m 29.049,24.696 c 0,0.924 -0.294,1.701 -0.882,2.331 -0.588,0.588 -1.344,0.882 -2.268,0.882 -0.882,0 -1.638,-0.294 -2.268,-0.882 -0.588,-0.63 -0.882,-1.407 -0.882,-2.331 v -26.964 c 0,-0.924 0.294,-1.68 0.882,-2.268 0.63,-0.63 1.386,-0.945 2.268,-0.945 0.924,0 1.68,0.315 2.268,0.945 0.588,0.588 0.882,1.344 0.882,2.268 z m -3.213,-34.335 c -1.218,0 -2.1,-0.21 -2.646,-0.63 -0.546,-0.462 -0.819,-1.218 -0.819,-2.268 v -1.008 c 0,-1.05 0.294,-1.785 0.882,-2.205 0.588,-0.42 1.47,-0.63 2.646,-0.63 1.26,0 2.163,0.231 2.709,0.693 0.546,0.42 0.819,1.134 0.819,2.142 v 1.008 c 0,1.092 -0.294,1.848 -0.882,2.268 -0.546,0.42 -1.449,0.63 -2.709,0.63 z m 26.366,3.654 c 2.268,0 4.284,0.252 6.048,0.756 1.764,0.462 3.129,1.134 4.095,2.016 1.008,0.84 1.512,1.827 1.512,2.961 0,0.714 -0.21,1.386 -0.63,2.016 -0.42,0.588 -1.05,0.882 -1.89,0.882 -0.588,0 -1.092,-0.105 -1.512,-0.315 -0.378,-0.21 -0.735,-0.462 -1.071,-0.756 -0.336,-0.294 -0.756,-0.588 -1.26,-0.882 -0.462,-0.252 -1.155,-0.462 -2.079,-0.63 -0.882,-0.168 -1.68,-0.252 -2.394,-0.252 -2.226,0 -4.158,0.504 -5.796,1.512 -1.596,1.008 -2.856,2.373 -3.78,4.095 -0.882,1.722 -1.323,3.675 -1.323,5.859 0,2.184 0.441,4.137 1.323,5.859 0.924,1.722 2.163,3.087 3.717,4.095 1.596,1.008 3.444,1.512 5.544,1.512 1.26,0 2.289,-0.084 3.087,-0.252 0.798,-0.21 1.491,-0.462 2.079,-0.756 0.63,-0.378 1.155,-0.756 1.575,-1.134 0.462,-0.42 1.092,-0.63 1.89,-0.63 0.924,0 1.617,0.294 2.079,0.882 0.504,0.546 0.756,1.239 0.756,2.079 0,0.924 -0.567,1.827 -1.701,2.709 -1.092,0.84 -2.562,1.533 -4.41,2.079 -1.848,0.546 -3.885,0.819 -6.111,0.819 -3.276,0 -6.132,-0.756 -8.568,-2.268 -2.394,-1.512 -4.263,-3.57 -5.607,-6.174 -1.302,-2.604 -1.953,-5.544 -1.953,-8.82 0,-3.318 0.693,-6.258 2.079,-8.82 1.386,-2.604 3.318,-4.662 5.796,-6.174 2.478,-1.512 5.313,-2.268 8.505,-2.268 z m 23.912,30.681 c 0,0.924 -0.294,1.701 -0.882,2.331 -0.588,0.588 -1.344,0.882 -2.268,0.882 -0.882,0 -1.638,-0.294 -2.268,-0.882 -0.588,-0.63 -0.882,-1.407 -0.882,-2.331 v -26.964 c 0,-0.924 0.294,-1.68 0.882,-2.268 0.63,-0.63 1.386,-0.945 2.268,-0.945 0.924,0 1.68,0.315 2.268,0.945 0.588,0.588 0.882,1.344 0.882,2.268 z m -3.213,-34.335 c -1.218,0 -2.1,-0.21 -2.646,-0.63 -0.546,-0.462 -0.819,-1.218 -0.819,-2.268 v -1.008 c 0,-1.05 0.294,-1.785 0.882,-2.205 0.588,-0.42 1.47,-0.63 2.646,-0.63 1.26,0 2.163,0.231 2.709,0.693 0.546,0.42 0.819,1.134 0.819,2.142 v 1.008 c 0,1.092 -0.294,1.848 -0.882,2.268 -0.546,0.42 -1.449,0.63 -2.709,0.63 z m 43.439,20.979 c 0,3.36 -0.735,6.342 -2.205,8.946 -1.47,2.562 -3.465,4.578 -5.985,6.048 -2.52,1.47 -5.355,2.205 -8.505,2.205 -3.15,0 -5.985,-0.735 -8.505,-2.205 -2.52,-1.47 -4.536,-3.486 -6.048,-6.048 -1.47,-2.604 -2.205,-5.586 -2.205,-8.946 0,-3.402 0.735,-6.384 2.205,-8.946 1.512,-2.604 3.528,-4.641 6.048,-6.111 2.52,-1.512 5.355,-2.268 8.505,-2.268 3.15,0 5.985,0.756 8.505,2.268 2.52,1.47 4.515,3.507 5.985,6.111 1.47,2.562 2.205,5.544 2.205,8.946 z m -6.3,0 c 0,-2.31 -0.462,-4.305 -1.386,-5.985 -0.924,-1.722 -2.184,-3.066 -3.78,-4.032 -1.554,-1.008 -3.297,-1.512 -5.229,-1.512 -1.932,0 -3.696,0.504 -5.292,1.512 -1.596,0.966 -2.856,2.31 -3.78,4.032 -0.924,1.68 -1.386,3.675 -1.386,5.985 0,2.226 0.462,4.2 1.386,5.922 0.924,1.722 2.184,3.066 3.78,4.032 1.596,0.966 3.36,1.449 5.292,1.449 1.932,0 3.675,-0.483 5.229,-1.449 1.596,-0.966 2.856,-2.31 3.78,-4.032 0.924,-1.722 1.386,-3.696 1.386,-5.922 z m 38.127,-16.569 c 0.882,0 1.617,0.315 2.205,0.945 0.63,0.588 0.945,1.344 0.945,2.268 v 16.569 c 0,4.368 -1.218,7.791 -3.654,10.269 -2.436,2.436 -5.88,3.654 -10.332,3.654 -4.41,0 -7.833,-1.218 -10.269,-3.654 -2.394,-2.478 -3.591,-5.901 -3.591,-10.269 v -16.569 c 0,-0.924 0.294,-1.68 0.882,-2.268 0.588,-0.63 1.344,-0.945 2.268,-0.945 0.882,0 1.617,0.315 2.205,0.945 0.63,0.588 0.945,1.344 0.945,2.268 v 16.569 c 0,2.73 0.63,4.767 1.89,6.111 1.302,1.344 3.192,2.016 5.67,2.016 2.52,0 4.431,-0.672 5.733,-2.016 1.302,-1.344 1.953,-3.381 1.953,-6.111 v -16.569 c 0,-0.924 0.294,-1.68 0.882,-2.268 0.588,-0.63 1.344,-0.945 2.268,-0.945 z m 9.958,27.972 c -0.378,-0.588 -0.546,-1.26 -0.504,-2.016 0.042,-0.798 0.483,-1.47 1.323,-2.016 0.588,-0.378 1.197,-0.525 1.827,-0.441 0.672,0.042 1.302,0.357 1.89,0.945 1.176,1.302 2.478,2.331 3.906,3.087 1.47,0.756 3.234,1.134 5.292,1.134 0.84,-0.042 1.701,-0.168 2.583,-0.378 0.882,-0.252 1.638,-0.672 2.268,-1.26 0.63,-0.63 0.945,-1.533 0.945,-2.709 0,-1.05 -0.336,-1.89 -1.008,-2.52 -0.672,-0.63 -1.554,-1.134 -2.646,-1.512 -1.092,-0.42 -2.268,-0.798 -3.528,-1.134 -1.344,-0.378 -2.709,-0.798 -4.095,-1.26 -1.344,-0.462 -2.562,-1.05 -3.654,-1.764 -1.092,-0.756 -1.995,-1.722 -2.709,-2.898 -0.672,-1.176 -1.008,-2.625 -1.008,-4.347 0,-1.974 0.546,-3.675 1.638,-5.103 1.134,-1.428 2.583,-2.541 4.347,-3.339 1.806,-0.798 3.759,-1.197 5.859,-1.197 1.218,0 2.499,0.168 3.843,0.504 1.344,0.294 2.646,0.777 3.906,1.449 1.26,0.672 2.352,1.554 3.276,2.646 0.42,0.546 0.651,1.197 0.693,1.953 0.084,0.756 -0.252,1.428 -1.008,2.016 -0.504,0.42 -1.113,0.609 -1.827,0.567 -0.714,-0.042 -1.302,-0.273 -1.764,-0.693 -0.798,-1.008 -1.827,-1.785 -3.087,-2.331 -1.26,-0.588 -2.688,-0.882 -4.284,-0.882 -0.798,0 -1.638,0.126 -2.52,0.378 -0.84,0.21 -1.554,0.609 -2.142,1.197 -0.588,0.588 -0.882,1.449 -0.882,2.583 0,1.05 0.336,1.89 1.008,2.52 0.714,0.63 1.638,1.155 2.772,1.575 1.134,0.42 2.373,0.798 3.717,1.134 1.302,0.336 2.583,0.735 3.843,1.197 1.302,0.462 2.457,1.071 3.465,1.827 1.05,0.714 1.89,1.659 2.52,2.835 0.672,1.134 1.008,2.583 1.008,4.347 0,2.058 -0.609,3.822 -1.827,5.292 -1.176,1.428 -2.688,2.52 -4.536,3.276 -1.806,0.756 -3.717,1.134 -5.733,1.134 -2.394,0 -4.788,-0.42 -7.182,-1.26 -2.352,-0.882 -4.347,-2.394 -5.985,-4.536 z m -386.255,50.272 c 2.268,0 4.284,0.252 6.048,0.756 1.764,0.462 3.129,1.134 4.095,2.016 1.008,0.84 1.512,1.827 1.512,2.961 0,0.714 -0.21,1.386 -0.63,2.016 -0.42,0.588 -1.05,0.882 -1.89,0.882 -0.588,0 -1.092,-0.105 -1.512,-0.315 -0.378,-0.21 -0.735,-0.462 -1.071,-0.756 -0.336,-0.294 -0.756,-0.588 -1.26,-0.882 -0.462,-0.252 -1.155,-0.462 -2.079,-0.63 -0.882,-0.168 -1.68,-0.252 -2.394,-0.252 -2.226,0 -4.158,0.504 -5.796,1.512 -1.596,1.008 -2.856,2.373 -3.78,4.095 -0.882,1.722 -1.323,3.675 -1.323,5.859 0,2.184 0.441,4.137 1.323,5.859 0.924,1.722 2.163,3.087 3.717,4.095 1.596,1.008 3.444,1.512 5.544,1.512 1.26,0 2.289,-0.084 3.087,-0.252 0.798,-0.21 1.491,-0.462 2.079,-0.756 0.63,-0.378 1.155,-0.756 1.575,-1.134 0.462,-0.42 1.092,-0.63 1.89,-0.63 0.924,0 1.617,0.294 2.079,0.882 0.504,0.546 0.756,1.239 0.756,2.079 0,0.924 -0.567,1.827 -1.701,2.709 -1.092,0.84 -2.562,1.533 -4.41,2.079 -1.848,0.546 -3.885,0.819 -6.111,0.819 -3.276,0 -6.132,-0.756 -8.568,-2.268 -2.394,-1.512 -4.263,-3.57 -5.607,-6.174 -1.302,-2.604 -1.953,-5.544 -1.953,-8.82 0,-3.318 0.693,-6.258 2.079,-8.82 1.386,-2.604 3.318,-4.662 5.796,-6.174 2.478,-1.512 5.313,-2.268 8.505,-2.268 z m 33.425,34.524 c -3.486,0 -6.51,-0.714 -9.072,-2.142 -2.562,-1.47 -4.557,-3.465 -5.985,-5.985 -1.386,-2.562 -2.079,-5.481 -2.079,-8.757 0,-3.696 0.735,-6.846 2.205,-9.45 1.512,-2.646 3.465,-4.662 5.859,-6.048 2.394,-1.428 4.935,-2.142 7.623,-2.142 2.058,0 4.011,0.42 5.859,1.26 1.848,0.798 3.486,1.932 4.914,3.402 1.47,1.428 2.625,3.129 3.465,5.103 0.84,1.932 1.281,4.053 1.323,6.363 -0.042,0.84 -0.378,1.533 -1.008,2.079 -0.63,0.546 -1.365,0.819 -2.205,0.819 h -24.507 l -1.512,-5.355 h 23.688 l -1.197,1.134 v -1.575 c -0.084,-1.47 -0.567,-2.751 -1.449,-3.843 -0.882,-1.134 -1.974,-1.995 -3.276,-2.583 -1.302,-0.63 -2.667,-0.945 -4.095,-0.945 -1.26,0 -2.478,0.21 -3.654,0.63 -1.134,0.378 -2.163,1.008 -3.087,1.89 -0.882,0.882 -1.596,2.058 -2.142,3.528 -0.504,1.428 -0.756,3.213 -0.756,5.355 0,2.31 0.483,4.326 1.449,6.048 0.966,1.722 2.268,3.066 3.906,4.032 1.638,0.924 3.444,1.386 5.418,1.386 1.554,0 2.835,-0.147 3.843,-0.441 1.008,-0.336 1.848,-0.735 2.52,-1.197 0.672,-0.462 1.26,-0.903 1.764,-1.323 0.63,-0.378 1.26,-0.567 1.89,-0.567 0.756,0 1.386,0.273 1.89,0.819 0.504,0.504 0.756,1.113 0.756,1.827 0,0.924 -0.462,1.764 -1.386,2.52 -1.134,1.092 -2.709,2.058 -4.725,2.898 -1.974,0.84 -4.053,1.26 -6.237,1.26 z m 28.037,-3.843 c 0,0.924 -0.315,1.701 -0.945,2.331 -0.588,0.588 -1.323,0.882 -2.205,0.882 -0.882,0 -1.638,-0.294 -2.268,-0.882 -0.588,-0.63 -0.882,-1.407 -0.882,-2.331 v -40.194 c 0,-0.924 0.315,-1.68 0.945,-2.268 0.63,-0.63 1.386,-0.945 2.268,-0.945 0.924,0 1.659,0.315 2.205,0.945 0.588,0.588 0.882,1.344 0.882,2.268 z m 16.181,0 c 0,0.924 -0.315,1.701 -0.945,2.331 -0.588,0.588 -1.323,0.882 -2.205,0.882 -0.882,0 -1.638,-0.294 -2.268,-0.882 -0.588,-0.63 -0.882,-1.407 -0.882,-2.331 v -40.194 c 0,-0.924 0.315,-1.68 0.945,-2.268 0.63,-0.63 1.386,-0.945 2.268,-0.945 0.924,0 1.659,0.315 2.205,0.945 0.588,0.588 0.882,1.344 0.882,2.268 z m 7.424,-1.953 c -0.378,-0.588 -0.546,-1.26 -0.504,-2.016 0.042,-0.798 0.483,-1.47 1.323,-2.016 0.588,-0.378 1.197,-0.525 1.827,-0.441 0.672,0.042 1.302,0.357 1.89,0.945 1.176,1.302 2.478,2.331 3.906,3.087 1.47,0.756 3.234,1.134 5.292,1.134 0.84,-0.042 1.701,-0.168 2.583,-0.378 0.882,-0.252 1.638,-0.672 2.268,-1.26 0.63,-0.63 0.945,-1.533 0.945,-2.709 0,-1.05 -0.336,-1.89 -1.008,-2.52 -0.672,-0.63 -1.554,-1.134 -2.646,-1.512 -1.092,-0.42 -2.268,-0.798 -3.528,-1.134 -1.344,-0.378 -2.709,-0.798 -4.095,-1.26 -1.344,-0.462 -2.562,-1.05 -3.654,-1.764 -1.092,-0.756 -1.995,-1.722 -2.709,-2.898 -0.672,-1.176 -1.008,-2.625 -1.008,-4.347 0,-1.974 0.546,-3.675 1.638,-5.103 1.134,-1.428 2.583,-2.541 4.347,-3.339 1.806,-0.798 3.759,-1.197 5.859,-1.197 1.218,0 2.499,0.168 3.843,0.504 1.344,0.294 2.646,0.777 3.906,1.449 1.26,0.672 2.352,1.554 3.276,2.646 0.42,0.546 0.651,1.197 0.693,1.953 0.084,0.756 -0.252,1.428 -1.008,2.016 -0.504,0.42 -1.113,0.609 -1.827,0.567 -0.714,-0.042 -1.302,-0.273 -1.764,-0.693 -0.798,-1.008 -1.827,-1.785 -3.087,-2.331 -1.26,-0.588 -2.688,-0.882 -4.284,-0.882 -0.798,0 -1.638,0.126 -2.52,0.378 -0.84,0.21 -1.554,0.609 -2.142,1.197 -0.588,0.588 -0.882,1.449 -0.882,2.583 0,1.05 0.336,1.89 1.008,2.52 0.714,0.63 1.638,1.155 2.772,1.575 1.134,0.42 2.373,0.798 3.717,1.134 1.302,0.336 2.583,0.735 3.843,1.197 1.302,0.462 2.457,1.071 3.465,1.827 1.05,0.714 1.89,1.659 2.52,2.835 0.672,1.134 1.008,2.583 1.008,4.347 0,2.058 -0.609,3.822 -1.827,5.292 -1.176,1.428 -2.688,2.52 -4.536,3.276 -1.806,0.756 -3.717,1.134 -5.733,1.134 -2.394,0 -4.788,-0.42 -7.182,-1.26 -2.352,-0.882 -4.347,-2.394 -5.985,-4.536 z m 34.432,5.103 c -1.05,0 -1.869,-0.294 -2.457,-0.882 -0.546,-0.588 -0.819,-1.407 -0.819,-2.457 v -1.134 c 0,-1.05 0.273,-1.869 0.819,-2.457 0.588,-0.588 1.407,-0.882 2.457,-0.882 h 0.693 c 1.05,0 1.848,0.294 2.394,0.882 0.546,0.588 0.819,1.407 0.819,2.457 v 1.134 c 0,1.05 -0.273,1.869 -0.819,2.457 -0.546,0.588 -1.344,0.882 -2.394,0.882 z"
     fill="white"
     id="path44"
     style="fill:#000000;fill-opacity:1" /><path
     d="m 333.59522,253.24539 c 0.963,0 1.757,0.337 2.383,1.011 0.674,0.626 1.011,1.42 1.011,2.383 0,0.962 -0.337,1.757 -1.011,2.382 -0.626,0.626 -1.42,0.939 -2.383,0.939 h -25.343 c -1.059,0 -1.902,-0.313 -2.527,-0.939 -0.626,-0.625 -0.939,-1.468 -0.939,-2.527 0,-0.962 0.337,-1.829 1.011,-2.599 l 16.101,-17.401 c 2.07,-2.214 3.659,-4.405 4.766,-6.571 1.155,-2.166 1.733,-4.067 1.733,-5.704 0,-2.647 -0.795,-4.789 -2.383,-6.426 -1.589,-1.637 -3.682,-2.455 -6.282,-2.455 -1.107,0 -2.238,0.265 -3.393,0.794 -1.108,0.482 -2.166,1.156 -3.177,2.022 -0.963,0.818 -1.805,1.781 -2.527,2.888 -0.482,0.674 -0.963,1.107 -1.445,1.3 -0.481,0.192 -0.938,0.289 -1.371,0.289 -0.915,0 -1.757,-0.313 -2.528,-0.939 -0.722,-0.674 -1.083,-1.444 -1.083,-2.31 0,-0.674 0.217,-1.324 0.65,-1.95 0.433,-0.626 0.987,-1.276 1.661,-1.949 1.059,-1.3 2.335,-2.455 3.827,-3.466 1.54,-1.059 3.153,-1.878 4.837,-2.455 1.685,-0.578 3.346,-0.867 4.982,-0.867 3.177,0 5.921,0.626 8.232,1.878 2.358,1.251 4.163,3.008 5.415,5.271 1.3,2.262 1.949,4.934 1.949,8.014 0,2.6 -0.794,5.488 -2.382,8.665 -1.541,3.128 -3.707,6.209 -6.499,9.242 l -11.191,12.202 -0.794,-0.722 z"
     fill="#ffffff"
     id="path45" /><path
     d="m 317.06122,417.96039 c -1.107,0 -2.022,-0.337 -2.744,-1.011 -0.722,-0.722 -1.083,-1.612 -1.083,-2.671 v -38.702 l 0.939,1.3 -6.715,4.693 c -0.578,0.482 -1.276,0.722 -2.094,0.722 -0.963,0 -1.829,-0.361 -2.6,-1.083 -0.722,-0.77 -1.083,-1.66 -1.083,-2.671 0,-1.252 0.626,-2.287 1.878,-3.105 l 10.975,-7.293 c 0.433,-0.288 0.89,-0.481 1.371,-0.577 0.53,-0.096 1.011,-0.145 1.444,-0.145 1.108,0 1.998,0.361 2.672,1.084 0.674,0.673 1.011,1.54 1.011,2.599 v 43.178 c 0,1.059 -0.385,1.949 -1.155,2.671 -0.722,0.674 -1.661,1.011 -2.816,1.011 z"
     fill="#ffffff"
     id="path46" /><path
     d="m 402.539,419.64059 c -1.107,0 -2.022,-0.337 -2.744,-1.011 -0.722,-0.722 -1.083,-1.612 -1.083,-2.671 v -38.702 l 0.939,1.3 -6.715,4.693 c -0.578,0.482 -1.276,0.722 -2.094,0.722 -0.963,0 -1.829,-0.361 -2.6,-1.083 -0.722,-0.77 -1.083,-1.66 -1.083,-2.671 0,-1.252 0.626,-2.287 1.878,-3.105 l 10.975,-7.293 c 0.433,-0.288 0.89,-0.481 1.371,-0.577 0.53,-0.096 1.011,-0.145 1.444,-0.145 1.108,0 1.998,0.361 2.672,1.084 0.674,0.673 1.011,1.54 1.011,2.599 v 43.178 c 0,1.059 -0.385,1.949 -1.155,2.671 -0.722,0.674 -1.661,1.011 -2.816,1.011 z"
     fill="#ffffff"
     id="path46-6" /><path
     d="m 317.06122,338.96039 c -1.107,0 -2.022,-0.337 -2.744,-1.011 -0.722,-0.722 -1.083,-1.612 -1.083,-2.671 v -38.702 l 0.939,1.3 -6.715,4.693 c -0.578,0.482 -1.276,0.722 -2.094,0.722 -0.963,0 -1.829,-0.361 -2.6,-1.083 -0.722,-0.77 -1.083,-1.66 -1.083,-2.671 0,-1.252 0.626,-2.287 1.878,-3.105 l 10.975,-7.293 c 0.433,-0.288 0.89,-0.481 1.371,-0.577 0.53,-0.096 1.011,-0.145 1.444,-0.145 1.108,0 1.998,0.361 2.672,1.084 0.674,0.673 1.011,1.54 1.011,2.599 v 43.178 c 0,1.059 -0.385,1.949 -1.155,2.671 -0.722,0.674 -1.661,1.011 -2.816,1.011 z"
     fill="#ffffff"
     id="path47" /><path
     d="m 391.67422,250.71839 c 0.385,0 0.794,0.072 1.228,0.217 0.433,0.096 0.914,0.336 1.444,0.722 0.866,0.77 1.901,1.42 3.104,1.949 1.252,0.481 2.672,0.722 4.26,0.722 1.782,0 3.442,-0.409 4.983,-1.227 1.54,-0.867 2.791,-2.07 3.754,-3.611 0.963,-1.54 1.444,-3.369 1.444,-5.487 0,-2.166 -0.457,-3.923 -1.372,-5.271 -0.914,-1.396 -2.094,-2.431 -3.538,-3.105 -1.444,-0.722 -2.96,-1.083 -4.548,-1.083 -0.915,0 -1.685,0.097 -2.311,0.289 -0.626,0.145 -1.227,0.313 -1.805,0.506 -0.578,0.144 -1.203,0.216 -1.877,0.216 -0.915,0 -1.637,-0.313 -2.166,-0.938 -0.53,-0.674 -0.795,-1.469 -0.795,-2.383 0,-0.578 0.121,-1.083 0.361,-1.516 0.241,-0.434 0.578,-0.915 1.011,-1.445 l 13.358,-14.296 1.588,1.444 h -19.134 c -0.962,0 -1.781,-0.313 -2.455,-0.938 -0.625,-0.674 -0.938,-1.493 -0.938,-2.455 0,-0.915 0.313,-1.685 0.938,-2.311 0.674,-0.626 1.493,-0.939 2.455,-0.939 h 22.817 c 1.251,0 2.166,0.361 2.743,1.084 0.626,0.722 0.939,1.564 0.939,2.527 0,0.529 -0.144,1.035 -0.433,1.516 -0.241,0.481 -0.554,0.939 -0.939,1.372 l -13.43,14.441 -1.805,-1.95 c 0.385,-0.193 1.035,-0.385 1.95,-0.578 0.914,-0.192 1.66,-0.288 2.238,-0.288 2.744,0 5.199,0.698 7.365,2.093 2.214,1.396 3.923,3.274 5.126,5.632 1.252,2.311 1.878,4.934 1.878,7.871 0,3.513 -0.795,6.57 -2.383,9.169 -1.589,2.552 -3.803,4.525 -6.643,5.921 -2.792,1.396 -6.017,2.094 -9.675,2.094 -1.829,0 -3.659,-0.241 -5.488,-0.722 -1.781,-0.529 -3.321,-1.276 -4.621,-2.238 -0.818,-0.482 -1.372,-0.987 -1.66,-1.517 -0.289,-0.577 -0.434,-1.131 -0.434,-1.66 0,-0.915 0.313,-1.781 0.939,-2.6 0.674,-0.818 1.516,-1.227 2.527,-1.227 z"
     fill="#ffffff"
     id="path48" /><path
     d="m 412.59522,332.24539 c 0.963,0 1.757,0.337 2.383,1.011 0.674,0.626 1.011,1.42 1.011,2.383 0,0.962 -0.337,1.757 -1.011,2.382 -0.626,0.626 -1.42,0.939 -2.383,0.939 h -25.343 c -1.059,0 -1.902,-0.313 -2.527,-0.939 -0.626,-0.625 -0.939,-1.468 -0.939,-2.527 0,-0.962 0.337,-1.829 1.011,-2.599 l 16.101,-17.401 c 2.07,-2.214 3.659,-4.405 4.766,-6.571 1.155,-2.166 1.733,-4.067 1.733,-5.704 0,-2.647 -0.795,-4.789 -2.383,-6.426 -1.589,-1.637 -3.682,-2.455 -6.282,-2.455 -1.107,0 -2.238,0.265 -3.393,0.794 -1.108,0.482 -2.166,1.156 -3.177,2.022 -0.963,0.818 -1.805,1.781 -2.527,2.888 -0.482,0.674 -0.963,1.107 -1.445,1.3 -0.481,0.192 -0.938,0.289 -1.371,0.289 -0.915,0 -1.757,-0.313 -2.528,-0.939 -0.722,-0.674 -1.083,-1.444 -1.083,-2.31 0,-0.674 0.217,-1.324 0.65,-1.95 0.433,-0.626 0.987,-1.276 1.661,-1.949 1.059,-1.3 2.335,-2.455 3.827,-3.466 1.54,-1.059 3.153,-1.878 4.837,-2.455 1.685,-0.578 3.346,-0.867 4.982,-0.867 3.177,0 5.921,0.626 8.232,1.878 2.358,1.251 4.163,3.008 5.415,5.271 1.3,2.262 1.949,4.934 1.949,8.014 0,2.6 -0.794,5.488 -2.382,8.665 -1.541,3.128 -3.707,6.209 -6.499,9.242 l -11.191,12.202 -0.794,-0.722 z"
     fill="#ffffff"
     id="path49" /><g
     opacity="0.46"
     id="g56"
     style="fill:#32cfff;fill-opacity:1"
     transform="translate(-84.834774,-19.039605)"><circle
       cx="323.492"
       cy="170.687"
       r="16.335501"
       fill="#1B1B1B"
       id="circle49"
       style="fill:#32cfff;fill-opacity:1" /><rect
       x="320.60901"
       y="145"
       width="5.7654901"
       height="16.399599"
       rx="2.88274"
       fill="#1B1B1B"
       id="rect49"
       style="fill:#32cfff;fill-opacity:1" /><rect
       x="320.60901"
       y="179.59399"
       width="5.7654901"
       height="16.399599"
       rx="2.88274"
       fill="#1B1B1B"
       id="rect50"
       style="fill:#32cfff;fill-opacity:1" /><rect
       x="348.992"
       y="167.60899"
       width="5.7654901"
       height="16.399599"
       rx="2.88274"
       transform="rotate(90,348.992,167.609)"
       fill="#1B1B1B"
       id="rect51"
       style="fill:#32cfff;fill-opacity:1" /><rect
       x="314.39801"
       y="167.60899"
       width="5.7654901"
       height="16.399599"
       rx="2.88274"
       transform="rotate(90,314.398,167.609)"
       fill="#1B1B1B"
       id="rect52"
       style="fill:#32cfff;fill-opacity:1" /><rect
       x="343.56201"
       y="186.48399"
       width="5.7654901"
       height="16.399599"
       rx="2.88274"
       transform="rotate(135,343.562,186.484)"
       fill="#1B1B1B"
       id="rect53"
       style="fill:#32cfff;fill-opacity:1" /><rect
       x="319.09399"
       y="162.02299"
       width="5.7654901"
       height="16.399599"
       rx="2.88274"
       transform="rotate(135,319.094,162.023)"
       fill="#1B1B1B"
       id="rect54"
       style="fill:#32cfff;fill-opacity:1" /><rect
       x="307.5"
       y="190.562"
       width="5.7654901"
       height="16.399599"
       rx="2.88274"
       transform="rotate(-135,307.5,190.562)"
       fill="#1B1B1B"
       id="rect55"
       style="fill:#32cfff;fill-opacity:1" /><rect
       x="331.961"
       y="166.10201"
       width="5.7654901"
       height="16.399599"
       rx="2.88274"
       transform="rotate(-135,331.961,166.102)"
       fill="#1B1B1B"
       id="rect56"
       style="fill:#32cfff;fill-opacity:1" /></g><g
     opacity="0.46"
     id="g64"
     style="fill:#32cfff;fill-opacity:1"
     transform="translate(-84.834774,-19.039605)"><circle
       cx="567.5"
       cy="250.687"
       r="16.335501"
       fill="#1B1B1B"
       id="circle56"
       style="fill:#32cfff;fill-opacity:1" /><rect
       x="564.617"
       y="225"
       width="5.7654901"
       height="16.399599"
       rx="2.88274"
       fill="#1B1B1B"
       id="rect57"
       style="fill:#32cfff;fill-opacity:1" /><rect
       x="564.617"
       y="259.59399"
       width="5.7654901"
       height="16.399599"
       rx="2.88274"
       fill="#1B1B1B"
       id="rect58"
       style="fill:#32cfff;fill-opacity:1" /><rect
       x="592.992"
       y="247.60899"
       width="5.7654901"
       height="16.399599"
       rx="2.88274"
       transform="rotate(90,592.992,247.609)"
       fill="#1B1B1B"
       id="rect59"
       style="fill:#32cfff;fill-opacity:1" /><rect
       x="558.39801"
       y="247.60899"
       width="5.7654901"
       height="16.399599"
       rx="2.88274"
       transform="rotate(90,558.398,247.609)"
       fill="#1B1B1B"
       id="rect60"
       style="fill:#32cfff;fill-opacity:1" /><rect
       x="587.56201"
       y="266.48401"
       width="5.7654901"
       height="16.399599"
       rx="2.88274"
       transform="rotate(135,587.562,266.484)"
       fill="#1B1B1B"
       id="rect61"
       style="fill:#32cfff;fill-opacity:1" /><rect
       x="563.10199"
       y="242.02299"
       width="5.7654901"
       height="16.399599"
       rx="2.88274"
       transform="rotate(135,563.102,242.023)"
       fill="#1B1B1B"
       id="rect62"
       style="fill:#32cfff;fill-opacity:1" /><rect
       x="551.508"
       y="270.56201"
       width="5.7654901"
       height="16.399599"
       rx="2.88274"
       transform="rotate(-135,551.508,270.562)"
       fill="#1B1B1B"
       id="rect63"
       style="fill:#32cfff;fill-opacity:1" /><rect
       x="575.96899"
       y="246.10201"
       width="5.7654901"
       height="16.399599"
       rx="2.88274"
       transform="rotate(-135,575.969,246.102)"
       fill="#1B1B1B"
       id="rect64"
       style="fill:#32cfff;fill-opacity:1" /></g><g
     opacity="0.46"
     id="g72"
     style="fill:#32cfff;fill-opacity:1"
     transform="translate(-84.834774,-19.039605)"><circle
       cx="489.5"
       cy="162.687"
       r="16.335501"
       fill="#1B1B1B"
       id="circle64"
       style="fill:#32cfff;fill-opacity:1" /><rect
       x="486.617"
       y="137"
       width="5.7654901"
       height="16.399599"
       rx="2.88274"
       fill="#1B1B1B"
       id="rect65"
       style="fill:#32cfff;fill-opacity:1" /><rect
       x="486.617"
       y="171.59399"
       width="5.7654901"
       height="16.399599"
       rx="2.88274"
       fill="#1B1B1B"
       id="rect66"
       style="fill:#32cfff;fill-opacity:1" /><rect
       x="514.992"
       y="159.60899"
       width="5.7654901"
       height="16.399599"
       rx="2.88274"
       transform="rotate(90,514.992,159.609)"
       fill="#1B1B1B"
       id="rect67"
       style="fill:#32cfff;fill-opacity:1" /><rect
       x="480.39801"
       y="159.60899"
       width="5.7654901"
       height="16.399599"
       rx="2.88274"
       transform="rotate(90,480.398,159.609)"
       fill="#1B1B1B"
       id="rect68"
       style="fill:#32cfff;fill-opacity:1" /><rect
       x="509.57001"
       y="178.48399"
       width="5.7654901"
       height="16.399599"
       rx="2.88274"
       transform="rotate(135,509.57,178.484)"
       fill="#1B1B1B"
       id="rect69"
       style="fill:#32cfff;fill-opacity:1" /><rect
       x="485.10199"
       y="154.02299"
       width="5.7654901"
       height="16.399599"
       rx="2.88274"
       transform="rotate(135,485.102,154.023)"
       fill="#1B1B1B"
       id="rect70"
       style="fill:#32cfff;fill-opacity:1" /><rect
       x="473.508"
       y="182.562"
       width="5.7654901"
       height="16.399599"
       rx="2.88274"
       transform="rotate(-135,473.508,182.562)"
       fill="#1B1B1B"
       id="rect71"
       style="fill:#32cfff;fill-opacity:1" /><rect
       x="497.96899"
       y="158.10201"
       width="5.7654901"
       height="16.399599"
       rx="2.88274"
       transform="rotate(-135,497.969,158.102)"
       fill="#1B1B1B"
       id="rect72"
       style="fill:#32cfff;fill-opacity:1" /></g><g
     opacity="0.46"
     id="g80"
     style="fill:#32cfff;fill-opacity:1"
     transform="translate(-84.834774,-19.039605)"><circle
       cx="567.492"
       cy="415.68701"
       r="16.335501"
       fill="#1B1B1B"
       id="circle72"
       style="fill:#32cfff;fill-opacity:1" /><rect
       x="564.60901"
       y="390"
       width="5.7654901"
       height="16.399599"
       rx="2.88274"
       fill="#1B1B1B"
       id="rect73"
       style="fill:#32cfff;fill-opacity:1" /><rect
       x="564.60901"
       y="424.59399"
       width="5.7654901"
       height="16.399599"
       rx="2.88274"
       fill="#1B1B1B"
       id="rect74"
       style="fill:#32cfff;fill-opacity:1" /><rect
       x="592.98401"
       y="412.60901"
       width="5.7654901"
       height="16.399599"
       rx="2.88274"
       transform="rotate(90,592.984,412.609)"
       fill="#1B1B1B"
       id="rect75"
       style="fill:#32cfff;fill-opacity:1" /><rect
       x="558.39801"
       y="412.60901"
       width="5.7654901"
       height="16.399599"
       rx="2.88274"
       transform="rotate(90,558.398,412.609)"
       fill="#1B1B1B"
       id="rect76"
       style="fill:#32cfff;fill-opacity:1" /><rect
       x="587.56201"
       y="431.48401"
       width="5.7654901"
       height="16.399599"
       rx="2.88274"
       transform="rotate(135,587.562,431.484)"
       fill="#1B1B1B"
       id="rect77"
       style="fill:#32cfff;fill-opacity:1" /><rect
       x="563.09399"
       y="407.02301"
       width="5.7654901"
       height="16.399599"
       rx="2.88274"
       transform="rotate(135,563.094,407.023)"
       fill="#1B1B1B"
       id="rect78"
       style="fill:#32cfff;fill-opacity:1" /><rect
       x="551.5"
       y="435.56201"
       width="5.7654901"
       height="16.399599"
       rx="2.88274"
       transform="rotate(-135,551.5,435.562)"
       fill="#1B1B1B"
       id="rect79"
       style="fill:#32cfff;fill-opacity:1" /><rect
       x="575.961"
       y="411.10199"
       width="5.7654901"
       height="16.399599"
       rx="2.88274"
       transform="rotate(-135,575.961,411.102)"
       fill="#1B1B1B"
       id="rect80"
       style="fill:#32cfff;fill-opacity:1" /></g><g
     opacity="0.46"
     id="g88"
     style="fill:#32cfff;fill-opacity:1"
     transform="translate(-84.834774,-19.039605)"><circle
       cx="326.492"
       cy="414.68701"
       r="16.335501"
       fill="#1B1B1B"
       id="circle80"
       style="fill:#32cfff;fill-opacity:1" /><rect
       x="323.60901"
       y="389"
       width="5.7654901"
       height="16.399599"
       rx="2.88274"
       fill="#1B1B1B"
       id="rect81"
       style="fill:#32cfff;fill-opacity:1" /><rect
       x="323.60901"
       y="423.59399"
       width="5.7654901"
       height="16.399599"
       rx="2.88274"
       fill="#1B1B1B"
       id="rect82"
       style="fill:#32cfff;fill-opacity:1" /><rect
       x="351.992"
       y="411.60901"
       width="5.7654901"
       height="16.399599"
       rx="2.88274"
       transform="rotate(90,351.992,411.609)"
       fill="#1B1B1B"
       id="rect83"
       style="fill:#32cfff;fill-opacity:1" /><rect
       x="317.39801"
       y="411.60901"
       width="5.7654901"
       height="16.399599"
       rx="2.88274"
       transform="rotate(90,317.398,411.609)"
       fill="#1B1B1B"
       id="rect84"
       style="fill:#32cfff;fill-opacity:1" /><rect
       x="346.56201"
       y="430.48401"
       width="5.7654901"
       height="16.399599"
       rx="2.88274"
       transform="rotate(135,346.562,430.484)"
       fill="#1B1B1B"
       id="rect85"
       style="fill:#32cfff;fill-opacity:1" /><rect
       x="322.10199"
       y="406.02301"
       width="5.7654901"
       height="16.399599"
       rx="2.88274"
       transform="rotate(135,322.102,406.023)"
       fill="#1B1B1B"
       id="rect86"
       style="fill:#32cfff;fill-opacity:1" /><rect
       x="310.508"
       y="434.56201"
       width="5.7654901"
       height="16.399599"
       rx="2.88274"
       transform="rotate(-135,310.508,434.562)"
       fill="#1B1B1B"
       id="rect87"
       style="fill:#32cfff;fill-opacity:1" /><rect
       x="334.961"
       y="410.10199"
       width="5.7654901"
       height="16.399599"
       rx="2.88274"
       transform="rotate(-135,334.961,410.102)"
       fill="#1B1B1B"
       id="rect88"
       style="fill:#32cfff;fill-opacity:1" /></g><g
     opacity="0.46"
     id="g96"
     style="fill:#32cfff;fill-opacity:1"
     transform="translate(-84.834774,-19.039605)"><circle
       cx="565.50702"
       cy="170.687"
       r="16.335501"
       fill="#1B1B1B"
       id="circle88"
       style="fill:#32cfff;fill-opacity:1" /><rect
       x="562.617"
       y="145"
       width="5.7654901"
       height="16.399599"
       rx="2.88274"
       fill="#1B1B1B"
       id="rect89"
       style="fill:#32cfff;fill-opacity:1" /><rect
       x="562.617"
       y="179.59399"
       width="5.7654901"
       height="16.399599"
       rx="2.88274"
       fill="#1B1B1B"
       id="rect90"
       style="fill:#32cfff;fill-opacity:1" /><rect
       x="591"
       y="167.60899"
       width="5.7654901"
       height="16.399599"
       rx="2.88274"
       transform="rotate(90,591,167.609)"
       fill="#1B1B1B"
       id="rect91"
       style="fill:#32cfff;fill-opacity:1" /><rect
       x="556.40601"
       y="167.60899"
       width="5.7654901"
       height="16.399599"
       rx="2.88274"
       transform="rotate(90,556.406,167.609)"
       fill="#1B1B1B"
       id="rect92"
       style="fill:#32cfff;fill-opacity:1" /><rect
       x="585.57001"
       y="186.48399"
       width="5.7654901"
       height="16.399599"
       rx="2.88274"
       transform="rotate(135,585.57,186.484)"
       fill="#1B1B1B"
       id="rect93"
       style="fill:#32cfff;fill-opacity:1" /><rect
       x="561.10901"
       y="162.02299"
       width="5.7654901"
       height="16.399599"
       rx="2.88274"
       transform="rotate(135,561.109,162.023)"
       fill="#1B1B1B"
       id="rect94"
       style="fill:#32cfff;fill-opacity:1" /><rect
       x="549.51599"
       y="190.562"
       width="5.7654901"
       height="16.399599"
       rx="2.88274"
       transform="rotate(-135,549.516,190.562)"
       fill="#1B1B1B"
       id="rect95"
       style="fill:#32cfff;fill-opacity:1" /><rect
       x="573.97699"
       y="166.10201"
       width="5.7654901"
       height="16.399599"
       rx="2.88274"
       transform="rotate(-135,573.977,166.102)"
       fill="#1B1B1B"
       id="rect96"
       style="fill:#32cfff;fill-opacity:1" /></g><g
     opacity="0.46"
     id="g104"
     style="fill:#32cfff;fill-opacity:1"
     transform="translate(-84.834774,-19.039605)"><circle
       cx="647.50702"
       cy="249.687"
       r="16.335501"
       fill="#1B1B1B"
       id="circle96"
       style="fill:#32cfff;fill-opacity:1" /><rect
       x="644.617"
       y="224"
       width="5.7654901"
       height="16.399599"
       rx="2.88274"
       fill="#1B1B1B"
       id="rect97"
       style="fill:#32cfff;fill-opacity:1" /><rect
       x="644.617"
       y="258.59399"
       width="5.7654901"
       height="16.399599"
       rx="2.88274"
       fill="#1B1B1B"
       id="rect98"
       style="fill:#32cfff;fill-opacity:1" /><rect
       x="673"
       y="246.60899"
       width="5.7654901"
       height="16.399599"
       rx="2.88274"
       transform="rotate(90,673,246.609)"
       fill="#1B1B1B"
       id="rect99"
       style="fill:#32cfff;fill-opacity:1" /><rect
       x="638.40601"
       y="246.60899"
       width="5.7654901"
       height="16.399599"
       rx="2.88274"
       transform="rotate(90,638.406,246.609)"
       fill="#1B1B1B"
       id="rect100"
       style="fill:#32cfff;fill-opacity:1" /><rect
       x="667.57001"
       y="265.48401"
       width="5.7654901"
       height="16.399599"
       rx="2.88274"
       transform="rotate(135,667.57,265.484)"
       fill="#1B1B1B"
       id="rect101"
       style="fill:#32cfff;fill-opacity:1" /><rect
       x="643.10901"
       y="241.02299"
       width="5.7654901"
       height="16.399599"
       rx="2.88274"
       transform="rotate(135,643.109,241.023)"
       fill="#1B1B1B"
       id="rect102"
       style="fill:#32cfff;fill-opacity:1" /><rect
       x="631.51599"
       y="269.56201"
       width="5.7654901"
       height="16.399599"
       rx="2.88274"
       transform="rotate(-135,631.516,269.562)"
       fill="#1B1B1B"
       id="rect103"
       style="fill:#32cfff;fill-opacity:1" /><rect
       x="655.96899"
       y="245.10201"
       width="5.7654901"
       height="16.399599"
       rx="2.88274"
       transform="rotate(-135,655.969,245.102)"
       fill="#1B1B1B"
       id="rect104"
       style="fill:#32cfff;fill-opacity:1" /></g><path
     d="m 461.72722,402.65439 c 0,0 2.884,-2.884 11.536,-2.884 8.652,0 14.42,5.768 23.072,5.768 8.652,0 11.536,-2.884 11.536,-2.884 v -34.607 c 0,0 -2.884,2.884 -11.536,2.884 -8.652,0 -14.42,-5.768 -23.072,-5.768 -8.652,0 -11.536,2.884 -11.536,2.884 z"
     fill="#ff5b5b"
     id="path105" /><path
     d="m 461.72722,402.65439 c 0,0 2.884,-2.884 11.536,-2.884 8.652,0 14.42,5.768 23.072,5.768 8.652,0 11.536,-2.884 11.536,-2.884 v -34.607 c 0,0 -2.884,2.884 -11.536,2.884 -8.652,0 -14.42,-5.768 -23.072,-5.768 -8.652,0 -11.536,2.884 -11.536,2.884 z m 0,0 v 20.188"
     stroke="#272727"
     stroke-width="5.11005"
     stroke-linecap="round"
     stroke-linejoin="round"
     id="path106" /><path
     d="m 461.72722,161.65439 c 0,0 2.884,-2.884 11.536,-2.884 8.652,0 14.42,5.768 23.072,5.768 8.652,0 11.536,-2.884 11.536,-2.884 v -34.607 c 0,0 -2.884,2.884 -11.536,2.884 -8.652,0 -14.42,-5.768 -23.072,-5.768 -8.652,0 -11.536,2.884 -11.536,2.884 z"
     fill="#ff5b5b"
     id="path107" /><path
     d="m 461.72722,161.65439 c 0,0 2.884,-2.884 11.536,-2.884 8.652,0 14.42,5.768 23.072,5.768 8.652,0 11.536,-2.884 11.536,-2.884 v -34.607 c 0,0 -2.884,2.884 -11.536,2.884 -8.652,0 -14.42,-5.768 -23.072,-5.768 -8.652,0 -11.536,2.884 -11.536,2.884 z m 0,0 v 20.188"
     stroke="#272727"
     stroke-width="5.11005"
     stroke-linecap="round"
     stroke-linejoin="round"
     id="path108" /><path
     d="m 378.72722,158.65439 c 0,0 2.884,-2.884 11.536,-2.884 8.652,0 14.42,5.768 23.072,5.768 8.652,0 11.536,-2.884 11.536,-2.884 v -34.607 c 0,0 -2.884,2.884 -11.536,2.884 -8.652,0 -14.42,-5.768 -23.072,-5.768 -8.652,0 -11.536,2.884 -11.536,2.884 z"
     fill="#ff5b5b"
     id="path109" /><path
     d="m 378.72722,158.65439 c 0,0 2.884,-2.884 11.536,-2.884 8.652,0 14.42,5.768 23.072,5.768 8.652,0 11.536,-2.884 11.536,-2.884 v -34.607 c 0,0 -2.884,2.884 -11.536,2.884 -8.652,0 -14.42,-5.768 -23.072,-5.768 -8.652,0 -11.536,2.884 -11.536,2.884 z m 0,0 v 20.188"
     stroke="#272727"
     stroke-width="5.11005"
     stroke-linecap="round"
     stroke-linejoin="round"
     id="path110" /><path
     d="m 463.16522,241.45139 c 0,0 2.884,-2.884 11.536,-2.884 8.652,0 14.419,5.768 23.071,5.768 8.652,0 11.536,-2.884 11.536,-2.884 v -34.607 c 0,0 -2.884,2.884 -11.536,2.884 -8.652,0 -14.419,-5.768 -23.071,-5.768 -8.652,0 -11.536,2.884 -11.536,2.884 z"
     fill="#ff5b5b"
     id="path111" /><path
     d="m 463.16522,241.45139 c 0,0 2.884,-2.884 11.536,-2.884 8.652,0 14.419,5.768 23.071,5.768 8.652,0 11.536,-2.884 11.536,-2.884 v -34.607 c 0,0 -2.884,2.884 -11.536,2.884 -8.652,0 -14.419,-5.768 -23.071,-5.768 -8.652,0 -11.536,2.884 -11.536,2.884 z m 0,0 v 20.188"
     stroke="#272727"
     stroke-width="5.11005"
     stroke-linecap="round"
     stroke-linejoin="round"
     id="path112" /><g
     filter="url(#filter0_d_1015_33198)"
     id="g114"
     transform="translate(-84.834774,-19.039605)"><path
       d="m 606.693,287.606 18.147,-6.334 c 3.401,-1.188 3.533,-5.951 0.201,-7.273 l -41.517,-14.458 c -3.121,-1.239 -6.259,1.823 -5.099,4.974 l 13.594,42.673 c 1.238,3.363 5.999,3.353 7.273,-0.016 z"
       fill="#D9D9D9"
       id="path113"
       style="fill:#f4f4f4;fill-opacity:1" /><path
       d="m 565.693,273.573 -5.039,5.04 m -0.527,-18.48 H 553 m 7.654,-18.477 5.039,5.039 M 579.134,234 v 7.127 m 18.477,0.529 -5.039,5.039 m 14.121,40.911 18.147,-6.334 c 3.401,-1.188 3.533,-5.951 0.201,-7.273 l -41.517,-14.458 c -3.121,-1.239 -6.259,1.823 -5.099,4.974 l 13.594,42.673 c 1.238,3.363 5.999,3.353 7.273,-0.016 z"
       stroke="#000000"
       stroke-width="7.88589"
       stroke-linecap="round"
       stroke-linejoin="round"
       id="path114" /></g><path
     style="font-weight:bold;font-size:50.0815px;font-family:'Comic Neue';-inkscape-font-specification:'Comic Neue Bold';fill:#ae0014;stroke-width:14.7798;stroke-linecap:round;stroke-linejoin:round;paint-order:markers stroke fill"
     d="m 59.688565,732.75966 q -1.60261,0 -2.25366,-0.65106 -0.65106,-0.65106 -0.65106,-2.10342 V 701.2584 q 0,-1.00163 0.75122,-1.70277 0.75122,-0.75123 1.70277,-0.75123 h 8.51385 q 3.60587,0 6.16003,1.25204 2.60424,1.20196 3.90636,3.2553 1.30212,2.00326 1.30212,4.35709 0,3.75611 -2.30375,6.26019 2.55415,1.20195 3.80619,3.20521 1.25204,1.95318 1.25204,4.85791 0,5.20848 -5.55905,8.01304 -5.55905,2.75448 -16.62706,2.75448 z m 9.7659,-20.38317 q 2.05334,0 3.35546,-1.40228 1.3522,-1.45236 1.3522,-3.2553 0,-1.75285 -1.70277,-2.90472 -1.65269,-1.20196 -4.70767,-1.20196 h -5.95969 v 8.76426 z m -7.66247,15.62543 q 6.66084,-0.10016 10.86768,-1.60261 4.25693,-1.50244 4.25693,-4.40717 0,-2.1535 -1.95318,-3.45562 -1.95318,-1.3522 -5.50896,-1.3522 h -7.66247 z m 28.79686,13.62217 q -0.90147,0 -1.55252,-0.75122 -0.65106,-0.70115 -0.65106,-1.70278 0,-0.45073 0.2504,-1.05171 l 4.35709,-9.36524 -8.96458,-17.47844 q -0.30049,-0.60098 -0.30049,-1.20196 0,-1.00163 0.70114,-1.70277 0.75122,-0.75122 1.80293,-0.75122 0.80131,0 1.40228,0.45073 0.60098,0.45074 0.90147,1.05171 l 7.06149,13.97274 6.310265,-13.97274 q 0.30049,-0.65106 0.90147,-1.10179 0.65106,-0.45073 1.40228,-0.45073 0.90147,0 1.55253,0.70114 0.65106,0.70114 0.65106,1.75285 0,0.60098 -0.20033,1.00163 l -13.371755,29.04727 q -0.30049,0.70114 -0.90147,1.10179 -0.60098,0.45074 -1.3522,0.45074 z m 40.015165,-8.96459 q -1.05171,0 -1.75285,-0.70114 -0.70114,-0.70114 -0.70114,-1.75285 v -28.6967 q 0,-1.3522 0.25041,-1.95318 0.30049,-0.60098 1.10179,-0.80131 0.85139,-0.2504 2.65432,-0.2504 h 2.05334 q 8.4137,0 12.97111,2.80456 4.55742,2.80456 4.55742,7.8628 0,6.41043 -7.41206,9.71581 5.30864,4.20684 8.31353,10.16654 0.2504,0.50082 0.2504,1.15188 0,1.00163 -0.70114,1.75285 -0.65106,0.70114 -1.75285,0.70114 -1.40228,0 -2.20359,-1.30212 -6.61075,-10.51711 -11.81923,-10.51711 -1.55253,0 -3.35546,0.30048 v 9.06476 q 0,1.05171 -0.75122,1.75285 -0.70115,0.70114 -1.70278,0.70114 z m 2.454,-16.12624 q 5.4088,-0.35057 9.56557,-2.20359 4.15676,-1.85302 4.15676,-5.15839 0,-2.85465 -3.35546,-4.35709 -3.30538,-1.50245 -9.36524,-1.50245 h -1.00163 z m 26.74353,-10.96785 q -0.95155,0 -1.70277,-0.75122 -0.70114,-0.75123 -0.65106,-1.70278 l 0.0501,-1.85301 q 0.0501,-0.95155 0.75122,-1.65269 0.70114,-0.70114 1.65269,-0.70114 0.95155,0 1.65269,0.75122 0.75122,0.75122 0.70114,1.65269 l -0.0501,1.9031 q -0.0501,1.00163 -0.75122,1.70277 -0.65106,0.65106 -1.65269,0.65106 z m -0.25041,27.09409 q -1.00163,0 -1.75285,-0.70114 -0.70114,-0.75122 -0.70114,-1.75285 l 0.25041,-19.93244 q 0,-1.00163 0.70114,-1.70277 0.75122,-0.75122 1.75285,-0.75122 1.05171,0 1.75285,0.75122 0.70114,0.70114 0.70114,1.70277 l -0.2504,19.93244 q 0,1.00163 -0.75123,1.75285 -0.70114,0.70114 -1.70277,0.70114 z m 18.27975,8.41369 q -2.90472,0 -5.90961,-0.70114 -0.80131,-0.20033 -1.3522,-0.85138 -0.50082,-0.65106 -0.50082,-1.50245 0,-1.00163 0.70114,-1.70277 0.75122,-0.70114 1.70277,-0.70114 0.60098,0 1.60261,0.25041 0.20033,0.0501 1.25204,0.20032 1.05171,0.20033 2.45399,0.20033 5.1584,0 5.55905,-5.1584 l 0.10016,-1.20195 q -0.85138,1.15187 -2.25367,1.75285 -1.40228,0.5509 -3.00489,0.5509 -2.65432,0 -5.00815,-1.30212 -2.30375,-1.3522 -3.70603,-3.85628 -1.40228,-2.55416 -1.40228,-5.9597 0,-3.55578 1.55253,-6.66084 1.6026,-3.10505 4.30701,-4.95807 2.75448,-1.85301 6.05986,-1.85301 1.85301,0 4.15676,0.90147 0.40065,-1.40229 2.30375,-1.40229 1.05171,0 1.70277,0.60098 0.70114,0.5509 0.65106,1.85302 l -0.50081,21.13439 q -0.10017,5.1584 -2.95481,7.76263 -2.85465,2.60424 -7.51223,2.60424 z m 0.0501,-13.57208 q 2.75449,0 4.30701,-1.95318 1.55253,-2.00326 1.55253,-6.16003 v -6.05986 q -0.70114,-0.40065 -1.70277,-0.65106 -0.95155,-0.25041 -1.85302,-0.25041 -2.05334,0 -3.80619,1.1018 -1.70277,1.05171 -2.75448,2.9548 -1.00163,1.9031 -1.00163,4.25693 0,3.05497 1.50244,4.90799 1.55253,1.85302 3.75611,1.85302 z m 21.23458,5.20847 q -0.95155,0 -1.70277,-0.70114 -0.70114,-0.75122 -0.70114,-1.70277 v -28.84695 q 0,-1.00163 0.70114,-1.70277 0.75122,-0.75122 1.80293,-0.75122 1.00163,0 1.65269,0.75122 0.65106,0.70114 0.65106,1.70277 v 10.76753 q 1.65269,-2.10343 3.75611,-3.35546 2.10343,-1.30212 4.20685,-1.30212 3.95644,0 5.55904,4.00652 1.60261,3.95644 1.60261,12.57045 0,4.85791 -0.15024,6.26019 -0.0501,0.95155 -0.75122,1.60261 -0.65106,0.65106 -1.60261,0.65106 -1.05171,0 -1.70277,-0.65106 -0.65106,-0.70114 -0.65106,-1.70277 0,-1.00163 0.0501,-1.65269 l 0.0501,-4.15677 q 0,-7.26181 -0.8013,-9.71581 -0.75123,-2.45399 -1.9031,-2.45399 -1.45236,0 -2.95481,1.3522 -1.50244,1.30212 -2.60424,2.95481 -1.05171,1.60261 -1.50244,2.55416 -0.60098,1.3522 -0.60098,3.55578 v 7.46215 q 0,1.15187 -0.70114,1.85301 -0.70114,0.65106 -1.70277,0.65106 z m 28.3962,0 q -0.95155,0 -1.70277,-0.70114 -0.70114,-0.70114 -0.70114,-1.65269 v -17.8791 h -3.95644 q -1.00163,0 -1.70277,-0.70114 -0.70114,-0.75122 -0.70114,-1.70277 0,-1.10179 0.75122,-1.75285 0.75122,-0.70114 1.75285,-0.70114 h 3.85628 v -5.35872 q 0,-0.95155 0.70114,-1.70277 0.70114,-0.75123 1.70277,-0.75123 1.05171,0 1.70277,0.75123 0.70114,0.70114 0.70114,1.70277 v 5.35872 h 4.25693 q 1.00163,0 1.70277,0.70114 0.70114,0.70114 0.70114,1.75285 0,0.95155 -0.70114,1.70277 -0.70114,0.70114 -1.70277,0.70114 h -4.25693 v 17.8791 q 0,0.95155 -0.70114,1.65269 -0.70114,0.70114 -1.70277,0.70114 z m 39.21382,-0.0501 q -3.00489,0 -5.50896,-1.45236 -2.50408,-1.45237 -3.95644,-3.95644 -1.45237,-2.55416 -1.45237,-5.55905 0,-3.40554 1.60261,-6.66084 1.60261,-3.2553 4.20685,-5.30864 2.60424,-2.05334 5.50896,-2.05334 2.65432,0 4.25693,0.85139 1.65269,0.8013 3.20522,2.60423 0.75122,0.80131 0.75122,1.75286 0,0.95155 -0.70114,1.65269 -0.70114,0.65106 -1.70277,0.65106 -0.65106,0 -1.05171,-0.20033 -0.35057,-0.20033 -0.85139,-0.8013 -0.85139,-0.95155 -1.70277,-1.45237 -0.80131,-0.50081 -2.15351,-0.50081 -1.55252,0 -3.15513,1.3522 -1.55253,1.3522 -2.55416,3.55578 -0.95155,2.15351 -0.95155,4.45726 0,2.00326 0.85139,3.5057 0.90147,1.45237 2.30375,2.25367 1.40228,0.75122 2.95481,0.75122 2.00326,0 3.2553,-0.75122 1.30211,-0.75122 2.30374,-2.05334 0.95155,-1.25204 2.15351,-1.25204 0.95155,0 1.65269,0.70114 0.70114,0.65106 0.70114,1.50245 0,1.00163 -0.5509,1.70277 -1.45236,1.95318 -3.95644,3.35546 -2.50407,1.3522 -5.45888,1.3522 z m 16.62702,0 q -0.95155,0 -1.70277,-0.65106 -0.70114,-0.70114 -0.70114,-1.60261 v -29.04727 q 0,-1.00163 0.65106,-1.65269 0.70114,-0.70114 1.75285,-0.70114 0.95155,0 1.65269,0.70114 0.75122,0.70114 0.75122,1.65269 v 29.04727 q 0,0.90147 -0.75122,1.60261 -0.75122,0.65106 -1.65269,0.65106 z m 12.11972,-27.09409 q -0.95155,0 -1.70277,-0.75122 -0.70114,-0.75123 -0.65106,-1.70278 l 0.0501,-1.85301 q 0.0501,-0.95155 0.75122,-1.65269 0.70115,-0.70114 1.65269,-0.70114 0.95155,0 1.65269,0.75122 0.75123,0.75122 0.70114,1.65269 l -0.0501,1.9031 q -0.0501,1.00163 -0.75122,1.70277 -0.65106,0.65106 -1.65269,0.65106 z m -0.25041,27.09409 q -1.00163,0 -1.75285,-0.70114 -0.70114,-0.75122 -0.70114,-1.75285 l 0.25041,-19.93244 q 0,-1.00163 0.70114,-1.70277 0.75122,-0.75122 1.75285,-0.75122 1.05171,0 1.75285,0.75122 0.70114,0.70114 0.70114,1.70277 l -0.2504,19.93244 q 0,1.00163 -0.75123,1.75285 -0.70114,0.70114 -1.70277,0.70114 z m 19.03098,0 q -3.00489,0 -5.50896,-1.45236 -2.50408,-1.45237 -3.95644,-3.95644 -1.45236,-2.55416 -1.45236,-5.55905 0,-3.40554 1.6026,-6.66084 1.60261,-3.2553 4.20685,-5.30864 2.60424,-2.05334 5.50897,-2.05334 2.65432,0 4.25692,0.85139 1.65269,0.8013 3.20522,2.60423 0.75122,0.80131 0.75122,1.75286 0,0.95155 -0.70114,1.65269 -0.70114,0.65106 -1.70277,0.65106 -0.65106,0 -1.05171,-0.20033 -0.35057,-0.20033 -0.85139,-0.8013 -0.85138,-0.95155 -1.70277,-1.45237 -0.8013,-0.50081 -2.1535,-0.50081 -1.55253,0 -3.15514,1.3522 -1.55252,1.3522 -2.55415,3.55578 -0.95155,2.15351 -0.95155,4.45726 0,2.00326 0.85138,3.5057 0.90147,1.45237 2.30375,2.25367 1.40228,0.75122 2.95481,0.75122 2.00326,0 3.2553,-0.75122 1.30212,-0.75122 2.30375,-2.05334 0.95155,-1.25204 2.1535,-1.25204 0.95155,0 1.65269,0.70114 0.70114,0.65106 0.70114,1.50245 0,1.00163 -0.55089,1.70277 -1.45237,1.95318 -3.95644,3.35546 -2.50408,1.3522 -5.45889,1.3522 z m 16.72719,0 q -0.90147,0 -1.65269,-0.70114 -0.75122,-0.75122 -0.75122,-1.70277 l -0.10017,-28.89703 q 0,-0.95155 0.70115,-1.65269 0.75122,-0.70114 1.75285,-0.70114 1.05171,0 1.70277,0.75122 0.70114,0.70114 0.70114,1.70277 l 0.0501,16.22641 q 2.10342,-1.80293 4.90799,-4.65758 2.80456,-2.85464 4.75774,-5.20847 0.8013,-1.00163 1.95318,-1.00163 1.00163,0 1.65269,0.65105 0.70114,0.65106 0.70114,1.65269 0,0.85139 -0.50082,1.45237 -1.30211,1.75285 -3.30537,3.85627 -1.95318,2.10343 -3.60587,3.65595 l 8.26345,10.36687 q 0.65105,0.75123 0.65105,1.55253 0,1.05171 -0.70114,1.80293 -0.65106,0.70115 -1.70277,0.70115 -1.20195,0 -1.90309,-0.85139 -3.90636,-5.25856 -7.41207,-9.61565 l -0.8013,-1.05171 q -1.05171,0.8013 -2.90473,2.00326 v 7.26182 q 0,0.95155 -0.70114,1.70277 -0.70114,0.70114 -1.75285,0.70114 z m 39.61448,5.80945 q -0.95155,0 -1.60261,-0.60097 -0.60098,-0.5509 -0.60098,-1.40229 0,-0.65106 0.35057,-1.45236 l 14.97437,-35.65803 q 0.50082,-1.20195 1.95318,-1.20195 0.90147,0 1.50245,0.65105 0.65106,0.60098 0.65106,1.40229 0,0.50081 -0.45074,1.55252 l -14.92428,35.60795 q -0.20033,0.45073 -0.75123,0.75122 -0.50081,0.35057 -1.10179,0.35057 z m 48.02819,-5.50896 q -1.75285,0 -3.55579,-0.35057 -1.80293,-0.30049 -2.45399,-0.50082 -0.80131,-0.2504 -1.3522,-0.95155 -0.5509,-0.70114 -0.5509,-1.50244 v -28.39621 q 0,-1.05171 0.70114,-1.75285 0.75122,-0.70115 1.80294,-0.70115 5.05823,0 10.21662,1.50245 5.1584,1.50244 8.91451,5.60913 3.80619,4.10668 3.80619,11.3685 0,5.25856 -2.30375,8.81434 -2.30374,3.50571 -6.26018,5.20848 -3.95644,1.65269 -8.96459,1.65269 z m 0,-5.00815 q 5.85953,0 9.16491,-2.7044 3.35546,-2.7044 3.35546,-7.96296 0,-6.5106 -4.25692,-9.66573 -4.20685,-3.15514 -11.16818,-3.70603 v 23.73863 q 1.70277,0.30049 2.90473,0.30049 z m 31.75164,4.70766 q -2.85465,0 -5.25856,-1.55253 -2.35383,-1.55252 -3.70603,-4.20684 -1.3522,-2.7044 -1.3522,-5.85954 0,-3.55579 1.60261,-6.61076 1.60261,-3.10505 4.30701,-4.90798 2.7044,-1.85302 5.80945,-1.85302 2.85465,0 5.20848,1.60261 2.40391,1.60261 3.75611,4.25693 1.40228,2.65432 1.40228,5.70929 0,3.60587 -1.60261,6.71092 -1.6026,3.05497 -4.35709,4.90799 -2.7044,1.80293 -5.80945,1.80293 z m 0,-4.50734 q 1.75285,0 3.35546,-1.20195 1.60261,-1.20196 2.55416,-3.20522 0.95154,-2.00326 0.95154,-4.25693 0,-1.90309 -0.75122,-3.55578 -0.75122,-1.70277 -2.05334,-2.7044 -1.30212,-1.05171 -2.85464,-1.05171 -1.75286,0 -3.30538,1.25203 -1.50245,1.20196 -2.40392,3.2553 -0.90146,2.00326 -0.90146,4.30701 0,2.25367 0.75122,3.85628 0.8013,1.6026 2.00326,2.45399 1.25204,0.85138 2.65432,0.85138 z m 24.03913,4.65758 q -2.7044,0 -4.307,-1.15187 -1.60261,-1.20196 -2.40392,-4.30701 -0.8013,-3.10505 -0.8013,-8.91451 0,-1.95318 0.15024,-4.30701 0.15025,-2.35383 0.40066,-3.95643 0.20032,-1.25204 0.75122,-1.9031 0.5509,-0.65106 1.60261,-0.65106 1.00163,0 1.70277,0.60098 0.70114,0.60098 0.70114,1.75285 l -0.10016,1.40228 q -0.50082,4.25693 -0.50082,8.16329 0,5.10831 0.85139,6.96132 0.90146,1.80294 2.45399,1.80294 1.80293,0 3.70603,-0.95155 1.9031,-1.00163 2.7044,-1.9031 0.30049,-0.30049 0.30049,-1.25203 l 0.10016,-14.27323 q 0,-1.00163 0.70114,-1.65269 0.75123,-0.65106 1.65269,-0.65106 0.95155,0 1.65269,0.65106 0.75123,0.65106 0.75123,1.65269 v 20.33309 q 0,0.95155 -0.75123,1.70277 -0.70114,0.70114 -1.65269,0.70114 -1.00163,0 -1.80293,-0.60098 -0.75122,-0.65106 -0.75122,-1.60261 V 729.905 q -1.9031,1.3522 -3.55579,2.1535 -1.60261,0.75122 -3.55579,0.75122 z m 21.38479,-0.20032 q -1.00163,0 -1.65269,-0.65106 -0.65106,-0.65106 -0.65106,-1.60261 v -29.09735 q 0,-1.00163 0.70114,-1.60261 0.70114,-0.65106 1.70277,-0.65106 0.95155,0 1.65269,0.65106 0.70114,0.60098 0.70114,1.60261 v 9.81597 q 1.45236,-1.60261 3.20522,-2.30375 1.75285,-0.70114 3.85627,-0.70114 2.50408,0 4.55742,1.30212 2.05334,1.25204 3.2553,3.75611 1.25203,2.50408 1.25203,6.05987 0,6.41043 -2.9548,9.81597 -2.95481,3.35546 -8.06313,3.35546 -1.40228,0 -3.00489,-0.45073 -1.55252,-0.50082 -2.40391,-1.1018 v 0.30049 q 0,0.50082 -0.65106,1.00163 -0.60098,0.50082 -1.50244,0.50082 z m 7.21173,-4.95807 q 3.50571,0 5.05824,-2.20359 1.6026,-2.20358 1.6026,-6.26018 0,-3.10506 -1.20195,-4.70767 -1.20196,-1.6026 -3.2553,-1.6026 -1.9031,0 -3.50571,0.70114 -1.6026,0.70114 -2.55415,1.90309 -0.90147,1.20196 -0.90147,2.65432 v 8.6641 q 2.55416,0.85139 4.75774,0.85139 z m 19.18119,5.00815 q -0.95155,0 -1.70278,-0.65106 -0.70114,-0.70114 -0.70114,-1.60261 v -29.04727 q 0,-1.00163 0.65106,-1.65269 0.70114,-0.70114 1.75286,-0.70114 0.95154,0 1.65269,0.70114 0.75122,0.70114 0.75122,1.65269 v 29.04727 q 0,0.90147 -0.75122,1.60261 -0.75123,0.65106 -1.65269,0.65106 z m 20.23293,0 q -3.55578,0 -6.41043,-1.50245 -2.80456,-1.55252 -4.40717,-4.35709 -1.60261,-2.85464 -1.60261,-6.71092 0,-3.15513 1.40228,-6.00978 1.45237,-2.90472 4.00652,-4.65758 2.60424,-1.75285 5.90962,-1.75285 3.05497,0 5.20848,1.25204 2.20358,1.20195 3.30537,2.90473 1.1018,1.70277 1.1018,3.05497 0,0.65106 -0.40065,1.25203 -0.40066,0.60098 -1.15188,1.05172 l -13.42184,7.71255 q 0.70114,1.55252 2.45399,2.40391 1.80294,0.85138 4.00652,0.85138 2.90473,0 4.95807,-2.1535 0.80131,-0.8013 1.65269,-0.8013 1.00163,0 1.65269,0.65106 0.70114,0.65105 0.70114,1.6026 0,0.80131 -0.60098,1.50245 -1.40228,1.55253 -3.75611,2.65432 -2.30375,1.05171 -4.6075,1.05171 z m 3.55579,-18.37991 q -0.60098,-1.05171 -1.70277,-1.55253 -1.1018,-0.55089 -2.60424,-0.55089 -2.85465,0 -4.80782,1.95317 -1.9031,1.95318 -2.20359,4.80783 -0.10016,0.75122 -0.10016,1.80293 z m 32.40277,18.42999 q -0.95155,0 -1.70277,-0.70114 -0.70115,-0.70114 -0.70115,-1.65269 v -17.8791 h -3.95643 q -1.00163,0 -1.70278,-0.70114 -0.70114,-0.75122 -0.70114,-1.70277 0,-1.10179 0.75123,-1.75285 0.75122,-0.70114 1.75285,-0.70114 h 3.85627 v -5.35872 q 0,-0.95155 0.70115,-1.70277 0.70114,-0.75123 1.70277,-0.75123 1.05171,0 1.70277,0.75123 0.70114,0.70114 0.70114,1.70277 v 5.35872 h 4.25693 q 1.00163,0 1.70277,0.70114 0.70114,0.70114 0.70114,1.75285 0,0.95155 -0.70114,1.70277 -0.70114,0.70114 -1.70277,0.70114 h -4.25693 v 17.8791 q 0,0.95155 -0.70114,1.65269 -0.70114,0.70114 -1.70277,0.70114 z m 26.89366,0.45073 q -1.00163,0 -1.65269,-0.55089 -0.60098,-0.5509 -0.60098,-1.45237 v -0.70114 q -2.05334,2.20359 -5.70929,2.20359 -2.75448,0 -4.95807,-1.3522 -2.20359,-1.3522 -3.45562,-3.80619 -1.25204,-2.50408 -1.25204,-5.65921 0,-3.50571 1.50244,-6.76101 1.50245,-3.30538 4.20685,-5.35872 2.75448,-2.05334 6.31027,-2.05334 2.30375,0 4.15676,0.65106 1.85302,0.60098 3.85628,1.50245 v 20.8339 q 0,1.00163 -0.70114,1.75285 -0.70114,0.75122 -1.70277,0.75122 z M 597.664,728.0019 q 1.45236,0 2.80456,-0.60098 1.40228,-0.60098 2.30375,-1.45236 l 0.15025,-13.07127 q -1.45237,-0.60098 -3.15514,-0.60098 -2.1535,0 -3.80619,1.3522 -1.65269,1.30212 -2.55416,3.5057 -0.90147,2.15351 -0.90147,4.6075 0,3.05497 1.3522,4.65758 1.3522,1.60261 3.8062,1.60261 z m 19.43162,13.52201 q -0.95154,0 -1.70277,-0.75123 -0.70114,-0.70114 -0.70114,-1.65269 v -29.04727 q 0,-1.05171 0.70114,-1.75285 0.70114,-0.70114 1.75286,-0.70114 0.85138,0 1.55252,0.65106 0.75122,0.65106 0.75122,1.70277 v 0.5509 q 2.55416,-2.90473 7.51223,-2.90473 2.05334,0 3.95644,1.30212 1.95318,1.30212 3.20521,3.90636 1.25204,2.55415 1.25204,6.16002 0,3.2553 -1.00163,6.26019 -1.00163,3.00489 -3.5057,5.05823 -2.454,2.00326 -6.61076,2.00326 -2.40391,0 -4.75774,-1.3522 v 8.16328 q 0,0.95155 -0.75123,1.65269 -0.70114,0.75123 -1.65269,0.75123 z m 7.46215,-13.8225 q 2.90473,0 4.55741,-2.1535 1.70278,-2.20359 1.70278,-6.56068 0,-3.20522 -1.25204,-5.00815 -1.20196,-1.85302 -3.00489,-1.85302 -2.55416,0 -4.35709,1.00163 -1.75286,1.00163 -2.7044,2.25367 v 11.11809 q 3.05497,1.20196 5.05823,1.20196 z m 16.12625,10.76752 q -0.95155,0 -1.60261,-0.60097 -0.60098,-0.5509 -0.60098,-1.40229 0,-0.65106 0.35057,-1.45236 l 14.97437,-35.65803 q 0.50082,-1.20195 1.95318,-1.20195 0.90147,0 1.50244,0.65105 0.65106,0.60098 0.65106,1.40229 0,0.50081 -0.45073,1.55252 l -14.92429,35.60795 q -0.20032,0.45073 -0.75122,0.75122 -0.50081,0.35057 -1.10179,0.35057 z m 42.56927,-5.80945 q -1.05171,0 -1.75285,-0.70114 -0.70114,-0.75122 -0.70114,-1.75285 v -29.1975 q 0,-1.05171 0.70114,-1.75285 0.70114,-0.70114 1.75285,-0.70114 1.05171,0 1.80294,0.70114 0.75122,0.70114 0.75122,1.75285 v 13.02119 l 18.22966,-2.55416 v -10.46703 q 0,-1.05171 0.70115,-1.75285 0.75122,-0.70114 1.80293,-0.70114 1.00163,0 1.75285,0.70114 0.75122,0.70114 0.75122,1.75285 v 29.19752 q 0,0.95154 -0.75122,1.70277 -0.75122,0.75122 -1.75285,0.75122 -1.05171,0 -1.80293,-0.70114 -0.70115,-0.75122 -0.70115,-1.75285 v -13.8225 l -18.22966,2.55416 v 11.26834 q 0,1.00163 -0.75122,1.75285 -0.75123,0.70114 -1.80294,0.70114 z m 41.76802,0 q -2.85464,0 -5.25856,-1.55253 -2.35383,-1.55252 -3.70603,-4.20684 -1.3522,-2.7044 -1.3522,-5.85954 0,-3.55579 1.60261,-6.61076 1.60261,-3.10505 4.30701,-4.90798 2.7044,-1.85302 5.80945,-1.85302 2.85465,0 5.20848,1.60261 2.40391,1.60261 3.75611,4.25693 1.40228,2.65432 1.40228,5.70929 0,3.60587 -1.6026,6.71092 -1.60261,3.05497 -4.35709,4.90799 -2.70441,1.80293 -5.80946,1.80293 z m 0,-4.50734 q 1.75285,0 3.35546,-1.20195 1.60261,-1.20196 2.55416,-3.20522 0.95155,-2.00326 0.95155,-4.25693 0,-1.90309 -0.75123,-3.55578 -0.75122,-1.70277 -2.05334,-2.7044 -1.30212,-1.05171 -2.85464,-1.05171 -1.75286,0 -3.30538,1.25203 -1.50245,1.20196 -2.40391,3.2553 -0.90147,2.00326 -0.90147,4.30701 0,2.25367 0.75122,3.85628 0.80131,1.6026 2.00326,2.45399 1.25204,0.85138 2.65432,0.85138 z m 19.58188,4.50734 q -0.95155,0 -1.70277,-0.65106 -0.70114,-0.70114 -0.70114,-1.60261 v -29.04727 q 0,-1.00163 0.65106,-1.65269 0.70114,-0.70114 1.75285,-0.70114 0.95155,0 1.65269,0.70114 0.75122,0.70114 0.75122,1.65269 v 29.04727 q 0,0.90147 -0.75122,1.60261 -0.75122,0.65106 -1.65269,0.65106 z m 16.77729,-0.0501 q -2.55416,0 -4.6075,-1.30212 -2.00326,-1.3522 -3.20522,-3.90636 -1.15187,-2.55415 -1.15187,-6.10994 0,-4.30701 1.3522,-7.36198 1.3522,-3.05497 3.75611,-4.6075 2.40391,-1.60261 5.55905,-1.60261 2.50407,0 5.35872,1.15188 l 0.2504,-7.76264 q 0.0501,-1.00163 0.75123,-1.70277 0.75122,-0.75122 1.75285,-0.75122 0.95155,0 1.65269,0.75122 0.75122,0.70114 0.70114,1.80294 l -0.70114,29.14743 q -0.0501,1.00163 -0.75122,1.65269 -0.70114,0.65106 -1.70277,0.65106 -0.95155,0 -1.65269,-0.5509 -0.65106,-0.55089 -0.65106,-1.45236 v -0.90147 q -1.30212,1.20196 -3.05498,2.05334 -1.75285,0.80131 -3.65594,0.80131 z m 0.40065,-4.50734 q 1.70277,0 3.15513,-0.70114 1.50245,-0.75122 2.35383,-1.80293 0.85139,-1.05171 0.90147,-1.95318 l 0.20033,-9.86606 q -0.90147,-0.60097 -2.30375,-1.05171 -1.40229,-0.50081 -2.7044,-0.50081 -3.05498,0 -4.6075,2.30375 -1.55253,2.25366 -1.55253,6.61075 0,3.60587 1.20196,5.30864 1.25203,1.65269 3.35546,1.65269 z"
     id="text1"
     aria-label="By Right click / Double tap/ Hold" /></svg>
