<?xml version="1.0" encoding="UTF-8" standalone="no"?>
<svg
   width="821.06775"
   height="821.06781"
   viewBox="0 0 821.06775 821.06781"
   fill="none"
   version="1.1"
   id="svg27"
   xml:space="preserve"
   xmlns="http://www.w3.org/2000/svg"
   xmlns:svg="http://www.w3.org/2000/svg"><rect
     style="fill:none;fill-opacity:1;stroke:#000000;stroke-width:3.20414;stroke-linecap:round;stroke-linejoin:round;stroke-opacity:0;paint-order:markers stroke fill"
     id="rect1"
     width="817.86365"
     height="817.86365"
     x="1.60207"
     y="1.6020699" /><defs
     id="defs27" /><path
     d="m 211.41084,113.49695 c 0,-13.706997 0,-20.560997 4.258,-24.819997 4.259,-4.258 11.113,-4.258 24.82,-4.258 h 48.742 v 77.819997 h -77.82 z"
     fill="#8d8d8d"
     id="path1" /><rect
     x="292.59885"
     y="84.418945"
     width="77.82"
     height="77.82"
     fill="#8d8d8d"
     id="rect2" /><rect
     x="373.78586"
     y="84.418945"
     width="77.82"
     height="77.82"
     fill="#8d8d8d"
     id="rect3" /><rect
     x="454.96585"
     y="84.418945"
     width="77.82"
     height="77.82"
     fill="#8d8d8d"
     id="rect4" /><path
     d="m 536.15284,84.418953 h 48.742 c 13.708,0 20.561,0 24.82,4.258 4.258,4.259 4.258,11.113 4.258,24.819997 v 48.742 h -77.82 z"
     fill="#8d8d8d"
     id="path4" /><rect
     x="211.41084"
     y="165.60695"
     width="77.82"
     height="77.82"
     fill="#8d8d8d"
     id="rect5" /><rect
     x="292.59885"
     y="165.60695"
     width="77.82"
     height="77.82"
     fill="#383838"
     id="rect6" /><rect
     x="373.78586"
     y="165.60695"
     width="77.82"
     height="77.82"
     fill="#383838"
     id="rect7" /><rect
     x="454.96585"
     y="165.60695"
     width="77.82"
     height="77.82"
     fill="#8d8d8d"
     id="rect8" /><rect
     x="536.15283"
     y="165.60695"
     width="77.82"
     height="77.82"
     fill="#8d8d8d"
     id="rect9" /><rect
     x="211.41084"
     y="246.79395"
     width="77.82"
     height="77.82"
     fill="#8d8d8d"
     id="rect10" /><rect
     x="292.59885"
     y="246.79395"
     width="77.82"
     height="77.82"
     fill="#383838"
     id="rect11" /><rect
     x="373.78586"
     y="246.79395"
     width="77.82"
     height="77.82"
     fill="#383838"
     id="rect12" /><rect
     x="454.96585"
     y="246.79395"
     width="77.82"
     height="77.82"
     fill="#8d8d8d"
     id="rect13" /><rect
     x="536.15283"
     y="246.79395"
     width="77.82"
     height="77.82"
     fill="#8d8d8d"
     id="rect14" /><rect
     x="211.41084"
     y="327.97394"
     width="77.82"
     height="77.82"
     fill="#8d8d8d"
     id="rect15" /><rect
     x="292.59885"
     y="327.97394"
     width="77.82"
     height="77.82"
     fill="#383838"
     id="rect16" /><rect
     x="373.78586"
     y="327.97394"
     width="77.82"
     height="77.82"
     fill="#cccccc"
     id="rect17" /><rect
     x="454.96585"
     y="327.97394"
     width="77.82"
     height="77.82"
     fill="#8d8d8d"
     id="rect18" /><rect
     x="536.15283"
     y="327.97394"
     width="77.82"
     height="77.82"
     fill="#8d8d8d"
     id="rect19" /><path
     d="m 211.41084,409.16095 h 77.82 v 77.82 h -48.742 c -13.707,0 -20.561,0 -24.82,-4.258 -4.258,-4.259 -4.258,-11.112 -4.258,-24.82 z"
     fill="#8d8d8d"
     id="path19" /><rect
     x="292.59885"
     y="409.16095"
     width="77.82"
     height="77.82"
     fill="#8d8d8d"
     id="rect20" /><rect
     x="373.78586"
     y="409.16095"
     width="77.82"
     height="77.82"
     fill="#8d8d8d"
     id="rect21" /><rect
     x="454.96585"
     y="409.16095"
     width="77.82"
     height="77.82"
     fill="#8d8d8d"
     id="rect22" /><path
     d="m 536.15284,409.16095 h 77.82 v 48.742 c 0,13.708 0,20.561 -4.258,24.82 -4.259,4.258 -11.112,4.258 -24.82,4.258 h -48.742 z"
     fill="#8d8d8d"
     id="path22" /><path
     d="m 211.41084,113.49695 c 0,-13.706997 0,-20.560997 4.258,-24.819997 4.259,-4.258 11.113,-4.258 24.82,-4.258 h 48.742 v 77.819997 h -77.82 z"
     fill="#8D8D8D"
     id="path24"
     style="fill:#006e90;fill-opacity:1" /><rect
     x="292.59885"
     y="84.418945"
     width="77.82"
     height="77.82"
     fill="#383838"
     id="rect24"
     style="fill:#002a37;fill-opacity:1" /><rect
     x="373.78586"
     y="84.418945"
     width="77.82"
     height="77.82"
     fill="#8D8D8D"
     id="rect25"
     style="fill:#006e90;fill-opacity:1" /><rect
     x="454.96585"
     y="84.418945"
     width="77.82"
     height="77.82"
     fill="#8D8D8D"
     id="rect26"
     style="fill:#006e90;fill-opacity:1" /><path
     d="m 536.15284,84.418953 h 48.742 c 13.708,0 20.561,0 24.82,4.258 4.258,4.259 4.258,11.113 4.258,24.819997 v 48.742 h -77.82 z"
     fill="#383838"
     id="path26"
     style="fill:#002a37;fill-opacity:1" /><rect
     x="211.41084"
     y="165.60695"
     width="77.82"
     height="77.82"
     fill="#383838"
     id="rect27"
     style="fill:#002a37;fill-opacity:1" /><rect
     x="292.59885"
     y="165.60695"
     width="77.82"
     height="77.82"
     fill="#383838"
     id="rect28"
     style="fill:#002a37;fill-opacity:1" /><rect
     x="373.78586"
     y="165.60695"
     width="77.82"
     height="77.82"
     fill="#383838"
     id="rect29"
     style="fill:#002a37;fill-opacity:1" /><rect
     x="454.96585"
     y="165.60695"
     width="77.82"
     height="77.82"
     fill="#8D8D8D"
     id="rect30"
     style="fill:#006e90;fill-opacity:1" /><rect
     x="536.15283"
     y="165.60695"
     width="77.82"
     height="77.82"
     fill="#8D8D8D"
     id="rect31"
     style="fill:#006e90;fill-opacity:1" /><rect
     x="211.41084"
     y="246.79395"
     width="77.82"
     height="77.82"
     fill="#383838"
     id="rect32"
     style="fill:#002a37;fill-opacity:1" /><rect
     x="292.59885"
     y="246.79395"
     width="77.82"
     height="77.82"
     fill="#383838"
     id="rect33"
     style="fill:#002a37;fill-opacity:1" /><rect
     x="373.78586"
     y="246.79395"
     width="77.82"
     height="77.82"
     fill="#383838"
     id="rect34"
     style="fill:#002a37;fill-opacity:1" /><rect
     x="454.96585"
     y="246.79395"
     width="77.82"
     height="77.82"
     fill="#383838"
     id="rect35"
     style="fill:#002a37;fill-opacity:1" /><rect
     x="536.15283"
     y="246.79395"
     width="77.82"
     height="77.82"
     fill="#383838"
     id="rect36"
     style="fill:#002a37;fill-opacity:1" /><rect
     x="211.41084"
     y="327.97394"
     width="77.82"
     height="77.82"
     fill="#8D8D8D"
     id="rect37"
     style="fill:#006e90;fill-opacity:1" /><rect
     x="292.59885"
     y="327.97394"
     width="77.82"
     height="77.82"
     fill="#383838"
     id="rect38"
     style="fill:#002a37;fill-opacity:1" /><rect
     x="373.78586"
     y="327.97394"
     width="77.82"
     height="77.82"
     fill="#383838"
     id="rect39"
     style="fill:#002a37;fill-opacity:1" /><rect
     x="454.96585"
     y="327.97394"
     width="77.82"
     height="77.82"
     fill="#8D8D8D"
     id="rect40"
     style="fill:#006e90;fill-opacity:1" /><rect
     x="536.15283"
     y="327.97394"
     width="77.82"
     height="77.82"
     fill="#383838"
     id="rect41"
     style="fill:#002a37;fill-opacity:1" /><path
     d="m 211.41084,409.16095 h 77.82 v 77.82 h -48.742 c -13.707,0 -20.561,0 -24.82,-4.258 -4.258,-4.259 -4.258,-11.112 -4.258,-24.82 z"
     fill="#383838"
     id="path41"
     style="fill:#002a37;fill-opacity:1" /><rect
     x="292.59885"
     y="409.16095"
     width="77.82"
     height="77.82"
     fill="#383838"
     id="rect42"
     style="fill:#002a37;fill-opacity:1" /><rect
     x="373.78586"
     y="409.16095"
     width="77.82"
     height="77.82"
     fill="#383838"
     id="rect43"
     style="fill:#002a37;fill-opacity:1" /><rect
     x="454.96585"
     y="409.16095"
     width="77.82"
     height="77.82"
     fill="#383838"
     id="rect44"
     style="fill:#002a37;fill-opacity:1" /><path
     d="m 536.15284,409.16095 h 77.82 v 48.742 c 0,13.708 0,20.561 -4.258,24.82 -4.259,4.258 -11.112,4.258 -24.82,4.258 h -48.742 z"
     fill="#383838"
     id="path44"
     style="fill:#002a37;fill-opacity:1" /><path
     d="m 132.36584,563.83895 c 0.924,0.462 1.449,1.176 1.575,2.142 0.168,0.966 -0.063,1.848 -0.693,2.646 -0.462,0.63 -1.071,0.987 -1.827,1.071 -0.714,0.084 -1.428,-0.063 -2.142,-0.441 -1.218,-0.63 -2.499,-1.134 -3.843,-1.512 -1.344,-0.378 -2.772,-0.567 -4.284,-0.567 -2.394,0 -4.557,0.399 -6.489,1.197 -1.89,0.756 -3.528,1.869 -4.914,3.339 -1.386,1.428 -2.457,3.129 -3.213,5.103 -0.714,1.974 -1.071,4.158 -1.071,6.552 0,2.646 0.399,4.998 1.197,7.056 0.798,2.016 1.89,3.738 3.276,5.166 1.428,1.386 3.087,2.436 4.977,3.15 1.932,0.672 4.011,1.008 6.237,1.008 1.428,0 2.814,-0.168 4.158,-0.504 1.386,-0.336 2.688,-0.84 3.906,-1.512 0.756,-0.378 1.491,-0.504 2.205,-0.378 0.756,0.084 1.365,0.441 1.827,1.071 0.714,0.882 0.966,1.785 0.756,2.709 -0.168,0.882 -0.693,1.554 -1.575,2.016 -1.05,0.588 -2.205,1.092 -3.465,1.512 -1.26,0.42 -2.541,0.756 -3.843,1.008 -1.302,0.252 -2.625,0.378 -3.969,0.378 -3.024,0 -5.88,-0.504 -8.568,-1.512 -2.688,-1.008 -5.082,-2.478 -7.182,-4.41 -2.1,-1.932 -3.759,-4.305 -4.977,-7.119 -1.175995,-2.814 -1.763995,-6.027 -1.763995,-9.639 0,-3.234 0.546,-6.216 1.637995,-8.946 1.134,-2.772 2.709,-5.145 4.725,-7.119 2.058,-2.016 4.452,-3.57 7.182,-4.662 2.73,-1.134 5.712,-1.701 8.946,-1.701 2.016,0 3.969,0.252 5.859,0.756 1.932,0.504 3.717,1.218 5.355,2.142 z m 14.852,38.367 c 0,0.924 -0.315,1.701 -0.945,2.331 -0.588,0.588 -1.323,0.882 -2.205,0.882 -0.882,0 -1.638,-0.294 -2.268,-0.882 -0.588,-0.63 -0.882,-1.407 -0.882,-2.331 v -40.194 c 0,-0.924 0.315,-1.68 0.945,-2.268 0.63,-0.63 1.386,-0.945 2.268,-0.945 0.924,0 1.659,0.315 2.205,0.945 0.588,0.588 0.882,1.344 0.882,2.268 z m 24.196,3.843 c -3.486,0 -6.51,-0.714 -9.072,-2.142 -2.562,-1.47 -4.557,-3.465 -5.985,-5.985 -1.386,-2.562 -2.079,-5.481 -2.079,-8.757 0,-3.696 0.735,-6.846 2.205,-9.45 1.512,-2.646 3.465,-4.662 5.859,-6.048 2.394,-1.428 4.935,-2.142 7.623,-2.142 2.058,0 4.011,0.42 5.859,1.26 1.848,0.798 3.486,1.932 4.914,3.402 1.47,1.428 2.625,3.129 3.465,5.103 0.84,1.932 1.281,4.053 1.323,6.363 -0.042,0.84 -0.378,1.533 -1.008,2.079 -0.63,0.546 -1.365,0.819 -2.205,0.819 h -24.507 l -1.512,-5.355 h 23.688 l -1.197,1.134 v -1.575 c -0.084,-1.47 -0.567,-2.751 -1.449,-3.843 -0.882,-1.134 -1.974,-1.995 -3.276,-2.583 -1.302,-0.63 -2.667,-0.945 -4.095,-0.945 -1.26,0 -2.478,0.21 -3.654,0.63 -1.134,0.378 -2.163,1.008 -3.087,1.89 -0.882,0.882 -1.596,2.058 -2.142,3.528 -0.504,1.428 -0.756,3.213 -0.756,5.355 0,2.31 0.483,4.326 1.449,6.048 0.966,1.722 2.268,3.066 3.906,4.032 1.638,0.924 3.444,1.386 5.418,1.386 1.554,0 2.835,-0.147 3.843,-0.441 1.008,-0.336 1.848,-0.735 2.52,-1.197 0.672,-0.462 1.26,-0.903 1.764,-1.323 0.63,-0.378 1.26,-0.567 1.89,-0.567 0.756,0 1.386,0.273 1.89,0.819 0.504,0.504 0.756,1.113 0.756,1.827 0,0.924 -0.462,1.764 -1.386,2.52 -1.134,1.092 -2.709,2.058 -4.725,2.898 -1.974,0.84 -4.053,1.26 -6.237,1.26 z m 48.632,-34.272 c 0.924,0 1.68,0.315 2.268,0.945 0.588,0.588 0.882,1.344 0.882,2.268 v 27.216 c 0,0.924 -0.294,1.701 -0.882,2.331 -0.588,0.588 -1.344,0.882 -2.268,0.882 -0.882,0 -1.638,-0.294 -2.268,-0.882 -0.588,-0.63 -0.882,-1.407 -0.882,-2.331 v -4.536 l 1.323,0.189 c 0,0.756 -0.315,1.596 -0.945,2.52 -0.588,0.924 -1.407,1.827 -2.457,2.709 -1.05,0.84 -2.289,1.554 -3.717,2.142 -1.428,0.546 -2.961,0.819 -4.599,0.819 -2.898,0 -5.502,-0.735 -7.812,-2.205 -2.31,-1.512 -4.137,-3.57 -5.481,-6.174 -1.344,-2.604 -2.016,-5.565 -2.016,-8.883 0,-3.402 0.672,-6.384 2.016,-8.946 1.344,-2.604 3.15,-4.641 5.418,-6.111 2.31,-1.47 4.872,-2.205 7.686,-2.205 1.806,0 3.465,0.294 4.977,0.882 1.554,0.588 2.898,1.344 4.032,2.268 1.134,0.924 1.995,1.911 2.583,2.961 0.63,1.008 0.945,1.974 0.945,2.898 l -1.953,0.189 v -5.733 c 0,-0.882 0.294,-1.638 0.882,-2.268 0.63,-0.63 1.386,-0.945 2.268,-0.945 z m -12.852,28.476 c 1.974,0 3.717,-0.504 5.229,-1.512 1.512,-1.008 2.688,-2.373 3.528,-4.095 0.84,-1.764 1.26,-3.717 1.26,-5.859 0,-2.184 -0.42,-4.137 -1.26,-5.859 -0.84,-1.722 -2.016,-3.087 -3.528,-4.095 -1.512,-1.008 -3.255,-1.512 -5.229,-1.512 -1.932,0 -3.654,0.504 -5.166,1.512 -1.47,1.008 -2.646,2.373 -3.528,4.095 -0.84,1.722 -1.26,3.675 -1.26,5.859 0,2.142 0.42,4.095 1.26,5.859 0.882,1.722 2.058,3.087 3.528,4.095 1.512,1.008 3.234,1.512 5.166,1.512 z m 27.978,5.166 c -0.924,0 -1.68,-0.294 -2.268,-0.882 -0.588,-0.63 -0.882,-1.407 -0.882,-2.331 v -26.712 c 0,-0.924 0.294,-1.68 0.882,-2.268 0.588,-0.63 1.344,-0.945 2.268,-0.945 0.882,0 1.617,0.315 2.205,0.945 0.63,0.588 0.945,1.344 0.945,2.268 v 7.056 l -0.63,-2.709 c 0.336,-1.176 0.84,-2.268 1.512,-3.276 0.714,-1.008 1.554,-1.89 2.52,-2.646 0.966,-0.756 2.037,-1.344 3.213,-1.764 1.218,-0.42 2.478,-0.63 3.78,-0.63 1.092,0 2.037,0.294 2.835,0.882 0.798,0.588 1.197,1.323 1.197,2.205 0,1.134 -0.294,1.974 -0.882,2.52 -0.588,0.504 -1.239,0.756 -1.953,0.756 -0.63,0 -1.239,-0.126 -1.827,-0.378 -0.588,-0.294 -1.281,-0.441 -2.079,-0.441 -0.882,0 -1.785,0.231 -2.709,0.693 -0.924,0.462 -1.764,1.155 -2.52,2.079 -0.756,0.882 -1.365,1.932 -1.827,3.15 -0.42,1.218 -0.63,2.583 -0.63,4.095 v 15.12 c 0,0.924 -0.315,1.701 -0.945,2.331 -0.588,0.588 -1.323,0.882 -2.205,0.882 z m 40.275,-32.76 h 14.805 c 0.84,0 1.533,0.294 2.079,0.882 0.588,0.546 0.882,1.239 0.882,2.079 0,0.798 -0.294,1.47 -0.882,2.016 -0.546,0.546 -1.239,0.819 -2.079,0.819 h -14.805 c -0.84,0 -1.554,-0.273 -2.142,-0.819 -0.546,-0.588 -0.819,-1.281 -0.819,-2.079 0,-0.84 0.273,-1.533 0.819,-2.079 0.588,-0.546 1.302,-0.819 2.142,-0.819 z m 6.615,-8.19 c 0.924,0 1.68,0.315 2.268,0.945 0.588,0.588 0.882,1.344 0.882,2.268 v 29.232 c 0,0.756 0.126,1.365 0.378,1.827 0.252,0.462 0.588,0.777 1.008,0.945 0.462,0.168 0.924,0.252 1.386,0.252 0.462,0 0.861,-0.084 1.197,-0.252 0.378,-0.168 0.819,-0.252 1.323,-0.252 0.504,0 0.966,0.231 1.386,0.693 0.42,0.462 0.63,1.092 0.63,1.89 0,1.008 -0.546,1.827 -1.638,2.457 -1.092,0.63 -2.268,0.945 -3.528,0.945 -0.714,0 -1.554,-0.063 -2.52,-0.189 -0.966,-0.126 -1.911,-0.441 -2.835,-0.945 -0.882,-0.504 -1.617,-1.302 -2.205,-2.394 -0.588,-1.134 -0.882,-2.709 -0.882,-4.725 v -29.484 c 0,-0.924 0.294,-1.68 0.882,-2.268 0.63,-0.63 1.386,-0.945 2.268,-0.945 z m 34.823,7.245 c 2.898,0 5.145,0.63 6.741,1.89 1.596,1.218 2.709,2.877 3.339,4.977 0.672,2.1 1.008,4.41 1.008,6.93 v 16.695 c 0,0.924 -0.315,1.701 -0.945,2.331 -0.588,0.588 -1.323,0.882 -2.205,0.882 -0.924,0 -1.68,-0.294 -2.268,-0.882 -0.588,-0.63 -0.882,-1.407 -0.882,-2.331 v -16.695 c 0,-1.47 -0.21,-2.814 -0.63,-4.032 -0.378,-1.218 -1.071,-2.184 -2.079,-2.898 -0.966,-0.714 -2.331,-1.071 -4.095,-1.071 -1.638,0 -3.108,0.357 -4.41,1.071 -1.26,0.714 -2.247,1.68 -2.961,2.898 -0.672,1.218 -1.008,2.562 -1.008,4.032 v 16.695 c 0,0.924 -0.315,1.701 -0.945,2.331 -0.588,0.588 -1.323,0.882 -2.205,0.882 -0.924,0 -1.68,-0.294 -2.268,-0.882 -0.588,-0.63 -0.882,-1.407 -0.882,-2.331 v -40.194 c 0,-0.924 0.294,-1.68 0.882,-2.268 0.588,-0.63 1.344,-0.945 2.268,-0.945 0.882,0 1.617,0.315 2.205,0.945 0.63,0.588 0.945,1.344 0.945,2.268 v 17.199 l -1.134,0.63 c 0.294,-0.924 0.777,-1.869 1.449,-2.835 0.714,-0.966 1.575,-1.848 2.583,-2.646 1.05,-0.798 2.205,-1.428 3.465,-1.89 1.26,-0.504 2.604,-0.756 4.032,-0.756 z m 35.285,34.335 c -3.486,0 -6.51,-0.714 -9.072,-2.142 -2.562,-1.47 -4.557,-3.465 -5.985,-5.985 -1.386,-2.562 -2.079,-5.481 -2.079,-8.757 0,-3.696 0.735,-6.846 2.205,-9.45 1.512,-2.646 3.465,-4.662 5.859,-6.048 2.394,-1.428 4.935,-2.142 7.623,-2.142 2.058,0 4.011,0.42 5.859,1.26 1.848,0.798 3.486,1.932 4.914,3.402 1.47,1.428 2.625,3.129 3.465,5.103 0.84,1.932 1.281,4.053 1.323,6.363 -0.042,0.84 -0.378,1.533 -1.008,2.079 -0.63,0.546 -1.365,0.819 -2.205,0.819 h -24.507 l -1.512,-5.355 h 23.688 l -1.197,1.134 v -1.575 c -0.084,-1.47 -0.567,-2.751 -1.449,-3.843 -0.882,-1.134 -1.974,-1.995 -3.276,-2.583 -1.302,-0.63 -2.667,-0.945 -4.095,-0.945 -1.26,0 -2.478,0.21 -3.654,0.63 -1.134,0.378 -2.163,1.008 -3.087,1.89 -0.882,0.882 -1.596,2.058 -2.142,3.528 -0.504,1.428 -0.756,3.213 -0.756,5.355 0,2.31 0.483,4.326 1.449,6.048 0.966,1.722 2.268,3.066 3.906,4.032 1.638,0.924 3.444,1.386 5.418,1.386 1.554,0 2.835,-0.147 3.843,-0.441 1.008,-0.336 1.848,-0.735 2.52,-1.197 0.672,-0.462 1.26,-0.903 1.764,-1.323 0.63,-0.378 1.26,-0.567 1.89,-0.567 0.756,0 1.386,0.273 1.89,0.819 0.504,0.504 0.756,1.113 0.756,1.827 0,0.924 -0.462,1.764 -1.386,2.52 -1.134,1.092 -2.709,2.058 -4.725,2.898 -1.974,0.84 -4.053,1.26 -6.237,1.26 z m 52.564,-34.524 c 1.806,0 3.465,0.294 4.977,0.882 1.512,0.588 2.814,1.344 3.906,2.268 1.134,0.882 2.016,1.806 2.646,2.772 0.63,0.966 0.945,1.806 0.945,2.52 l -1.449,0.063 v -5.04 c 0,-0.882 0.294,-1.638 0.882,-2.268 0.588,-0.63 1.344,-0.945 2.268,-0.945 0.924,0 1.68,0.315 2.268,0.945 0.588,0.588 0.882,1.344 0.882,2.268 v 27.783 c 0,3.57 -0.756,6.468 -2.268,8.694 -1.512,2.268 -3.528,3.927 -6.048,4.977 -2.478,1.05 -5.208,1.575 -8.19,1.575 -1.05,0 -2.289,-0.147 -3.717,-0.441 -1.428,-0.252 -2.751,-0.567 -3.969,-0.945 -1.176,-0.378 -1.995,-0.756 -2.457,-1.134 -0.966,-0.504 -1.617,-1.092 -1.953,-1.764 -0.294,-0.672 -0.294,-1.344 0,-2.016 0.42,-0.924 0.987,-1.491 1.701,-1.701 0.714,-0.21 1.533,-0.147 2.457,0.189 0.42,0.126 1.071,0.357 1.953,0.693 0.882,0.336 1.869,0.63 2.961,0.882 1.092,0.294 2.121,0.441 3.087,0.441 3.36,0 5.88,-0.777 7.56,-2.331 1.722,-1.554 2.583,-3.675 2.583,-6.363 v -5.67 l 0.693,0.441 c -0.126,0.882 -0.525,1.785 -1.197,2.709 -0.63,0.882 -1.47,1.701 -2.52,2.457 -1.05,0.756 -2.268,1.386 -3.654,1.89 -1.344,0.462 -2.73,0.693 -4.158,0.693 -2.982,0 -5.649,-0.735 -8.001,-2.205 -2.352,-1.512 -4.221,-3.549 -5.607,-6.111 -1.386,-2.604 -2.079,-5.586 -2.079,-8.946 0,-3.36 0.693,-6.321 2.079,-8.883 1.386,-2.604 3.234,-4.641 5.544,-6.111 2.352,-1.512 4.977,-2.268 7.875,-2.268 z m 0.945,5.796 c -2.058,0 -3.864,0.504 -5.418,1.512 -1.554,1.008 -2.772,2.373 -3.654,4.095 -0.882,1.722 -1.323,3.675 -1.323,5.859 0,2.184 0.441,4.137 1.323,5.859 0.882,1.722 2.1,3.087 3.654,4.095 1.554,1.008 3.36,1.512 5.418,1.512 2.058,0 3.864,-0.483 5.418,-1.449 1.554,-1.008 2.772,-2.373 3.654,-4.095 0.882,-1.764 1.323,-3.738 1.323,-5.922 0,-2.184 -0.441,-4.137 -1.323,-5.859 -0.882,-1.764 -2.1,-3.129 -3.654,-4.095 -1.554,-1.008 -3.36,-1.512 -5.418,-1.512 z m 28.275,28.098 c -0.924,0 -1.68,-0.294 -2.268,-0.882 -0.588,-0.63 -0.882,-1.407 -0.882,-2.331 v -26.712 c 0,-0.924 0.294,-1.68 0.882,-2.268 0.588,-0.63 1.344,-0.945 2.268,-0.945 0.882,0 1.617,0.315 2.205,0.945 0.63,0.588 0.945,1.344 0.945,2.268 v 7.056 l -0.63,-2.709 c 0.336,-1.176 0.84,-2.268 1.512,-3.276 0.714,-1.008 1.554,-1.89 2.52,-2.646 0.966,-0.756 2.037,-1.344 3.213,-1.764 1.218,-0.42 2.478,-0.63 3.78,-0.63 1.092,0 2.037,0.294 2.835,0.882 0.798,0.588 1.197,1.323 1.197,2.205 0,1.134 -0.294,1.974 -0.882,2.52 -0.588,0.504 -1.239,0.756 -1.953,0.756 -0.63,0 -1.239,-0.126 -1.827,-0.378 -0.588,-0.294 -1.281,-0.441 -2.079,-0.441 -0.882,0 -1.785,0.231 -2.709,0.693 -0.924,0.462 -1.764,1.155 -2.52,2.079 -0.756,0.882 -1.365,1.932 -1.827,3.15 -0.42,1.218 -0.63,2.583 -0.63,4.095 v 15.12 c 0,0.924 -0.315,1.701 -0.945,2.331 -0.588,0.588 -1.323,0.882 -2.205,0.882 z m 29.104,-3.213 c 0,0.924 -0.294,1.701 -0.882,2.331 -0.588,0.588 -1.344,0.882 -2.268,0.882 -0.882,0 -1.638,-0.294 -2.268,-0.882 -0.588,-0.63 -0.882,-1.407 -0.882,-2.331 v -26.964 c 0,-0.924 0.294,-1.68 0.882,-2.268 0.63,-0.63 1.386,-0.945 2.268,-0.945 0.924,0 1.68,0.315 2.268,0.945 0.588,0.588 0.882,1.344 0.882,2.268 z m -3.213,-34.335 c -1.218,0 -2.1,-0.21 -2.646,-0.63 -0.546,-0.462 -0.819,-1.218 -0.819,-2.268 v -1.008 c 0,-1.05 0.294,-1.785 0.882,-2.205 0.588,-0.42 1.47,-0.63 2.646,-0.63 1.26,0 2.163,0.231 2.709,0.693 0.546,0.42 0.819,1.134 0.819,2.142 v 1.008 c 0,1.092 -0.294,1.848 -0.882,2.268 -0.546,0.42 -1.449,0.63 -2.709,0.63 z m 38.841,-9.072 c 0.924,0 1.68,0.294 2.268,0.882 0.588,0.588 0.882,1.365 0.882,2.331 v 40.194 c 0,0.924 -0.294,1.701 -0.882,2.331 -0.588,0.588 -1.344,0.882 -2.268,0.882 -0.882,0 -1.638,-0.294 -2.268,-0.882 -0.588,-0.63 -0.882,-1.407 -0.882,-2.331 v -4.536 l 1.323,0.063 c 0,0.756 -0.315,1.617 -0.945,2.583 -0.588,0.924 -1.407,1.827 -2.457,2.709 -1.05,0.882 -2.289,1.617 -3.717,2.205 -1.428,0.546 -2.961,0.819 -4.599,0.819 -2.898,0 -5.502,-0.735 -7.812,-2.205 -2.31,-1.512 -4.137,-3.549 -5.481,-6.111 -1.344,-2.604 -2.016,-5.586 -2.016,-8.946 0,-3.36 0.672,-6.321 2.016,-8.883 1.344,-2.604 3.15,-4.641 5.418,-6.111 2.31,-1.512 4.872,-2.268 7.686,-2.268 1.764,0 3.402,0.294 4.914,0.882 1.554,0.588 2.898,1.344 4.032,2.268 1.134,0.924 2.016,1.911 2.646,2.961 0.63,1.008 0.945,1.974 0.945,2.898 l -1.953,0.189 v -18.711 c 0,-0.924 0.294,-1.68 0.882,-2.268 0.63,-0.63 1.386,-0.945 2.268,-0.945 z m -12.852,41.454 c 2.016,0 3.759,-0.504 5.229,-1.512 1.512,-1.008 2.688,-2.373 3.528,-4.095 0.84,-1.722 1.26,-3.675 1.26,-5.859 0,-2.184 -0.42,-4.137 -1.26,-5.859 -0.84,-1.722 -2.016,-3.087 -3.528,-4.095 -1.512,-1.008 -3.255,-1.512 -5.229,-1.512 -1.932,0 -3.654,0.504 -5.166,1.512 -1.47,1.008 -2.646,2.373 -3.528,4.095 -0.84,1.722 -1.26,3.675 -1.26,5.859 0,2.184 0.42,4.137 1.26,5.859 0.882,1.722 2.058,3.087 3.528,4.095 1.512,1.008 3.234,1.512 5.166,1.512 z m 80.981,-28.287 c 0.798,0 1.491,0.315 2.079,0.945 0.63,0.588 0.945,1.365 0.945,2.331 0,0.21 -0.021,0.42 -0.063,0.63 -0.042,0.21 -0.105,0.399 -0.189,0.567 l -9.639,26.964 c -0.252,0.714 -0.693,1.26 -1.323,1.638 -0.63,0.336 -1.281,0.462 -1.953,0.378 -1.218,-0.084 -2.121,-0.756 -2.709,-2.016 l -7.119,-18.9 1.449,0.126 -6.552,18.774 c -0.588,1.26 -1.491,1.932 -2.709,2.016 -0.63,0.084 -1.281,-0.042 -1.953,-0.378 -0.63,-0.378 -1.071,-0.924 -1.323,-1.638 l -9.702,-26.964 c -0.168,-0.378 -0.252,-0.777 -0.252,-1.197 0,-0.882 0.273,-1.638 0.819,-2.268 0.588,-0.672 1.365,-1.008 2.331,-1.008 0.672,0 1.26,0.168 1.764,0.504 0.546,0.336 0.924,0.84 1.134,1.512 l 8.064,22.743 -1.449,-0.126 6.552,-17.199 c 0.546,-1.302 1.512,-1.953 2.898,-1.953 0.756,0 1.344,0.168 1.764,0.504 0.42,0.336 0.756,0.819 1.008,1.449 l 6.678,17.262 -1.701,0.189 8.127,-22.869 c 0.42,-1.344 1.428,-2.016 3.024,-2.016 z m 15.353,30.24 c 0,0.924 -0.294,1.701 -0.882,2.331 -0.588,0.588 -1.344,0.882 -2.268,0.882 -0.882,0 -1.638,-0.294 -2.268,-0.882 -0.588,-0.63 -0.882,-1.407 -0.882,-2.331 v -26.964 c 0,-0.924 0.294,-1.68 0.882,-2.268 0.63,-0.63 1.386,-0.945 2.268,-0.945 0.924,0 1.68,0.315 2.268,0.945 0.588,0.588 0.882,1.344 0.882,2.268 z m -3.213,-34.335 c -1.218,0 -2.1,-0.21 -2.646,-0.63 -0.546,-0.462 -0.819,-1.218 -0.819,-2.268 v -1.008 c 0,-1.05 0.294,-1.785 0.882,-2.205 0.588,-0.42 1.47,-0.63 2.646,-0.63 1.26,0 2.163,0.231 2.709,0.693 0.546,0.42 0.819,1.134 0.819,2.142 v 1.008 c 0,1.092 -0.294,1.848 -0.882,2.268 -0.546,0.42 -1.449,0.63 -2.709,0.63 z m 11.246,4.788 h 14.805 c 0.84,0 1.533,0.294 2.079,0.882 0.588,0.546 0.882,1.239 0.882,2.079 0,0.798 -0.294,1.47 -0.882,2.016 -0.546,0.546 -1.239,0.819 -2.079,0.819 h -14.805 c -0.84,0 -1.554,-0.273 -2.142,-0.819 -0.546,-0.588 -0.819,-1.281 -0.819,-2.079 0,-0.84 0.273,-1.533 0.819,-2.079 0.588,-0.546 1.302,-0.819 2.142,-0.819 z m 6.615,-8.19 c 0.924,0 1.68,0.315 2.268,0.945 0.588,0.588 0.882,1.344 0.882,2.268 v 29.232 c 0,0.756 0.126,1.365 0.378,1.827 0.252,0.462 0.588,0.777 1.008,0.945 0.462,0.168 0.924,0.252 1.386,0.252 0.462,0 0.861,-0.084 1.197,-0.252 0.378,-0.168 0.819,-0.252 1.323,-0.252 0.504,0 0.966,0.231 1.386,0.693 0.42,0.462 0.63,1.092 0.63,1.89 0,1.008 -0.546,1.827 -1.638,2.457 -1.092,0.63 -2.268,0.945 -3.528,0.945 -0.714,0 -1.554,-0.063 -2.52,-0.189 -0.966,-0.126 -1.911,-0.441 -2.835,-0.945 -0.882,-0.504 -1.617,-1.302 -2.205,-2.394 -0.588,-1.134 -0.882,-2.709 -0.882,-4.725 v -29.484 c 0,-0.924 0.294,-1.68 0.882,-2.268 0.63,-0.63 1.386,-0.945 2.268,-0.945 z m 34.823,7.245 c 2.898,0 5.145,0.63 6.741,1.89 1.596,1.218 2.709,2.877 3.339,4.977 0.672,2.1 1.008,4.41 1.008,6.93 v 16.695 c 0,0.924 -0.315,1.701 -0.945,2.331 -0.588,0.588 -1.323,0.882 -2.205,0.882 -0.924,0 -1.68,-0.294 -2.268,-0.882 -0.588,-0.63 -0.882,-1.407 -0.882,-2.331 v -16.695 c 0,-1.47 -0.21,-2.814 -0.63,-4.032 -0.378,-1.218 -1.071,-2.184 -2.079,-2.898 -0.966,-0.714 -2.331,-1.071 -4.095,-1.071 -1.638,0 -3.108,0.357 -4.41,1.071 -1.26,0.714 -2.247,1.68 -2.961,2.898 -0.672,1.218 -1.008,2.562 -1.008,4.032 v 16.695 c 0,0.924 -0.315,1.701 -0.945,2.331 -0.588,0.588 -1.323,0.882 -2.205,0.882 -0.924,0 -1.68,-0.294 -2.268,-0.882 -0.588,-0.63 -0.882,-1.407 -0.882,-2.331 v -40.194 c 0,-0.924 0.294,-1.68 0.882,-2.268 0.588,-0.63 1.344,-0.945 2.268,-0.945 0.882,0 1.617,0.315 2.205,0.945 0.63,0.588 0.945,1.344 0.945,2.268 v 17.199 l -1.134,0.63 c 0.294,-0.924 0.777,-1.869 1.449,-2.835 0.714,-0.966 1.575,-1.848 2.583,-2.646 1.05,-0.798 2.205,-1.428 3.465,-1.89 1.26,-0.504 2.604,-0.756 4.032,-0.756 z m 51.602,17.136 c 0,3.36 -0.735,6.342 -2.205,8.946 -1.47,2.562 -3.465,4.578 -5.985,6.048 -2.52,1.47 -5.355,2.205 -8.505,2.205 -3.15,0 -5.985,-0.735 -8.505,-2.205 -2.52,-1.47 -4.536,-3.486 -6.048,-6.048 -1.47,-2.604 -2.205,-5.586 -2.205,-8.946 0,-3.402 0.735,-6.384 2.205,-8.946 1.512,-2.604 3.528,-4.641 6.048,-6.111 2.52,-1.512 5.355,-2.268 8.505,-2.268 3.15,0 5.985,0.756 8.505,2.268 2.52,1.47 4.515,3.507 5.985,6.111 1.47,2.562 2.205,5.544 2.205,8.946 z m -6.3,0 c 0,-2.31 -0.462,-4.305 -1.386,-5.985 -0.924,-1.722 -2.184,-3.066 -3.78,-4.032 -1.554,-1.008 -3.297,-1.512 -5.229,-1.512 -1.932,0 -3.696,0.504 -5.292,1.512 -1.596,0.966 -2.856,2.31 -3.78,4.032 -0.924,1.68 -1.386,3.675 -1.386,5.985 0,2.226 0.462,4.2 1.386,5.922 0.924,1.722 2.184,3.066 3.78,4.032 1.596,0.966 3.36,1.449 5.292,1.449 1.932,0 3.675,-0.483 5.229,-1.449 1.596,-0.966 2.856,-2.31 3.78,-4.032 0.924,-1.722 1.386,-3.696 1.386,-5.922 z m 38.127,-16.569 c 0.882,0 1.617,0.315 2.205,0.945 0.63,0.588 0.945,1.344 0.945,2.268 v 16.569 c 0,4.368 -1.218,7.791 -3.654,10.269 -2.436,2.436 -5.88,3.654 -10.332,3.654 -4.41,0 -7.833,-1.218 -10.269,-3.654 -2.394,-2.478 -3.591,-5.901 -3.591,-10.269 v -16.569 c 0,-0.924 0.294,-1.68 0.882,-2.268 0.588,-0.63 1.344,-0.945 2.268,-0.945 0.882,0 1.617,0.315 2.205,0.945 0.63,0.588 0.945,1.344 0.945,2.268 v 16.569 c 0,2.73 0.63,4.767 1.89,6.111 1.302,1.344 3.192,2.016 5.67,2.016 2.52,0 4.431,-0.672 5.733,-2.016 1.302,-1.344 1.953,-3.381 1.953,-6.111 v -16.569 c 0,-0.924 0.294,-1.68 0.882,-2.268 0.588,-0.63 1.344,-0.945 2.268,-0.945 z m 11.469,0.378 h 14.805 c 0.84,0 1.533,0.294 2.079,0.882 0.588,0.546 0.882,1.239 0.882,2.079 0,0.798 -0.294,1.47 -0.882,2.016 -0.546,0.546 -1.239,0.819 -2.079,0.819 h -14.805 c -0.84,0 -1.554,-0.273 -2.142,-0.819 -0.546,-0.588 -0.819,-1.281 -0.819,-2.079 0,-0.84 0.273,-1.533 0.819,-2.079 0.588,-0.546 1.302,-0.819 2.142,-0.819 z m 6.615,-8.19 c 0.924,0 1.68,0.315 2.268,0.945 0.588,0.588 0.882,1.344 0.882,2.268 v 29.232 c 0,0.756 0.126,1.365 0.378,1.827 0.252,0.462 0.588,0.777 1.008,0.945 0.462,0.168 0.924,0.252 1.386,0.252 0.462,0 0.861,-0.084 1.197,-0.252 0.378,-0.168 0.819,-0.252 1.323,-0.252 0.504,0 0.966,0.231 1.386,0.693 0.42,0.462 0.63,1.092 0.63,1.89 0,1.008 -0.546,1.827 -1.638,2.457 -1.092,0.63 -2.268,0.945 -3.528,0.945 -0.714,0 -1.554,-0.063 -2.52,-0.189 -0.966,-0.126 -1.911,-0.441 -2.835,-0.945 -0.882,-0.504 -1.617,-1.302 -2.205,-2.394 -0.588,-1.134 -0.882,-2.709 -0.882,-4.725 v -29.484 c 0,-0.924 0.294,-1.68 0.882,-2.268 0.63,-0.63 1.386,-0.945 2.268,-0.945 z m -626.8,86.056 c 2.94,0 5.544,0.735 7.812,2.205 2.31,1.47 4.137,3.507 5.481,6.111 1.344,2.562 2.016,5.523 2.016,8.883 0,3.36 -0.672,6.342 -2.016,8.946 -1.344,2.604 -3.15,4.662 -5.418,6.174 -2.268,1.47 -4.83,2.205 -7.686,2.205 -1.596,0 -3.108,-0.252 -4.536,-0.756 -1.428,-0.546 -2.687995,-1.218 -3.779995,-2.016 -1.092,-0.84 -1.995,-1.722 -2.709,-2.646 -0.672,-0.924 -1.092,-1.785 -1.26,-2.583 l 1.701,-0.819 v 5.481 c 0,0.882 -0.315,1.638 -0.945,2.268 -0.588,0.588 -1.323,0.882 -2.205,0.882 -0.924,0 -1.68,-0.294 -2.268,-0.882 -0.588,-0.588 -0.882,-1.344 -0.882,-2.268 v -40.698 c 0,-0.924 0.294,-1.68 0.882,-2.268 0.588,-0.63 1.344,-0.945 2.268,-0.945 0.882,0 1.617,0.315 2.205,0.945 0.63,0.588 0.945,1.344 0.945,2.268 v 17.703 l -1.008,-0.567 c 0.126,-0.798 0.525,-1.617 1.197,-2.457 0.672,-0.882 1.512,-1.722 2.52,-2.52 1.05,-0.798 2.225995,-1.428 3.527995,-1.89 1.344,-0.504 2.73,-0.756 4.158,-0.756 z m -0.693,5.796 c -2.016,0 -3.78,0.504 -5.292,1.512 -1.469995,1.008 -2.624995,2.373 -3.464995,4.095 -0.84,1.68 -1.26,3.612 -1.26,5.796 0,2.184 0.42,4.158 1.26,5.922 0.84,1.722 1.995,3.087 3.464995,4.095 1.512,1.008 3.276,1.512 5.292,1.512 1.974,0 3.696,-0.504 5.166,-1.512 1.47,-1.008 2.625,-2.394 3.465,-4.158 0.882,-1.764 1.323,-3.717 1.323,-5.859 0,-2.184 -0.441,-4.116 -1.323,-5.796 -0.84,-1.722 -1.995,-3.087 -3.465,-4.095 -1.47,-1.008 -3.192,-1.512 -5.166,-1.512 z m 29.931,24.885 c 0,0.924 -0.315,1.701 -0.945,2.331 -0.588,0.588 -1.323,0.882 -2.205,0.882 -0.882,0 -1.638,-0.294 -2.268,-0.882 -0.588,-0.63 -0.882,-1.407 -0.882,-2.331 v -40.194 c 0,-0.924 0.315,-1.68 0.945,-2.268 0.63,-0.63 1.386,-0.945 2.268,-0.945 0.924,0 1.659,0.315 2.205,0.945 0.588,0.588 0.882,1.344 0.882,2.268 z m 36.53,-30.429 c 0.924,0 1.68,0.315 2.268,0.945 0.588,0.588 0.882,1.344 0.882,2.268 v 27.216 c 0,0.924 -0.294,1.701 -0.882,2.331 -0.588,0.588 -1.344,0.882 -2.268,0.882 -0.882,0 -1.638,-0.294 -2.268,-0.882 -0.588,-0.63 -0.882,-1.407 -0.882,-2.331 v -4.536 l 1.323,0.189 c 0,0.756 -0.315,1.596 -0.945,2.52 -0.588,0.924 -1.407,1.827 -2.457,2.709 -1.05,0.84 -2.289,1.554 -3.717,2.142 -1.428,0.546 -2.961,0.819 -4.599,0.819 -2.898,0 -5.502,-0.735 -7.812,-2.205 -2.31,-1.512 -4.137,-3.57 -5.481,-6.174 -1.344,-2.604 -2.016,-5.565 -2.016,-8.883 0,-3.402 0.672,-6.384 2.016,-8.946 1.344,-2.604 3.15,-4.641 5.418,-6.111 2.31,-1.47 4.872,-2.205 7.686,-2.205 1.806,0 3.465,0.294 4.977,0.882 1.554,0.588 2.898,1.344 4.032,2.268 1.134,0.924 1.995,1.911 2.583,2.961 0.63,1.008 0.945,1.974 0.945,2.898 l -1.953,0.189 v -5.733 c 0,-0.882 0.294,-1.638 0.882,-2.268 0.63,-0.63 1.386,-0.945 2.268,-0.945 z m -12.852,28.476 c 1.974,0 3.717,-0.504 5.229,-1.512 1.512,-1.008 2.688,-2.373 3.528,-4.095 0.84,-1.764 1.26,-3.717 1.26,-5.859 0,-2.184 -0.42,-4.137 -1.26,-5.859 -0.84,-1.722 -2.016,-3.087 -3.528,-4.095 -1.512,-1.008 -3.255,-1.512 -5.229,-1.512 -1.932,0 -3.654,0.504 -5.166,1.512 -1.47,1.008 -2.646,2.373 -3.528,4.095 -0.84,1.722 -1.26,3.675 -1.26,5.859 0,2.142 0.42,4.095 1.26,5.859 0.882,1.722 2.058,3.087 3.528,4.095 1.512,1.008 3.234,1.512 5.166,1.512 z m 22.874,0 c -0.378,-0.588 -0.546,-1.26 -0.504,-2.016 0.042,-0.798 0.483,-1.47 1.323,-2.016 0.588,-0.378 1.197,-0.525 1.827,-0.441 0.672,0.042 1.302,0.357 1.89,0.945 1.176,1.302 2.478,2.331 3.906,3.087 1.47,0.756 3.234,1.134 5.292,1.134 0.84,-0.042 1.701,-0.168 2.583,-0.378 0.882,-0.252 1.638,-0.672 2.268,-1.26 0.63,-0.63 0.945,-1.533 0.945,-2.709 0,-1.05 -0.336,-1.89 -1.008,-2.52 -0.672,-0.63 -1.554,-1.134 -2.646,-1.512 -1.092,-0.42 -2.268,-0.798 -3.528,-1.134 -1.344,-0.378 -2.709,-0.798 -4.095,-1.26 -1.344,-0.462 -2.562,-1.05 -3.654,-1.764 -1.092,-0.756 -1.995,-1.722 -2.709,-2.898 -0.672,-1.176 -1.008,-2.625 -1.008,-4.347 0,-1.974 0.546,-3.675 1.638,-5.103 1.134,-1.428 2.583,-2.541 4.347,-3.339 1.806,-0.798 3.759,-1.197 5.859,-1.197 1.218,0 2.499,0.168 3.843,0.504 1.344,0.294 2.646,0.777 3.906,1.449 1.26,0.672 2.352,1.554 3.276,2.646 0.42,0.546 0.651,1.197 0.693,1.953 0.084,0.756 -0.252,1.428 -1.008,2.016 -0.504,0.42 -1.113,0.609 -1.827,0.567 -0.714,-0.042 -1.302,-0.273 -1.764,-0.693 -0.798,-1.008 -1.827,-1.785 -3.087,-2.331 -1.26,-0.588 -2.688,-0.882 -4.284,-0.882 -0.798,0 -1.638,0.126 -2.52,0.378 -0.84,0.21 -1.554,0.609 -2.142,1.197 -0.588,0.588 -0.882,1.449 -0.882,2.583 0,1.05 0.336,1.89 1.008,2.52 0.714,0.63 1.638,1.155 2.772,1.575 1.134,0.42 2.373,0.798 3.717,1.134 1.302,0.336 2.583,0.735 3.843,1.197 1.302,0.462 2.457,1.071 3.465,1.827 1.05,0.714 1.89,1.659 2.52,2.835 0.672,1.134 1.008,2.583 1.008,4.347 0,2.058 -0.609,3.822 -1.827,5.292 -1.176,1.428 -2.688,2.52 -4.536,3.276 -1.806,0.756 -3.717,1.134 -5.733,1.134 -2.394,0 -4.788,-0.42 -7.182,-1.26 -2.352,-0.882 -4.347,-2.394 -5.985,-4.536 z m 31.597,-27.594 h 14.805 c 0.84,0 1.533,0.294 2.079,0.882 0.588,0.546 0.882,1.239 0.882,2.079 0,0.798 -0.294,1.47 -0.882,2.016 -0.546,0.546 -1.239,0.819 -2.079,0.819 h -14.805 c -0.84,0 -1.554,-0.273 -2.142,-0.819 -0.546,-0.588 -0.819,-1.281 -0.819,-2.079 0,-0.84 0.273,-1.533 0.819,-2.079 0.588,-0.546 1.302,-0.819 2.142,-0.819 z m 6.615,-8.19 c 0.924,0 1.68,0.315 2.268,0.945 0.588,0.588 0.882,1.344 0.882,2.268 v 29.232 c 0,0.756 0.126,1.365 0.378,1.827 0.252,0.462 0.588,0.777 1.008,0.945 0.462,0.168 0.924,0.252 1.386,0.252 0.462,0 0.861,-0.084 1.197,-0.252 0.378,-0.168 0.819,-0.252 1.323,-0.252 0.504,0 0.966,0.231 1.386,0.693 0.42,0.462 0.63,1.092 0.63,1.89 0,1.008 -0.546,1.827 -1.638,2.457 -1.092,0.63 -2.268,0.945 -3.528,0.945 -0.714,0 -1.554,-0.063 -2.52,-0.189 -0.966,-0.126 -1.911,-0.441 -2.835,-0.945 -0.882,-0.504 -1.617,-1.302 -2.205,-2.394 -0.588,-1.134 -0.882,-2.709 -0.882,-4.725 v -29.484 c 0,-0.924 0.294,-1.68 0.882,-2.268 0.63,-0.63 1.386,-0.945 2.268,-0.945 z m 24.05,37.737 c 0,0.924 -0.294,1.701 -0.882,2.331 -0.588,0.588 -1.344,0.882 -2.268,0.882 -0.882,0 -1.638,-0.294 -2.268,-0.882 -0.588,-0.63 -0.882,-1.407 -0.882,-2.331 v -26.964 c 0,-0.924 0.294,-1.68 0.882,-2.268 0.63,-0.63 1.386,-0.945 2.268,-0.945 0.924,0 1.68,0.315 2.268,0.945 0.588,0.588 0.882,1.344 0.882,2.268 z m -3.213,-34.335 c -1.218,0 -2.1,-0.21 -2.646,-0.63 -0.546,-0.462 -0.819,-1.218 -0.819,-2.268 v -1.008 c 0,-1.05 0.294,-1.785 0.882,-2.205 0.588,-0.42 1.47,-0.63 2.646,-0.63 1.26,0 2.163,0.231 2.709,0.693 0.546,0.42 0.819,1.134 0.819,2.142 v 1.008 c 0,1.092 -0.294,1.848 -0.882,2.268 -0.546,0.42 -1.449,0.63 -2.709,0.63 z m 28.761,3.654 c 2.982,0 5.292,0.63 6.93,1.89 1.638,1.218 2.772,2.877 3.402,4.977 0.672,2.058 1.008,4.368 1.008,6.93 v 16.884 c 0,0.924 -0.315,1.701 -0.945,2.331 -0.588,0.588 -1.323,0.882 -2.205,0.882 -0.924,0 -1.68,-0.294 -2.268,-0.882 -0.588,-0.63 -0.882,-1.407 -0.882,-2.331 v -16.821 c 0,-1.512 -0.21,-2.856 -0.63,-4.032 -0.42,-1.218 -1.155,-2.184 -2.205,-2.898 -1.008,-0.756 -2.436,-1.134 -4.284,-1.134 -1.722,0 -3.234,0.378 -4.536,1.134 -1.302,0.714 -2.331,1.68 -3.087,2.898 -0.714,1.176 -1.071,2.52 -1.071,4.032 v 16.821 c 0,0.924 -0.315,1.701 -0.945,2.331 -0.588,0.588 -1.323,0.882 -2.205,0.882 -0.924,0 -1.68,-0.294 -2.268,-0.882 -0.588,-0.63 -0.882,-1.407 -0.882,-2.331 v -26.712 c 0,-0.924 0.294,-1.68 0.882,-2.268 0.588,-0.63 1.344,-0.945 2.268,-0.945 0.882,0 1.617,0.315 2.205,0.945 0.63,0.588 0.945,1.344 0.945,2.268 v 3.528 l -1.134,0.63 c 0.294,-0.924 0.798,-1.848 1.512,-2.772 0.756,-0.966 1.659,-1.848 2.709,-2.646 1.05,-0.84 2.226,-1.491 3.528,-1.953 1.302,-0.504 2.688,-0.756 4.158,-0.756 z m 33.884,0 c 1.806,0 3.465,0.294 4.977,0.882 1.512,0.588 2.814,1.344 3.906,2.268 1.134,0.882 2.016,1.806 2.646,2.772 0.63,0.966 0.945,1.806 0.945,2.52 l -1.449,0.063 v -5.04 c 0,-0.882 0.294,-1.638 0.882,-2.268 0.588,-0.63 1.344,-0.945 2.268,-0.945 0.924,0 1.68,0.315 2.268,0.945 0.588,0.588 0.882,1.344 0.882,2.268 v 27.783 c 0,3.57 -0.756,6.468 -2.268,8.694 -1.512,2.268 -3.528,3.927 -6.048,4.977 -2.478,1.05 -5.208,1.575 -8.19,1.575 -1.05,0 -2.289,-0.147 -3.717,-0.441 -1.428,-0.252 -2.751,-0.567 -3.969,-0.945 -1.176,-0.378 -1.995,-0.756 -2.457,-1.134 -0.966,-0.504 -1.617,-1.092 -1.953,-1.764 -0.294,-0.672 -0.294,-1.344 0,-2.016 0.42,-0.924 0.987,-1.491 1.701,-1.701 0.714,-0.21 1.533,-0.147 2.457,0.189 0.42,0.126 1.071,0.357 1.953,0.693 0.882,0.336 1.869,0.63 2.961,0.882 1.092,0.294 2.121,0.441 3.087,0.441 3.36,0 5.88,-0.777 7.56,-2.331 1.722,-1.554 2.583,-3.675 2.583,-6.363 v -5.67 l 0.693,0.441 c -0.126,0.882 -0.525,1.785 -1.197,2.709 -0.63,0.882 -1.47,1.701 -2.52,2.457 -1.05,0.756 -2.268,1.386 -3.654,1.89 -1.344,0.462 -2.73,0.693 -4.158,0.693 -2.982,0 -5.649,-0.735 -8.001,-2.205 -2.352,-1.512 -4.221,-3.549 -5.607,-6.111 -1.386,-2.604 -2.079,-5.586 -2.079,-8.946 0,-3.36 0.693,-6.321 2.079,-8.883 1.386,-2.604 3.234,-4.641 5.544,-6.111 2.352,-1.512 4.977,-2.268 7.875,-2.268 z m 0.945,5.796 c -2.058,0 -3.864,0.504 -5.418,1.512 -1.554,1.008 -2.772,2.373 -3.654,4.095 -0.882,1.722 -1.323,3.675 -1.323,5.859 0,2.184 0.441,4.137 1.323,5.859 0.882,1.722 2.1,3.087 3.654,4.095 1.554,1.008 3.36,1.512 5.418,1.512 2.058,0 3.864,-0.483 5.418,-1.449 1.554,-1.008 2.772,-2.373 3.654,-4.095 0.882,-1.764 1.323,-3.738 1.323,-5.922 0,-2.184 -0.441,-4.137 -1.323,-5.859 -0.882,-1.764 -2.1,-3.129 -3.654,-4.095 -1.554,-1.008 -3.36,-1.512 -5.418,-1.512 z m 69.812,-5.544 c 0.924,0 1.68,0.315 2.268,0.945 0.588,0.588 0.882,1.344 0.882,2.268 v 27.216 c 0,0.924 -0.294,1.701 -0.882,2.331 -0.588,0.588 -1.344,0.882 -2.268,0.882 -0.882,0 -1.638,-0.294 -2.268,-0.882 -0.588,-0.63 -0.882,-1.407 -0.882,-2.331 v -4.536 l 1.323,0.189 c 0,0.756 -0.315,1.596 -0.945,2.52 -0.588,0.924 -1.407,1.827 -2.457,2.709 -1.05,0.84 -2.289,1.554 -3.717,2.142 -1.428,0.546 -2.961,0.819 -4.599,0.819 -2.898,0 -5.502,-0.735 -7.812,-2.205 -2.31,-1.512 -4.137,-3.57 -5.481,-6.174 -1.344,-2.604 -2.016,-5.565 -2.016,-8.883 0,-3.402 0.672,-6.384 2.016,-8.946 1.344,-2.604 3.15,-4.641 5.418,-6.111 2.31,-1.47 4.872,-2.205 7.686,-2.205 1.806,0 3.465,0.294 4.977,0.882 1.554,0.588 2.898,1.344 4.032,2.268 1.134,0.924 1.995,1.911 2.583,2.961 0.63,1.008 0.945,1.974 0.945,2.898 l -1.953,0.189 v -5.733 c 0,-0.882 0.294,-1.638 0.882,-2.268 0.63,-0.63 1.386,-0.945 2.268,-0.945 z m -12.852,28.476 c 1.974,0 3.717,-0.504 5.229,-1.512 1.512,-1.008 2.688,-2.373 3.528,-4.095 0.84,-1.764 1.26,-3.717 1.26,-5.859 0,-2.184 -0.42,-4.137 -1.26,-5.859 -0.84,-1.722 -2.016,-3.087 -3.528,-4.095 -1.512,-1.008 -3.255,-1.512 -5.229,-1.512 -1.932,0 -3.654,0.504 -5.166,1.512 -1.47,1.008 -2.646,2.373 -3.528,4.095 -0.84,1.722 -1.26,3.675 -1.26,5.859 0,2.142 0.42,4.095 1.26,5.859 0.882,1.722 2.058,3.087 3.528,4.095 1.512,1.008 3.234,1.512 5.166,1.512 z m 58.994,-28.539 c 3.108,0 5.502,0.777 7.182,2.331 1.68,1.512 2.793,3.57 3.339,6.174 l -1.008,-0.315 0.441,-1.008 c 0.546,-1.092 1.365,-2.184 2.457,-3.276 1.134,-1.134 2.478,-2.058 4.032,-2.772 1.554,-0.756 3.213,-1.134 4.977,-1.134 2.898,0 5.145,0.63 6.741,1.89 1.596,1.218 2.709,2.877 3.339,4.977 0.63,2.058 0.945,4.368 0.945,6.93 v 16.695 c 0,0.924 -0.294,1.701 -0.882,2.331 -0.588,0.588 -1.344,0.882 -2.268,0.882 -0.882,0 -1.638,-0.294 -2.268,-0.882 -0.588,-0.63 -0.882,-1.407 -0.882,-2.331 v -16.632 c 0,-1.47 -0.21,-2.814 -0.63,-4.032 -0.378,-1.218 -1.071,-2.184 -2.079,-2.898 -0.966,-0.756 -2.31,-1.134 -4.032,-1.134 -1.638,0 -3.108,0.378 -4.41,1.134 -1.26,0.714 -2.247,1.68 -2.961,2.898 -0.714,1.218 -1.071,2.562 -1.071,4.032 v 16.632 c 0,0.924 -0.294,1.701 -0.882,2.331 -0.588,0.588 -1.344,0.882 -2.268,0.882 -0.924,0 -1.68,-0.294 -2.268,-0.882 -0.588,-0.63 -0.882,-1.407 -0.882,-2.331 v -16.695 c 0,-1.47 -0.21,-2.814 -0.63,-4.032 -0.378,-1.218 -1.05,-2.184 -2.016,-2.898 -0.966,-0.714 -2.31,-1.071 -4.032,-1.071 -1.638,0 -3.087,0.357 -4.347,1.071 -1.26,0.714 -2.247,1.68 -2.961,2.898 -0.672,1.218 -1.008,2.562 -1.008,4.032 v 16.695 c 0,0.924 -0.315,1.701 -0.945,2.331 -0.588,0.588 -1.323,0.882 -2.205,0.882 -0.924,0 -1.68,-0.294 -2.268,-0.882 -0.588,-0.63 -0.882,-1.407 -0.882,-2.331 v -26.712 c 0,-0.924 0.294,-1.68 0.882,-2.268 0.588,-0.63 1.344,-0.945 2.268,-0.945 0.882,0 1.617,0.315 2.205,0.945 0.63,0.588 0.945,1.344 0.945,2.268 v 3.717 l -1.197,0.693 c 0.294,-0.924 0.777,-1.869 1.449,-2.835 0.672,-0.966 1.512,-1.848 2.52,-2.646 1.05,-0.798 2.205,-1.449 3.465,-1.953 1.26,-0.504 2.625,-0.756 4.095,-0.756 z m 47.184,30.492 c 0,0.924 -0.294,1.701 -0.882,2.331 -0.588,0.588 -1.344,0.882 -2.268,0.882 -0.882,0 -1.638,-0.294 -2.268,-0.882 -0.588,-0.63 -0.882,-1.407 -0.882,-2.331 v -26.964 c 0,-0.924 0.294,-1.68 0.882,-2.268 0.63,-0.63 1.386,-0.945 2.268,-0.945 0.924,0 1.68,0.315 2.268,0.945 0.588,0.588 0.882,1.344 0.882,2.268 z m -3.213,-34.335 c -1.218,0 -2.1,-0.21 -2.646,-0.63 -0.546,-0.462 -0.819,-1.218 -0.819,-2.268 v -1.008 c 0,-1.05 0.294,-1.785 0.882,-2.205 0.588,-0.42 1.47,-0.63 2.646,-0.63 1.26,0 2.163,0.231 2.709,0.693 0.546,0.42 0.819,1.134 0.819,2.142 v 1.008 c 0,1.092 -0.294,1.848 -0.882,2.268 -0.546,0.42 -1.449,0.63 -2.709,0.63 z m 28.76,3.654 c 2.982,0 5.292,0.63 6.93,1.89 1.638,1.218 2.772,2.877 3.402,4.977 0.672,2.058 1.008,4.368 1.008,6.93 v 16.884 c 0,0.924 -0.315,1.701 -0.945,2.331 -0.588,0.588 -1.323,0.882 -2.205,0.882 -0.924,0 -1.68,-0.294 -2.268,-0.882 -0.588,-0.63 -0.882,-1.407 -0.882,-2.331 v -16.821 c 0,-1.512 -0.21,-2.856 -0.63,-4.032 -0.42,-1.218 -1.155,-2.184 -2.205,-2.898 -1.008,-0.756 -2.436,-1.134 -4.284,-1.134 -1.722,0 -3.234,0.378 -4.536,1.134 -1.302,0.714 -2.331,1.68 -3.087,2.898 -0.714,1.176 -1.071,2.52 -1.071,4.032 v 16.821 c 0,0.924 -0.315,1.701 -0.945,2.331 -0.588,0.588 -1.323,0.882 -2.205,0.882 -0.924,0 -1.68,-0.294 -2.268,-0.882 -0.588,-0.63 -0.882,-1.407 -0.882,-2.331 v -26.712 c 0,-0.924 0.294,-1.68 0.882,-2.268 0.588,-0.63 1.344,-0.945 2.268,-0.945 0.882,0 1.617,0.315 2.205,0.945 0.63,0.588 0.945,1.344 0.945,2.268 v 3.528 l -1.134,0.63 c 0.294,-0.924 0.798,-1.848 1.512,-2.772 0.756,-0.966 1.659,-1.848 2.709,-2.646 1.05,-0.84 2.226,-1.491 3.528,-1.953 1.302,-0.504 2.688,-0.756 4.158,-0.756 z m 35.522,34.524 c -3.486,0 -6.51,-0.714 -9.072,-2.142 -2.562,-1.47 -4.557,-3.465 -5.985,-5.985 -1.386,-2.562 -2.079,-5.481 -2.079,-8.757 0,-3.696 0.735,-6.846 2.205,-9.45 1.512,-2.646 3.465,-4.662 5.859,-6.048 2.394,-1.428 4.935,-2.142 7.623,-2.142 2.058,0 4.011,0.42 5.859,1.26 1.848,0.798 3.486,1.932 4.914,3.402 1.47,1.428 2.625,3.129 3.465,5.103 0.84,1.932 1.281,4.053 1.323,6.363 -0.042,0.84 -0.378,1.533 -1.008,2.079 -0.63,0.546 -1.365,0.819 -2.205,0.819 h -24.507 l -1.512,-5.355 h 23.688 l -1.197,1.134 v -1.575 c -0.084,-1.47 -0.567,-2.751 -1.449,-3.843 -0.882,-1.134 -1.974,-1.995 -3.276,-2.583 -1.302,-0.63 -2.667,-0.945 -4.095,-0.945 -1.26,0 -2.478,0.21 -3.654,0.63 -1.134,0.378 -2.163,1.008 -3.087,1.89 -0.882,0.882 -1.596,2.058 -2.142,3.528 -0.504,1.428 -0.756,3.213 -0.756,5.355 0,2.31 0.483,4.326 1.449,6.048 0.966,1.722 2.268,3.066 3.906,4.032 1.638,0.924 3.444,1.386 5.418,1.386 1.554,0 2.835,-0.147 3.843,-0.441 1.008,-0.336 1.848,-0.735 2.52,-1.197 0.672,-0.462 1.26,-0.903 1.764,-1.323 0.63,-0.378 1.26,-0.567 1.89,-0.567 0.756,0 1.386,0.273 1.89,0.819 0.504,0.504 0.756,1.113 0.756,1.827 0,0.924 -0.462,1.764 -1.386,2.52 -1.134,1.092 -2.709,2.058 -4.725,2.898 -1.974,0.84 -4.053,1.26 -6.237,1.26 z m 38.327,-33.39 h 14.805 c 0.84,0 1.533,0.294 2.079,0.882 0.588,0.546 0.882,1.239 0.882,2.079 0,0.798 -0.294,1.47 -0.882,2.016 -0.546,0.546 -1.239,0.819 -2.079,0.819 h -14.805 c -0.84,0 -1.554,-0.273 -2.142,-0.819 -0.546,-0.588 -0.819,-1.281 -0.819,-2.079 0,-0.84 0.273,-1.533 0.819,-2.079 0.588,-0.546 1.302,-0.819 2.142,-0.819 z m 6.615,-8.19 c 0.924,0 1.68,0.315 2.268,0.945 0.588,0.588 0.882,1.344 0.882,2.268 v 29.232 c 0,0.756 0.126,1.365 0.378,1.827 0.252,0.462 0.588,0.777 1.008,0.945 0.462,0.168 0.924,0.252 1.386,0.252 0.462,0 0.861,-0.084 1.197,-0.252 0.378,-0.168 0.819,-0.252 1.323,-0.252 0.504,0 0.966,0.231 1.386,0.693 0.42,0.462 0.63,1.092 0.63,1.89 0,1.008 -0.546,1.827 -1.638,2.457 -1.092,0.63 -2.268,0.945 -3.528,0.945 -0.714,0 -1.554,-0.063 -2.52,-0.189 -0.966,-0.126 -1.911,-0.441 -2.835,-0.945 -0.882,-0.504 -1.617,-1.302 -2.205,-2.394 -0.588,-1.134 -0.882,-2.709 -0.882,-4.725 v -29.484 c 0,-0.924 0.294,-1.68 0.882,-2.268 0.63,-0.63 1.386,-0.945 2.268,-0.945 z m 49.572,24.381 c 0,3.36 -0.735,6.342 -2.205,8.946 -1.47,2.562 -3.465,4.578 -5.985,6.048 -2.52,1.47 -5.355,2.205 -8.505,2.205 -3.15,0 -5.985,-0.735 -8.505,-2.205 -2.52,-1.47 -4.536,-3.486 -6.048,-6.048 -1.47,-2.604 -2.205,-5.586 -2.205,-8.946 0,-3.402 0.735,-6.384 2.205,-8.946 1.512,-2.604 3.528,-4.641 6.048,-6.111 2.52,-1.512 5.355,-2.268 8.505,-2.268 3.15,0 5.985,0.756 8.505,2.268 2.52,1.47 4.515,3.507 5.985,6.111 1.47,2.562 2.205,5.544 2.205,8.946 z m -6.3,0 c 0,-2.31 -0.462,-4.305 -1.386,-5.985 -0.924,-1.722 -2.184,-3.066 -3.78,-4.032 -1.554,-1.008 -3.297,-1.512 -5.229,-1.512 -1.932,0 -3.696,0.504 -5.292,1.512 -1.596,0.966 -2.856,2.31 -3.78,4.032 -0.924,1.68 -1.386,3.675 -1.386,5.985 0,2.226 0.462,4.2 1.386,5.922 0.924,1.722 2.184,3.066 3.78,4.032 1.596,0.966 3.36,1.449 5.292,1.449 1.932,0 3.675,-0.483 5.229,-1.449 1.596,-0.966 2.856,-2.31 3.78,-4.032 0.924,-1.722 1.386,-3.696 1.386,-5.922 z m 69.584,-16.884 c 0.798,0 1.491,0.315 2.079,0.945 0.63,0.588 0.945,1.365 0.945,2.331 0,0.21 -0.021,0.42 -0.063,0.63 -0.042,0.21 -0.105,0.399 -0.189,0.567 l -9.639,26.964 c -0.252,0.714 -0.693,1.26 -1.323,1.638 -0.63,0.336 -1.281,0.462 -1.953,0.378 -1.218,-0.084 -2.121,-0.756 -2.709,-2.016 l -7.119,-18.9 1.449,0.126 -6.552,18.774 c -0.588,1.26 -1.491,1.932 -2.709,2.016 -0.63,0.084 -1.281,-0.042 -1.953,-0.378 -0.63,-0.378 -1.071,-0.924 -1.323,-1.638 l -9.702,-26.964 c -0.168,-0.378 -0.252,-0.777 -0.252,-1.197 0,-0.882 0.273,-1.638 0.819,-2.268 0.588,-0.672 1.365,-1.008 2.331,-1.008 0.672,0 1.26,0.168 1.764,0.504 0.546,0.336 0.924,0.84 1.134,1.512 l 8.064,22.743 -1.449,-0.126 6.552,-17.199 c 0.546,-1.302 1.512,-1.953 2.898,-1.953 0.756,0 1.344,0.168 1.764,0.504 0.42,0.336 0.756,0.819 1.008,1.449 l 6.678,17.262 -1.701,0.189 8.127,-22.869 c 0.42,-1.344 1.428,-2.016 3.024,-2.016 z m 15.353,30.24 c 0,0.924 -0.294,1.701 -0.882,2.331 -0.588,0.588 -1.344,0.882 -2.268,0.882 -0.882,0 -1.638,-0.294 -2.268,-0.882 -0.588,-0.63 -0.882,-1.407 -0.882,-2.331 v -26.964 c 0,-0.924 0.294,-1.68 0.882,-2.268 0.63,-0.63 1.386,-0.945 2.268,-0.945 0.924,0 1.68,0.315 2.268,0.945 0.588,0.588 0.882,1.344 0.882,2.268 z m -3.213,-34.335 c -1.218,0 -2.1,-0.21 -2.646,-0.63 -0.546,-0.462 -0.819,-1.218 -0.819,-2.268 v -1.008 c 0,-1.05 0.294,-1.785 0.882,-2.205 0.588,-0.42 1.47,-0.63 2.646,-0.63 1.26,0 2.163,0.231 2.709,0.693 0.546,0.42 0.819,1.134 0.819,2.142 v 1.008 c 0,1.092 -0.294,1.848 -0.882,2.268 -0.546,0.42 -1.449,0.63 -2.709,0.63 z m 28.76,3.654 c 2.982,0 5.292,0.63 6.93,1.89 1.638,1.218 2.772,2.877 3.402,4.977 0.672,2.058 1.008,4.368 1.008,6.93 v 16.884 c 0,0.924 -0.315,1.701 -0.945,2.331 -0.588,0.588 -1.323,0.882 -2.205,0.882 -0.924,0 -1.68,-0.294 -2.268,-0.882 -0.588,-0.63 -0.882,-1.407 -0.882,-2.331 v -16.821 c 0,-1.512 -0.21,-2.856 -0.63,-4.032 -0.42,-1.218 -1.155,-2.184 -2.205,-2.898 -1.008,-0.756 -2.436,-1.134 -4.284,-1.134 -1.722,0 -3.234,0.378 -4.536,1.134 -1.302,0.714 -2.331,1.68 -3.087,2.898 -0.714,1.176 -1.071,2.52 -1.071,4.032 v 16.821 c 0,0.924 -0.315,1.701 -0.945,2.331 -0.588,0.588 -1.323,0.882 -2.205,0.882 -0.924,0 -1.68,-0.294 -2.268,-0.882 -0.588,-0.63 -0.882,-1.407 -0.882,-2.331 v -26.712 c 0,-0.924 0.294,-1.68 0.882,-2.268 0.588,-0.63 1.344,-0.945 2.268,-0.945 0.882,0 1.617,0.315 2.205,0.945 0.63,0.588 0.945,1.344 0.945,2.268 v 3.528 l -1.134,0.63 c 0.294,-0.924 0.798,-1.848 1.512,-2.772 0.756,-0.966 1.659,-1.848 2.709,-2.646 1.05,-0.84 2.226,-1.491 3.528,-1.953 1.302,-0.504 2.688,-0.756 4.158,-0.756 z m 22.481,33.831 c -1.05,0 -1.869,-0.294 -2.457,-0.882 -0.546,-0.588 -0.819,-1.407 -0.819,-2.457 v -1.134 c 0,-1.05 0.273,-1.869 0.819,-2.457 0.588,-0.588 1.407,-0.882 2.457,-0.882 h 0.693 c 1.05,0 1.848,0.294 2.394,0.882 0.546,0.588 0.819,1.407 0.819,2.457 v 1.134 c 0,1.05 -0.273,1.869 -0.819,2.457 -0.546,0.588 -1.344,0.882 -2.394,0.882 z"
     fill="white"
     id="path45"
     style="fill:#000000;fill-opacity:1" /><path
     d="m 345.84084,224.70395 c 0.963,0 1.757,0.337 2.383,1.011 0.674,0.626 1.011,1.42 1.011,2.383 0,0.962 -0.337,1.757 -1.011,2.382 -0.626,0.626 -1.42,0.939 -2.383,0.939 h -25.343 c -1.059,0 -1.902,-0.313 -2.527,-0.939 -0.626,-0.625 -0.939,-1.468 -0.939,-2.527 0,-0.962 0.337,-1.829 1.011,-2.599 l 16.101,-17.401 c 2.07,-2.214 3.659,-4.405 4.766,-6.571 1.155,-2.166 1.733,-4.067 1.733,-5.704 0,-2.647 -0.795,-4.789 -2.383,-6.426 -1.589,-1.637 -3.682,-2.455 -6.282,-2.455 -1.107,0 -2.238,0.265 -3.393,0.794 -1.108,0.482 -2.166,1.156 -3.177,2.022 -0.963,0.818 -1.805,1.781 -2.527,2.888 -0.482,0.674 -0.963,1.107 -1.445,1.3 -0.481,0.192 -0.938,0.289 -1.371,0.289 -0.915,0 -1.757,-0.313 -2.528,-0.939 -0.722,-0.674 -1.083,-1.444 -1.083,-2.31 0,-0.674 0.217,-1.324 0.65,-1.95 0.433,-0.626 0.987,-1.276 1.661,-1.949 1.059,-1.3 2.335,-2.455 3.827,-3.466 1.54,-1.059 3.153,-1.878 4.837,-2.455 1.685,-0.578 3.346,-0.867 4.982,-0.867 3.177,0 5.921,0.626 8.232,1.878 2.358,1.251 4.163,3.008 5.415,5.271 1.3,2.262 1.949,4.934 1.949,8.014 0,2.6 -0.794,5.488 -2.382,8.665 -1.541,3.128 -3.707,6.209 -6.499,9.242 l -11.191,12.202 -0.794,-0.722 z"
     fill="#ffffff"
     id="path46" /><path
     d="m 345.84084,138.70395 c 0.963,0 1.757,0.337 2.383,1.011 0.674,0.626 1.011,1.42 1.011,2.383 0,0.962 -0.337,1.757 -1.011,2.382 -0.626,0.626 -1.42,0.939 -2.383,0.939 h -25.343 c -1.059,0 -1.902,-0.313 -2.527,-0.939 -0.626,-0.625 -0.939,-1.468 -0.939,-2.527 0,-0.962 0.337,-1.829 1.011,-2.599 l 16.101,-17.401 c 2.07,-2.214 3.659,-4.405 4.766,-6.571 1.155,-2.166 1.733,-4.067 1.733,-5.704 0,-2.647 -0.795,-4.789 -2.383,-6.426 -1.589,-1.637 -3.682,-2.455 -6.282,-2.455 -1.107,0 -2.238,0.265 -3.393,0.794 -1.108,0.482 -2.166,1.156 -3.177,2.022 -0.963,0.818 -1.805,1.781 -2.527,2.888 -0.482,0.674 -0.963,1.107 -1.445,1.3 -0.481,0.192 -0.938,0.289 -1.371,0.289 -0.915,0 -1.757,-0.313 -2.528,-0.939 -0.722,-0.674 -1.083,-1.444 -1.083,-2.31 0,-0.674 0.217,-1.324 0.65,-1.95 0.433,-0.626 0.987,-1.276 1.661,-1.949 1.059,-1.299997 2.335,-2.454997 3.827,-3.465997 1.54,-1.059 3.153,-1.878 4.837,-2.455 1.685,-0.578 3.346,-0.867 4.982,-0.867 3.177,0 5.921,0.626 8.232,1.878 2.358,1.251 4.163,3.008 5.415,5.270997 1.3,2.262 1.949,4.934 1.949,8.014 0,2.6 -0.794,5.488 -2.382,8.665 -1.541,3.128 -3.707,6.209 -6.499,9.242 l -11.191,12.202 -0.794,-0.722 z"
     fill="#ffffff"
     id="path47" /><path
     d="m 329.30684,389.41895 c -1.107,0 -2.022,-0.337 -2.744,-1.011 -0.722,-0.722 -1.083,-1.612 -1.083,-2.671 v -38.702 l 0.939,1.3 -6.715,4.693 c -0.578,0.482 -1.276,0.722 -2.094,0.722 -0.963,0 -1.829,-0.361 -2.6,-1.083 -0.722,-0.77 -1.083,-1.66 -1.083,-2.671 0,-1.252 0.626,-2.287 1.878,-3.105 l 10.975,-7.293 c 0.433,-0.288 0.89,-0.481 1.371,-0.577 0.53,-0.096 1.011,-0.145 1.444,-0.145 1.108,0 1.998,0.361 2.672,1.084 0.674,0.673 1.011,1.54 1.011,2.599 v 43.178 c 0,1.059 -0.385,1.949 -1.155,2.671 -0.722,0.674 -1.661,1.011 -2.816,1.011 z"
     fill="#ffffff"
     id="path48" /><path
     d="m 414.30684,389.41895 c -1.107,0 -2.022,-0.337 -2.744,-1.011 -0.722,-0.722 -1.083,-1.612 -1.083,-2.671 v -38.702 l 0.939,1.3 -6.715,4.693 c -0.578,0.482 -1.276,0.722 -2.094,0.722 -0.963,0 -1.829,-0.361 -2.6,-1.083 -0.722,-0.77 -1.083,-1.66 -1.083,-2.671 0,-1.252 0.626,-2.287 1.878,-3.105 l 10.975,-7.293 c 0.433,-0.288 0.89,-0.481 1.371,-0.577 0.53,-0.096 1.011,-0.145 1.444,-0.145 1.108,0 1.998,0.361 2.672,1.084 0.674,0.673 1.011,1.54 1.011,2.599 v 43.178 c 0,1.059 -0.385,1.949 -1.155,2.671 -0.722,0.674 -1.661,1.011 -2.816,1.011 z"
     fill="#ffffff"
     id="path49" /><path
     d="m 418.30684,474.41895 c -1.107,0 -2.022,-0.337 -2.744,-1.011 -0.722,-0.722 -1.083,-1.612 -1.083,-2.671 v -38.702 l 0.939,1.3 -6.715,4.693 c -0.578,0.482 -1.276,0.722 -2.094,0.722 -0.963,0 -1.829,-0.361 -2.6,-1.083 -0.722,-0.77 -1.083,-1.66 -1.083,-2.671 0,-1.252 0.626,-2.287 1.878,-3.105 l 10.975,-7.293 c 0.433,-0.288 0.89,-0.481 1.371,-0.577 0.53,-0.096 1.011,-0.145 1.444,-0.145 1.108,0 1.998,0.361 2.672,1.084 0.674,0.673 1.011,1.54 1.011,2.599 v 43.178 c 0,1.059 -0.385,1.949 -1.155,2.671 -0.722,0.674 -1.661,1.011 -2.816,1.011 z"
     fill="#ffffff"
     id="path50" /><path
     d="m 499.30684,474.41895 c -1.107,0 -2.022,-0.337 -2.744,-1.011 -0.722,-0.722 -1.083,-1.612 -1.083,-2.671 v -38.702 l 0.939,1.3 -6.715,4.693 c -0.578,0.482 -1.276,0.722 -2.094,0.722 -0.963,0 -1.829,-0.361 -2.6,-1.083 -0.722,-0.77 -1.083,-1.66 -1.083,-2.671 0,-1.252 0.626,-2.287 1.878,-3.105 l 10.975,-7.293 c 0.433,-0.288 0.89,-0.481 1.371,-0.577 0.53,-0.096 1.011,-0.145 1.444,-0.145 1.108,0 1.998,0.361 2.672,1.084 0.674,0.673 1.011,1.54 1.011,2.599 v 43.178 c 0,1.059 -0.385,1.949 -1.155,2.671 -0.722,0.674 -1.661,1.011 -2.816,1.011 z"
     fill="#ffffff"
     id="path51" /><path
     d="m 580.30684,474.41895 c -1.107,0 -2.022,-0.337 -2.744,-1.011 -0.722,-0.722 -1.083,-1.612 -1.083,-2.671 v -38.702 l 0.939,1.3 -6.715,4.693 c -0.578,0.482 -1.276,0.722 -2.094,0.722 -0.963,0 -1.829,-0.361 -2.6,-1.083 -0.722,-0.77 -1.083,-1.66 -1.083,-2.671 0,-1.252 0.626,-2.287 1.878,-3.105 l 10.975,-7.293 c 0.433,-0.288 0.89,-0.481 1.371,-0.577 0.53,-0.096 1.011,-0.145 1.444,-0.145 1.108,0 1.998,0.361 2.672,1.084 0.674,0.673 1.011,1.54 1.011,2.599 v 43.178 c 0,1.059 -0.385,1.949 -1.155,2.671 -0.722,0.674 -1.661,1.011 -2.816,1.011 z"
     fill="#ffffff"
     id="path52" /><path
     d="m 575.30684,390.41895 c -1.107,0 -2.022,-0.337 -2.744,-1.011 -0.722,-0.722 -1.083,-1.612 -1.083,-2.671 v -38.702 l 0.939,1.3 -6.715,4.693 c -0.578,0.482 -1.276,0.722 -2.094,0.722 -0.963,0 -1.829,-0.361 -2.6,-1.083 -0.722,-0.77 -1.083,-1.66 -1.083,-2.671 0,-1.252 0.626,-2.287 1.878,-3.105 l 10.975,-7.293 c 0.433,-0.288 0.89,-0.481 1.371,-0.577 0.53,-0.096 1.011,-0.145 1.444,-0.145 1.108,0 1.998,0.361 2.672,1.084 0.674,0.673 1.011,1.54 1.011,2.599 v 43.178 c 0,1.059 -0.385,1.949 -1.155,2.671 -0.722,0.674 -1.661,1.011 -2.816,1.011 z"
     fill="#ffffff"
     id="path53" /><path
     d="m 329.30684,310.41895 c -1.107,0 -2.022,-0.337 -2.744,-1.011 -0.722,-0.722 -1.083,-1.612 -1.083,-2.671 v -38.702 l 0.939,1.3 -6.715,4.693 c -0.578,0.482 -1.276,0.722 -2.094,0.722 -0.963,0 -1.829,-0.361 -2.6,-1.083 -0.722,-0.77 -1.083,-1.66 -1.083,-2.671 0,-1.252 0.626,-2.287 1.878,-3.105 l 10.975,-7.293 c 0.433,-0.288 0.89,-0.481 1.371,-0.577 0.53,-0.096 1.011,-0.145 1.444,-0.145 1.108,0 1.998,0.361 2.672,1.084 0.674,0.673 1.011,1.54 1.011,2.599 v 43.178 c 0,1.059 -0.385,1.949 -1.155,2.671 -0.722,0.674 -1.661,1.011 -2.816,1.011 z"
     fill="#ffffff"
     id="path54" /><path
     d="m 253.30684,229.41895 c -1.107,0 -2.022,-0.337 -2.744,-1.011 -0.722,-0.722 -1.083,-1.612 -1.083,-2.671 v -38.702 l 0.939,1.3 -6.715,4.693 c -0.578,0.482 -1.276,0.722 -2.094,0.722 -0.963,0 -1.829,-0.361 -2.6,-1.083 -0.722,-0.77 -1.083,-1.66 -1.083,-2.671 0,-1.252 0.626,-2.287 1.878,-3.105 l 10.975,-7.293 c 0.433,-0.288 0.89,-0.481 1.371,-0.577 0.53,-0.096 1.011,-0.145 1.444,-0.145 1.108,0 1.998,0.361 2.672,1.084 0.674,0.673 1.011,1.54 1.011,2.599 v 43.178 c 0,1.059 -0.385,1.949 -1.155,2.671 -0.722,0.674 -1.661,1.011 -2.816,1.011 z"
     fill="#ffffff"
     id="path55" /><path
     d="m 255.30684,310.41895 c -1.107,0 -2.022,-0.337 -2.744,-1.011 -0.722,-0.722 -1.083,-1.612 -1.083,-2.671 v -38.702 l 0.939,1.3 -6.715,4.693 c -0.578,0.482 -1.276,0.722 -2.094,0.722 -0.963,0 -1.829,-0.361 -2.6,-1.083 -0.722,-0.77 -1.083,-1.66 -1.083,-2.671 0,-1.252 0.626,-2.287 1.878,-3.105 l 10.975,-7.293 c 0.433,-0.288 0.89,-0.481 1.371,-0.577 0.53,-0.096 1.011,-0.145 1.444,-0.145 1.108,0 1.998,0.361 2.672,1.084 0.674,0.673 1.011,1.54 1.011,2.599 v 43.178 c 0,1.059 -0.385,1.949 -1.155,2.671 -0.722,0.674 -1.661,1.011 -2.816,1.011 z"
     fill="#ffffff"
     id="path56" /><path
     d="m 257.30684,468.41895 c -1.107,0 -2.022,-0.337 -2.744,-1.011 -0.722,-0.722 -1.083,-1.612 -1.083,-2.671 v -38.702 l 0.939,1.3 -6.715,4.693 c -0.578,0.482 -1.276,0.722 -2.094,0.722 -0.963,0 -1.829,-0.361 -2.6,-1.083 -0.722,-0.77 -1.083,-1.66 -1.083,-2.671 0,-1.252 0.626,-2.287 1.878,-3.105 l 10.975,-7.293 c 0.433,-0.288 0.89,-0.481 1.371,-0.577 0.53,-0.096 1.011,-0.145 1.444,-0.145 1.108,0 1.998,0.361 2.672,1.084 0.674,0.673 1.011,1.54 1.011,2.599 v 43.178 c 0,1.059 -0.385,1.949 -1.155,2.671 -0.722,0.674 -1.661,1.011 -2.816,1.011 z"
     fill="#ffffff"
     id="path57" /><path
     d="m 403.91984,222.17695 c 0.385,0 0.794,0.072 1.228,0.217 0.433,0.096 0.914,0.336 1.444,0.722 0.866,0.77 1.901,1.42 3.104,1.949 1.252,0.481 2.672,0.722 4.26,0.722 1.782,0 3.442,-0.409 4.983,-1.227 1.54,-0.867 2.791,-2.07 3.754,-3.611 0.963,-1.54 1.444,-3.369 1.444,-5.487 0,-2.166 -0.457,-3.923 -1.372,-5.271 -0.914,-1.396 -2.094,-2.431 -3.538,-3.105 -1.444,-0.722 -2.96,-1.083 -4.548,-1.083 -0.915,0 -1.685,0.097 -2.311,0.289 -0.626,0.145 -1.227,0.313 -1.805,0.506 -0.578,0.144 -1.203,0.216 -1.877,0.216 -0.915,0 -1.637,-0.313 -2.166,-0.938 -0.53,-0.674 -0.795,-1.469 -0.795,-2.383 0,-0.578 0.121,-1.083 0.361,-1.516 0.241,-0.434 0.578,-0.915 1.011,-1.445 l 13.358,-14.296 1.588,1.444 h -19.134 c -0.962,0 -1.781,-0.313 -2.455,-0.938 -0.625,-0.674 -0.938,-1.493 -0.938,-2.455 0,-0.915 0.313,-1.685 0.938,-2.311 0.674,-0.626 1.493,-0.939 2.455,-0.939 h 22.817 c 1.251,0 2.166,0.361 2.743,1.084 0.626,0.722 0.939,1.564 0.939,2.527 0,0.529 -0.144,1.035 -0.433,1.516 -0.241,0.481 -0.554,0.939 -0.939,1.372 l -13.43,14.441 -1.805,-1.95 c 0.385,-0.193 1.035,-0.385 1.95,-0.578 0.914,-0.192 1.66,-0.288 2.238,-0.288 2.744,0 5.199,0.698 7.365,2.093 2.214,1.396 3.923,3.274 5.126,5.632 1.252,2.311 1.878,4.934 1.878,7.871 0,3.513 -0.795,6.57 -2.383,9.169 -1.589,2.552 -3.803,4.525 -6.643,5.921 -2.792,1.396 -6.017,2.094 -9.675,2.094 -1.829,0 -3.659,-0.241 -5.488,-0.722 -1.781,-0.529 -3.321,-1.276 -4.621,-2.238 -0.818,-0.482 -1.372,-0.987 -1.66,-1.517 -0.289,-0.577 -0.434,-1.131 -0.434,-1.66 0,-0.915 0.313,-1.781 0.939,-2.6 0.674,-0.818 1.516,-1.227 2.527,-1.227 z"
     fill="#ffffff"
     id="path58" /><path
     d="m 482.91984,301.17695 c 0.385,0 0.794,0.072 1.228,0.217 0.433,0.096 0.914,0.336 1.444,0.722 0.866,0.77 1.901,1.42 3.104,1.949 1.252,0.481 2.672,0.722 4.26,0.722 1.782,0 3.442,-0.409 4.983,-1.227 1.54,-0.867 2.791,-2.07 3.754,-3.611 0.963,-1.54 1.444,-3.369 1.444,-5.487 0,-2.166 -0.457,-3.923 -1.372,-5.271 -0.914,-1.396 -2.094,-2.431 -3.538,-3.105 -1.444,-0.722 -2.96,-1.083 -4.548,-1.083 -0.915,0 -1.685,0.097 -2.311,0.289 -0.626,0.145 -1.227,0.313 -1.805,0.506 -0.578,0.144 -1.203,0.216 -1.877,0.216 -0.915,0 -1.637,-0.313 -2.166,-0.938 -0.53,-0.674 -0.795,-1.469 -0.795,-2.383 0,-0.578 0.121,-1.083 0.361,-1.516 0.241,-0.434 0.578,-0.915 1.011,-1.445 l 13.358,-14.296 1.588,1.444 h -19.134 c -0.962,0 -1.781,-0.313 -2.455,-0.938 -0.625,-0.674 -0.938,-1.493 -0.938,-2.455 0,-0.915 0.313,-1.685 0.938,-2.311 0.674,-0.626 1.493,-0.939 2.455,-0.939 h 22.817 c 1.251,0 2.166,0.361 2.743,1.084 0.626,0.722 0.939,1.564 0.939,2.527 0,0.529 -0.144,1.035 -0.433,1.516 -0.241,0.481 -0.554,0.939 -0.939,1.372 l -13.43,14.441 -1.805,-1.95 c 0.385,-0.193 1.035,-0.385 1.95,-0.578 0.914,-0.192 1.66,-0.288 2.238,-0.288 2.744,0 5.199,0.698 7.365,2.093 2.214,1.396 3.923,3.274 5.126,5.632 1.252,2.311 1.878,4.934 1.878,7.871 0,3.513 -0.795,6.57 -2.383,9.169 -1.589,2.552 -3.803,4.525 -6.643,5.921 -2.792,1.396 -6.017,2.094 -9.675,2.094 -1.829,0 -3.659,-0.241 -5.488,-0.722 -1.781,-0.529 -3.321,-1.276 -4.621,-2.238 -0.818,-0.482 -1.372,-0.987 -1.66,-1.517 -0.289,-0.577 -0.434,-1.131 -0.434,-1.66 0,-0.915 0.313,-1.781 0.939,-2.6 0.674,-0.818 1.516,-1.227 2.527,-1.227 z"
     fill="#ffffff"
     id="path59" /><path
     d="m 560.91984,301.17695 c 0.385,0 0.794,0.072 1.228,0.217 0.433,0.096 0.914,0.336 1.444,0.722 0.866,0.77 1.901,1.42 3.104,1.949 1.252,0.481 2.672,0.722 4.26,0.722 1.782,0 3.442,-0.409 4.983,-1.227 1.54,-0.867 2.791,-2.07 3.754,-3.611 0.963,-1.54 1.444,-3.369 1.444,-5.487 0,-2.166 -0.457,-3.923 -1.372,-5.271 -0.914,-1.396 -2.094,-2.431 -3.538,-3.105 -1.444,-0.722 -2.96,-1.083 -4.548,-1.083 -0.915,0 -1.685,0.097 -2.311,0.289 -0.626,0.145 -1.227,0.313 -1.805,0.506 -0.578,0.144 -1.203,0.216 -1.877,0.216 -0.915,0 -1.637,-0.313 -2.166,-0.938 -0.53,-0.674 -0.795,-1.469 -0.795,-2.383 0,-0.578 0.121,-1.083 0.361,-1.516 0.241,-0.434 0.578,-0.915 1.011,-1.445 l 13.358,-14.296 1.588,1.444 h -19.134 c -0.962,0 -1.781,-0.313 -2.455,-0.938 -0.625,-0.674 -0.938,-1.493 -0.938,-2.455 0,-0.915 0.313,-1.685 0.938,-2.311 0.674,-0.626 1.493,-0.939 2.455,-0.939 h 22.817 c 1.251,0 2.166,0.361 2.743,1.084 0.626,0.722 0.939,1.564 0.939,2.527 0,0.529 -0.144,1.035 -0.433,1.516 -0.241,0.481 -0.554,0.939 -0.939,1.372 l -13.43,14.441 -1.805,-1.95 c 0.385,-0.193 1.035,-0.385 1.95,-0.578 0.914,-0.192 1.66,-0.288 2.238,-0.288 2.744,0 5.199,0.698 7.365,2.093 2.214,1.396 3.923,3.274 5.126,5.632 1.252,2.311 1.878,4.934 1.878,7.871 0,3.513 -0.795,6.57 -2.383,9.169 -1.589,2.552 -3.803,4.525 -6.643,5.921 -2.792,1.396 -6.017,2.094 -9.675,2.094 -1.829,0 -3.659,-0.241 -5.488,-0.722 -1.781,-0.529 -3.321,-1.276 -4.621,-2.238 -0.818,-0.482 -1.372,-0.987 -1.66,-1.517 -0.289,-0.577 -0.434,-1.131 -0.434,-1.66 0,-0.915 0.313,-1.781 0.939,-2.6 0.674,-0.818 1.516,-1.227 2.527,-1.227 z"
     fill="#ffffff"
     id="path60" /><path
     d="m 560.91984,136.17695 c 0.385,0 0.794,0.072 1.228,0.217 0.433,0.096 0.914,0.336 1.444,0.722 0.866,0.77 1.901,1.42 3.104,1.949 1.252,0.481 2.672,0.722 4.26,0.722 1.782,0 3.442,-0.409 4.983,-1.227 1.54,-0.867 2.791,-2.07 3.754,-3.611 0.963,-1.54 1.444,-3.369 1.444,-5.487 0,-2.166 -0.457,-3.923 -1.372,-5.271 -0.914,-1.396 -2.094,-2.431 -3.538,-3.105 -1.444,-0.722 -2.96,-1.083 -4.548,-1.083 -0.915,0 -1.685,0.097 -2.311,0.289 -0.626,0.145 -1.227,0.313 -1.805,0.506 -0.578,0.144 -1.203,0.216 -1.877,0.216 -0.915,0 -1.637,-0.313 -2.166,-0.938 -0.53,-0.674 -0.795,-1.469 -0.795,-2.383 0,-0.578 0.121,-1.083 0.361,-1.516 0.241,-0.434 0.578,-0.915 1.011,-1.445 l 13.358,-14.296 1.588,1.444 h -19.134 c -0.962,0 -1.781,-0.313 -2.455,-0.938 -0.625,-0.674 -0.938,-1.492997 -0.938,-2.454997 0,-0.915 0.313,-1.685 0.938,-2.311 0.674,-0.626 1.493,-0.939 2.455,-0.939 h 22.817 c 1.251,0 2.166,0.361 2.743,1.084 0.626,0.722 0.939,1.564 0.939,2.527 0,0.529 -0.144,1.035 -0.433,1.515997 -0.241,0.481 -0.554,0.939 -0.939,1.372 l -13.43,14.441 -1.805,-1.95 c 0.385,-0.193 1.035,-0.385 1.95,-0.578 0.914,-0.192 1.66,-0.288 2.238,-0.288 2.744,0 5.199,0.698 7.365,2.093 2.214,1.396 3.923,3.274 5.126,5.632 1.252,2.311 1.878,4.934 1.878,7.871 0,3.513 -0.795,6.57 -2.383,9.169 -1.589,2.552 -3.803,4.525 -6.643,5.921 -2.792,1.396 -6.017,2.094 -9.675,2.094 -1.829,0 -3.659,-0.241 -5.488,-0.722 -1.781,-0.529 -3.321,-1.276 -4.621,-2.238 -0.818,-0.482 -1.372,-0.987 -1.66,-1.517 -0.289,-0.577 -0.434,-1.131 -0.434,-1.66 0,-0.915 0.313,-1.781 0.939,-2.6 0.674,-0.818 1.516,-1.227 2.527,-1.227 z"
     fill="#ffffff"
     id="path61" /><path
     d="m 424.84084,303.70395 c 0.963,0 1.757,0.337 2.383,1.011 0.674,0.626 1.011,1.42 1.011,2.383 0,0.962 -0.337,1.757 -1.011,2.382 -0.626,0.626 -1.42,0.939 -2.383,0.939 h -25.343 c -1.059,0 -1.902,-0.313 -2.527,-0.939 -0.626,-0.625 -0.939,-1.468 -0.939,-2.527 0,-0.962 0.337,-1.829 1.011,-2.599 l 16.101,-17.401 c 2.07,-2.214 3.659,-4.405 4.766,-6.571 1.155,-2.166 1.733,-4.067 1.733,-5.704 0,-2.647 -0.795,-4.789 -2.383,-6.426 -1.589,-1.637 -3.682,-2.455 -6.282,-2.455 -1.107,0 -2.238,0.265 -3.393,0.794 -1.108,0.482 -2.166,1.156 -3.177,2.022 -0.963,0.818 -1.805,1.781 -2.527,2.888 -0.482,0.674 -0.963,1.107 -1.445,1.3 -0.481,0.192 -0.938,0.289 -1.371,0.289 -0.915,0 -1.757,-0.313 -2.528,-0.939 -0.722,-0.674 -1.083,-1.444 -1.083,-2.31 0,-0.674 0.217,-1.324 0.65,-1.95 0.433,-0.626 0.987,-1.276 1.661,-1.949 1.059,-1.3 2.335,-2.455 3.827,-3.466 1.54,-1.059 3.153,-1.878 4.837,-2.455 1.685,-0.578 3.346,-0.867 4.982,-0.867 3.177,0 5.921,0.626 8.232,1.878 2.358,1.251 4.163,3.008 5.415,5.271 1.3,2.262 1.949,4.934 1.949,8.014 0,2.6 -0.794,5.488 -2.382,8.665 -1.541,3.128 -3.707,6.209 -6.499,9.242 l -11.191,12.202 -0.794,-0.722 z"
     fill="#ffffff"
     id="path62" /><circle
     cx="250.91084"
     cy="123.10594"
     r="16.335501"
     fill="#1B1B1B"
     id="circle62"
     style="fill:#003d4c;fill-opacity:1" /><rect
     x="248.02785"
     y="97.418945"
     width="5.7654901"
     height="16.399599"
     rx="2.88274"
     fill="#1B1B1B"
     id="rect62"
     style="fill:#003d4c;fill-opacity:1" /><rect
     x="248.02785"
     y="132.01294"
     width="5.7654901"
     height="16.399599"
     rx="2.88274"
     fill="#1B1B1B"
     id="rect63"
     style="fill:#003d4c;fill-opacity:1" /><rect
     x="120.02795"
     y="-276.40286"
     width="5.7654901"
     height="16.399599"
     rx="2.88274"
     transform="rotate(90)"
     fill="#1B1B1B"
     id="rect64"
     style="fill:#003d4c;fill-opacity:1" /><rect
     x="120.02795"
     y="-241.80885"
     width="5.7654901"
     height="16.399599"
     rx="2.88274"
     transform="rotate(90)"
     fill="#1B1B1B"
     id="rect65"
     style="fill:#003d4c;fill-opacity:1" /><rect
     x="-93.393158"
     y="-289.83163"
     width="5.7654901"
     height="16.399599"
     rx="2.88274"
     transform="rotate(135)"
     fill="#1B1B1B"
     id="rect66"
     style="fill:#003d4c;fill-opacity:1" /><rect
     x="-93.388222"
     y="-255.23358"
     width="5.7654901"
     height="16.399599"
     rx="2.88274"
     transform="rotate(135)"
     fill="#1B1B1B"
     id="rect67"
     style="fill:#003d4c;fill-opacity:1" /><rect
     x="-267.21552"
     y="65.009903"
     width="5.7654901"
     height="16.399599"
     rx="2.88274"
     transform="rotate(-135)"
     fill="#1B1B1B"
     id="rect68"
     style="fill:#003d4c;fill-opacity:1" /><rect
     x="-267.21622"
     y="99.602272"
     width="5.7654901"
     height="16.399599"
     rx="2.88274"
     transform="rotate(-135)"
     fill="#1B1B1B"
     id="rect69"
     style="fill:#003d4c;fill-opacity:1" /><circle
     cx="494.91086"
     cy="203.10594"
     r="16.335501"
     fill="#1B1B1B"
     id="circle69"
     style="fill:#003d4c;fill-opacity:1" /><rect
     x="492.01987"
     y="177.41895"
     width="5.7654901"
     height="16.399599"
     rx="2.88274"
     fill="#1B1B1B"
     id="rect70"
     style="fill:#003d4c;fill-opacity:1" /><rect
     x="492.01987"
     y="212.01294"
     width="5.7654901"
     height="16.399599"
     rx="2.88274"
     fill="#1B1B1B"
     id="rect71"
     style="fill:#003d4c;fill-opacity:1" /><rect
     x="200.02795"
     y="-520.40283"
     width="5.7654901"
     height="16.399599"
     rx="2.88274"
     transform="rotate(90)"
     fill="#1B1B1B"
     id="rect72"
     style="fill:#003d4c;fill-opacity:1" /><rect
     x="200.02795"
     y="-485.80887"
     width="5.7654901"
     height="16.399599"
     rx="2.88274"
     transform="rotate(90)"
     fill="#1B1B1B"
     id="rect73"
     style="fill:#003d4c;fill-opacity:1" /><rect
     x="-209.35301"
     y="-518.92853"
     width="5.7654901"
     height="16.399599"
     rx="2.88274"
     transform="rotate(135)"
     fill="#1B1B1B"
     id="rect74"
     style="fill:#003d4c;fill-opacity:1" /><rect
     x="-209.35374"
     y="-484.33618"
     width="5.7654901"
     height="16.399599"
     rx="2.88274"
     transform="rotate(135)"
     fill="#1B1B1B"
     id="rect75"
     style="fill:#003d4c;fill-opacity:1" /><rect
     x="-496.31812"
     y="180.97543"
     width="5.7654901"
     height="16.399599"
     rx="2.88274"
     transform="rotate(-135)"
     fill="#1B1B1B"
     id="rect76"
     style="fill:#003d4c;fill-opacity:1" /><rect
     x="-496.31879"
     y="215.56779"
     width="5.7654901"
     height="16.399599"
     rx="2.88274"
     transform="rotate(-135)"
     fill="#1B1B1B"
     id="rect77"
     style="fill:#003d4c;fill-opacity:1" /><circle
     cx="412.43472"
     cy="122.26776"
     r="16.335501"
     fill="#1b1b1b"
     id="circle77"
     style="fill:#003d4c;fill-opacity:1" /><rect
     x="409.54373"
     y="96.580765"
     width="5.7654901"
     height="16.399599"
     rx="2.88274"
     fill="#1b1b1b"
     id="rect78"
     style="fill:#003d4c;fill-opacity:1" /><rect
     x="409.54373"
     y="131.17476"
     width="5.7654901"
     height="16.399599"
     rx="2.88274"
     fill="#1b1b1b"
     id="rect79"
     style="fill:#003d4c;fill-opacity:1" /><rect
     x="119.18977"
     y="-437.92673"
     width="5.7654901"
     height="16.399599"
     rx="2.88274"
     transform="rotate(90)"
     fill="#1b1b1b"
     id="rect80"
     style="fill:#003d4c;fill-opacity:1" /><rect
     x="119.18977"
     y="-403.33273"
     width="5.7654901"
     height="16.399599"
     rx="2.88274"
     transform="rotate(90)"
     fill="#1b1b1b"
     id="rect81"
     style="fill:#003d4c;fill-opacity:1" /><rect
     x="-208.19479"
     y="-403.44788"
     width="5.7654901"
     height="16.399599"
     rx="2.88274"
     transform="rotate(135)"
     fill="#1b1b1b"
     id="rect82"
     style="fill:#003d4c;fill-opacity:1" /><rect
     x="-208.19553"
     y="-368.85553"
     width="5.7654901"
     height="16.399599"
     rx="2.88274"
     transform="rotate(135)"
     fill="#1b1b1b"
     id="rect83"
     style="fill:#003d4c;fill-opacity:1" /><rect
     x="-380.83743"
     y="179.8172"
     width="5.7654901"
     height="16.399599"
     rx="2.88274"
     transform="rotate(-135)"
     fill="#1b1b1b"
     id="rect84"
     style="fill:#003d4c;fill-opacity:1" /><rect
     x="-380.83813"
     y="214.40958"
     width="5.7654901"
     height="16.399599"
     rx="2.88274"
     transform="rotate(-135)"
     fill="#1b1b1b"
     id="rect85"
     style="fill:#003d4c;fill-opacity:1" /><circle
     cx="494.91086"
     cy="368.10596"
     r="16.335501"
     fill="#1B1B1B"
     id="circle85"
     style="fill:#003d4c;fill-opacity:1" /><rect
     x="492.02786"
     y="342.41895"
     width="5.7654901"
     height="16.399599"
     rx="2.88274"
     fill="#1B1B1B"
     id="rect86"
     style="fill:#003d4c;fill-opacity:1" /><rect
     x="492.02786"
     y="377.01294"
     width="5.7654901"
     height="16.399599"
     rx="2.88274"
     fill="#1B1B1B"
     id="rect87"
     style="fill:#003d4c;fill-opacity:1" /><rect
     x="365.02795"
     y="-520.40283"
     width="5.7654901"
     height="16.399599"
     rx="2.88274"
     transform="rotate(90)"
     fill="#1B1B1B"
     id="rect88"
     style="fill:#003d4c;fill-opacity:1" /><rect
     x="365.02795"
     y="-485.80887"
     width="5.7654901"
     height="16.399599"
     rx="2.88274"
     transform="rotate(90)"
     fill="#1B1B1B"
     id="rect89"
     style="fill:#003d4c;fill-opacity:1" /><rect
     x="-92.680382"
     y="-635.60114"
     width="5.7654901"
     height="16.399599"
     rx="2.88274"
     transform="rotate(135)"
     fill="#1B1B1B"
     id="rect90"
     style="fill:#003d4c;fill-opacity:1" /><rect
     x="-92.681107"
     y="-601.00879"
     width="5.7654901"
     height="16.399599"
     rx="2.88274"
     transform="rotate(135)"
     fill="#1B1B1B"
     id="rect91"
     style="fill:#003d4c;fill-opacity:1" /><rect
     x="-612.99072"
     y="64.302811"
     width="5.7654901"
     height="16.399599"
     rx="2.88274"
     transform="rotate(-135)"
     fill="#1B1B1B"
     id="rect92"
     style="fill:#003d4c;fill-opacity:1" /><rect
     x="-612.99139"
     y="98.895157"
     width="5.7654901"
     height="16.399599"
     rx="2.88274"
     transform="rotate(-135)"
     fill="#1B1B1B"
     id="rect93"
     style="fill:#003d4c;fill-opacity:1" /><circle
     cx="249.43471"
     cy="368.00119"
     r="16.335501"
     fill="#1b1b1b"
     id="circle93"
     style="fill:#003d4c;fill-opacity:1" /><rect
     x="246.55171"
     y="342.31418"
     width="5.7654901"
     height="16.399599"
     rx="2.88274"
     fill="#1b1b1b"
     id="rect94"
     style="fill:#003d4c;fill-opacity:1" /><rect
     x="246.55171"
     y="376.90817"
     width="5.7654901"
     height="16.399599"
     rx="2.88274"
     fill="#1b1b1b"
     id="rect95"
     style="fill:#003d4c;fill-opacity:1" /><rect
     x="364.92319"
     y="-274.93472"
     width="5.7654901"
     height="16.399599"
     rx="2.88274"
     transform="rotate(90)"
     fill="#1b1b1b"
     id="rect96"
     style="fill:#003d4c;fill-opacity:1" /><rect
     x="364.92319"
     y="-240.34068"
     width="5.7654901"
     height="16.399599"
     rx="2.88274"
     transform="rotate(90)"
     fill="#1b1b1b"
     id="rect97"
     style="fill:#003d4c;fill-opacity:1" /><rect
     x="80.817696"
     y="-461.95483"
     width="5.7654901"
     height="16.399599"
     rx="2.88274"
     transform="rotate(135)"
     fill="#1b1b1b"
     id="rect98"
     style="fill:#003d4c;fill-opacity:1" /><rect
     x="80.817703"
     y="-427.36179"
     width="5.7654901"
     height="16.399599"
     rx="2.88274"
     transform="rotate(135)"
     fill="#1b1b1b"
     id="rect99"
     style="fill:#003d4c;fill-opacity:1" /><rect
     x="-439.33875"
     y="-109.20094"
     width="5.7654901"
     height="16.399599"
     rx="2.88274"
     transform="rotate(-135)"
     fill="#1b1b1b"
     id="rect100"
     style="fill:#003d4c;fill-opacity:1" /><rect
     x="-439.33948"
     y="-74.608604"
     width="5.7654901"
     height="16.399599"
     rx="2.88274"
     transform="rotate(-135)"
     fill="#1b1b1b"
     id="rect101"
     style="fill:#003d4c;fill-opacity:1" /><circle
     cx="492.91788"
     cy="123.10594"
     r="16.335501"
     fill="#1B1B1B"
     id="circle101"
     style="fill:#003d4c;fill-opacity:1" /><rect
     x="490.02786"
     y="97.418945"
     width="5.7654901"
     height="16.399599"
     rx="2.88274"
     fill="#1B1B1B"
     id="rect102"
     style="fill:#003d4c;fill-opacity:1" /><rect
     x="490.02786"
     y="132.01294"
     width="5.7654901"
     height="16.399599"
     rx="2.88274"
     fill="#1B1B1B"
     id="rect103"
     style="fill:#003d4c;fill-opacity:1" /><rect
     x="120.02794"
     y="-518.41083"
     width="5.7654901"
     height="16.399599"
     rx="2.88274"
     transform="rotate(90)"
     fill="#1B1B1B"
     id="rect104"
     style="fill:#003d4c;fill-opacity:1" /><rect
     x="120.02795"
     y="-483.81686"
     width="5.7654901"
     height="16.399599"
     rx="2.88274"
     transform="rotate(90)"
     fill="#1B1B1B"
     id="rect105"
     style="fill:#003d4c;fill-opacity:1" /><rect
     x="-264.513"
     y="-460.95148"
     width="5.7654901"
     height="16.399599"
     rx="2.88274"
     transform="rotate(135)"
     fill="#1B1B1B"
     id="rect106"
     style="fill:#003d4c;fill-opacity:1" /><rect
     x="-264.513"
     y="-426.3584"
     width="5.7654901"
     height="16.399599"
     rx="2.88274"
     transform="rotate(135)"
     fill="#1B1B1B"
     id="rect107"
     style="fill:#003d4c;fill-opacity:1" /><rect
     x="-438.341"
     y="236.13541"
     width="5.7654901"
     height="16.399599"
     rx="2.88274"
     transform="rotate(-135)"
     fill="#1B1B1B"
     id="rect108"
     style="fill:#003d4c;fill-opacity:1" /><rect
     x="-438.33606"
     y="270.72214"
     width="5.7654901"
     height="16.399599"
     rx="2.88274"
     transform="rotate(-135)"
     fill="#1B1B1B"
     id="rect109"
     style="fill:#003d4c;fill-opacity:1" /><circle
     cx="574.91089"
     cy="202.10594"
     r="16.335501"
     fill="#1B1B1B"
     id="circle109"
     style="fill:#003d4c;fill-opacity:1" /><rect
     x="572.02789"
     y="176.41895"
     width="5.7654901"
     height="16.399599"
     rx="2.88274"
     fill="#1B1B1B"
     id="rect110"
     style="fill:#003d4c;fill-opacity:1" /><rect
     x="572.02789"
     y="211.01294"
     width="5.7654901"
     height="16.399599"
     rx="2.88274"
     fill="#1B1B1B"
     id="rect111"
     style="fill:#003d4c;fill-opacity:1" /><rect
     x="199.02794"
     y="-600.41089"
     width="5.7654901"
     height="16.399599"
     rx="2.88274"
     transform="rotate(90)"
     fill="#1B1B1B"
     id="rect112"
     style="fill:#003d4c;fill-opacity:1" /><rect
     x="199.02795"
     y="-565.81689"
     width="5.7654901"
     height="16.399599"
     rx="2.88274"
     transform="rotate(90)"
     fill="#1B1B1B"
     id="rect113"
     style="fill:#003d4c;fill-opacity:1" /><rect
     x="-266.63434"
     y="-574.79559"
     width="5.7654901"
     height="16.399599"
     rx="2.88274"
     transform="rotate(135)"
     fill="#1B1B1B"
     id="rect114"
     style="fill:#003d4c;fill-opacity:1" /><rect
     x="-266.63434"
     y="-540.20258"
     width="5.7654901"
     height="16.399599"
     rx="2.88274"
     transform="rotate(135)"
     fill="#1B1B1B"
     id="rect115"
     style="fill:#003d4c;fill-opacity:1" /><rect
     x="-552.18518"
     y="238.25674"
     width="5.7654901"
     height="16.399599"
     rx="2.88274"
     transform="rotate(-135)"
     fill="#1B1B1B"
     id="rect116"
     style="fill:#003d4c;fill-opacity:1" /><rect
     x="-552.18024"
     y="272.84344"
     width="5.7654901"
     height="16.399599"
     rx="2.88274"
     transform="rotate(-135)"
     fill="#1B1B1B"
     id="rect117"
     style="fill:#003d4c;fill-opacity:1" /><path
     style="font-weight:bold;font-size:44.8441px;font-family:'Comic Neue';-inkscape-font-specification:'Comic Neue Bold';fill:#ff0000;stroke-width:13.2343;stroke-linecap:round;stroke-linejoin:round;paint-order:markers stroke fill"
     d="m 267.05767,767.59756 q -0.89688,0 -1.56954,-0.62782 -0.67266,-0.62781 -0.67266,-1.56954 v -25.60598 q 0,-1.25564 0.31391,-1.79377 0.31391,-0.58297 1.16594,-0.76235 0.89689,-0.22422 2.87003,-0.22422 8.341,0 12.46666,2.46643 4.1705,2.46642 4.1705,7.13021 0,3.76691 -2.6458,6.18849 -2.64581,2.42158 -6.41271,3.54268 -3.76691,1.1211 -7.48897,1.25564 v 7.80287 q 0,0.94173 -0.62781,1.56954 -0.62782,0.62782 -1.56955,0.62782 z m 2.19736,-14.39496 q 4.39473,-0.26906 8.25132,-1.74892 3.85659,-1.5247 3.85659,-4.84316 0,-2.46642 -3.00455,-3.81175 -2.95971,-1.34532 -8.47554,-1.34532 h -0.62782 z m 22.33234,14.39496 q -0.85203,0 -1.5247,-0.62782 -0.67266,-0.62781 -0.67266,-1.43501 v -18.16186 q 0,-0.89688 0.62782,-1.5247 0.67266,-0.62782 1.56954,-0.62782 0.89689,0 1.5247,0.62782 0.67266,0.62782 0.67266,1.5247 v 1.34532 q 2.19737,-3.58752 6.00911,-3.58752 2.28705,0 3.27362,1.25563 1.03142,1.25564 1.03142,3.00456 v 1.34532 q 0,0.89688 -0.62782,1.5247 -0.58297,0.58297 -1.47985,0.58297 -1.07626,0 -1.61439,-0.62782 -0.49329,-0.62781 -0.49329,-1.5247 v -0.58297 q 0,-0.7175 -0.98657,-0.7175 -0.80719,0 -1.88345,0.80719 -1.03141,0.80719 -1.70408,1.70408 -0.94172,1.16594 -1.25563,2.33189 -0.26907,1.16595 -0.26907,2.78033 l -0.0448,8.52038 q 0,0.8072 -0.67266,1.43501 -0.67266,0.62782 -1.47986,0.62782 z m 24.21579,0 q -3.18394,0 -5.74005,-1.34532 -2.51127,-1.39017 -3.94628,-3.90144 -1.43501,-2.55611 -1.43501,-6.00911 0,-2.82518 1.25563,-5.38129 1.30048,-2.60096 3.58753,-4.1705 2.33189,-1.56955 5.2916,-1.56955 2.73549,0 4.66379,1.12111 1.97314,1.07626 2.95971,2.60095 0.98657,1.5247 0.98657,2.73549 0,0.58298 -0.35875,1.12111 -0.35875,0.53813 -1.03141,0.94172 l -12.01822,6.90599 q 0.62781,1.39017 2.19736,2.15252 1.61438,0.76235 3.58753,0.76235 2.60095,0 4.43956,-1.92829 0.71751,-0.71751 1.47986,-0.71751 0.89688,0 1.47985,0.58297 0.62782,0.58298 0.62782,1.43501 0,0.71751 -0.53813,1.34533 -1.25563,1.39016 -3.36331,2.37673 -2.06283,0.94173 -4.12565,0.94173 z m 3.18393,-16.45778 q -0.53813,-0.94173 -1.5247,-1.39017 -0.98657,-0.49329 -2.3319,-0.49329 -2.55611,0 -4.30503,1.74892 -1.70408,1.74892 -1.97314,4.30504 -0.0897,0.67266 -0.0897,1.61438 z m 15.60571,16.45778 q -2.60096,0 -4.52926,-1.1211 -1.88345,-1.16595 -2.91486,-2.6458 -0.98657,-1.5247 -0.98657,-2.46643 0,-0.89688 0.62781,-1.47985 0.62782,-0.62782 1.47986,-0.62782 0.76235,0 1.25563,0.40359 0.53813,0.4036 0.76235,1.07626 0.49329,1.39017 1.61439,2.19736 1.1211,0.8072 2.78034,0.8072 1.74892,0 2.73549,-0.85204 0.98657,-0.85204 0.98657,-1.9283 0,-1.03141 -0.85204,-1.61438 -0.8072,-0.62782 -3.31847,-1.39017 -3.67721,-1.1211 -5.2916,-2.6458 -1.61439,-1.56955 -1.61439,-4.08082 0,-2.6458 2.10768,-4.30503 2.10767,-1.70408 5.87457,-1.70408 3.49784,0 5.42614,1.5247 1.97314,1.5247 1.97314,4.08082 0,1.39016 -0.58297,2.15251 -0.58298,0.71751 -1.65924,0.71751 -0.94172,0 -1.5247,-0.58297 -0.58297,-0.58298 -0.58297,-1.25564 0,-0.22422 0.0897,-0.53813 0.13453,-0.35875 0.13453,-0.53813 0,-0.80719 -0.80719,-1.30048 -0.76235,-0.49328 -2.37674,-0.49328 -2.01798,0 -3.00455,0.58297 -0.94173,0.58298 -0.94173,1.56955 0,1.03141 0.98657,1.70407 0.98657,0.62782 3.54268,1.43501 3.72206,1.16595 5.15708,2.55612 1.47985,1.39016 1.47985,3.90143 0,1.70408 -1.03141,3.31847 -0.98657,1.56954 -2.82518,2.55611 -1.79377,0.98657 -4.1705,0.98657 z m 19.05871,0 q -2.60096,0 -4.52926,-1.1211 -1.88345,-1.16595 -2.91487,-2.6458 -0.98657,-1.5247 -0.98657,-2.46643 0,-0.89688 0.62782,-1.47985 0.62782,-0.62782 1.47986,-0.62782 0.76235,0 1.25563,0.40359 0.53813,0.4036 0.76235,1.07626 0.49329,1.39017 1.61439,2.19736 1.1211,0.8072 2.78033,0.8072 1.74892,0 2.73549,-0.85204 0.98657,-0.85204 0.98657,-1.9283 0,-1.03141 -0.85203,-1.61438 -0.8072,-0.62782 -3.31847,-1.39017 -3.67721,-1.1211 -5.2916,-2.6458 -1.61439,-1.56955 -1.61439,-4.08082 0,-2.6458 2.10767,-4.30503 2.10768,-1.70408 5.87458,-1.70408 3.49784,0 5.42614,1.5247 1.97314,1.5247 1.97314,4.08082 0,1.39016 -0.58298,2.15251 -0.58297,0.71751 -1.65923,0.71751 -0.94172,0 -1.5247,-0.58297 -0.58297,-0.58298 -0.58297,-1.25564 0,-0.22422 0.0897,-0.53813 0.13453,-0.35875 0.13453,-0.53813 0,-0.80719 -0.80719,-1.30048 -0.76235,-0.49328 -2.37674,-0.49328 -2.01799,0 -3.00456,0.58297 -0.94172,0.58298 -0.94172,1.56955 0,1.03141 0.98657,1.70407 0.98657,0.62782 3.54268,1.43501 3.72206,1.16595 5.15707,2.55612 1.47986,1.39016 1.47986,3.90143 0,1.70408 -1.03141,3.31847 -0.98658,1.56954 -2.82518,2.55611 -1.79377,0.98657 -4.1705,0.98657 z m 44.21628,0 q -0.44844,0 -0.89688,-0.17938 -0.4036,-0.17937 -0.67266,-0.49328 l -6.36786,-7.80287 -7.35444,7.80287 q -0.58297,0.62782 -1.56954,0.62782 -0.85204,0 -1.47985,-0.62782 -0.62782,-0.67266 -0.62782,-1.5247 0,-0.94173 0.62782,-1.56954 l 7.62349,-7.84772 -6.00911,-7.17506 q -0.26906,-0.31391 -0.44844,-0.7175 -0.13453,-0.4036 -0.13453,-0.71751 0,-0.89688 0.62782,-1.5247 0.62781,-0.67266 1.47985,-0.67266 0.98657,0 1.61439,0.71751 l 5.91942,7.26474 6.90599,-7.2199 q 0.67266,-0.67266 1.56955,-0.67266 0.85203,0 1.47985,0.67266 0.67266,0.62782 0.67266,1.47986 0,0.40359 -0.17937,0.80719 -0.17938,0.4036 -0.44844,0.67266 l -7.17506,7.35443 6.54724,7.84772 q 0.44844,0.58297 0.44844,1.34532 0,0.89689 -0.62782,1.5247 -0.62782,0.62782 -1.5247,0.62782 z m 26.18898,0.0448 q -0.85204,0 -1.5247,-0.62781 -0.62782,-0.62782 -0.62782,-1.47986 v -16.00934 h -3.54268 q -0.89688,0 -1.5247,-0.62782 -0.62782,-0.67266 -0.62782,-1.5247 0,-0.98657 0.67267,-1.56954 0.67266,-0.62782 1.56954,-0.62782 h 3.45299 v -4.79832 q 0,-0.85204 0.62782,-1.5247 0.62782,-0.67266 1.5247,-0.67266 0.94173,0 1.5247,0.67266 0.62782,0.62782 0.62782,1.5247 v 4.79832 h 3.81175 q 0.89688,0 1.5247,0.62782 0.62781,0.62781 0.62781,1.56954 0,0.85204 -0.62781,1.5247 -0.62782,0.62782 -1.5247,0.62782 h -3.81175 v 16.00934 q 0,0.85204 -0.62782,1.47986 -0.62782,0.62781 -1.5247,0.62781 z m 17.53401,-0.0448 q -2.55612,0 -4.70863,-1.39017 -2.10768,-1.39016 -3.31847,-3.7669 -1.21079,-2.42158 -1.21079,-5.24676 0,-3.18393 1.43501,-5.91942 1.43501,-2.78034 3.8566,-4.39472 2.42158,-1.65924 5.20191,-1.65924 2.55612,0 4.66379,1.43502 2.15251,1.43501 3.36331,3.81174 1.25563,2.37674 1.25563,5.11223 0,3.22878 -1.43501,6.00911 -1.43501,2.73549 -3.90144,4.39472 -2.42158,1.61439 -5.20191,1.61439 z m 0,-4.03597 q 1.56954,0 3.00455,-1.07626 1.43501,-1.07626 2.28705,-2.87002 0.85204,-1.79376 0.85204,-3.81175 0,-1.70407 -0.67266,-3.18393 -0.67266,-1.5247 -1.83861,-2.42158 -1.16595,-0.94173 -2.55611,-0.94173 -1.56955,0 -2.95972,1.12111 -1.34532,1.07625 -2.15251,2.91486 -0.8072,1.79377 -0.8072,3.85659 0,2.01799 0.67267,3.453 0.7175,1.43501 1.79376,2.19736 1.1211,0.76235 2.37674,0.76235 z m 39.68707,4.03597 q -2.69065,0 -4.93285,-1.30048 -2.24221,-1.30048 -3.54269,-3.54268 -1.30048,-2.28705 -1.30048,-4.9777 0,-3.0494 1.43501,-5.96426 1.43502,-2.91487 3.76691,-4.75348 2.33189,-1.83861 4.93285,-1.83861 2.37674,0 3.81175,0.76235 1.47985,0.71751 2.87002,2.3319 0.67266,0.7175 0.67266,1.56954 0,0.85204 -0.62782,1.47986 -0.62781,0.58297 -1.52469,0.58297 -0.58298,0 -0.94173,-0.17938 -0.31391,-0.17937 -0.76235,-0.7175 -0.76235,-0.85204 -1.5247,-1.30048 -0.71751,-0.44844 -1.9283,-0.44844 -1.39016,0 -2.82517,1.21079 -1.39017,1.21079 -2.28705,3.18393 -0.85204,1.9283 -0.85204,3.99112 0,1.79377 0.76235,3.13909 0.80719,1.30048 2.06283,2.01799 1.25563,0.67266 2.6458,0.67266 1.79376,0 2.91487,-0.67266 1.16594,-0.67267 2.06282,-1.83861 0.85204,-1.1211 1.9283,-1.1211 0.85204,0 1.47986,0.62781 0.62781,0.58298 0.62781,1.34533 0,0.89688 -0.49328,1.5247 -1.30048,1.74891 -3.54269,3.00455 -2.2422,1.21079 -4.888,1.21079 z m 14.88822,0 q -0.85204,0 -1.5247,-0.58297 -0.62782,-0.62782 -0.62782,-1.43501 V 739.57 q 0,-0.89688 0.58297,-1.47986 0.62782,-0.62782 1.56955,-0.62782 0.85203,0 1.47985,0.62782 0.67266,0.62782 0.67266,1.47986 v 26.00958 q 0,0.80719 -0.67266,1.43501 -0.67266,0.58297 -1.47985,0.58297 z m 16.23356,0 q -2.55611,0 -4.70863,-1.39017 -2.10767,-1.39016 -3.31846,-3.7669 -1.21079,-2.42158 -1.21079,-5.24676 0,-3.18393 1.43501,-5.91942 1.43501,-2.78034 3.85659,-4.39472 2.42158,-1.65924 5.20191,-1.65924 2.55612,0 4.66379,1.43502 2.15252,1.43501 3.36331,3.81174 1.25563,2.37674 1.25563,5.11223 0,3.22878 -1.43501,6.00911 -1.43501,2.73549 -3.90143,4.39472 -2.42159,1.61439 -5.20192,1.61439 z m 0,-4.03597 q 1.56954,0 3.00455,-1.07626 1.43502,-1.07626 2.28705,-2.87002 0.85204,-1.79376 0.85204,-3.81175 0,-1.70407 -0.67266,-3.18393 -0.67266,-1.5247 -1.83861,-2.42158 -1.16594,-0.94173 -2.55611,-0.94173 -1.56955,0 -2.95971,1.12111 -1.34533,1.07625 -2.15252,2.91486 -0.80719,1.79377 -0.80719,3.85659 0,2.01799 0.67266,3.453 0.7175,1.43501 1.79376,2.19736 1.12111,0.76235 2.37674,0.76235 z m 21.83908,4.03597 q -2.60096,0 -4.52925,-1.1211 -1.88346,-1.16595 -2.91487,-2.6458 -0.98657,-1.5247 -0.98657,-2.46643 0,-0.89688 0.62782,-1.47985 0.62781,-0.62782 1.47985,-0.62782 0.76235,0 1.25564,0.40359 0.53813,0.4036 0.76235,1.07626 0.49328,1.39017 1.61438,2.19736 1.12111,0.8072 2.78034,0.8072 1.74892,0 2.73549,-0.85204 0.98657,-0.85204 0.98657,-1.9283 0,-1.03141 -0.85204,-1.61438 -0.80719,-0.62782 -3.31846,-1.39017 -3.67722,-1.1211 -5.29161,-2.6458 -1.61439,-1.56955 -1.61439,-4.08082 0,-2.6458 2.10768,-4.30503 2.10767,-1.70408 5.87457,-1.70408 3.49784,0 5.42614,1.5247 1.97314,1.5247 1.97314,4.08082 0,1.39016 -0.58297,2.15251 -0.58298,0.71751 -1.65923,0.71751 -0.94173,0 -1.5247,-0.58297 -0.58298,-0.58298 -0.58298,-1.25564 0,-0.22422 0.0897,-0.53813 0.13453,-0.35875 0.13453,-0.53813 0,-0.80719 -0.80719,-1.30048 -0.76235,-0.49328 -2.37674,-0.49328 -2.01798,0 -3.00455,0.58297 -0.94173,0.58298 -0.94173,1.56955 0,1.03141 0.98657,1.70407 0.98657,0.62782 3.54269,1.43501 3.72206,1.16595 5.15707,2.55612 1.47985,1.39016 1.47985,3.90143 0,1.70408 -1.03141,3.31847 -0.98657,1.56954 -2.82518,2.55611 -1.79376,0.98657 -4.1705,0.98657 z m 22.28749,0 q -3.18393,0 -5.74004,-1.34532 -2.51127,-1.39017 -3.94629,-3.90144 -1.43501,-2.55611 -1.43501,-6.00911 0,-2.82518 1.25564,-5.38129 1.30048,-2.60096 3.58753,-4.1705 2.33189,-1.56955 5.2916,-1.56955 2.73549,0 4.66379,1.12111 1.97314,1.07626 2.95971,2.60095 0.98657,1.5247 0.98657,2.73549 0,0.58298 -0.35876,1.12111 -0.35875,0.53813 -1.03141,0.94172 l -12.01822,6.90599 q 0.62782,1.39017 2.19736,2.15252 1.61439,0.76235 3.58753,0.76235 2.60096,0 4.43957,-1.92829 0.7175,-0.71751 1.47985,-0.71751 0.89688,0 1.47986,0.58297 0.62781,0.58298 0.62781,1.43501 0,0.71751 -0.53812,1.34533 -1.25564,1.39016 -3.36331,2.37673 -2.06283,0.94173 -4.12566,0.94173 z m 3.18393,-16.45778 q -0.53813,-0.94173 -1.5247,-1.39017 -0.98657,-0.49329 -2.33189,-0.49329 -2.55611,0 -4.30503,1.74892 -1.70408,1.74892 -1.97315,4.30504 -0.0897,0.67266 -0.0897,1.61438 z"
     id="text2"
     aria-label="Press x to close" /></svg>
